<?xml version="1.0" encoding="UTF-8" standalone="no"?>
<!-- Created with Inkscape (http://www.inkscape.org/) -->

<svg
   xmlns:dc="http://purl.org/dc/elements/1.1/"
   xmlns:cc="http://creativecommons.org/ns#"
   xmlns:rdf="http://www.w3.org/1999/02/22-rdf-syntax-ns#"
   xmlns:svg="http://www.w3.org/2000/svg"
   xmlns="http://www.w3.org/2000/svg"
   xmlns:sodipodi="http://sodipodi.sourceforge.net/DTD/sodipodi-0.dtd"
   xmlns:inkscape="http://www.inkscape.org/namespaces/inkscape"
   id="svg2"
   sodipodi:version="0.32"
   inkscape:version="0.48.3.1 r9886"
   width="379.06976"
   height="311.24908"
   sodipodi:docname="belgium.svg"
   version="1.0"
   inkscape:output_extension="org.inkscape.output.svg.inkscape">
  <metadata
     id="metadata7">
    <rdf:RDF>
      <cc:Work
         rdf:about="">
        <dc:format>image/svg+xml</dc:format>
        <dc:type
           rdf:resource="http://purl.org/dc/dcmitype/StillImage" />
      </cc:Work>
    </rdf:RDF>
  </metadata>
  <defs
     id="defs5">
    <inkscape:perspective
       sodipodi:type="inkscape:persp3d"
       inkscape:vp_x="0 : 177.16536 : 1"
       inkscape:vp_y="0 : 1000 : 0"
       inkscape:vp_z="425.19684 : 177.16536 : 1"
       inkscape:persp3d-origin="212.59842 : 118.11024 : 1"
       id="perspective58" />
  </defs>
  <sodipodi:namedview
     inkscape:window-height="712"
     inkscape:window-width="674"
     inkscape:pageshadow="2"
     inkscape:pageopacity="0.0"
     borderopacity="1.0"
     bordercolor="#666666"
     pagecolor="#ffffff"
     id="base"
     inkscape:zoom="1.4308666"
     inkscape:cx="189.4952"
     inkscape:cy="154.90198"
     inkscape:window-x="638"
     inkscape:window-y="0"
     inkscape:current-layer="svg2"
     showgrid="false"
     inkscape:window-maximized="0"
     fit-margin-top="0"
     fit-margin-left="0"
     fit-margin-right="0"
     fit-margin-bottom="0" />
  <path
     style="fill:#e9cb00;fill-opacity:1;fill-rule:evenodd;stroke:#000000;stroke-width:2;stroke-linecap:butt;stroke-linejoin:miter;stroke-miterlimit:4;stroke-opacity:1;stroke-dasharray:none;stroke-dashoffset:0"
     d="m 249.15254,72.0433 c -1.84853,3.490354 -6.76934,6.254672 -9.64655,1.665595 -0.96011,-0.01181 -1.86646,-0.2579 -2.74129,-0.659295 -0.009,-0.0044 -0.0252,0.0044 -0.0347,0 -0.21382,0.216663 -0.43272,0.43261 -0.6593,0.624597 -5.26803,-1.768713 -11.14075,5.971717 -15.16384,1.943185 -2.71398,-6.289577 -7.04586,3.551873 -11.45094,1.145101 -4.60684,-3.014911 -7.5252,1.970306 -10.89576,3.712881 -1.52988,-5.183639 -7.68655,-1.17549 -11.65915,-0.97159 -4.19602,-1.299293 -8.70198,-0.857304 -12.28373,-4.233388 -2.8425,-2.646887 -6.40612,-2.111376 -9.95886,-1.561491 0.62941,0.716926 0.63694,1.803596 -0.4164,3.539384 0.18485,1.406431 -0.10011,2.304005 -0.6246,2.845385 -0.009,0.009 -0.026,0.0263 -0.0347,0.0347 -1.60444,1.48861 -5.43578,0.26709 -7.04407,1.38799 -0.0226,0.0164 -0.077,0.0499 -0.10409,0.0694 -0.009,0.009 -0.0288,0.0295 -0.0347,0.0347 -0.018,0.0177 -0.056,0.0558 -0.0694,0.0694 -0.0393,0.0419 -0.096,0.11894 -0.1388,0.17349 -0.006,0.009 -0.0291,0.0266 -0.0347,0.0347 -0.39188,0.59508 -0.46732,1.57609 0,3.12298 1.20109,1.19451 1.57347,2.22642 1.38799,3.05359 -0.0237,0.0973 -0.0657,0.22067 -0.1041,0.3123 -0.75137,1.70864 -4.01214,2.43188 -6.55827,1.735 -1.13496,3.76763 -0.39763,8.45032 -3.88639,10.895736 3.01159,3.77899 0.43646,8.6393 -2.53308,11.65915 -2.95957,0.97233 -4.87427,4.97453 -6.87057,0.6593 -0.88276,-0.245 -1.48689,-0.15282 -1.87379,0.1388 -0.006,0.006 -0.0287,0.0285 -0.0347,0.0347 -0.0404,0.0368 -0.10381,0.1003 -0.1388,0.1388 -0.0123,0.012 -0.0573,0.0573 -0.0694,0.0694 -0.006,0.008 -0.0286,0.026 -0.0347,0.0347 -0.0119,0.018 -0.0247,0.053 -0.0347,0.0694 -0.89177,1.53925 0.34393,5.38855 -0.97159,6.55828 -0.006,0.006 -0.0287,0.0286 -0.0347,0.0347 -0.0245,0.0186 -0.078,0.0523 -0.10411,0.0694 -0.0367,0.0204 -0.10502,0.0527 -0.1388,0.0694 -0.52184,0.24251 -1.33078,0.22606 -2.53308,-0.24291 -0.73687,0.0881 -1.49262,0.17867 -2.2208,0.3123 2.20594,2.79678 3.82932,6.69449 7.73808,6.10718 4.3512,0.99377 8.51039,-2.16541 12.76953,-0.4858 2.2568,-3.15003 6.21811,-1.45532 8.64026,-3.33119 3.84787,1.49331 8.43641,4.41978 12.31845,2.4984 0.99024,-5.00782 5.09172,-2.57243 8.32796,-4.33749 3.25629,-0.68441 7.5161,-4.93723 10.09766,-3.19238 0.28851,0.89632 0.66875,1.43281 1.11039,1.70029 2.19209,1.25967 5.94359,-3.69738 8.36266,-1.56149 6.97491,4.30589 5.40997,-2.91115 7.80747,-5.51728 0.0289,-0.0306 0.074,-0.0749 0.1041,-0.1041 0.20964,-0.19745 0.45525,-0.36279 0.7287,-0.48579 5.79365,-2.37654 13.10098,-1.17716 16.93352,4.02518 5.19562,-2.79174 5.01077,0.0217 7.63397,1.73499 2.68178,1.40912 5.06325,-2.48457 7.25226,-2.53309 0.62965,-0.003 1.27146,0.32221 1.87379,1.1798 2.65937,2.12222 2.30646,7.62489 5.69078,7.77276 0.94149,-0.29078 1.81744,-0.24016 2.63718,-0.0347 1.03103,-2.47174 -0.34973,-5.95667 0.65931,-9.19546 -0.44351,-0.76336 -0.51546,-1.37625 -0.3817,-1.87379 0.0179,-0.0616 0.0451,-0.14972 0.0694,-0.20819 0.58284,-1.33331 2.78019,-1.89534 3.26179,-2.91479 0.007,-0.0149 0.0288,-0.0543 0.0347,-0.0694 0.005,-0.0152 0.03,-0.054 0.0347,-0.0694 0.004,-0.0155 -0.004,-0.0536 0,-0.0694 0.003,-0.0159 0.0324,-0.0532 0.0347,-0.0694 0.002,-0.0163 -0.001,-0.0529 0,-0.0694 8.6e-4,-0.025 10e-4,-0.0785 0,-0.10409 -0.002,-0.0258 -0.0307,-0.0777 -0.0347,-0.1041 -0.014,-0.0801 -0.0349,-0.19115 -0.0694,-0.27761 -0.11475,-0.27132 -0.34271,-0.58867 -0.694,-0.93689 -1.20298,-4.57314 0.86498,-10.629606 5.06618,-12.700136 0.25129,-6.70934 -8.20007,-0.71111 -11.41625,-3.81698 -5.67841,-2.45743 -0.008,-7.16651 1.56149,-9.71596 0.50767,-2.46428 5.37645,-6.722876 4.26809,-8.744359 -0.32889,-0.562559 -1.15702,-0.956554 -2.6719,-1.075695 z"
     id="BE-VBR"
     inkscape:label="#path2206"
     inkscape:connector-curvature="0" />
  <path
     style="fill:#fbb800;fill-opacity:1;fill-rule:evenodd;stroke:#000000;stroke-width:2;stroke-linecap:butt;stroke-linejoin:miter;stroke-miterlimit:4;stroke-opacity:1;stroke-dasharray:none;stroke-dashoffset:0"
     d="m 169.24645,102.34956 c 0,-1.74203 0,-3.484066 0,-5.226086 1.41534,-0.81579 2.70522,-1.81409 3.91152,-2.91072 0.8683,-0.40597 2.05856,-0.26255 2.99948,-0.0925 0.75627,0.2442 1.81397,1.28209 1.97334,-0.0453 0.52651,-1.55246 2.78882,-0.77905 4.10466,-1.27386 0.5801,0.34969 0.13936,1.89033 0.31575,2.71103 0.0363,1.52427 0.0726,3.04855 0.10887,4.572826 0.83827,0.19979 1.94055,-0.169676 2.51506,0.59881 0.62066,0.88567 2.15282,1.43414 1.77469,2.68927 0.0976,1.024 -0.26117,1.82777 -1.17527,2.33597 -0.70738,0.66824 -1.20999,1.60629 -0.90862,2.58149 0.37332,1.03496 2.46565,0.66607 2.08389,2.18132 0.23928,0.97697 -1.33647,1.39078 -2.06509,1.64009 -1.45716,-0.12816 -1.88158,2.19215 -3.55548,1.67178 -1.01206,-0.29706 -0.66328,0.64668 -1.06324,1.09675 -1.1361,-0.0584 -2.27155,-0.20502 -3.31744,-0.67974 -1.14589,-0.35521 -2.35394,0.11123 -3.52864,0.13301 -0.76461,-0.15736 -0.59063,-1.7578 -0.84751,-2.5319 -0.0618,-0.82401 0.61807,-2.24981 0.071,-2.68006 -0.76411,-0.19362 -2.07816,0.26363 -2.06061,-0.89609 -1.04021,-0.87309 -2.80765,-0.70082 -4.12361,-1.17258 -0.78412,-0.90735 -1.3298,-1.80128 -0.26315,-2.6937 0.53164,-0.96353 1.70473,-1.18315 2.57122,-1.75422 0.15974,-0.0852 0.31946,-0.17037 0.4792,-0.25556 z"
     id="path1325"
     inkscape:connector-curvature="0" />
  <path
     style="fill:#e9cb00;fill-opacity:1;fill-rule:evenodd;stroke:#000000;stroke-width:2;stroke-linecap:butt;stroke-linejoin:miter;stroke-miterlimit:4;stroke-opacity:1;stroke-dasharray:none;stroke-dashoffset:0"
     d="M 78.706924,20.840278 C 51.085971,28.291583 28.556433,47.57541 4.2063591,61.78609 c -9.231768,13.529886 4.79463,26.672644 1.006296,42.2991 8.8444839,-0.66884 13.1144309,10.29367 20.8546059,16.10072 l 0.763397,-0.79809 c -0.02722,-1.53007 0.305169,-2.42563 0.832796,-2.91479 0.0086,-0.008 0.02597,-0.0272 0.0347,-0.0347 1.554541,-1.28525 4.814584,0.37615 7.009368,-1.4921 1.182304,-0.15056 1.957371,-0.47415 2.428988,-0.86748 0.02858,-0.027 0.08164,-0.0827 0.1041,-0.10411 0.0167,-0.0164 0.05354,-0.0527 0.0694,-0.0694 0.04056,-0.0442 0.09642,-0.12004 0.1388,-0.1735 0.0064,-0.008 0.02914,-0.0269 0.0347,-0.0347 0.80457,-1.16305 0.0639,-2.85861 0.451098,-3.99048 0.04121,-0.1132 0.105899,-0.24625 0.173499,-0.347 0.02556,-0.0362 0.0745,-0.10448 0.1041,-0.1388 0.0077,-0.008 0.02677,-0.0264 0.0347,-0.0347 0.0077,-0.008 0.02675,-0.0271 0.0347,-0.0347 0.24653,-0.2258 0.627218,-0.41204 1.145095,-0.52051 3.478178,-1.31479 4.774187,5.60817 9.056659,3.01889 2.860411,0.83832 4.673663,-2.3452 6.419471,-2.39429 0.03617,-3e-4 0.09453,-7.3e-4 0.138799,0 0.0068,3.2e-4 0.02868,-5.6e-4 0.0347,0 0.006,7e-4 0.02789,-10e-4 0.0347,0 0.04428,0.008 0.102667,0.0265 0.138799,0.0347 0.006,0.001 0.02789,-0.002 0.0347,0 0.0074,0.003 0.02698,0.0315 0.0347,0.0347 0.01567,0.007 0.05464,0.0283 0.0694,0.0347 0.0068,0.003 0.02867,-0.002 0.0347,0 0.04826,0.0189 0.125131,0.0445 0.173499,0.0694 0.0484,0.0262 0.124943,0.0716 0.1735,0.1041 0.0486,0.0339 0.124697,0.0982 0.173499,0.1388 0.371317,0.31938 0.75026,0.84298 1.145095,1.6309 2.63711,2.56763 3.674309,6.30703 7.668668,4.30277 5.590351,-0.25396 8.480504,5.2197 12.491943,8.18917 0.13699,-0.004 0.27939,0.003 0.4164,0 4.81417,-2.11389 7.00472,-10.05888 13.18593,-8.05037 0.28471,-0.068 0.54092,-0.11937 0.79809,-0.1388 0.0298,-1.24634 0.15147,-2.42414 0.55521,-3.40059 2.58688,-3.75872 1.66795,-6.56645 -1.3186,-9.78535 -3.52338,-1.65956 -0.45391,-6.729256 -1.388,-8.779056 -0.0189,-0.0392 -0.0473,-0.10189 -0.0694,-0.1388 -0.0229,-0.0363 -0.0779,-0.10494 -0.1041,-0.1388 -0.0812,-0.0997 -0.19779,-0.20183 -0.3123,-0.2776 -0.2545,-0.15958 -0.59733,-0.28479 -1.041,-0.3123 -1.18769,0.34758 -1.90922,0.34472 -2.29018,0.10411 -0.0156,-0.0107 -0.0549,-0.0232 -0.0694,-0.0347 -0.0278,-0.0239 -0.0807,-0.0769 -0.1041,-0.1041 -0.0112,-0.014 -0.0245,-0.0546 -0.0347,-0.0694 -0.0867,-0.13657 -0.16071,-0.32727 -0.17349,-0.5205 -0.0909,-1.93846 2.95069,-6.35488 0.4164,-7.39107 0.76201,-3.93224 2.80244,-7.443203 -0.0694,-11.346839 1.4804,-3.636595 -3.46264,-7.090987 -6.73176,-8.362659 -0.93035,-0.103461 -1.5138,-0.313926 -1.83909,-0.589899 -0.0305,-0.02727 -0.0785,-0.07548 -0.1041,-0.104103 -0.0671,-0.07959 -0.141071,-0.188639 -0.173499,-0.277591 -0.0053,-0.01631 0.0043,-0.05279 0,-0.0694 -0.0056,-0.02511 -0.03143,-0.07836 -0.0347,-0.104103 -0.0025,-0.02593 2.17e-4,-0.07757 0,-0.104092 6.94e-4,-0.03562 -0.0046,-0.102176 0,-0.138801 0.0055,-0.03685 0.02551,-0.101014 0.0347,-0.1388 0.443879,-1.672322 4.344699,-4.204444 5.447869,-5.447875 3.75402,-5.075905 -3.74488,-9.568518 -0.83279,-14.782134 1.14698,-0.357869 1.80691,-0.864276 2.01259,-1.492093 0.24841,-0.827832 -0.24587,-1.872924 -1.3533,-3.088285 0.43694,-0.556086 0.88168,-1.109507 1.3186,-1.665593 -1.81311,-5.279945 -1.26457,-13.676671 -4.68448,-16.204824 z"
     id="BE-VWV"
     inkscape:label="#path2222"
     inkscape:connector-curvature="0" />
  <path
     style="fill:#f4df00;fill-opacity:1;fill-rule:evenodd;stroke:#000000;stroke-width:2;stroke-linecap:butt;stroke-linejoin:miter;stroke-miterlimit:4;stroke-opacity:1;stroke-dasharray:none;stroke-dashoffset:0"
     d="m 163.40923,23.151227 c -1.9458,2.079515 -3.47799,4.997977 -4.40688,8.327962 -10.04847,8.189588 -22.87548,17.426053 -34.38754,13.984039 -2.06195,-7.000895 -29.712656,-24.020882 -30.605256,-5.760173 -6.62223,3.260273 -9.26877,1.049434 -10.61815,-2.880087 -0.43692,0.556085 -0.88166,1.109506 -1.3186,1.665592 1.10743,1.21535 1.60171,2.260454 1.3533,3.088286 -0.01,0.02942 -0.023,0.07521 -0.0347,0.104098 -0.0164,0.03829 -0.0494,0.101479 -0.0694,0.1388 -0.0418,0.07414 -0.11734,0.172723 -0.1735,0.242899 -0.33335,0.400608 -0.9106,0.749072 -1.73499,1.006295 -2.91209,5.213605 4.58681,9.706218 0.83279,14.782134 -1.10317,1.243431 -5.00399,3.775554 -5.447871,5.447875 -0.008,0.03306 -0.02705,0.101315 -0.0347,0.138801 -0.0021,0.03775 6.11e-4,0.107626 0,0.1388 1.03e-4,0.01326 3.42e-4,0.04993 0,0.0694 9.3e-5,0.0089 -6.22e-4,0.02822 0,0.0347 0.0062,0.02381 0.0272,0.08064 0.0347,0.104102 -4.35e-4,0.01201 1.66e-4,0.05746 0,0.06941 0.03509,0.08556 0.110621,0.202972 0.173501,0.27759 0.0256,0.02863 0.0736,0.07684 0.1041,0.104103 0.32529,0.275974 0.90874,0.486439 1.83909,0.589899 3.26912,1.271662 8.21216,4.726054 6.73176,8.36266 2.87185,3.903625 0.83142,7.414592 0.0694,11.346842 2.53429,1.03617 -0.50735,5.4526 -0.4164,7.39106 0.0104,0.157 0.0736,0.32512 0.1388,0.4511 0.0104,0.0187 0.0239,0.0523 0.0347,0.0694 0.006,0.0122 0.0287,0.0574 0.0347,0.0694 0.0234,0.0272 0.0763,0.0802 0.1041,0.1041 0.0119,0.006 0.0572,0.029 0.0694,0.0347 0.38096,0.2406 1.10249,0.24347 2.29018,-0.1041 0.44367,0.0275 0.7865,0.15272 1.041,0.3123 0.11451,0.0758 0.23108,0.17791 0.3123,0.2776 0.0229,0.0296 0.0779,0.10088 0.1041,0.1388 0.0205,0.0373 0.0529,0.10446 0.0694,0.1388 0.93409,2.04978 -2.13538,7.119486 1.388,8.779056 2.98655,3.2189 3.90548,6.02663 1.3186,9.78535 -0.40374,0.97644 -0.52537,2.15424 -0.55521,3.40058 3.85772,-0.29149 4.80325,4.58477 7.91158,5.27439 3.464056,-0.0683 6.888816,2.62683 8.223846,-2.46369 1.39349,-3.83287 4.76065,-6.51821 7.49517,-2.15139 2.71486,4.49547 8.3373,3.25952 12.73484,3.12298 0.48615,0.41573 0.92889,0.92031 1.3533,1.45739 0.003,0.004 0.0315,-0.004 0.0347,0 0.72818,-0.13363 1.48393,-0.22421 2.2208,-0.3123 1.45182,0.56631 2.31099,0.48851 2.81069,0.0694 1.31552,-1.16973 0.0798,-5.01903 0.97159,-6.55828 0.34082,-0.55764 1.00908,-0.81245 2.18609,-0.48579 1.9963,4.31523 3.911,0.31303 6.87057,-0.6593 2.96954,-3.01985 5.54467,-7.88016 2.53308,-11.65915 3.48876,-2.445416 2.75143,-7.128106 3.88639,-10.895736 2.54613,0.69688 5.8069,-0.0264 6.55827,-1.735 0.0384,-0.0916 0.0804,-0.21498 0.1041,-0.3123 0.18548,-0.82717 -0.1869,-1.85908 -1.38799,-3.05359 -2.4032,-7.954895 9.06661,-0.30455 8.08506,-7.772754 2.36539,-3.897925 -0.61323,-4.572931 -3.99048,-4.962076 -0.96234,-2.820426 -4.53654,-9.166526 0.58989,-11.034547 3.59646,-2.895588 9.27437,0.03867 13.15125,-3.712883 -0.7826,-5.315282 -1.59993,-11.170985 -3.57409,-16.378325 -0.71373,-0.866941 -0.91412,-1.566833 -0.7981,-2.15139 0.32308,-1.478202 2.57476,-2.303925 3.01889,-3.574084 0.0119,-0.03649 0.0258,-0.101502 0.0347,-0.138799 0.0101,-0.04688 0.0298,-0.125231 0.0347,-0.173499 0.004,-0.04856 0.002,-0.123433 0,-0.173499 -0.005,-0.09069 -0.01,-0.216185 -0.0347,-0.312302 -0.0978,-0.344032 -0.35414,-0.748579 -0.7634,-1.179794 -5.89773,0.289283 -3.36111,-6.933709 -7.49516,-9.681257 -0.33253,-0.210095 -0.67206,-0.417407 -1.0063,-0.624597 z"
     id="BE-VOV"
     inkscape:label="#path2234"
     inkscape:connector-curvature="0" />
  <path
     style="fill:#edf700;fill-opacity:1;fill-rule:evenodd;stroke:#000000;stroke-width:2;stroke-linecap:butt;stroke-linejoin:miter;stroke-miterlimit:4;stroke-opacity:1;stroke-dasharray:none;stroke-dashoffset:0"
     d="m 216.88169,1.0127269 c -0.0292,0.0081 -0.0761,0.02942 -0.1041,0.0347 -5.23258,0.524535 -10.83491,7.159095 -13.04713,11.1039511 -13.24645,3.513588 -7.33842,-13.8044171 -18.77262,-5.7254751 -14.7873,1.476798 3.21407,14.6382551 -6.00307,17.5928211 -6.00644,-5.866679 -11.63102,-5.050989 -15.54554,-0.867496 0.33424,0.20719 0.67377,0.414502 1.0063,0.624597 4.13405,2.747548 1.59743,9.97054 7.49516,9.681257 0.40926,0.431215 0.66558,0.835762 0.7634,1.179794 0.002,0.006 -0.001,0.02848 0,0.0347 0.0178,0.08965 0.0301,0.198251 0.0347,0.277602 0.001,0.03754 9.5e-4,0.09491 0,0.138799 -3.1e-4,0.0068 4.8e-4,0.02862 0,0.0347 -6.1e-4,0.006 0.001,0.02785 0,0.0347 -0.008,0.04459 -0.0271,0.103634 -0.0347,0.1388 -0.009,0.0373 -0.0228,0.102312 -0.0347,0.138799 -0.0104,0.02977 -0.0224,0.07481 -0.0347,0.1041 -0.47997,1.078304 -2.25893,1.876833 -2.8454,3.053586 -0.0611,0.128017 -0.1085,0.27782 -0.1388,0.416398 -0.11602,0.584557 0.0844,1.284449 0.7981,2.15139 1.97416,5.20734 2.79149,11.063043 3.57409,16.378325 -3.87688,3.751558 -9.55479,0.817295 -13.15125,3.712883 -5.12643,1.868021 -1.55223,8.214121 -0.58989,11.034547 1.87333,0.215855 3.62286,0.529676 4.40688,1.422692 3.55274,-0.549885 7.11636,-1.085396 9.95886,1.561491 3.58175,3.376084 8.08771,2.934095 12.28373,4.233386 3.9726,-0.2039 10.12927,-4.212047 11.65915,0.97159 3.37056,-1.742573 6.28892,-6.72779 10.89576,-3.712879 4.40508,2.406772 8.73696,-7.434678 11.45094,-1.145101 4.02309,4.02853 9.89581,-3.711898 15.16384,-1.943185 3.02119,-2.559833 4.7492,-7.572006 9.36895,-8.119756 3.99378,-0.115317 5.37133,-2.911104 5.86427,-6.350075 3.6225,-0.360156 8.01547,1.089486 8.46677,-3.088286 5.43127,3.040827 6.04043,-6.398029 1.56149,-8.223864 -5.18563,-2.415452 -3.05634,-10.559266 0.17351,-13.949338 0.008,-0.0095 0.0267,-0.02513 0.0347,-0.0347 -0.004,-0.0081 0.004,-0.0266 0,-0.0347 -0.59507,-1.255728 -0.89515,-2.999807 -0.8328,-5.378476 -7.27215,4.292792 -18.54539,-9.512769 -10.61814,-17.419322 -7.77561,-17.4321331 -12.40974,10.211654 -23.87349,2.671888 -3.69549,0.636051 -5.6865,0.74782 -6.48888,0.346999 -0.0284,-0.0173 -0.0833,-0.05603 -0.1041,-0.0694 -0.006,-0.0062 -0.0287,-0.02851 -0.0347,-0.0347 -0.003,-0.0035 -0.0317,-0.03162 -0.0347,-0.0347 -0.0369,-0.03186 -0.10412,-0.09917 -0.1388,-0.138799 -0.009,-0.01811 -0.0291,-0.05874 -0.0347,-0.0694 -0.005,-0.01086 -0.0257,-0.05116 -0.0347,-0.0694 -0.006,-0.01197 -0.0286,-0.05729 -0.0347,-0.0694 7e-5,-0.01192 -3.4e-4,-0.05734 0,-0.0694 -2.1e-4,-0.0039 3e-5,-0.03026 0,-0.0347 5.3e-4,-0.01954 5.1e-4,-0.05612 0,-0.0694 -3.7e-4,-0.03146 -0.002,-0.100387 0,-0.1388 0.008,-0.06763 0.0156,-0.16867 0.0347,-0.242899 0.36083,-1.3101 2.41975,-3.6537231 4.61508,-6.9746681 -1.91929,-3.873247 -4.38168,-5.22746799 -6.93997,-5.066177 -0.0126,2.6e-5 -0.0556,6.45e-4 -0.0694,0 -0.004,4e-5 -0.0306,-2.87e-4 -0.0347,0 -0.005,0.0013 -0.0289,-0.0016 -0.0347,0 z"
     id="BE-VAN"
     inkscape:label="#path2244"
     inkscape:connector-curvature="0" />
  <path
     style="fill:#fbb800;fill-opacity:1;fill-rule:evenodd;stroke:#000000;stroke-width:2;stroke-linecap:butt;stroke-linejoin:miter;stroke-miterlimit:4;stroke-opacity:1;stroke-dasharray:none;stroke-dashoffset:0"
     d="m 285.69149,31.860888 c -0.0763,0.0072 -0.16908,0.03026 -0.2429,0.0347 -8.03762,0.483725 -20.52774,8.992359 -23.9082,2.047291 -0.003,-8.2e-5 -0.0308,3.82e-4 -0.0347,0 -3.22985,3.390072 -5.35914,11.533886 -0.17351,13.949338 4.47894,1.825835 3.86978,11.264691 -1.56149,8.223864 -0.4513,4.177772 -4.84427,2.72813 -8.46677,3.088286 -0.49294,3.438971 -1.87049,6.234758 -5.86427,6.350075 -4.25883,0.504958 -6.05252,4.820995 -8.67496,7.495159 0.87483,0.401395 1.78118,0.64748 2.74129,0.659295 2.87721,4.589077 7.79802,1.824759 9.64655,-1.665595 1.51488,0.119141 2.34301,0.513136 2.6719,1.075695 1.10836,2.021483 -3.76042,6.280078 -4.26809,8.744358 -1.56997,2.54945 -7.2399,7.25853 -1.56149,9.71596 3.21618,3.10587 11.66754,-2.89236 11.41625,3.81698 -4.2012,2.07053 -6.26916,8.126996 -5.06618,12.700136 0.35129,0.34822 0.57925,0.66557 0.694,0.93689 0.0345,0.0865 0.0553,0.19755 0.0694,0.27761 0.004,0.0265 0.0328,0.0783 0.0347,0.1041 0.001,0.0256 8.6e-4,0.0791 0,0.10409 -0.001,0.0165 0.002,0.0531 0,0.0694 -0.002,0.0161 -0.0316,0.0535 -0.0347,0.0694 -0.004,0.0158 0.004,0.0539 0,0.0694 -0.005,0.0154 -0.0292,0.0542 -0.0347,0.0694 -0.006,0.0151 -0.0281,0.0545 -0.0347,0.0694 -0.4816,1.01945 -2.67895,1.58148 -3.26179,2.91479 -0.0243,0.0585 -0.0515,0.14655 -0.0694,0.20819 -0.13376,0.49754 -0.0618,1.11043 0.3817,1.87379 -1.00904,3.23879 0.37172,6.72372 -0.65931,9.19546 2.35987,0.59148 4.34872,2.47036 6.83588,1.2145 1.4874,-3.17087 5.57005,-5.60305 8.05036,-1.9432 2.76902,-2.67065 6.71432,-2.02208 9.57716,-4.37217 4.54791,-3.09705 5.06221,2.88112 8.05036,3.19237 3.56442,-2.28612 5.27788,-1.74521 7.87686,-3.15768 1.81198,-4.01461 6.23396,-2.90759 8.84847,-5.62138 2.0429,-0.56848 4.78409,-4.42274 6.45417,-4.44157 0.0122,1.5e-4 0.0514,-9e-5 0.0694,0 0.0117,1.2e-4 0.0543,5.3e-4 0.0694,0 0.004,1e-5 0.0309,-2e-4 0.0347,0 0.0121,-3e-4 0.0574,1e-4 0.0694,0 0.006,0.006 0.0287,0.0283 0.0347,0.0347 0.003,-2.8e-4 0.0315,-4e-5 0.0347,0 0.0125,0.006 0.0576,0.0287 0.0694,0.0347 0.003,-6e-5 0.0311,2e-4 0.0347,0 0.0107,0.006 0.0513,0.0255 0.0694,0.0347 0.006,0.006 0.0286,0.0284 0.0347,0.0347 0.006,0.006 0.0286,0.0285 0.0347,0.0347 0.003,0.004 0.0317,0.0316 0.0347,0.0347 0.0372,0.0324 0.0946,0.092 0.1388,0.1388 0.003,0.004 0.0277,0.0279 0.0347,0.0347 0.0574,0.0695 0.12793,0.16063 0.17349,0.2429 0.0325,0.0609 0.0742,0.13766 0.1041,0.20819 1.61852,3.19657 1.38341,6.39711 5.51727,7.77276 4.13758,-3.49659 5.29225,2.47197 9.02197,3.123 2.975,1.76719 8.01022,1.50011 6.87056,-3.01889 -0.13565,-0.6783 -0.28073,-1.36899 -0.41639,-2.04729 l 1.24919,-1.87379 c -6.56538,-1.64866 -12.83405,-3.6036 -17.07232,0.65929 -3.23014,-3.55785 -13.79704,-18.051296 -1.38799,-22.589596 2.19969,-13.149935 9.12264,-23.769591 11.52035,-38.829109 -9.17395,-5.468051 -30.64332,-1.993825 -30.43177,-18.807316 -1.18102,-1.721384 -2.96868,-2.338919 -5.13558,-2.29019 -0.0722,0.0016 -0.13194,-0.0072 -0.20819,0 z"
     id="BE-VLI"
     inkscape:label="#path1319"
     inkscape:connector-curvature="0" />
  <path
     style="fill:#f4df00;fill-opacity:1;fill-rule:evenodd;stroke:#000000;stroke-width:2;stroke-linecap:butt;stroke-linejoin:miter;stroke-miterlimit:4;stroke-opacity:1;stroke-dasharray:none;stroke-dashoffset:0"
     d="m 290.37596,171.38895 c -5.53905,0.33918 -10.49896,4.45961 -9.82006,10.99984 -0.0567,6.28287 -3.91018,13.6114 -10.65285,14.50454 -11.54548,0.0852 0.85086,8.52097 1.041,12.83895 -1.68396,9.08803 -10.14602,7.87039 -17.45402,8.36266 -8.15837,-1.80078 -8.83169,8.00899 -12.31844,13.01243 1.47405,5.84535 14.06757,5.5415 11.69385,12.56135 -3.40438,6.33566 -12.02462,7.88964 -11.86735,15.54553 -2.23679,2.19691 -3.42374,4.92826 -4.26808,7.84217 4.10092,0.22293 8.13214,0.80073 12.00614,4.78858 1.20149,15.19073 25.3054,4.09269 23.2489,18.46032 1.03624,2.80993 14.11109,0.84574 13.39414,11.52034 -4.4614,13.67305 10.41212,6.55378 14.36573,6.69707 7.01334,-7.80898 25.8795,-0.47657 28.52327,-12.17964 6.83249,-14.60417 -1.60191,-24.20261 -11.52035,-34.63045 5.99283,-9.76774 -5.51919,-17.13484 5.65608,-24.81039 5.40786,-9.44508 5.99652,-31.71649 18.84201,-30.53586 -0.0207,-0.30534 -0.0491,-0.63152 -0.0694,-0.93689 -0.89863,-7.15791 1.9957,-15.10854 -1.735,-21.618 -4.04312,-2.50207 -15.36073,-4.22901 -13.53293,3.64347 1.00195,2.19424 0.98042,3.47482 0.34699,4.16398 -1.65375,1.71132 -7.31815,-0.24683 -10.54875,0 -7.09191,1.08851 -6.29354,-8.93562 -4.37218,-13.15123 -0.0292,-0.0503 -0.07,-0.12477 -0.1041,-0.1735 -1.75143,-2.42084 -9.46452,-2.88178 -13.29004,-4.78858 -2.32339,-1.59463 -5.00078,-2.27369 -7.56457,-2.11669 z"
     id="BE-WLX"
     inkscape:label="#path2207"
     inkscape:connector-curvature="0" />
  <path
     style="fill:#edf700;fill-opacity:1;fill-rule:evenodd;stroke:#000000;stroke-width:2;stroke-linecap:butt;stroke-linejoin:miter;stroke-miterlimit:4;stroke-opacity:1;stroke-dasharray:none;stroke-dashoffset:0"
     d="m 40.988193,107.88823 -3.851683,1.2839 1.596194,3.22708 -2.25549,1.28389 -3.851682,2.2555 -4.51098,-0.6593 -1.283894,3.88638 0.0347,1.3533 c 0.214928,0.14649 0.438828,0.31324 0.659298,0.4511 2.481499,-0.14802 3.194661,3.33318 5.239676,4.23337 6.44129,-8.9036 23.081825,-22.32442 28.904972,-5.13557 12.447141,7.78667 1.224186,30.1255 17.45402,35.42854 8.50767,-3.60911 11.98329,-1.6729 18.66851,1.70029 14.833056,-4.0275 5.397106,41.16932 19.570706,23.3877 10.6991,2.72453 23.887,-1.88458 33.90175,4.92738 -0.59691,8.41027 7.92548,6.24349 10.13235,7.35636 0.0282,0.0173 0.0827,0.0563 0.10411,0.0694 0.0116,0.006 0.0571,0.0287 0.0694,0.0347 0.003,0.003 0.0313,0.0311 0.0347,0.0347 0.007,0.006 0.0281,0.0288 0.0347,0.0347 0.0234,0.0227 0.0782,0.0752 0.10409,0.10411 0.006,0.006 0.0284,0.0285 0.0347,0.0347 0.01,0.0228 0.0266,0.0804 0.0347,0.1041 0.006,0.0117 0.0288,0.0575 0.0347,0.0694 -1.3e-4,0.0121 3e-4,0.0572 0,0.0694 0.006,0.006 0.0283,0.0286 0.0347,0.0347 -2e-5,0.012 2e-4,0.0572 0,0.0694 0.0533,0.82023 -0.95696,2.31574 -3.71288,5.06617 -13.93983,11.13157 11.35357,19.26687 -0.1041,27.82928 -11.96275,12.98525 5.29057,17.35588 15.47613,15.23323 3.58472,2.22692 7.29299,2.68226 11.03455,2.11669 l -6.21127,-18.32151 1.97789,-7.39107 -2.46369,-7.39107 -2.46369,-3.95578 4.44158,-3.43529 0,-5.41317 -8.39736,-1.0063 -2.94949,-2.94949 9.36896,-5.89897 2.46369,-1.49209 7.87686,0 1.4921,-3.43528 4.92738,1.45738 6.38476,-0.48579 0.4858,-15.26793 -2.94949,-5.89897 1.00631,-2.46369 -2.46369,-2.46369 -1.2839,-6.31537 -0.2082,-0.1041 -4.92738,0.48579 -2.46369,-4.44158 -5.41317,-0.97159 -8.39737,-1.9779 -7.87686,-5.89897 -4.44158,-2.94948 0,-2.46369 -3.43529,-1.97789 -3.43528,2.94948 -3.46999,0 -0.48579,-6.41946 0.1735,-2.8107 -1.5268,1.1798 -3.22709,-0.65929 -6.10716,1.28389 -6.45417,-0.3123 -6.10718,-7.39107 -7.73806,0.3123 -3.53939,-1.6309 -2.60249,-3.19237 -3.19237,-1.3186 -5.48258,8.39736 -1.9432,-0.31229 -1.59619,-0.97161 -3.574076,0.3123 -3.53938,-4.82327 -2.8801,0 -1.63088,-0.6593 -3.22709,0 -2.56778,1.94319 -4.82328,5.13558 -2.25549,1.31859 -2.914791,-2.60249 -4.823275,-4.51098 -2.567792,-0.97159 -3.574082,-0.3123 -2.255494,0.97159 -2.567785,-3.53938 -4.198681,-4.19868 -2.567789,2.56779 -7.078767,0.6593 -3.886384,-3.85169 z"
     id="path2212"
     inkscape:connector-curvature="0" />
  <path
     style="fill:#e9cb00;fill-opacity:1;fill-rule:evenodd;stroke:#000000;stroke-width:2;stroke-linecap:butt;stroke-linejoin:miter;stroke-miterlimit:4;stroke-opacity:1;stroke-dasharray:none;stroke-dashoffset:0"
     d="m 235.02971,133.80902 -5.89898,2.46368 -5.44787,1.9779 -9.85475,4.92738 -0.4858,-3.95579 -5.89897,0.97159 -2.94949,1.4921 3.92108,4.92738 -1.97789,0.48579 -3.43528,-0.48579 -5.89897,0 -1.4921,3.95578 1.4921,7.39107 2.46369,2.46369 -1.00631,2.46369 2.94949,5.89897 -0.4858,15.26793 -6.38476,0.48579 -4.92738,-1.45738 -1.4921,3.43528 -7.87686,0 -2.46369,1.49209 -9.36896,5.89897 2.94949,2.94949 8.39736,1.0063 0,5.41317 -4.44158,3.43529 2.46369,3.95578 2.46369,7.39107 -1.97789,7.39107 6.21127,18.32151 c 9.42198,-1.42419 18.98721,-9.43211 26.82297,-12.73484 -3.37194,-8.57084 7.03063,-22.44315 14.85154,-19.05022 -5.12383,8.82297 -0.32687,19.46883 -7.63397,28.17627 15.88802,2.02064 6.4585,15.28815 8.18916,25.4697 3.34283,1.29592 6.65345,1.24489 9.92417,1.42269 0.84434,-2.91391 2.03129,-5.64526 4.26808,-7.84217 -0.15727,-7.65589 8.46297,-9.20987 11.86735,-15.54553 2.37372,-7.01985 -10.2198,-6.716 -11.69385,-12.56135 3.48675,-5.00344 4.16007,-14.81321 12.31844,-13.01243 7.308,-0.49227 15.77006,0.72537 17.45402,-8.36266 -0.19014,-4.31798 -12.58648,-12.75373 -1.041,-12.83895 6.74267,-0.89314 10.59613,-8.22167 10.65285,-14.50454 -0.20018,-1.92842 0.11499,-3.63019 0.7634,-5.10087 l 0,-0.0347 -1.94318,-1.07569 -3.95579,-2.94949 -2.46369,3.43528 -3.43528,-1.97789 -4.44158,-2.94949 0.4858,-5.89897 -7.87687,-1.49209 -5.89897,-8.36266 -8.39737,-9.85476 -5.41317,-11.34685 -2.94949,-0.97159 z"
     id="BE-WNA"
     inkscape:label="#path2226"
     inkscape:connector-curvature="0" />
  <path
     style="fill:#f4df00;fill-opacity:1;fill-rule:evenodd;stroke:#000000;stroke-width:2;stroke-linecap:butt;stroke-linejoin:miter;stroke-miterlimit:4;stroke-opacity:1;stroke-dasharray:none;stroke-dashoffset:0"
     d="m 211.46852,110.76832 -5.79488,1.63089 -0.65929,6.10718 c 0,0 -2.24047,0.3123 -3.85169,0.3123 -1.5105,0 -3.32107,-1.41918 -3.53938,-1.5962 l -6.76647,2.88009 -2.25549,-3.19239 -11.62445,5.13558 -3.85168,-0.3123 -2.56779,4.19868 -4.85797,0 -7.73807,-3.22708 -1.9085,1.59619 -3.22708,-0.3123 -1.38799,1.07569 -0.1735,2.8107 0.48579,6.41946 3.46999,0 3.43528,-2.94948 3.43529,1.97789 0,2.46369 4.44158,2.94948 7.87686,5.89897 8.39737,1.9779 5.41317,0.97159 2.46369,4.44158 4.92738,-0.48579 0.2082,0.1041 -0.2082,-1.0757 1.4921,-3.95578 5.89897,0 3.43528,0.48579 1.97789,-0.48579 -3.92108,-4.92738 2.94949,-1.4921 5.89897,-0.97159 0.4858,3.95579 9.85475,-4.92738 5.44787,-1.9779 5.89898,-2.46368 2.77599,0.90219 0.1735,-0.90219 2.46369,-8.88317 -0.97159,-2.94948 0.48579,-3.43528 1.76969,-1.1798 -1.24919,-2.08199 -2.60249,0 -3.19238,2.56778 -4.51099,-0.3123 0,-3.22707 -5.82957,1.63089 -3.19238,-3.22709 -5.17028,-1.94319 -4.51098,0 z"
     id="BE-WBR"
     inkscape:label="#path2235"
     inkscape:connector-curvature="0" />
  <path
     style="fill:#edf700;fill-opacity:1;fill-rule:evenodd;stroke:#000000;stroke-width:2;stroke-linecap:butt;stroke-linejoin:miter;stroke-miterlimit:4;stroke-opacity:1;stroke-dasharray:none;stroke-dashoffset:0"
     d="m 305.22749,108.20053 -1.59619,1.94319 -3.88638,2.25549 -2.88009,2.56779 -3.88638,0.6246 -4.82327,5.17027 -1.5962,-1.59619 -2.60249,2.56779 -3.19238,0.6246 -2.60249,-4.16398 -5.48258,0.97159 -2.25549,1.90849 -3.53939,0.34701 -2.56778,1.90848 -1.28389,-1.28389 -1.6309,-0.62459 -2.25549,0.31229 -2.88008,3.53939 -2.60249,0.65929 -2.56779,-1.63089 -6.10718,-0.3123 -1.28389,-3.88638 -1.31859,-1.59619 -0.6593,-1.1451 -1.76969,1.1798 -0.48579,3.43528 0.97159,2.94948 -2.46369,8.88317 -0.1735,0.90219 0.1735,0.0694 5.41317,11.34685 8.39737,9.85476 5.89897,8.36266 7.87687,1.49209 -0.4858,5.89897 4.44158,2.94949 3.43528,1.97789 2.46369,-3.43528 3.95579,2.94949 1.94318,1.07569 c 2.58554,-5.79925 10.76971,-7.76367 16.62123,-3.74758 3.82552,1.9068 11.53861,2.36774 13.29004,4.78858 0.0341,0.0487 0.0749,0.12316 0.1041,0.1735 -1.92136,4.21561 -2.71973,14.23974 4.37218,13.15123 3.2306,-0.24683 8.895,1.71132 10.54875,0 0.63343,-0.68916 0.65496,-1.96974 -0.34699,-4.16398 -1.8278,-7.87248 9.48981,-6.14554 13.53293,-3.64347 3.7307,6.50946 0.83637,14.46009 1.735,21.618 0.0202,0.30537 0.0487,0.63155 0.0694,0.93689 1.3902,0.12777 2.9159,0.52595 4.61508,1.24919 13.69772,8.47239 7.92496,-15.957 20.29941,-15.64963 1.04229,-11.12332 19.77172,-8.96517 8.08506,-20.2994 8.37824,-17.12547 -13.91798,-15.68025 -18.84201,-25.36559 5.04361,-5.68524 14.3708,-11.50265 0.7287,-14.57393 -0.309,-10.32166 -11.36455,-11.12868 -14.67804,-17.07232 -3.64659,0.99501 -7.55551,0.38537 -11.41625,-0.52051 l -0.0347,0 -1.80439,1.5615 -1.04099,-0.1041 0.6246,3.22709 -1.2839,2.91478 -3.85169,-0.31229 -4.19867,-1.6309 -3.22709,-3.53939 -3.53939,1.28389 -4.19867,-2.88007 0,-2.60249 -2.2555,-3.85169 z"
     id="BE-WLG"
     inkscape:label="#path2243"
     inkscape:connector-curvature="0" />
</svg>
