<?xml version="1.0" encoding="UTF-8" standalone="no"?>
<!-- Generator: Adobe Illustrator 13.0.0, SVG Export Plug-In . SVG Version: 6.00 Build 14948)  -->

<svg
   xmlns:dc="http://purl.org/dc/elements/1.1/"
   xmlns:cc="http://creativecommons.org/ns#"
   xmlns:rdf="http://www.w3.org/1999/02/22-rdf-syntax-ns#"
   xmlns:svg="http://www.w3.org/2000/svg"
   xmlns="http://www.w3.org/2000/svg"
   xmlns:sodipodi="http://sodipodi.sourceforge.net/DTD/sodipodi-0.dtd"
   xmlns:inkscape="http://www.inkscape.org/namespaces/inkscape"
   version="1.0"
   id="svg2"
   inkscape:output_extension="org.inkscape.output.svg.inkscape"
   sodipodi:version="0.32"
   sodipodi:modified="true"
   sodipodi:docname="denmark.svg"
   inkscape:version="0.48.3.1 r9886"
   x="0px"
   y="0px"
   width="1655.523px"
   height="1983.527px"
   viewBox="0 0 1655.523 1983.527"
   enable-background="new 0 0 1655.523 1983.527"
   xml:space="preserve"><metadata
   id="metadata121"><rdf:RDF><cc:Work
       rdf:about=""><dc:format>image/svg+xml</dc:format><dc:type
         rdf:resource="http://purl.org/dc/dcmitype/StillImage" /></cc:Work></rdf:RDF></metadata><defs
   id="defs119" />
<sodipodi:namedview
   borderopacity="1.0"
   bordercolor="#666666"
   pagecolor="#ffffff"
   inkscape:cy="651.02969"
   inkscape:cx="1024.6829"
   showguides="true"
   inkscape:zoom="0.5"
   id="base"
   inkscape:guide-bbox="true"
   inkscape:window-y="2"
   inkscape:window-x="484"
   inkscape:window-height="727"
   inkscape:window-width="1024"
   inkscape:current-layer="layer1"
   inkscape:document-units="px"
   inkscape:pageshadow="2"
   inkscape:pageopacity="0.0"
   showgrid="false"
   inkscape:window-maximized="0">
	</sodipodi:namedview>
<g
   id="layer1"
   transform="translate(-165.62946,1277.3855)"
   inkscape:groupmode="layer"
   inkscape:label="Capa 1">
	
	
	
	
	
	
	<path
   id="path17964"
   fill="none"
   stroke="#000000"
   stroke-width="2.5392"
   d="M1638.815-253.55l-17.959,5.977l-13.674,4.285   l-17.087,6.824l-3.438,3.412l-4.258,8.57l-6.851,5.131l-0.847,6.824l-8.569,7.697l-12.802,3.412l-15.394,7.695l-7.696,6.004   l-16.24,11.109l-11.136,4.285l-13.675,5.105l-5.131,4.283l-1.692,5.979l2.565,2.566l0.847,1.719l1.719,1.719l2.565,4.258   l7.671,3.439l6.004-0.873l6.824-3.412h4.284l3.412-2.566l5.131-3.412l7.697-3.438h6.851l4.259,4.285l2.565,2.564l1.719,3.412   l0.847,5.131l2.565,5.979l2.565,3.438l0.873,9.391l-0.873,6.85l0.873,7.697l4.258,0.848l2.566,1.719l1.719,1.719l-4.285,7.67   l-4.258,5.131l-0.873,3.439l2.566,14.521l3.438,2.564v5.979l0.847,6.85l1.72,8.543l2.063,6.189l1.35,4.074l0.846,5.131l0.847,16.24   l4.284,5.131l1.72,4.285l-2.565,2.564l-2.565,3.412l5.131,4.285v4.258l-6.851,2.566l-5.131,3.438l-3.412,2.566h-1.719l1.719,7.697   l3.412,1.691l1.719,2.566l1.72,3.438l-1.72,4.26l-3.412,3.412l-3.438-3.412l-2.566-2.566l0.873-3.412l-5.131-3.412l-3.438-0.873   h-6.824l-3.438-3.412l3.438-3.41l1.692-0.873l3.438,2.564l4.259-0.846l5.131-0.846l-2.565-3.439l-2.565-3.412l-6.824-2.564   l-3.438-2.566l-2.565-5.131l-4.258,0.846l-3.412,5.131l-0.873,7.697l-4.259,4.285l-3.438,1.719l-2.565,4.258l-5.131,7.697h-4.259   l1.693-5.977l5.131-6.852l2.565-9.389l5.132-6.004l3.438-6.824l0.847-5.131l1.72-3.492l1.692-3.359l5.131-2.564l1.72,4.283   l0.846,3.412l1.72,4.285l2.565-4.285l2.565-2.564l6.824-2.566l3.438-4.258l2.565-3.439l0.847-6.822l-1.719-8.545l-1.693-4.283   l-3.438-7.697l-0.847-8.543v-12.828l-1.719-7.697l-3.412-5.131l-3.412-5.131l-2.565-5.133l0.847-6.85l0.846-5.977l4.285-2.566   l2.565-5.131l-0.847-5.131l-3.438-5.133l-8.544-0.846l-4.258-5.979l-7.697-3.438l-7.696-5.105h-5.132l-2.565,3.412l-0.873,5.131   l0.873,7.697l1.693,2.566l1.719,1.693l6.851,7.695l-1.72,6.004l-2.565,1.693l0.847,3.412l4.285,1.719l2.565,3.412l1.719,6.004   l0.847,5.131l-3.412,4.26l-1.719,7.697l-1.72,4.283l-4.259,3.412l-4.284-1.719h-7.697l-5.131,5.131l-3.412,3.439l-3.412,5.977   v9.416l-2.565,5.131v11.955l1.692,5.979l0.873,3.412v0.027l-3.438,8.543l-5.978,5.131l-4.284,9.389l-2.566,10.264l-3.412,9.416   l-9.39,1.719l-4.284-3.439l0.846-3.412l4.285-3.41l7.697-1.721v-5.131l-2.566-4.285l-2.565-1.691l-1.719-6.004l0.873-5.979   l-5.132-5.131l-4.284-4.258l-1.72,5.131h-8.543l-4.285-0.873l-5.131-1.693l-6.824,3.412l-5.978-1.719l-3.438-0.848l-3.412-3.41   l4.285-2.566l6.824-1.719l10.262,0.846l10.263-0.846l3.412-0.848l6.004-0.873l3.412-3.412l-3.412-1.719l-2.565-2.564l-4.285-2.566   l2.566-3.412l1.719-2.564l-1.719-3.412h-2.566l1.72-3.412l-0.873-4.285l-3.412-4.285l-1.72-3.412l-2.564,2.566l-5.979,4.283   l-10.262-0.871l-2.566,7.695l-7.696,0.873l-6.824-1.719l-3.438-3.412l2.566-4.285l7.696-8.543l3.438-3.438l3.412-4.26l5.131-1.719   l7.697,2.566l3.412,2.564l4.284,0.848l3.412-4.26v-6.85l-0.847-10.262l-4.284-5.133l-4.285-10.262l-6.824-7.67l-5.978-6.852   l1.693-6.85l4.284-5.131l4.259-0.848l5.131,0.848l1.72,2.564l3.411,2.566l5.132,3.438l4.285-3.438l3.411-2.566l-1.692-5.977   l1.692-10.264l1.72-4.258l4.285-4.285h5.104l2.565-1.719l0.873-3.412l-0.873-2.564l-1.692-5.979l-2.566-4.285l-4.284,4.285   l-5.978,1.693l-8.543,7.697l-15.395,5.131l-5.977,2.564l-9.416,0.873l-5.979-5.131l-4.284-4.285l-2.565-5.977l-1.72-1.721   l-6.824,2.566l-7.696,5.131l-2.566-0.846h-7.696l-12.828-6.004l-7.696-2.566l-12.828-0.846l-13.675-3.412l-6.824-3.412   l-5.131-4.285l-9.416-3.412l-4.285-3.438l-5.131-5.979l-0.847-4.285l-4.258-1.691l-2.566,1.691l1.693,0.873l2.565,2.566v8.543   l0.847,5.131l3.438,1.719l4.258,3.412c0,0,4.277,1.693,7.697,1.693s3.438,1.719,3.438,1.719l2.565,1.719l9.39,6.824l4.285,0.873   l11.955,3.412l17.112,1.719l6.824,5.979l5.131,4.285l5.132,9.389l-3.412,15.395l-0.847,8.543l-2.565,7.697l-2.565,5.131   l-3.438,5.131h-8.543l-8.544-1.719l-6.851,2.564l-5.131,4.285l-6.824,0.848l-4.284-1.693l-4.259-6.852l-5.131-0.846l-0.873,3.412   l0.873,5.979l5.978,2.564l2.565,2.566v6.85l-0.847,8.543l-1.719,10.264l-2.565,7.695l-6.851,5.133l-4.259,1.719h-3.438   l-2.565,3.412l-5.131,3.412l-1.693-6.824l-5.978-0.873l0.847,6.85l-2.565,7.697l-8.544,2.566l-4.284-3.439l-2.565-3.412   l-1.72-3.412l-1.692-3.412l-1.719,3.412l-0.847,5.979l-5.132,1.719l-5.131-2.564l-2.565-3.439l0.847-4.258l-3.412-3.412   l-5.979-2.566l-11.135,2.566l-5.978,5.131l-11.108,4.258l-7.697,0.848l-5.978-1.693l-7.697-3.412l-4.284-4.285l-11.955-3.412   l-7.697-1.719l-7.697,0.846l-2.565,2.566l-6.851-0.846l-5.977,0.846l-3.412,0.873v0.846l2.565,2.566l2.565,1.719l2.565,2.539   l2.565,2.566l12.802,0.873l11.981,0.846l6.851,3.412l4.259,3.438l5.131,8.543l5.131,9.416l7.697,5.105l8.543,3.439l2.565,0.846   l1.72,2.566l-3.412,2.564l-4.285,0.846l-5.131,0.873l-7.697-2.564l-5.131-1.719l-7.697-1.721l-7.696-0.846l-5.131-0.846   l-5.132-1.721l-5.131-0.846l-2.565,1.693v3.438l3.438,5.131l3.412,1.693l13.674,1.719l9.416,0.848l8.543,5.131l13.675,7.697   l13.675,13.674v3.438l3.438,5.133l1.693,5.131l1.719,5.977l3.412,5.131l-1.692,11.109l-2.565,4.285l-0.873,1.693l-0.847,2.564   l-2.565,1.719l-4.258-0.846l-6.852-0.873l-4.284,3.439l-5.131,8.543l1.719,3.412l4.285,2.564l3.411-0.846l1.72-1.719l2.565-2.566   l2.566-3.412v-1.719h2.539l0.872,4.285v2.564l2.565,0.848l4.259,2.564l3.438,3.412l1.693,6.004v11.109l0.872,3.412l2.565,2.566   v3.412l2.566,2.564l1.692,7.697v4.285l-0.847,5.977l-3.412,6.852l1.693,5.977l4.285,0.848l0.846,7.695l0.873,4.285l-6.851,3.412   l-5.131-1.693l-4.285,5.133l-5.131,4.258h-1.693l-4.284,0.873l-5.132,2.564l-0.847-4.283l-2.564-1.721l-2.566,2.566l-1.719,4.285   l-4.259,4.258l-2.565,4.285l5.978,2.564h2.565l2.566,0.848l0.846,0.873l0.873,2.564l2.565,0.848l7.671,1.719l2.565-2.566   l0.872-3.438l-1.719-2.566l5.131-2.564l3.412-0.848l1.72,0.848l3.412,3.438l2.565,1.693l0.873,2.564l-0.873,3.439l-3.412,3.412   l-12.828,3.412l-4.258-1.693l-4.285-1.719l-2.566,2.564l4.285,1.721l3.412,2.564l4.259,2.566l4.284,3.412l7.697,5.131l7.697,5.977   l4.284,2.566v5.979l0.847,6.004l2.565,6.824l3.412,1.719l3.412,4.258h5.131l2.565,4.285l-3.412,5.977l-5.131-1.691l-0.846-3.439   h-5.979l-1.719,2.566l0.847,2.564l1.719,0.873l1.72,3.412l-4.285,4.285l-0.847,1.693l1.693,3.438v1.693l1.719,4.285l5.978-0.848   l3.412,1.693l4.285,2.566l3.412,4.285l13.7,0.846l4.259-0.846l-1.693-2.566l-2.565-2.566l-6.004-2.564l-1.692-2.566l3.412-2.564   l6.85,2.564l3.412,1.719l2.566,2.566l2.565,4.258l3.411-4.258l0.847-1.719l4.285-3.412l2.565,0.846l3.412,3.412l1.719,0.873v2.539   l-2.565,0.873l-5.131,0.846l-3.412,2.566l-3.438,3.412h13.701l10.262,0.873h14.521l1.719-4.285l-4.284-0.846l-5.132-0.873   l-1.719-3.412l-3.412-1.693l-4.259-2.566l-2.565-0.871l3.412-5.133l5.131,1.721l2.566,0.846l1.692,3.438l13.7,6.824l6.824,0.848   l7.697,4.285h5.978l12.828,2.564l5.131,0.846l2.565,3.439l3.439,3.412h7.67l0.873-2.566l0.846-3.412l0.847-1.719l2.565-4.285   l3.438-2.564l3.412-4.26l6.851-1.719h0.846l5.979,1.719l0.873,3.412l2.564,4.285l0.847,5.131l-3.411,4.26v3.438l-3.439,3.412   l-0.846,2.566l-0.847,3.412l0.847,2.564l3.412,2.566l7.696,1.719h5.978l9.416-0.873l5.978,4.285l1.72,2.566l-0.847,5.131   l-4.284,1.719h-6.852l-5.977,3.412l-3.412,3.412h-4.285l-2.565-2.566h-5.978l-3.412,2.566l4.258,7.697l3.439,1.719l5.104,4.258   v3.439l-0.847,1.691v2.566l1.719,6.85l5.979-1.719v-4.258l0.846-1.719l3.438,0.846l5.978,4.285l2.566,3.412v5.131l4.284,1.719   l2.565,2.566l1.693,4.283v3.412l-2.566,3.412l-3.411-1.719l-2.565-2.564l-2.566-1.693l-5.978-4.285l-5.131-2.566l-4.285-0.846   l-7.696-2.566l-5.979-2.564l-9.416-4.285l-11.955-5.131l-10.262-3.412l-4.285-0.846l-0.846,2.564l5.131,3.412l13.674,4.285   l13.675,6.824l11.136,5.131l7.67,4.285l11.135,6.824l8.544,6.004l6.85,6.824l2.566,5.131l8.543,3.438l1.692,4.26l7.697,3.412   l5.131-0.848v-4.258l1.72-1.719l2.565,1.719l1.719,0.846l5.132,0.848l3.411,3.412l5.132,6.004l7.696,10.262l5.979,1.693   l3.412,3.438l10.262-1.719l10.263,1.719l2.565-6.004l3.412-7.697l5.131-3.412l4.285-2.564l3.412,2.564l4.285-0.846l5.977,4.258   l3.412-4.258l-0.846-7.697l-1.72-4.285l-3.412-5.977l-3.411-6.85l0.846-4.26l2.565-1.719l-1.719-2.566h-4.259l-2.565-2.564   l1.72-5.979l-0.873-5.131l-1.693-5.977l-3.438-2.566v-3.439h3.438l2.566,1.721l4.258,3.412l5.131,3.438l5.979-2.564l0.872-5.133   l0.847-4.283l2.565-2.566l0.847-5.131v-3.412l-3.412-4.285l-5.131-5.131l-5.132-2.566l-4.258-1.691l-2.565,1.691l-1.72,1.719   l-2.565,2.566l-4.285,1.719l-1.692-3.438l-1.72-2.566l-3.412-0.846l-4.284,0.846l-1.72,2.566l-2.565,3.438l-3.412-2.564   l-3.411-3.439l-0.847-2.564l3.411-3.412l-3.411-2.566l-5.132-1.719v-5.131l7.671-5.105l3.438-0.873l1.692-4.258l6.004-2.566   l5.978,1.693l0.847,3.438l-1.692,2.566l-1.72,1.693l-1.719,2.564v5.133l1.719,4.283l1.72,1.693l5.131-1.693l3.412-1.719   l1.719-4.285l-0.873-5.131v-8.543l0.873-2.566l4.259-4.258l1.72-0.873l4.258-5.131l6.851-6.824l4.284-3.438l1.693-5.979   l4.285-4.258l4.284-3.439l5.978-5.131l5.132-3.412l2.565-0.846l9.39,1.693l21.371,2.564c0,0-0.836,6.004,6.004,3.439   c6.84-2.566,10.263,0.846,10.263,0.846l5.978-1.719l5.978-6.824l5.131-1.719l11.982-10.264l1.692-3.412l2.565-3.412l-1.692-2.564   l-1.72-0.873l-1.719-3.412l-0.847-5.979v-6.004l3.412-2.564l2.565-1.693l0.873-2.564l-1.72-1.721l-5.131-9.389l-3.412-6.004   l-6.004-5.979l-9.39-12.828l-9.416-5.131l-5.978-0.846l-5.132-1.721l-6.85-0.846l-5.105-2.564l-6.004-3.412l-9.389-7.697   l-6.005-0.873l-5.131-5.979l-4.259-8.543l-1.719-7.695v-6.852l4.285-3.412v-1.719l0.846-5.131l0.847-4.26l1.719-7.695l3.412-8.543   l6.851-11.982l8.543-10.262l7.697-8.545l11.108-5.131l3.438-4.285l6.004-2.723l3.386-1.535l5.132-2.564l0.872-6.004l5.978,0.871   l4.259-4.283l1.72,1.719l7.696,1.693l3.412,0.871l1.719,1.693l3.412,3.439l9.416,0.846l4.259-1.719l-0.847-1.693l2.565-0.873h4.285   l0.847,3.439v1.691l-0.847,6.004l1.693,3.412l2.564,2.566l3.439,2.564l6.823,5.133l3.438,1.719l0.847,2.566l1.72,2.539l3.411,0.871   l3.412,2.566h3.412l2.565-0.873l1.72-3.412l2.565-3.412l6.851-4.285l5.131-0.846l5.132-0.846l4.258-2.566l1.719-0.873v-5.131   v-3.412l-1.719-4.285l-0.847-2.564l0.847-4.26l0.847-0.871v-2.541l-0.847-6.004h-2.565l-0.847-5.131l-3.412-3.412v-2.564v-2.566   l-3.438-4.285l-0.847-2.564l-4.284-1.693l2.565-2.566h3.438l1.692-1.719l-1.692-5.131l-3.438-3.412l-3.412-5.977l-2.565-1.721   l-2.565-4.285l0.846-2.564l2.566-1.693l0.873-5.131l-3.439-3.438l-2.564,0.871l-0.847,4.26h-1.72l-1.692-1.693l-0.873-5.979   l-1.692-4.283l0.846-3.412l3.412-5.131l2.566-6.006l1.719-5.977v-5.979l-2.565-10.262l-3.412-8.543l-2.565-5.131l0.846-7.697   l-1.719-11.109l-1.693-6.004l-2.565-4.258l-2.565-2.566l-0.846-6.004l-2.566-9.389l-4.285-8.543l-1.719-6.852l0.873-6.85v-5.979   l6.824-6.824l1.719-11.135l5.978-11.109l4.285-6.85l6.823-4.258l1.72-3.412l4.285-2.566l0.847-3.438l1.719-2.566l1.692-4.258   l2.565-5.131v-4.285l-5.131-2.566l-2.565-0.846l-2.565-4.285l-5.131-5.977l-11.109-7.697l-5.131-0.848l-4.259-3.438l-5.131-3.412   h-17.113l-5.978-1.719l-5.978-2.566l-6.004-0.846l-5.978-5.131l-5.131-5.133l-7.697-3.412l-11.109-2.564l-4.284-3.412H1638.815z" />
	
	
	
	
	
	
	
	
	
	
	
	
	
	
	
	
	
	
	
	
	
	
	
	
	
	
	<g
   id="DK-85"
   inkscape:label="#g3166"><path
     d="M1292.565-195.413l-2.566,1.691l1.693,0.873   l2.565,2.566v8.543l0.847,5.131l3.438,1.719l4.258,3.412c0,0,4.277,1.693,7.697,1.693s3.438,1.719,3.438,1.719l2.565,1.719   l9.39,6.824l4.285,0.873l11.955,3.412l17.112,1.719l6.824,5.979l5.131,4.285l5.132,9.389l-3.412,15.395l-0.847,8.543l-2.565,7.697   l-2.565,5.131l-3.438,5.131h-8.543l-8.544-1.719l-6.851,2.564l-5.131,4.285l-6.824,0.848l-4.284-1.693l-4.259-6.852l-5.131-0.846   l-0.873,3.412l0.873,5.979l5.978,2.564l2.565,2.566v6.85l-0.847,8.543l-1.719,10.264l-2.565,7.695l-6.851,5.133l-4.259,1.719   h-3.438l-2.565,3.412l-5.131,3.412l-1.693-6.824l-5.978-0.873l0.847,6.85l-2.565,7.697l-8.544,2.566l-4.284-3.439l-2.565-3.412   l-1.72-3.412l-1.692-3.412l-1.719,3.412l-0.847,5.979l-5.132,1.719l-5.131-2.564l-2.565-3.439l0.847-4.258l-3.412-3.412   l-5.979-2.566l-11.135,2.566l-5.978,5.131l-11.108,4.258l-7.697,0.848l-5.978-1.693l-7.697-3.412l-4.284-4.285l-11.955-3.412   l-7.697-1.719l-7.697,0.846l-2.565,2.566l-6.851-0.846l-5.977,0.846l-3.412,0.873v0.846l2.565,2.566l2.565,1.719l2.565,2.539   l2.565,2.566l12.802,0.873l11.981,0.846l6.851,3.412l4.259,3.438l5.131,8.543l5.131,9.416l7.697,5.105l8.543,3.439l2.565,0.846   l1.72,2.566l-3.412,2.564l-4.285,0.846l-5.131,0.873l-7.697-2.564l-5.131-1.719l-7.697-1.721l-7.696-0.846l-5.131-0.846   l-5.132-1.721l-5.131-0.846l-2.565,1.693v3.438l3.438,5.131l3.412,1.693l13.674,1.719l9.416,0.848l8.543,5.131l13.675,7.697   l13.675,13.674v3.438l3.438,5.133l1.693,5.131l1.719,5.977l3.412,5.131l-1.692,11.109l-2.565,4.285l-0.873,1.693l-0.847,2.564   l-2.565,1.719l-4.258-0.846l-6.852-0.873l-4.284,3.439l-5.131,8.543l1.719,3.412l4.285,2.564l3.411-0.846l1.72-1.719l2.565-2.566   l2.566-3.412v-1.719h2.539l0.872,4.285v2.564l2.565,0.848l4.259,2.564l3.438,3.412l1.693,6.004v11.109l0.872,3.412l2.565,2.566   v3.412l2.566,2.564l1.692,7.697v4.285l-0.847,5.977l-3.412,6.852l1.693,5.977l4.285,0.848l0.846,7.695l0.873,4.285l-6.851,3.412   l-5.131-1.693l-4.285,5.133l-5.131,4.258h-1.693l-4.284,0.873l-5.132,2.564l-0.847-4.283l-2.564-1.721l-2.566,2.566l-1.719,4.285   l-4.259,4.258l-2.565,4.285l5.978,2.564h2.565l2.566,0.848l0.846,0.873l0.873,2.564l2.565,0.848l7.671,1.719l2.565-2.566   l0.872-3.438l-1.719-2.566l5.131-2.564l3.412-0.848l1.72,0.848l3.412,3.438l2.565,1.693l0.873,2.564l-0.873,3.439l-3.412,3.412   l-12.828,3.412l-4.258-1.693l-4.285-1.719l-2.566,2.564l4.285,1.721l3.412,2.564l4.259,2.566l4.284,3.412l7.697,5.131l7.697,5.977   l4.284,2.566v5.979l0.847,6.004l2.565,6.824l3.412,1.719l3.412,4.258h5.131l2.565,4.285l-3.412,5.977l-5.131-1.691l-0.846-3.439   h-5.979l-1.719,2.566l0.847,2.564l1.719,0.873l1.72,3.412l-4.285,4.285l-0.847,1.693l1.693,3.438v1.693l1.719,4.285l5.978-0.848   l3.412,1.693l4.285,2.566l3.412,4.285l13.7,0.846l4.259-0.846l-1.693-2.566l-2.565-2.566l-6.004-2.564l-1.692-2.566l3.412-2.564   l6.85,2.564l3.412,1.719l2.566,2.566l2.565,4.258l3.411-4.258l0.847-1.719l4.285-3.412l2.565,0.846l3.412,3.412l1.719,0.873v2.539   l-2.565,0.873l-5.131,0.846l-3.412,2.566l-3.438,3.412h13.701l10.262,0.873h14.521l1.719-4.285l-4.284-0.846l-5.132-0.873   l-1.719-3.412l-3.412-1.693l-4.259-2.566l-2.565-0.871l3.412-5.133l5.131,1.721l2.566,0.846l1.692,3.438l13.7,6.824l6.824,0.848   l7.697,4.285h5.978l12.828,2.564l5.131,0.846l2.565,3.439l3.439,3.412h7.67l0.873-2.566l0.846-3.412l0.847-1.719l2.565-4.285   l3.438-2.564l3.412-4.26l6.851-1.719h0.846l5.979,1.719l0.873,3.412l2.564,4.285l0.847,5.131l-3.411,4.26v3.438l-3.439,3.412   l-0.846,2.566l-0.847,3.412l0.847,2.564l3.412,2.566l7.696,1.719h5.978l9.416-0.873l5.978,4.285l1.72,2.566l-0.847,5.131   l-4.284,1.719h-6.852l-5.977,3.412l-3.412,3.412h-4.285l-2.565-2.566h-5.978l-3.412,2.566l4.258,7.697l3.439,1.719l5.104,4.258   v3.439l-0.847,1.691v2.566l1.719,6.85l5.979-1.719v-4.258l0.846-1.719l3.438,0.846l5.978,4.285l2.566,3.412v5.131l4.284,1.719   l2.565,2.566l1.693,4.283v3.412l-2.566,3.412l-3.411-1.719l-2.565-2.564l-2.566-1.693l-5.978-4.285l-5.131-2.566l-4.285-0.846   l-7.696-2.566l-5.979-2.564l-9.416-4.285l-11.955-5.131l-10.262-3.412l-4.285-0.846l-0.846,2.564l5.131,3.412l13.674,4.285   l13.675,6.824l11.136,5.131l7.67,4.285l11.135,6.824l8.544,6.004l6.85,6.824l2.566,5.131l8.543,3.438l1.692,4.26l7.697,3.412   l5.131-0.848v-4.258l1.72-1.719l2.565,1.719l1.719,0.846l5.132,0.848l3.411,3.412l5.132,6.004l7.696,10.262l5.979,1.693   l3.412,3.438l10.262-1.719l10.263,1.719l2.565-6.004l3.412-7.697l5.131-3.412l4.285-2.564l3.412,2.564l4.285-0.846l5.977,4.258   l3.412-4.258l-0.846-7.697l-1.72-4.285l-3.412-5.977l-3.411-6.85l0.846-4.26l2.565-1.719l-1.719-2.566h-4.259l-2.565-2.564   l1.72-5.979l-0.873-5.131l-1.693-5.977l-3.438-2.566v-3.439h3.438l2.566,1.721l4.258,3.412l5.131,3.438l5.979-2.564l0.872-5.133   l0.847-4.283l2.565-2.566l0.847-5.131v-3.412l-3.412-4.285l-5.131-5.131l-5.132-2.566l-4.258-1.691l-2.565,1.691l-1.72,1.719   l-2.565,2.566l-4.285,1.719l-1.692-3.438l-1.72-2.566l-3.412-0.846l-4.284,0.846l-1.72,2.566l-2.565,3.438l-3.412-2.564   l-3.411-3.439l-0.847-2.564l3.411-3.412l-3.411-2.566l-5.132-1.719v-5.131l7.671-5.105l3.438-0.873l1.692-4.258l6.004-2.566   l5.978,1.693l0.847,3.438l-1.692,2.566l-1.72,1.693l-1.719,2.564v5.133l1.719,4.283l1.72,1.693l5.131-1.693l3.412-1.719   l1.719-4.285l-0.873-5.131v-8.543l0.873-2.566l4.259-4.258l1.72-0.873l4.258-5.131l6.851-6.824l4.284-3.438l1.693-5.979   l4.285-4.258l4.284-3.439l5.978-5.131l5.132-3.412l2.565-0.846l9.39,1.693l21.371,2.564c0,0-0.836,6.004,6.004,3.439   c6.84-2.566,10.263,0.846,10.263,0.846l5.978-1.719l5.978-6.824l5.131-1.719l11.982-10.264l1.692-3.412l2.565-3.412l-1.692-2.564   l-1.72-0.873l-1.719-3.412l-0.847-5.979v-6.004l3.412-2.564l2.565-1.693l0.873-2.564l-1.72-1.721l-5.131-9.389l-3.412-6.004   l-6.004-5.979l-9.39-12.828l-9.416-5.131l-5.978-0.846l-5.132-1.721l-6.85-0.846l-5.105-2.564l-6.004-3.412l-9.389-7.697   l-6.005-0.873l-5.131-5.979l-4.259-8.543l-1.719-7.695v-6.852l4.285-3.412v-1.719l0.846-5.131l0.847-4.26l1.719-7.695l3.412-8.543   l6.851-11.982l8.543-10.262l7.697-8.545l11.108-5.131l3.438-4.285l6.004-2.723l-2.592-3.969l-6.771-7.617l-11.849-5.924   l-5.079-0.848l-4.231,4.232l-6.771-4.232l-5.079-2.539l-0.847,5.926l-3.385,5.078l-5.925-1.693l-7.617-3.385l-1.693-6.771   l4.232-5.078l-4.232-6.771l-3.386-14.389l3.386-8.463l9.311-5.078l8.464,1.691l4.231-2.539l3.386-4.232l7.617-4.23l-0.846-4.232   l-4.232-3.385l-4.231-3.387l-5.079-2.539l1.693-5.078l3.386-5.924l-2.539-3.387l-6.771-0.846l-7.617,0.846l-9.311-2.539   l-6.771-7.617l-5.925-7.617l-5.079-2.539l-3.861-1.111l1.35,4.074l0.846,5.131l0.847,16.24l4.284,5.131l1.72,4.285l-2.565,2.564   l-2.565,3.412l5.131,4.285v4.258l-6.851,2.566l-5.131,3.438l-3.412,2.566h-1.719l1.719,7.697l3.412,1.691l1.719,2.566l1.72,3.438   l-1.72,4.26l-3.412,3.412l-3.438-3.412l-2.566-2.566l0.873-3.412l-5.131-3.412l-3.438-0.873h-6.824l-3.438-3.412l3.438-3.41   l1.692-0.873l3.438,2.564l4.259-0.846l5.131-0.846l-2.565-3.439l-2.565-3.412l-6.824-2.564l-3.438-2.566l-2.565-5.131l-4.258,0.846   l-3.412,5.131l-0.873,7.697l-4.259,4.285l-3.438,1.719l-2.565,4.258l-5.131,7.697h-4.259l1.693-5.977l5.131-6.852l2.565-9.389   l5.132-6.004l3.438-6.824l0.847-5.131l1.72-3.492l-3.889-2.328l-8.464-4.23l-5.078-3.387l-1.692,1.693l-1.693,3.385l-11.85,1.693   l-6.665-1.904v0.027l-3.438,8.543l-5.978,5.131l-4.284,9.389l-2.566,10.264l-3.412,9.416l-9.39,1.719l-4.284-3.439l0.846-3.412   l4.285-3.41l7.697-1.721v-5.131l-2.566-4.285l-2.565-1.691l-1.719-6.004l0.873-5.979l-5.132-5.131l-4.284-4.258l-1.72,5.131h-8.543   l-4.285-0.873l-5.131-1.693l-6.824,3.412l-5.978-1.719l-3.438-0.848l-3.412-3.41l4.285-2.566l6.824-1.719l10.262,0.846   l10.263-0.846l3.412-0.848l6.004-0.873l3.412-3.412l-3.412-1.719l-2.565-2.564l-4.285-2.566l2.566-3.412l1.719-2.564l-1.719-3.412   h-2.566l1.72-3.412l-0.873-4.285l-3.412-4.285l-1.72-3.412l-2.564,2.566l-5.979,4.283l-10.262-0.871l-2.566,7.695l-7.696,0.873   l-6.824-1.719l-3.438-3.412l2.566-4.285l7.696-8.543l3.438-3.438l3.412-4.26l5.131-1.719l7.697,2.566l3.412,2.564l4.284,0.848   l3.412-4.26v-6.85l-0.847-10.262l-4.284-5.133l-4.285-10.262l-6.824-7.67l-5.978-6.852l1.693-6.85l4.284-5.131l4.259-0.848   l5.131,0.848l1.72,2.564l3.411,2.566l5.132,3.438l4.285-3.438l3.411-2.566l-1.692-5.977l1.692-10.264l1.72-4.258l4.285-4.285h5.104   l2.565-1.719l0.873-3.412l-0.873-2.564l-1.692-5.979l-2.566-4.285l-4.284,4.285l-5.978,1.693l-8.543,7.697l-15.395,5.131   l-5.977,2.564l-9.416,0.873l-5.979-5.131l-4.284-4.285l-2.565-5.977l-1.72-1.721l-6.824,2.566l-7.696,5.131l-2.566-0.846h-7.696   l-12.828-6.004l-7.696-2.566l-12.828-0.846l-13.675-3.412l-6.824-3.412l-5.131-4.285l-9.416-3.412l-4.285-3.438l-5.131-5.979   l-0.847-4.285L1292.565-195.413z"
     id="path11163"
     stroke-width="0.8464"
     stroke="#000000"
     fill="#AFE9AF" /><path
     d="M1137.801,520.196l2.565,14.535l0.854,5.129   l5.985,8.551l1.71,7.693l5.13,6.84l8.55,5.986l23.939,10.26l24.794,10.26l9.405,5.129l9.404,4.275l14.534,5.129l3.42,5.986   l7.695,7.693l7.695,11.115l9.404,7.695l14.535,10.26l13.68,11.969l9.404,7.695l9.404,6.84l5.13,1.711l7.695,2.564l4.274-0.855   l0.855-3.42l-1.71-0.855l-4.275-0.854l-9.404-5.131l-3.42-2.564l-3.42-2.564l4.274-2.566l4.275-5.984l5.13-4.275l6.84-0.854h8.55   l4.274-5.131l9.405-4.275l3.42-3.42l1.71,0.855l2.564,2.564l7.695,1.711h3.42l2.564,0.855l3.42,1.709l2.565-1.709l2.564-2.566   l6.84-0.854l4.275,3.42l0.854,5.129l5.13-0.855v-3.42l4.275-1.709l1.709,3.42l9.405,3.42l7.694,1.709l2.565,1.711l4.274,1.709   h5.985l3.42-2.564l5.13-0.855l0.855-1.709l-2.565-0.855l-4.274-0.855l-2.565-0.854l-0.854-5.131h5.984l2.564-2.564l1.711-1.711   l-1.711-2.564v-3.42l3.42-0.855l1.711-5.984l-1.711-3.42l-3.42-0.855l-2.564-2.564l-1.71,0.855l-2.565-3.42l-2.564-1.711v-3.42   l2.564-4.273v-2.566l-2.564-2.564l0.855-2.564l4.274,2.564l3.42,2.564l8.55-2.564l-1.71-10.26l2.565-5.129l-2.565-6.84l-4.274-6.84   l-7.695-7.695l-4.275-6.84l-5.984-4.275l-2.564-4.275l1.709-3.418l3.42-4.275l-3.42-3.42l-5.129-1.711l-5.131-5.129l-1.709-3.42   l-0.855-4.275l-0.855-3.42l-3.42-7.695l-4.274-0.854l-6.84-5.131l-3.42-5.129l-7.694-6.84l-5.13-1.711l-3.42,1.711l-0.855,3.42   l2.565,2.564l2.564,1.709l-0.854,3.42l-2.565,1.711v4.275l1.71,4.273v5.986l-1.71-0.855l-5.13,1.709h-7.694l-2.565-0.854   l-2.564-3.42h-3.42l-5.985,1.709l-1.71,4.275l-2.564,4.275l2.564,1.709l5.985,2.564l5.13,5.131l4.274,2.564l-0.854,4.275   l-2.565-4.275l-6.84-1.709l-4.274-0.855l-5.985-3.42l-11.97-2.566l-1.71-2.564h-3.42l-1.71,2.564l-3.42-1.709l-1.71-3.42   l-5.984-5.984v-3.42l-4.275-4.275h-5.129l-4.275-5.984l-8.55-2.564l-5.985-5.131l-6.84-8.549l-0.854-4.275l-2.565-6.84l-3.42-5.131   l-6.84-1.709l-2.564-3.42l-5.984-8.551l-1.711-2.564l-3.42-2.564l-5.129-2.564l-4.275-1.711l-13.68-1.709l-11.97-3.42h-3.42   l-3.42,1.709l-3.42,1.711l-1.71,1.709l-2.564-0.855l-2.565,3.42l-4.274-1.709l-5.13,2.564v1.711l4.274,4.273l1.71,3.42l-5.13,0.855   l-3.42-5.129l-0.854-1.711l-3.42-0.855l-7.695,0.855l-1.71,4.275l-5.13,3.42v4.275l-5.13,4.273l-6.84,5.131l-0.854,5.129   l0.854,5.986l3.42,5.129l0.855,3.42l5.13,0.855l2.564,1.709l2.565,3.42v7.695l4.274,1.711l1.71,0.854v5.986l5.13,2.564l5.13-1.711   l2.565,2.566l3.42,2.564l-3.42,1.709l-4.275,0.855l-1.71,5.129l-4.274-0.854l-3.42-1.711l-2.565-0.855l-2.564,2.566h3.42   l1.71,2.564l-1.71,2.564v4.275l-5.13-0.855l-4.275-1.709l-0.854-2.564l-0.855-1.711l-5.13-2.564l-5.984-3.42l-4.275-1.711h-2.564   v4.275l4.274,1.709l2.565,2.566l-4.275,5.129l-6.84-1.709l-2.564-3.42v-3.42l-0.855-4.275l1.71-3.42l4.275-4.275l-1.71-6.84   l-4.275,1.711l-5.984,0.855L1137.801,520.196z"
     id="path5155"
     stroke-width="2.5392"
     stroke="#000000"
     fill="#AFE9AF" /><path
     d="M1427.638,455.218l-6.84,2.564l-4.274,3.42v1.711   l-2.565,0.855l-2.565,2.564l-0.854,0.855l-5.13,4.273l5.13,1.711l5.13,0.855h5.13l3.42,4.273l3.42,3.42l-1.71,2.566l-2.564,1.709   l-0.855,0.855l-1.71,2.564l-2.565,3.42l0.855,6.84h1.71l4.274,0.855l1.711,5.984l0.854,1.711l-1.71,3.42l2.564,4.273l3.42,3.42   l5.131,2.566l3.42,5.984l4.274,8.549l-1.71,4.275l-4.275,1.711l2.565,2.564l0.854,0.854l4.275,5.131l5.984,8.549l3.42,5.986   l7.695,4.273l0.855,4.275l-1.711,4.275l1.711,2.564l1.709,7.695l1.711,2.564v7.695l-0.855,6.84h3.42l2.564-0.855l1.711,3.42   l-0.855,4.275l-1.71,2.564l-5.13,6.84l-5.984,5.131v10.26l-2.565,5.984l0.854,5.984l2.565,6.84l4.274,7.695l4.275,7.695   l4.275,5.129l3.42,4.275l0.854,3.42l-2.565,2.564l-1.709,5.131l0.854,2.564l5.13,5.129l4.274,3.42l9.405,1.711l4.275-1.711   l-0.855-2.564l-1.71-5.984l-1.71-7.695v-8.549l-1.71-11.115l-0.854-14.535v-11.115l3.42-11.969l0.854-6.84l3.42-5.131l6.84-6.84   l8.55-5.129l2.564-7.695l2.565-12.824l6.84-5.131l6.84-7.693l5.984-5.986l5.985-5.129l5.984-1.711l4.275-7.693l4.274-5.131   l5.13-2.564l2.565-1.709l1.71-2.566v-4.273l-1.71-5.131l-3.42-3.42l-4.275-5.129l-1.71-2.566l-1.71-1.709l-2.564-4.275l-1.71-3.42   l-2.565-1.709l-5.13-3.42l-0.854-2.566l-9.405,1.711l-11.114-2.564l-1.71-0.855l-3.42-0.855l-8.55-0.855l-4.274-4.273v-5.986   v-5.984l-0.855-5.129l-1.71-3.42l-4.274-1.711h-8.551l-2.564-0.855l-2.565,2.566l-1.71,4.273v5.131l-1.709,2.564l-2.565-3.42   l-5.13-4.275l-1.71-3.42l-0.854-0.854l-4.275-3.42l0.855-4.275l-3.42-5.131l-1.711-0.854l-1.709-2.566l-2.565-0.854l-0.854-1.711   l-0.855-1.709l-3.42-2.566h-3.42l-0.855,1.711l1.711,2.564l3.42,1.711v2.564l-4.275,1.709l-2.564,0.855l0.854,2.564v1.711   l-3.42,2.564l-1.71,1.711l-1.71-5.131l-0.854-4.275l-5.131-3.42l-2.564-3.42L1427.638,455.218z"
     id="path6126"
     stroke-width="2.5392"
     stroke="#000000"
     fill="#AFE9AF" /><path
     d="M1589.229,505.661l10.26-12.824l7.695-10.26   l11.97-9.404l12.824-6.84l9.405-4.275l11.114-0.855l7.694,2.566l10.26,2.564l10.26,5.984l10.26,3.42l4.275,1.711l8.55-0.855   l4.274-4.275l2.565-6.84l-0.854-5.984l-5.131-5.984l-2.564-3.42l-0.855-5.131l-1.71-3.42l-4.274-4.275l-4.275-3.42l-8.549-3.42   l-4.275-2.564c0,0-8.55-1.709-11.97-1.709s-14.534-0.855-14.534-0.855l-17.1-0.855l-5.131-1.709l-8.549-2.566l-4.275-5.129   l-2.564-2.564l-0.855-4.275l-0.854-4.275l-3.42-3.42l-2.565,2.564l-2.564,1.711l-0.855,1.709l-2.564,0.855l-2.565,3.42l-0.854,3.42   l4.274,2.564l4.274-2.564l4.275,4.275l2.565,5.984l4.274,2.564l1.71,1.711l-1.71,2.564l-3.42,0.855l-1.71,0.855l-1.71,5.129   l0.855,3.42l1.71,4.275l4.274,0.855h5.984l4.275,0.854l5.984-0.854l1.711-2.566l3.42,1.711l1.709,1.709v2.566l-1.709,1.709h-8.551   l-2.564,1.711l-3.42-0.855l-3.42,3.42l-0.854,2.564l-0.855,2.564v2.566l-1.71-0.855l-3.42-0.855l-2.564-0.855l0.854-3.42v-3.42   l-1.71-2.564l0,0l-3.42-1.709h-5.13l-0.854,2.564l-0.855,2.564l-3.42,1.711l-5.984-3.42l-6.84-3.42l-1.71-1.711h-2.565l-3.42,0.855   l-0.854,3.42v4.275h-4.275l-3.42-1.711l-2.564,0.855l-1.71,2.564l-4.275,2.564l-2.564,5.131l0.854,3.42h5.13l2.565,2.564   l-0.855,1.711h-3.42l-4.274,3.42l-2.565,2.564v3.42l-2.564,0.855l-0.855,5.129l-0.854,4.275l1.71,3.42h6.84l2.564-0.855h2.565   l1.71,1.711l-1.71,3.42l-1.71,3.42l-0.855,0.854l3.42,4.275h4.275l8.55,2.564h6.84l3.42-0.854L1589.229,505.661z"
     id="path7097"
     stroke-width="2.5392"
     stroke="#000000"
     fill="#AFE9AF" /><path
     d="M1160.885,508.227l4.274,2.564l2.565,3.42   l-0.855,3.42v5.129h-2.564l-2.565-2.564l-1.71-4.275l-0.854-3.42L1160.885,508.227z"
     id="path8068"
     stroke-width="2.5392"
     stroke="#000000"
     fill="#AFE9AF" /><path
     d="M1267.758,438.118l5.13,1.711l1.71,4.273   l-0.854,2.566l-3.42,1.709l-4.275-3.42L1267.758,438.118z"
     id="path9039"
     stroke-width="2.5392"
     stroke="#000000"
     fill="#AFE9AF" /><path
     d="M1288.277,403.919l-5.13,2.564l-2.564,2.566   l4.274,1.709l3.42-1.709l4.274-2.566l2.565-3.42l0.854-1.709l-1.709-2.564h-2.565l-0.854,0.854L1288.277,403.919z"
     id="path9041"
     stroke-width="2.5392"
     stroke="#000000"
     fill="#AFE9AF" /><path
     d="M1287.423,443.249l-4.275,4.273l2.564,6.84   l3.42,1.711l1.711,1.709v4.275l3.42,4.275l2.564,5.129l3.42,2.566l4.274-5.131l3.421,0.855l3.42-5.131l0.854-3.42l3.42-1.709h4.274   h5.13l2.565-4.275l-2.565-1.709l-0.854-3.42l-0.855-2.566h-6.84l-3.42,0.855l-5.129-1.709l-0.855-1.711l-2.565-1.709l-0.854,2.564   v3.42l0.854,2.564v3.42l-1.71,0.855l-3.42-3.42h-4.274L1287.423,443.249z"
     id="path9043"
     stroke-width="2.5392"
     stroke="#000000"
     fill="#AFE9AF" /><path
     d="M1329.316,479.157L1329.316,479.157z"
     id="path9045"
     stroke-width="0.8464"
     stroke="#000000"
     fill="#AFE9AF" /><path
     d="M1324.186,490.272l5.13-3.42l-0.855-2.564   l-2.564-2.566l0.854-1.709h4.275l1.71,1.709l4.274,0.855l-0.854,2.564l-1.71,1.711l-0.855,3.42l4.275-0.855l1.71,2.564l0.854,0.855   v2.564l-4.274,2.566l-1.71-1.711l-5.13-0.855l-5.13-1.709V490.272z"
     id="path9047"
     stroke-width="2.5392"
     stroke="#000000"
     fill="#AFE9AF" /><path
     d="M1344.706,433.843l6.84,0.855l5.984,3.42l0.855,3.42   l0.854,3.42l-1.71,2.564l-3.42,3.42l-1.71,2.566l-0.854,2.564l-2.565,2.564l-1.71-3.42v-2.564l-1.71-4.275l-0.854-2.564   l-3.42-2.564l-1.71-2.566l-3.42-0.854l-1.71-2.566l2.564-0.854l2.565-3.42L1344.706,433.843z"
     id="path9049"
     stroke-width="2.5392"
     stroke="#000000"
     fill="#AFE9AF" /><path
     d="M1470.387,441.538h5.13l0.854,3.42v3.42   l-1.709,2.564h-2.565l-3.42-2.564L1470.387,441.538z"
     id="path9051"
     stroke-width="2.5392"
     stroke="#000000"
     fill="#AFE9AF" /><path
     d="M1508.862,464.622l-2.565-4.273h-3.42l0.854,4.273   l3.42,3.42l3.42,5.131l0.855,3.42l0.855,4.275l1.709,3.42l4.275,1.709l5.13,1.711l4.274,3.42l7.695,2.564l4.274-2.564l4.275-6.84   l-0.855-3.42l-3.42-2.566l-1.71-3.42l-5.984-1.709l-4.275-0.855l-3.42,0.855h-3.42v2.564l-1.71,0.855h-0.854l-2.564-0.855   l-0.855-2.564l-2.564-3.42L1508.862,464.622z"
     id="path9053"
     stroke-width="2.5392"
     stroke="#000000"
     fill="#AFE9AF" /><path
     d="M1594.359,402.21l-4.274,0.854l-3.42,1.711v2.564   l-1.71,0.855h-4.275l-1.71,2.564l5.13,1.711l0.855,2.564l3.42,0.855l1.71,0.854l1.71-0.854l0.854-2.566v-3.42l1.71-1.709   l1.71-2.564L1594.359,402.21z"
     id="path9055"
     stroke-width="2.5392"
     stroke="#000000"
     fill="#AFE9AF" /><path
     d="M1544.77,461.202l-3.42,3.42l-1.71,0.855   l-1.71,0.855l2.565,0.855h4.274l1.71-2.566L1544.77,461.202z"
     id="path9057"
     stroke-width="2.5392"
     stroke="#000000"
     fill="#AFE9AF" /><path
     d="M1553.32,449.233l-1.71,5.129l1.71,2.566l3.42-3.42   l2.565-1.711v-2.564H1553.32z"
     id="path9059"
     stroke-width="2.5392"
     stroke="#000000"
     fill="#AFE9AF" /><path
     d="M1414.12,309.192l-2.419,4.232l-1.813,1.813   l-1.209,2.42l0.604,2.418l1.209,1.813l4.231,0.605l1.814-1.209l1.813-2.418l-0.604-1.814l1.813-1.814v-2.418l-1.209-1.209h-1.209   L1414.12,309.192z"
     id="path9061"
     stroke-width="2.5392"
     stroke="#000000"
     fill="#AFE9AF" /><path
     d="M1402.028,326.723L1402.028,326.723z"
     id="path9063"
     stroke-width="0.8464"
     stroke="#000000"
     fill="#AFE9AF" /><path
     d="M1399.61,332.77l-1.814-3.627l1.814-3.023   l1.813,0.604l2.418,1.814v3.023l0.604,3.021l3.628,2.42l1.813,3.627l-1.813,1.813l-4.232-4.836l-1.209-1.209L1399.61,332.77z"
     id="path9065"
     stroke-width="2.5392"
     stroke="#000000"
     fill="#AFE9AF" /><path
     d="   M1233.053,267.477l-1.512,3.023l-0.604,7.254l-0.604,8.465l-0.604,7.859l1.209,4.23l1.813,2.42l3.023,3.021l2.418,1.209   l1.813,3.627l4.837-1.209v-1.209l-1.814-1.813l-1.813-1.814l-1.813-3.023v0.605v-7.254l-0.604-4.838l-1.813-4.23l-1.814-3.023   l-0.604-3.627l0.604-1.814l1.814-1.209l0.604-1.209l-0.604-1.814l-0.604-0.604l-1.813-2.418L1233.053,267.477z"
     sodipodi:nodetypes="cccccccccccccccccccccccccccc"
     id="path9067"
     stroke-width="2.5392"
     stroke="#000000"
     fill="#AFE9AF" /><path
     d="M1224.891,315.237l-5.44,2.42l-3.022,4.836   l-0.605,3.627l1.814,1.814l1.209,2.418l3.022,1.813l3.022-2.418l-0.604-3.023l1.813-2.418l1.814-3.021l1.209-1.814l1.209-3.023   v-1.209l-1.813-1.209L1224.891,315.237z"
     id="path9069"
     stroke-width="2.5392"
     stroke="#000000"
     fill="#AFE9AF" /><path
     d="M1162.622,209.44h5.441l3.627,0.604l1.209,1.209   v1.209l-1.209,1.209l-3.022,1.211l-4.837-0.605l-3.627,3.023l-2.418-1.814h-4.232l0.604-3.023l2.419-1.209l2.418-0.604   L1162.622,209.44z"
     id="path9071"
     stroke-width="2.5392"
     stroke="#000000"
     fill="#AFE9AF" /><path
     d="M1207.964,121.778l3.023,2.418l1.209,2.418   l3.627,0.605v1.813l-3.022,1.211l-7.255-0.605l-1.813,0.605l-3.022-0.605v-2.418l1.813-0.605l0.604-1.813l1.209-0.605v-1.813   L1207.964,121.778z"
     id="path9073"
     stroke-width="2.5392"
     stroke="#000000"
     fill="#AFE9AF" /><path
     d="   M1223.682-142.113l5.441-0.303l5.441,4.232l3.022,5.441l5.44,6.045l7.255,6.65l4.837,3.023l1.813,2.418l2.419,1.209l1.813,2.418   l4.232,1.814l1.813,1.209l0.604,3.021l-2.418-0.604l-3.627-0.605l-6.046-1.813l-3.022-1.814l-10.277-6.045l-2.419-4.232   l-5.44-7.254l-1.814-1.814l-3.627-1.209l-2.418-2.418l-3.023-3.627l-1.813-1.814L1223.682-142.113z"
     sodipodi:nodetypes="cccccccccccccccccccccccccc"
     id="path9075"
     stroke-width="2.5392"
     stroke="#000000"
     fill="#AFE9AF" /><path
     d="M1286.557-56.568V-60.8h3.022l0.604,2.42l0.604,4.23   l3.628,1.814l-1.21,3.023l-2.418,1.813l-1.209-2.418l-1.813-2.418L1286.557-56.568z"
     id="path9077"
     stroke-width="2.5392"
     stroke="#000000"
     fill="#AFE9AF" /><path
     d="M1461.88-49.312l3.627-3.629l3.023,1.814   l2.418,3.023h3.023l1.209-3.023v-3.023l-1.209-2.418l-1.21-3.627l3.628-1.209l1.209,3.023l1.813,3.021l1.209,4.232l0.604,7.254   l-0.604,2.42l-2.418,5.439l-0.604,4.232l-2.418,1.209l-6.65,0.605l-6.046-3.023l-1.813-4.836l-0.604-1.209l-1.21-3.627   l-0.604-1.211l-1.209-0.604l0.604-2.418L1461.88-49.312z"
     id="path9079"
     stroke-width="2.5392"
     stroke="#000000"
     fill="#AFE9AF" /></g>
	
	
	
	
	
	
	
	
	
	
	
	
	
	
	
	
	
	
	
	
	
	
	
	
	
	
	
	
	
	
	
	
	
	
	
	
	
	
	
	
	
		
	<path
   id="path9165"
   fill="none"
   stroke="#000000"
   stroke-width="0.8464"
   d="M405.939-738.418L405.939-738.418z" />
	
	
	<g
   id="DK-81"><path
     d="M654.681-644.818l6.216,1.561l4.179-1.19   l2.988,2.989l4.788,2.988h5.396l2.407,4.179v3.016l13.145,6.56l2.407,4.205l2.381-3.597l3.015-4.179l3.571-4.206l1.798-2.988   l-1.189-5.978l-2.989-1.19l1.19-3.016l2.988-4.179l5.396-0.608l2.988,1.799l1.799,4.205l0.582,1.19l1.799,1.799l0.607,4.179v2.988   l-2.406,2.407l0.608,5.396l2.406,1.772l2.989,2.407l4.179,6.586h10.184l13.172,1.189l8.966,2.989l6.586,2.407l4.18,1.189   l1.217,4.18l-3.598,3.015l-2.988,2.381l-1.799,1.19l-1.799,2.406l-1.19,4.788l-1.798,5.369l0.581,3.015l2.407,1.19l2.989-0.608   l1.798-2.38l3.598-1.217l5.369-1.19l4.787,0.608l1.217,2.989l5.369,7.775l5.396,6.586l2.989,4.18h5.396l3.571-1.772l4.205-0.608   l4.179,1.19l5.396,2.988l6.586,3.598h4.788l8.384-1.799l1.772-2.988l1.799-2.989l2.407-2.407l2.38-1.771h7.803l4.179-2.407   l2.989-1.19l1.799-1.19l2.38-2.406l2.407-3.598l1.19-2.38l1.798,1.798l2.989,0.582h13.172l3.597-1.189l5.37-2.989l13.779-4.787   l8.967-5.978l4.205-3.598l2.381-2.988l1.19-6.004l4.787-1.799l7.194-1.19l0.608-5.978l1.799-3.598l1.19-2.38l4.179-1.799   l5.978-2.988l4.258-4.259l0.106-0.158l-5.925-2.54l-4.232-1.692l-2.539-1.692l-3.385-2.539l-5.079-3.386h-6.771l-6.771,3.386   l-4.231,4.231l-2.539,2.539l-3.386,0.847l-2.539-0.847l-2.539-2.539l-3.386-1.692l-3.386,3.385l-2.539,3.386l-3.386,3.386   l-8.464,5.078l-3.386,0.847l-2.539,3.386l-2.539,3.386h-8.464l-6.771,0.846l-5.924,5.078h-18.621l-11.003-1.692l-7.617-1.692   l3.386-1.693l6.771-5.078l14.389-1.692h10.157l9.31-3.386l5.925-3.386l5.925,0.847l4.231-1.693l6.771-2.539l5.078-4.231   l5.925-5.925l6.771-3.386l6.771,1.692l3.386,1.693h2.539l1.693-5.078l7.617-5.078l9.311-1.693l5.925,2.539l1.692,3.386l6.771,3.386   l5.079-0.847h3.386l0.846-4.231l4.232-1.693l5.925,4.232l9.31,1.692h19.467l3.518,0.952l0.159-1.534l-0.873-5.131l-5.978-6.851   l-5.131-7.697l-0.847-5.978l-1.719-8.543l-2.566-6.004l-2.565-14.521l-0.846-21.371l1.719-23.091v-14.547l2.565-11.109   l4.259-12.828l2.565-8.543l0.847-5.978l6.004-8.569l11.108-6.824l4.285-4.285l1.692-5.978l3.438-4.285l2.565-5.131l0.847-11.108   l2.565-4.259l2.565-2.565v-3.438l5.132-19.652l4.258-11.982l5.132-13.674l7.696-11.109l3.438-8.543l10.236-12.828l6.004-7.697   l1.693-2.566l1.719-1.719l4.285,1.719l4.258-2.565l6.005-6.851l2.564-4.258l2.539-6.85v-17.086v-6.851l-1.692-11.109l-2.565-8.569   l2.565-5.978l2.565-3.412l-3.412-4.285l-2.564-1.692l-0.873-17.113l4.284-30.787l4.259-7.697l7.696-6.824l0.873-3.412l-1.72-5.131   l-5.131-6.004l-5.131-13.674l-7.697-13.675l-6.823-6.85l-8.57-11.956l-3.412-12.828l-0.846-12.828l1.692-8.543l2.565-10.262   l5.132-7.697l11.981-16.24l7.696-13.674l13.675-12.828l17.959-13.674l16.24-10.262l2.565-3.439l-1.719-3.412l-5.978-3.412   l-7.697-1.719l-11.108,5.131l-6.851,2.565l-30.761,22.218l-30.787,24.81l-23.091,16.24l-11.955,4.285l-17.113,7.697l-8.543,2.566   l-10.263,1.692l-7.696,2.566h-5.978l-19.679-2.566l-16.24-2.565l-7.696-1.693l-4.259-1.719l-5.131,1.719l-3.438,3.412   l-11.109,11.109l-5.978,12.828l-11.108,12.828l-14.547,17.086l-4.285,3.438l-8.543,5.978l-5.978,11.109l-13.675,25.656   l-15.394,23.937l-5.978,11.981l-8.569,12.802l-6.824,11.981l-11.981,15.394l-12.828,15.394l-10.263,12.828l-7.671,8.543   l-8.569,5.131l-9.39,8.543l-7.696,4.285l-6.851,5.131l-4.259,5.978l-10.262,5.131l-19.679,3.412l-7.697,1.719l-11.955,0.847   l-10.263,1.719h-14.547h-13.675l-14.521-5.131l-13.7-5.978l-11.956-5.131l-12.828-2.565l-6.85-0.873l-4.259,0.873l-4.285,3.412   l-13.674,7.696l-6.851,5.978l-17.959,6.85l-14.521,3.412h-11.981l-15.367-0.846l-11.135-6.004l-15.394-10.262l-4.259-1.693   l-5.131,0.847l-5.131,1.719l-6.851,7.697l-11.109,11.108l-11.108,10.263l-4.285,8.543l-8.543,5.131l-5.131,4.285l-13.675,17.086   l-9.416,11.982l-17.959,17.086l-5.978,7.697l-10.263,17.959l-11.108,17.959l-11.109,16.24l-11.108,23.938l-6.851,16.239   l-1.72,10.263l-3.412,17.959l-2.565,10.263l3.386,1.481l0.608,3.623l1.825,1.799v3.042v3.015l1.799,1.825l1.824-2.434l1.825-1.798   l-1.825-7.883l0.608-5.422l2.407-1.217l1.825-1.217v-9.071l0.608-10.263l1.798-4.232l1.825-1.217l1.799,0.608l1.825,1.217   l3.015,3.624l4.841,5.448l1.825,3.624l-0.608,3.623l0.608,9.072l0.608,5.422l2.406,4.841l3.016,3.624l3.042,6.665l1.798,4.231   l3.016,6.031l1.217,3.041l3.016,2.407l5.448,4.231h4.84l1.217-3.623l3.624-3.624l3.015-1.825l1.825-1.189l5.422-3.65l3.65-1.19   h1.799l1.217,1.19l4.231,1.825l4.232,4.231l1.217,1.825l3.015,3.016l4.232-0.608l3.015-4.232l1.825-2.406l-0.608-6.058   l-1.825-3.623l-1.798-3.624l-4.232-0.608h-7.273l-1.19-1.825l1.19-3.623h1.217l1.217-1.799l1.217-4.84l1.189-3.042l0.608-3.624   l1.825-1.798l3.016-2.434v-3.624l-2.407-3.015l-3.042-2.434l-2.406-4.813l-0.608-3.65l0.608-2.407l1.217-1.216l1.798-0.608   l3.624-4.232l1.825-3.624l7.855-2.406h4.231l0.608-2.434l4.232-1.19l8.464-0.608l3.623-1.824l2.407-3.016l1.825-3.624l4.84-3.623   l6.639-7.273l2.434-3.624l0.608-3.016l-0.608-4.231l0.608-3.016l0.582-5.448l2.434-6.639l5.448-9.072l3.016-4.232l0.608-3.623   l0.607-4.841l2.407-5.448l4.232-3.623h6.057h3.624h4.84l4.813,2.406l10.289-5.422l4.84-3.042l9.072-1.799l5.423-2.433l12.695-1.19   h12.114l15.711-1.825l7.855-2.407l7.855-7.882l1.217-5.422l3.623-2.434l1.217-2.407l6.639-0.608l4.232,0.608l1.217,1.217   l0.608,1.19l1.189,1.825l6.058,2.407v-1.798l3.015-3.042l3.624-3.015l3.649-0.608l6.031-0.608l1.217-3.016l1.798-2.407l3.042-1.825   l2.407-2.407h3.623l1.825,2.407v1.825l3.624,4.232l-1.217,3.624l8.464,0.608l5.448,1.798h1.825l1.799,1.825l2.433,1.217   l3.624,0.582l2.407-1.799l4.231-2.434l1.217-0.582l6.639,1.19l4.232,1.217l1.217,1.217l4.231,2.407l12.088,0.608l6.057,0.608   l10.871-2.433l11.479-1.799l3.65-3.015h5.422l4.232-3.042h9.68l9.681,0.608l10.871,2.434l9.681-1.217l6.03-1.825l3.65-0.608   l6.03-2.407l7.247-3.015l5.448-6.057l6.058-3.015l1.798,0.608l2.434,1.798l1.19,3.624l6.665,3.042l4.841,0.608h3.623l9.072-3.65   l1.19-3.624l1.217-3.624l1.217-3.015l0.608-1.825l1.189-3.015l1.825-3.015l1.217,0.608l0.608,1.798l1.19,3.624v5.449l-1.19,4.232   l-3.65,3.016l-0.581,2.433v3.015l-1.217,2.407l-4.232,1.216l-1.217,0.608l-4.231,1.217l-6.03,1.19l-4.232,1.825l-2.434,3.015   l-2.406,2.434l-7.855,6.639l-6.666,3.015l-1.798,3.042l-2.434,3.623l-3.016,6.031l-3.623,6.057l-4.841,4.232l-3.015,1.824   l-2.434,0.582l-2.407,0.608l-2.433,1.825l1.216,2.407l-1.216,3.623l-3.624,1.217l-2.407,3.016l0.608,3.649l1.19,4.232l1.217,1.799   l-0.608,3.623l-3.016-0.608l-3.623-3.015l-2.434-1.217l-3.016-6.031l-1.824-4.84v-4.232v-5.448l0.608-3.623v-6.031l-1.799-3.649   v-3.624l-0.608-3.015l-2.434-2.407h-6.639l-4.232-1.217l-2.406-4.231l-2.434-3.624l-9.072-0.608l-4.231-1.217l-6.64,1.217   l-8.464,1.217l-7.247,0.582l-6.665,1.825h-3.016h-6.665l-7.247,1.216l-6.03,3.016l-6.665,4.232l-1.799,4.231l-3.65,4.232   l-2.406,4.231l-3.624,7.247l-6.665,8.464l-5.422,6.665l-4.841,2.407l-0.608,4.232l-4.84,8.464l-4.232,6.665l0.608,2.406   l4.232,3.016l6.639,4.84l1.825,3.016l1.824,6.665v6.031l-3.041,4.231l-3.016,3.042l-1.825,4.231l-3.015,7.247l-3.624,3.016   l-2.407,3.042l1.799,3.623l2.434,3.016l1.19,5.448v1.19v3.65v7.247l2.433,1.217l7.248,4.813l2.406,2.434l1.825,2.406l1.825,4.232   v1.825l-0.608,7.247l-4.231,3.016v2.433l-2.434,2.407l-1.19,1.825l-3.042,1.798L616.7-671.4l-4.841,4.232l-4.84,4.84l-5.422,4.232   v4.231l0.608,3.016l2.406,2.406l1.825,3.624c0,0,2.396-1.194,4.813-1.799c2.419-0.604,3.042-2.434,3.042-2.434l1.799-3.015   l2.433-0.608l3.016,0.608l6.057-6.03l1.19-1.217l3.042-1.217l6.03,1.217l3.016-2.434h3.649l2.407-1.19l3.016,3.624l1.217,3.015   l3.015,1.825L654.681-644.818z"
     stroke-width="0.8464"
     stroke="#000000"
     fill="#AAEEFF"
     id="path2221" /><path
     d="M1226.462-993.372l15.561,0.598l4.189-1.795   l6.584-2.992l4.189-1.795l7.182-1.197h11.371h6.583l2.993-0.598l5.386-1.795l1.796-3.591l2.394-1.197l1.796,1.795l4.787,1.197   l5.387,1.197l4.189,2.992l1.197,1.197l0.598,2.992l0.6,5.985v2.993v1.795l-1.796,2.992l-1.197,2.394l-1.196,5.386l-1.796,1.197   l-1.197-5.985l1.197-1.795v-2.394l-2.394-2.394l-1.197-2.992l-2.395,0.598l-3.59,1.795l-2.395-1.795l-2.394-1.197l-5.387,1.795   l-10.175,1.795l-2.394,1.795l-1.196,1.795h-1.796l-2.992,2.394l1.795,2.993l1.796,1.795l1.795,4.189l0.599,6.583l-2.992,3.591   l-3.591,2.993l-1.197,2.394l-2.992,1.197h-5.984l-3.592-2.394l-1.795-1.197h-5.387l-8.379,0.599l-4.189,2.394l-13.765-2.394   l-4.788-1.197l-4.189-0.599l-4.788-2.394l-3.591-3.591l-2.394-3.591l1.196-2.992l4.189-5.386l5.985-4.788l4.189-4.189l1.796-2.992   l3.59-2.993L1226.462-993.372z"
     stroke-width="2.5392"
     stroke="#000000"
     fill="#AAEEFF"
     id="path9145" /><path
     d="M1219.879-1030.478l1.796-2.992l1.795,0.599   l0.599,1.795v1.795l-0.599,1.197l-3.591,1.197l-2.992-1.795L1219.879-1030.478z"
     stroke-width="2.5392"
     stroke="#000000"
     fill="#AAEEFF"
     id="path9147" /><path
     d="M1191.151-968.236l5.387,4.189l1.197,4.189   l3.591,4.788l3.591,2.993l0.599,1.795l-3.591,1.197l-1.796-2.992l-4.788-5.386l-3.591-2.993l-0.599-1.795l-2.992-2.394   l-1.197-1.795l1.197-1.795H1191.151z"
     stroke-width="2.5392"
     stroke="#000000"
     fill="#AAEEFF"
     id="path9149" /><path
     d="M1234.841-938.91l-2.992-2.992l4.788-2.993   l1.796-2.992l2.394-1.197l8.978-0.598l8.379,0.598v1.795h5.386l2.992,0.599l-1.795,2.394h-3.591h-2.395l-4.189,1.197l-2.992,2.394   l-1.795,2.394l-5.387-0.599l-5.984,0.599L1234.841-938.91z"
     stroke-width="2.5392"
     stroke="#000000"
     fill="#AAEEFF"
     id="path9151" /><path
     d="M1246.212-929.932l4.189-2.993l2.992,0.599   l0.6,1.795v2.992l-2.395,1.197l-2.394,0.599l-4.189,0.598l-2.395-1.197l-2.394-0.599l0.599-1.795h1.795L1246.212-929.932z"
     stroke-width="2.5392"
     stroke="#000000"
     fill="#AAEEFF"
     id="path9153" /><path
     d="M1120.53-1120.251l-3.591-1.795l-1.795,1.795   l2.394,2.992l1.795,1.796l2.395-0.599l1.197-1.197l0.598-2.394L1120.53-1120.251z"
     stroke-width="2.5392"
     stroke="#000000"
     fill="#AAEEFF"
     id="path9155" /><path
     d="M1128.909-1111.872l-3.591,1.197l0.599,1.795   l2.394,2.394l2.395,0.599L1128.909-1111.872z"
     stroke-width="2.5392"
     stroke="#000000"
     fill="#AAEEFF"
     id="path9157" /><path
     d="M399.356-735.425l1.197,5.984l2.992,0.599   l0.599,1.795l1.197,1.197v2.395l-0.599,1.196l-3.591,1.197l-5.985-1.197l-3.591,5.387l-2.394,1.795h-1.796l-1.795,1.796v2.992   l-1.197,4.189l-0.599,1.197l2.394,2.992l2.993-1.197l3.591-1.795l2.394-1.197l1.796-2.992l1.795-1.197l1.796,2.992l2.394,1.796   l1.796,2.394v1.796l-1.796,2.394l-1.795,1.796v1.197l-0.599,5.984l2.992,1.796v1.795l3.591,1.197l4.189-2.395l1.796-2.992   l-0.599-5.386l-0.599-1.796l0.599-1.796l1.795,0.599l0.599,2.993l1.796,4.189l4.788,7.182l2.394,3.591l1.795,4.189l2.395,5.984   l1.197,3.591l5.984,1.796l4.788-0.599l5.386-4.189l7.183-0.599l4.189,1.796l4.787-0.599l4.189-2.394l5.387-1.796h1.196l1.197-2.394   l-1.197-1.197l3.591-8.379l3.592-2.992l4.189-3.591l5.984-5.387l8.379-4.189l1.197-3.591v-7.182v-3.591l0.598-4.189l1.796-4.189   l2.394-1.796l2.993-2.394l0.598-3.591l1.197-0.599l3.591-0.599l1.197,1.796v2.394l1.795,1.197l1.197-2.992l-1.197-3.592   l-1.795-3.591v-2.992l-4.788-2.992l-1.197-4.189l-2.394-6.583l-1.795-4.788l-0.599-12.568l-1.796-2.992v-3.591l2.395-2.993   l1.196-4.189l2.992-3.591l2.395-0.598l2.992,2.992l2.992,1.795l2.993,2.395l0.598,2.992l-2.394,2.992l1.197,2.992l3.591-1.196   l0.599-2.993l0.599-6.583l2.992-4.788l1.197-2.992l1.795-4.788l3.591-7.78l3.591-4.189l-2.394-7.182l-1.197-6.583l-1.197-5.387   l-4.188-1.196l-3.592,1.196l-5.386,2.992l-8.379,5.387l-1.796,1.796l-5.984,5.386v4.788l-3.591,4.189l-2.395,2.394l-10.772,1.197   l-5.387,0.599l-5.386,3.591l-8.379-0.599h-9.575l-6.584-0.599l-2.394-2.992l-1.796,0.599l-0.599,2.394l-2.394,0.599l-4.788,5.985   l1.197,3.591v5.386l-4.788,4.189l2.395,2.395l-4.189,1.196l1.795,5.387l0.599,4.788l-2.394-1.197l-2.993-2.394l-2.992,2.394   l-2.992,2.395l-0.599,2.992l1.796,1.196l5.386-0.598l0.599,2.394h2.992l3.591,3.591l1.197,1.796l1.796,1.196v3.591l-1.796,0.599   l-2.992,1.197l-2.992,2.394l-7.183-0.599l-4.188,0.599l-2.993-1.196l-4.189-1.197l-5.984,0.599l0.599,1.795l-0.599,1.796   l-1.796,1.197l-2.394,0.598l-2.394-0.598l-2.395,1.196V-735.425z"
     stroke-width="2.5392"
     stroke="#000000"
     fill="#AAEEFF"
     id="path9167" /><path
     d="M589.076-791.682l-4.788,2.394l-0.599,4.788   l3.591,1.795l4.788,4.189l2.394,1.796l1.197,3.591l1.197,3.591l3.591,2.992l3.591-1.795l-1.197-3.591l-2.992-4.189l-0.599-1.796   l-1.196-2.992l-1.796-1.796l-2.992-4.188L589.076-791.682z"
     stroke-width="2.5392"
     stroke="#000000"
     fill="#AAEEFF"
     id="path9171" /></g>
	
	
	
	
	<g
   id="DK-83"
   inkscape:label="#g3136"><path
     d="M217.947-158.359l0.344,5.053l-1.799,18.752   l-1.217,12.695l-4.231,12.697l-4.232,12.695l-3.624,6.639l-8.463,24.783l-4.232,7.273l-7.247,19.943l-12.114,24.783l-4.231,6.057   v3.623l6.057,3.625l6.057,2.406l6.64,4.232l5.448,3.648l8.464,5.424l6.03,4.84l5.449,5.449l17.535,16.928l9.072,7.246l2.407,5.449   l4.84-2.434l1.825-4.232l1.799-3.016l-4.84-4.84l-4.841-6.031l-4.813-7.273l-4.232-3.623l-1.217-3.016l3.016-1.217l0.608-3.623   l-6.639-6.639l-1.825-7.273l1.217-4.814l2.407-6.057l3.623-3.623l4.232-4.84l4.231-4.232h4.232l6.057,1.824l3.016,3.625l1.216,4.84   l-1.824,3.016l-3.624,1.215l-1.799,1.191l-4.231,2.434l1.799,3.623l4.84,4.232l3.624,4.84l2.433,3.016l1.799,4.232l5.448,7.246   l6.031,7.855l3.649,4.232l3.016,6.666l5.448,10.262l4.232,4.84l6.03,12.695l3.624,1.217h2.433v-2.406l1.19-1.217h3.042l3.015,2.406   l1.217,1.217l4.232,2.408l2.406,3.041l3.624-0.609l3.624-1.824l1.216-2.406l1.825-0.609l3.016,0.609l2.407,3.016l1.824,1.215   l5.449,4.232l4.84,3.625l4.232,3.623l4.813,7.246l3.042,4.842l0.608,12.086l3.015,6.057l1.217,15.104l3.016,9.072l0.608,10.896   l-3.042,12.088l-3.016,4.84l-0.608,8.465v8.463v7.248l-1.798,9.68l0.608,12.697v5.422l3.015,11.506l0.608,4.23l-0.608,6.639   l0.608,7.248l-1.217,5.449l-1.825,6.057l0.608,4.84l1.825,1.799v3.016l-4.231,3.041l-2.434,3.016l-3.624,9.072l-1.189,4.84   l-1.825,6.639l-4.232,7.248l-1.824,11.504l-2.407,9.072l-1.217,6.641v7.855l2.434,4.84l1.798,6.639l1.825,8.463l0.608,3.65v6.031   l-1.217,3.016l-3.015,8.463v4.232l-3.624,6.664l-1.825,4.842l-3.015,4.23l-3.042,6.031h3.042h5.422l7.882,3.65l3.016,1.189   l7.855,3.625l4.84,3.648l9.681,3.625l7.855-1.217l6.639-3.016l1.217-2.434l4.232-1.799l6.03,2.406l4.231,3.625l2.434,1.824   l3.624,0.609l6.057,0.607l2.407,1.189l4.231-3.014l3.624-1.217l8.464,1.217l9.681,2.406l5.448,2.434l4.231,1.217l10.871,6.639   l7.855,7.246l3.016,3.043l7.273,1.189l4.84,0.609l11.479-1.799l3.623,1.189l7.247,1.826l6.058,1.799l7.855,4.23l9.072,6.057   l9.681,3.625l2.406,1.824l0.608,3.016l-2.434,1.217l-1.189,1.799l1.189,6.664l1.217,4.232l2.434,5.422l8.464,5.449l4.232,1.217   l2.406-2.434l-0.608-1.799l3.624,1.799l2.434,1.824l4.84,1.217l1.19,1.799l4.231,1.826l6.058-3.625l3.015-4.23l4.232-4.842v-2.434   l1.825-5.422l3.015-2.434l1.825-1.189l3.016,0.582l2.406,0.607l2.434,0.609l2.407,3.623h1.825l9.071,0.609l3.624-2.408l7.855-2.434   l3.016-4.84l6.057-7.855l4.84-5.422v1.189l8.464-1.189l5.423,0.582l4.84-2.406l1.825-5.449l0.608-4.232l-0.608-5.422l5.422-3.041   l1.825-3.016l2.407-4.232l6.057-4.84l3.016-1.217l2.433-0.582l1.799,1.799l5.448,4.232l3.016,1.217l4.232,1.799v4.23l-2.407,3.043   h-4.232l-2.433-2.434l-4.814-1.799l-4.231-0.609h-3.042l-3.623,3.016l-2.407,3.623l1.19,2.434l5.448,2.408l2.434,1.217l5.422,3.014   l2.434,4.842l2.407,3.014l-1.799,1.826l-5.449,1.799l-1.216,1.824l1.216,2.406l1.799,4.232l3.65,1.826l3.015-1.217h6.64   l2.433,0.607l3.624,3.623l0.608,3.625l5.422,5.447c0,0,4.841,4.848,9.072,1.826c4.232-3.023,4.841-2.434,4.841-2.434l2.433-6.031   v-3.623l-2.433-6.666l-3.624-2.406l-0.608-4.232l-0.608-4.23h-6.639l-4.232-5.449l0.608-3.623l2.407-4.232h3.016l2.433,1.217   l2.407,2.406l6.665,3.016h4.841l1.798-2.406l-1.216-6.059l-7.247-9.652v-4.232l1.216-3.65l-1.824-4.232l-1.19-4.813l1.19-12.697   v-5.447l-1.19-3.625l-8.464-2.434h-5.449l-4.231-2.406l-6.665-5.449l-6.031-3.623l-1.824-3.016l-4.232-3.041l-1.19-6.031   l-2.433-5.447l-3.016-4.84l-6.665-4.232l-2.407,0.607l-2.407,4.842l-2.433,1.215l-5.449,2.408l-5.422,1.824l-7.855,3.016   l-2.434,3.623l-7.247-0.607l-5.448-2.408l-9.072-2.432l-6.639-3.016l1.216-6.639l3.016-2.434l6.639,2.434l2.434-3.65l4.84-3.016   l5.423,0.609l6.057,1.215l6.03-5.447l6.058-6.057l6.057-2.408l1.799-7.246l-0.608-3.625l-3.016-2.432l-2.407-3.016l-3.649-3.016   l-3.016-6.666l-5.448-2.406l-6.03-1.217l-4.232-0.607l1.217-5.449l2.407-1.799l3.623,2.406l4.841-1.189l3.015,3.016l2.434,0.607   l0.608-3.623l-2.434-3.041l0.608-0.609l-5.448-6.639l0.608-3.623l0.608-2.434l1.824-1.799l4.814-1.217l4.84,0.609l1.217-1.217   v-3.625l6.639-3.014l8.464-6.059l3.042-3.014l7.855-0.609l4.231,1.217v2.406l-1.216,1.826l-1.217,2.406l1.824,3.623l2.407,1.826   l6.665,1.824l3.624-3.65l6.639-5.422l6.058-2.434l3.015-3.623l1.217-5.449v-3.623l-4.84-1.799l-6.031,2.408l-3.649-0.609   l-1.19-1.799l2.407-4.23l3.623-2.434h9.072l1.825-2.408l6.639-2.434l2.434,1.217l4.813-0.607l5.449-2.406l4.231-1.217l6.057-1.217   l6.03-5.422l2.434-4.232l3.016-3.623v-4.232l-3.624-4.232l-4.84-1.824l-3.624-1.217l-13.912-0.609l-9.072-1.189l-9.654-0.609   l-6.665-0.607l-4.84-1.824l-1.19-2.408l-1.825-7.246l1.825-6.666l4.231-6.031l0.582-6.057l-1.19-3.623l-3.041-6.057l-3.624-3.625   l-3.623-3.014l-2.407-0.609v-3.623l4.84-2.406l2.407-4.842v-5.447l-1.825-7.248l-4.813-3.623l-3.042-4.84l1.217-6.666l2.407-2.406   l2.433-2.434l4.841,0.607h6.03l4.232-3.016l2.433-1.824l7.247-5.422l5.449-1.826v-3.623l-2.434-5.447l-3.623-4.842l-7.089-7.326   l-4.285-6.004l-5.131-3.412h-3.412l-2.565,1.719l-2.565,4.26l-4.285,0.873l-5.131-2.566l-4.259,0.846l-12.828,0.848h-8.569v-4.26   v-3.438l3.438-0.846h11.955l7.696-0.848l5.132-1.719l3.412-2.566l-1.693-1.719l-3.412-2.564l-3.438-4.26l3.438-2.564l5.979,0.846   l3.411,3.438l2.566,2.541l0.846,2.564l6.851,3.439h4.285l4.258-3.439l1.72-3.412l2.565-2.564l6.824,0.871l4.284,0.848l7.697,4.258   l8.543-0.846l0.873-4.26V61.94l-3.438-5.131v-6.004l4.285-2.566l5.978-1.693h2.565l-0.847-5.131l5.132-2.564l4.258-5.133   l3.438-7.695l10.263-6.852l9.39-5.131l6.851-2.566l-0.873-3.41l-5.104-1.721l-11.982,0.873h-16.239l-5.979-2.564l-1.719-5.133   v-5.977l-0.847-4.285l-6.851-7.697l-5.978-2.564l-3.438-2.566l-1.692-5.977l-0.873-4.285l-5.978-3.412l-9.39-0.848l-7.696-0.871   l-15.394-0.848h-6.005l-1.692-3.412l5.978-2.564l10.263-1.721l9.416-1.719h12.802l5.131,1.719l1.349,0.186l0.45-3.438l0.608-4.18   l2.38-2.988l0.608-5.396l-0.608-4.787l-1.189-2.406l-4.788-4.18l-4.787-2.988l-6.586-0.609l-2.989-0.582l-4.787,2.99l-2.38-0.609   l-3.598-0.582l-1.799-6.004l2.989-3.598l3.597-3.57l2.381-2.988l1.799-2.406l0.608-4.18l-2.407-2.988l-3.57-1.217l-4.788-0.582   l-3.015,1.799l-5.369,3.57l-7.194,1.217l-5.369-4.205l-1.217-5.979l-2.381-8.992l-0.608-4.787l-3.597-4.18l-2.381-2.381   l-2.988-0.607h-5.396l-4.787-2.408l1.19-4.178l4.787-2.381l-1.19-5.396l1.19-4.205l-1.771-4.787l-4.206-4.18l-4.179-5.395   l-5.396-7.777l-4.788-6.586l-0.608-3.57l-0.581-3.598l-0.608-1.797l-1.799-2.99l-4.787-2.988l-5.978-2.988l-2.381,1.771   l-9.602,1.217l-2.988-2.988l-5.369-1.799l-7.194-1.799l-4.18-1.799l-1.189-3.598l-1.217-3.596l-5.369-4.18l-3.598,2.381   l-4.205,3.598l-2.381,4.205l-2.988,3.57l-1.19,7.803l-4.787,5.977l-8.993,9.576l-7.776,8.965l-7.194,2.99l-1.771-1.191   l-2.407-2.379l-6.586,3.57l-1.799,6.004l-3.597,4.18l-2.381,1.189l-4.787,1.217l-2.407,5.369l-2.988-0.582l-1.799-2.406   l-3.571,2.406l-0.607,1.771l-1.799,3.598l-5.978-1.189l-1.799-4.789l-3.597-2.406l-2.381,1.217l-2.989-2.988l-3.015-1.799   l-2.381-2.988l2.989-6.586l2.988-7.195v-2.988v-5.396l-2.988-2.379l-8.385-1.799l-9.575-2.408l-7.775,0.609l-4.787-0.609   l-2.381,3.016l-0.608,2.988l-4.787,2.99l-2.989,1.799l-0.608,7.166l-1.798,2.99l-0.582,4.205l-3.598,2.381l-3.597,1.799   l-4.787,3.596l1.798,3.598l4.788,1.799l0.608,2.381l1.189,1.799l0.608,3.596l-4.205,0.582l-7.776-0.582l-4.179,1.191l-6.004,1.799   l-6.586-1.191l-0.582-1.217l-6.004-2.988l-1.19-2.988l-0.582-5.396l-1.799-4.787l-7.194-5.979l-7.775-2.379l-11.982-0.609   l-4.787,1.191l-2.381,1.797l-5.978,1.191l-4.787-2.381l-2.988-5.396l-1.799-2.379l-2.407,1.189l-3.597,1.189l-6.586,2.408   l-0.582,4.178l4.179,1.191l1.19,3.016l0.608,2.381l-0.608,3.596l-4.787,1.799l-3.571,1.799l-4.787,4.18l-2.407,5.395v2.381   l-2.988,4.205l-0.608,4.787h-4.787l-4.18-2.406l-10.183-2.988l-2.381-1.799l-1.798-3.598l-1.19-4.18l-4.206-1.797l-5.369-1.799   l-5.396-2.381l-4.787-4.787l-2.989-3.016l-1.19-1.771l-3.597,1.189l-1.19,2.988l-0.608,2.99l-2.406,2.988l-16.743,1.799   l-8.992-2.99l-3.571-3.596l-2.988-2.988l-3.016-3.598l1.217-4.18l-0.608-2.988l-2.989-0.609l-5.978-1.799h-3.597l-3.598,5.396   L217.947-158.359z"
     stroke-width="0.8464"
     stroke="#000000"
     fill="#E9C6AF"
     id="path11154" /><path
     d="M730.831,73.897l-9.404,1.711l-3.42,5.129v4.275   l2.564,5.984l4.275,6.84l4.274,1.711l4.275,1.709l2.564,8.551l4.275,5.984v5.129l4.274,3.42l6.84,1.711l5.985,1.709l3.42,1.711   l4.274,0.855l3.42,3.42l-2.564,3.42l-6.84-0.855l-3.42,2.564l2.564,0.855l5.985,3.42l5.13,6.84l1.71,4.275l-2.565,5.129   l-8.55-0.855l-4.274,1.711l-3.42,4.273l2.564,4.275l11.97,5.984l6.84,1.711l6.84,0.855l0.855-3.42l1.71-1.711l1.71,1.711   l-0.855,5.129l1.71,4.275l-0.854,1.709l-2.565,2.566l-0.854,5.129l3.42,1.711l1.71,5.984v7.695l-0.855,5.129v4.275l-5.13,0.855   l0.855,5.129l-0.855,4.275l-2.564,2.564l3.42,3.42l0.854,2.564l3.42,0.855l-0.854,1.711l0,0l-4.275,4.273l3.42,1.711l1.71,2.564   l3.42,5.131l3.42,2.564l0.855,4.275l1.71,3.42l2.564-0.855l4.275,2.564l6.84-0.855h2.564v0.855l1.71,1.711l-0.854,3.42l1.71,6.84   l-0.855,6.84l-1.71,2.564l-1.71,5.129v3.42l2.565,2.566l3.42,2.564l-0.855,5.984l-0.854,3.42l-2.565-0.855l-1.71,4.275l3.42,1.711   l2.565,2.564h4.274l2.565,3.42l2.564,2.564l3.42-1.709l0.855-3.42l3.42-2.566l-1.71-5.984l-3.42-4.275l-2.565-1.709l-0.854-3.42   l-0.855-3.42l-1.71-2.564v-4.275l-3.42-1.711v-5.984l2.565-1.709l3.42-2.566l3.42,0.855v7.695l6.84,0.855l2.564,2.564l2.565-0.855   l4.274,2.564l5.985-0.854l2.564-3.42l2.565-3.42h2.564l1.71,4.273l3.42,4.275l0.855,2.564l3.42,0.855l-0.855,3.42l-0.854,2.564   l-1.71,3.42l2.564,0.855l0.855,2.564l3.419,2.566l1.711,5.984l4.274,1.709l-1.71,5.131l-9.404,0.855l-1.71-1.711h-4.275   l-6.84,2.564l0.855,2.566l-4.275,1.709l-6.84,5.131v2.564l-2.564,5.984l-1.71,2.564l1.71,4.275l2.564,0.855l5.13-0.855l6.84-1.711   l2.565-3.42l2.564-4.273l2.565,1.709l2.564,4.275l5.984,3.42l6.84,2.564l4.275,1.711v2.564v5.129l5.984,0.855l4.275-3.42   l3.42-0.854l4.274,4.273l6.84,5.984l3.42,1.711h5.13l-1.71-1.711l-3.42-1.709l-4.274-4.275l-3.42-4.273l-5.985-1.711l-4.274-1.709   l0.855-3.42l2.564-0.855l-1.71-1.711l-3.42-1.709l-0.854-2.566l0.854-2.564h6.84l3.42,0.855l5.13,4.275l8.55,10.26l9.404,9.404   l5.985,1.709l4.274,0.855l1.71,0.855l1.71,1.709l2.565,0.855h0.854l0.855-3.42v-1.709l2.564-0.855l4.275,0.855l-0.855,2.564   l2.565,2.564l4.274,5.131l0.855,0.854l5.13,0.855l3.42-0.855l11.114-0.854l2.565,1.709l5.13,4.275l7.694,4.275l5.13,1.709   l4.275-1.709l10.26-3.42l6.84-3.42l3.42-5.986l5.984-2.564l4.275-2.564h6.84l7.694,4.275h5.13l4.275-4.275l5.984,0.855l5.985,1.709   h4.274l4.275-2.564l4.274-5.984l1.71-9.404l5.13-6.842v-5.129l3.42-7.695v-6.84l1.71-7.693l4.274-5.986l3.42-1.709l2.565-9.404   l1.71-5.131l0.855-4.275l2.564-9.404l1.71-9.404l-1.71-5.131l-1.71-3.42l-0.854-3.42v-5.129l-2.565-4.275l-2.565-9.404v-4.275   l3.42-0.855l-0.854-2.564l-2.565-1.709l-4.274-1.711l-6.84-3.42l2.565,0.855l9.404-1.711v-2.564l3.42-3.42l2.564,3.42l3.42,3.42   l1.711,4.275l-0.855,3.42l1.71,3.42l5.13,1.709l5.13-4.273l1.71-5.131l-4.275-5.129l-3.42-2.566l-3.42-2.564l-2.564-3.42   l0.855-8.549l-4.275-9.406l-1.71-5.129l-4.274-6.84l-2.565-3.42v-6.84l-2.565-4.275l-9.404-11.969l-1.71-5.131l-5.984-7.693   l-4.275-3.42l-3.42-5.131l1.71-1.709l-5.13-2.566l-3.42-2.564l-1.71-3.42l4.275-4.275l7.694-3.42l2.564-0.854l5.985-3.42h9.404   l1.711-4.275v-5.131l-3.42-4.273l-4.275-3.42l-1.71-5.131l-4.275-3.42v-6.84l-1.709-5.984l-2.565-11.115l-2.565-5.984   l-7.694-11.115l-1.71-5.129l-5.13-8.551l-4.274-6.84l-1.71-3.42h-5.985l-3.42-0.855l-1.71,1.711l-0.854,2.564l1.71,3.42   l5.984,2.564l5.985,2.566v4.273l0.854,8.551v10.26l-3.42,3.42l-3.42-5.131l-0.854-5.984l1.71-5.129l-2.565-5.131l-2.564-1.709   l-2.565,3.42l-1.71,11.113l1.71,7.695l4.275,7.695l5.13,0.855l1.71,4.273v3.42l1.71,5.986l-0.855,3.42l-4.274,1.709l-2.565-4.275   l-0.854-3.42l-1.71-2.564l-2.565-1.709h-4.274l-2.565,3.42v6.84l5.13,3.42l2.565,1.709l2.564,0.855l4.275,2.564v6.84l1.71,2.564   l-4.275,3.42l-7.694-0.854l-1.71-1.711l-2.565-0.855h-2.564l-0.855,3.42l-5.13,2.566l-1.71,0.854l-7.694,4.275h-5.13l-2.565-0.855   l-1.71-1.709l-2.564-4.275l-1.71-0.855l-5.13-5.984l0.854-0.855l2.565-2.564l2.564-0.855h4.275l2.564-5.129l-1.71-3.42h-2.564   l-2.565-1.711l-1.71-1.709l-2.564-3.42l-1.71-2.564l4.274-4.275h2.565l-1.71-1.711l0.854-1.709l1.71-0.855h1.71l0.855,2.564   l5.984,2.566l4.275,7.693l5.984,3.42l3.42-2.564l0.855-5.129l-4.275-4.275l-10.26-6.84l-5.13-4.275l-13.68-11.115l-5.13-9.404   l-10.26-8.549l-10.26-6.84l-12.824-7.695l-4.275-3.42l-2.564-2.564l-6.84-0.855l-3.42,2.564l-1.71,2.564v4.275l4.274,0.855   l2.565,5.129l0.854,2.566l0.855,3.42v2.564l-0.855,4.275l-5.13-0.855l-5.13-4.275l-0.854-3.42v-5.129v-3.42l-0.855-2.566   l-5.13-2.564l-4.274,1.711l-2.565,3.42h-9.404l-4.275,0.854l-9.404,4.275l-10.26,4.275l-14.535,5.129l-14.534,5.131l-10.26,5.129   l-12.824,5.986l-7.695,7.693l-6.84,6.84l-8.55,3.42l-11.97,0.855l-11.114-1.709l-6.84-5.986l-1.71-3.42v-5.984l0.854-5.129   l-0.854-3.42l-2.565-1.711l-9.404-1.709l-5.985,0.854v1.711l-5.13,1.709h-5.13l-1.71,1.711l0.855,6.84l0.854,0.855v3.42   l-5.13,4.273l-5.13,5.986L730.831,73.897z"
     stroke-width="2.5392"
     stroke="#000000"
     fill="#E9C6AF"
     id="path3213" /><path
     d="M1088.866,494.188l3.022-9.068l1.209-9.674   l1.813-6.65l2.418-2.418l3.023-5.441l3.022-9.672l3.022-8.465l5.441-4.836l3.628-6.045l7.255-9.674l2.418-3.627l1.209-6.65   l2.418-6.045l1.814-6.65l3.627-6.65l3.627-9.068l1.814-7.859l0.604-3.627l2.419-7.256l2.418-7.254l3.022-9.674l-0.604-6.65   l2.418-8.463l0.604-4.836l3.022-5.441l-0.604-3.023l-1.813-2.418l-4.837-1.814l-4.836,6.047l-2.419,3.627l-3.627,5.441   l-3.023,7.254l-5.44,12.092l-6.65,4.232l0.604,4.23l-1.813,11.488l-2.418,6.045l-1.209,6.65l-2.419,3.627l-1.813,2.418   l-1.813,7.256l-4.232,3.021l-3.627,4.836v4.838l-3.627,3.627l-3.023,5.441l-0.604,1.813l-3.627,2.42l-4.837,2.418l-6.045,0.604   l-2.419,1.209l-1.813,3.627l-3.627,3.023l-3.023,3.627l-2.418,4.232l-4.837,4.836l-1.209,1.209l-3.022,2.42l-3.022,4.836   l-4.837,2.418l-1.209,3.023l-1.813,2.418l-1.209,3.023l1.209,3.021v3.023l1.813,1.813l3.022-0.604l3.023-2.418l3.022,1.209   l-1.209,1.209l2.418,4.232v2.418l-3.022,1.813l1.209,1.814l2.418,1.209l-1.813,3.627l-2.418,1.209l-3.628-1.209l-1.209,1.814   l-3.022-3.023v-1.813l-2.419-0.605l-1.813,4.232l-1.813,5.441l-1.209,6.045v4.836l-3.022,1.209v2.42l-3.023,4.836l-3.022,0.604   l-2.418-0.604l-2.419-1.814l-4.231-0.604l-1.813-1.814l-3.023-0.604l-1.209,3.627l3.627,6.045l3.628,2.418l5.441,2.418l2.418,5.441   l1.813,3.627l0.604,4.838v5.441l0.604,4.23l1.813,4.232l2.419,3.627l2.418,3.627v1.814v3.023l-0.604,2.418l-2.418,1.813   l-1.21,5.441l2.419,2.418l1.813,3.629l1.209,3.627l3.022,1.209l7.255-1.209l3.628-5.441l3.627-3.627l1.209-7.256l3.628-4.836   l1.813-6.045l1.813-6.047l1.813-6.045l1.814-5.441l2.418-4.836c0,0,1.813-6.045,3.022-9.068s3.628-7.859,3.628-7.859l2.418-7.859   l3.627-8.463L1088.866,494.188z"
     stroke-width="2.5392"
     stroke="#000000"
     fill="#E9C6AF"
     id="path9085" /><path
     d="M1020.551,461.542l4.231,0.604l1.209,4.232   l1.209,3.023l-1.209,4.232l-1.813,3.021l-4.837-1.813l-1.209-2.42l-4.836-3.021l1.209-3.627l2.418-3.023L1020.551,461.542z"
     stroke-width="2.5392"
     stroke="#000000"
     fill="#E9C6AF"
     id="path9087" /><path
     d="M1053.196,412.573l-5.44,3.021l-2.418,4.836v3.629   l-0.605,3.021l4.837-2.418l1.209-4.836l2.418-1.814V412.573z"
     stroke-width="2.5392"
     stroke="#000000"
     fill="#E9C6AF"
     id="path9089" /><path
     d="M1054.406,431.313l-6.65,2.418v1.814l3.627-0.605   h4.232l5.44-1.813l-1.813-2.418h-1.813L1054.406,431.313z"
     stroke-width="2.5392"
     stroke="#000000"
     fill="#E9C6AF"
     id="path9091" /><path
     d="M986.091,445.218l-7.255,3.629l-2.419,6.65   l2.419-1.814l2.418-0.605l3.022-3.627l3.023,1.209l0.604,1.209l2.418,1.209l1.813-2.418v-2.418l-2.418-1.814L986.091,445.218z"
     stroke-width="2.5392"
     stroke="#000000"
     fill="#E9C6AF"
     id="path9093" /><path
     d="M884.524,416.2l-2.418,4.836v6.045l3.022,3.629   l4.836,4.836l2.419,3.627l0.604,4.836l0.604,6.047l1.209,4.23l6.65,6.65l4.231,6.65l6.046,7.256l4.231,2.418l5.441,5.441   l1.813,4.23l3.023,5.441l4.836,6.047l4.837,3.627l3.627,4.836l5.441,4.232l3.022,4.836l1.813,2.418l4.232-1.209l4.836-5.441   l4.232-3.627l5.441-1.209l8.464-3.023l3.627-0.604h9.068l3.627-1.814l1.21-2.418l-2.419-3.023l-4.231-3.627l-1.209-2.418   l-1.21-1.209l0,0l-2.418-3.023l-3.627-2.418l-2.418-4.836l1.813-1.209l1.813,1.209l3.627-0.605v-3.021l-1.209-1.209l-3.022-1.211   l-2.418-1.209h-3.628l-1.209,1.814l-4.231,0.605l-0.604-2.42l-3.023-0.604l-3.627,1.813l4.231,1.211l1.209,1.813l2.419,1.209   l-1.814,3.023l-1.209,3.627l-4.231,1.209l-2.419,1.209l-3.627-5.441l-2.418-4.836l0.604-3.023l-0.604-3.021v-2.418l0.604-3.023   l-0.604-3.627l-1.813-2.418l-1.814-1.209l-1.209-1.209l-1.813-0.605h-3.022l-1.21,1.814l2.419,1.209l0.604,1.209l1.813,3.021   l0.604,2.42l-1.813,1.813l-1.813,3.627l-3.023,1.814l-4.231,1.814l-3.628-3.629l-4.836-5.439l-4.837-3.023l-0.604-6.045   l-1.813-1.814l-2.418-3.023l-4.232-3.021l-2.418-5.441l-2.418-1.209l-3.023-2.418l-5.44-2.42l-3.023-2.418l-1.813-2.418   l-1.813-1.814l-2.418-3.627l-2.419-4.836l-1.209-2.418l-0.604-1.209l-0.604-1.209H884.524z"
     stroke-width="2.5392"
     stroke="#000000"
     fill="#E9C6AF"
     id="path9095" /><path
     d="M1030.828,378.112l-4.232,0.605l-2.418,3.021   l-1.813,0.605l-1.813,2.418l-0.604,3.023h-3.628l-3.022,2.418l-4.232,4.23l-4.231,1.814l-3.628,1.209l-1.813,2.418l-2.418,1.209   l-3.628,0.605l-1.209,3.627v2.418l3.023,3.023l0.604,4.232v4.23v2.42l2.418,4.836l3.627,3.627l2.419,1.814l1.209,3.021l2.418,1.814   l1.813,2.418l3.628,1.814l1.209-1.814l0.604-2.418h2.418l1.813,0.604l3.023,1.211l2.418,2.418l3.628-1.814l3.022-3.023l1.209-2.418   l1.209-1.813l1.813-2.42l1.21-3.021l2.418-1.209l0.604-2.418l-1.813-1.209l-1.814-0.605l-2.418-0.605l-2.418-1.813l-1.813-1.209   l1.209-2.418l2.418-3.629l1.813-1.813l1.814-3.627l1.813-4.232l3.627-1.814l0.604-2.418l1.813-3.023v-3.021l-2.418-1.209   l-1.813-1.814l-2.418-2.418l-1.209-1.209v-1.814l-1.21-1.209l-0.604-3.021l-1.209-1.814L1030.828,378.112z"
     stroke-width="2.5392"
     stroke="#000000"
     fill="#E9C6AF"
     id="path9097" /><path
     d="M1053.196,376.903l3.628,0.604l2.418,1.211   l1.813-1.211l3.023-1.209l3.022,1.814l1.209,3.023v3.021l-1.209,1.814l1.209,1.209l1.209,0.605l1.814,1.209l-1.21,2.418   l-1.813,2.418l-3.022-0.605l-4.837-0.604l-4.836-1.209l-1.814-1.209v-1.814l-2.418-1.814l-3.022-2.418l1.813-1.813   L1053.196,376.903z"
     stroke-width="2.5392"
     stroke="#000000"
     fill="#E9C6AF"
     id="path9099" /><path
     d="M973.394,398.063L973.394,398.063z"
     stroke-width="0.8464"
     stroke="#000000"
     fill="#E9C6AF"
     id="path9101" /><path
     d="M979.44,402.899L979.44,402.899z"
     stroke-width="0.8464"
     stroke="#000000"
     fill="#E9C6AF"
     id="path9103" /><path
     d="M975.812,398.063l-3.022-3.023l-1.209,2.418   l-0.604,3.023l0.604,1.813l2.418,1.209l1.209,0.605l2.419,1.209h2.418l0.604-3.023l-1.209-1.209L975.812,398.063z"
     stroke-width="2.5392"
     stroke="#000000"
     fill="#E9C6AF"
     id="path9105" /><path
     d="M979.44,423.454l-2.418,3.627l3.627,0.605   l2.418-1.814L979.44,423.454z"
     stroke-width="2.5392"
     stroke="#000000"
     fill="#E9C6AF"
     id="path9107" /><path
     d="M959.489,416.803l-3.022,2.418l-6.046-1.209   l-3.627-3.627l-1.813,3.023h-2.419l-0.604,6.045l4.232,3.023l6.65-1.814l2.418,1.814l1.813,3.021l1.813-2.418h3.023l3.022-3.627   l0.604-3.023L959.489,416.803z"
     stroke-width="2.5392"
     stroke="#000000"
     fill="#E9C6AF"
     id="path9109" /><path
     d="M898.429,378.112l6.65,2.418v1.814l4.837,1.813   l3.022,1.814l6.046,1.814l2.418,3.627h2.418l2.419,1.813l2.418-0.604l2.418,0.604l0.604,2.42l1.813,1.813l1.814,1.814l-1.209,1.813   l-3.628,1.209l-1.813-0.604l-1.813-1.814l-4.837-0.604l-4.231-1.209l-2.419-1.814l-6.045-2.418l-5.441-1.209l-3.022-2.418   l-1.814-0.605l-0.604-2.418v-3.023l-1.209-1.209l-2.418-1.813v-3.023H898.429z"
     stroke-width="2.5392"
     stroke="#000000"
     fill="#E9C6AF"
     id="path9111" /><path
     d="M857.319,362.999l4.231-2.42l3.022-1.813l1.21,1.813   l-1.21,3.023l-0.604,1.814l3.628,3.627h3.022l1.813,2.418l1.814,1.814v1.813l-1.814,1.814l-1.813,3.023l-5.44-0.605l-4.232-3.023   l-2.418-1.209l-1.209-4.23v-2.42v-1.813V362.999z"
     stroke-width="2.5392"
     stroke="#000000"
     fill="#E9C6AF"
     id="path9113" /><path
     d="M845.227,316.446l4.232,0.605h3.627l3.022-1.814   h2.419l-0.604-2.418l-1.814-0.604l-1.813-1.814l-1.209-2.418l-1.813-1.209l-4.232-0.605l-1.209,1.209v1.814l-1.813,1.814   l-2.418,1.209l-1.209,2.418v1.813H845.227z"
     stroke-width="2.5392"
     stroke="#000000"
     fill="#E9C6AF"
     id="path9115" /><path
     d="M1105.794,90.946l-3.628,2.418l-0.604,3.023   l-1.209,3.627l1.813,4.232h4.231l2.419,1.209l3.022,0.604l3.023-1.813l3.627-1.211l3.627-1.209l-2.418-3.021l-2.418-3.023   l-3.023,1.209l-1.813-1.813l-1.813-1.814l-0.604-2.418l-1.209-0.605L1105.794,90.946z"
     stroke-width="2.5392"
     stroke="#000000"
     fill="#E9C6AF"
     id="path9117" /><path
     d="M902.056,3.284l-4.232,1.814l-3.022,1.813   l1.209,3.629l4.232,3.021v6.047l0.604,5.439v2.42l1.209,0.604h1.209l1.209-2.418v-5.441l-0.604-5.441v-2.418l3.022-1.209   l0.604-2.418l-0.604-2.418l-1.209-1.814L902.056,3.284z"
     stroke-width="2.5392"
     stroke="#000000"
     fill="#E9C6AF"
     id="path9119" /><path
     d="M720.084,162.284l-3.628,2.418l-1.209,3.023   l3.022,3.021l4.232-0.604h2.418l1.813-0.605l0.604-3.627l-3.627-1.813L720.084,162.284z"
     stroke-width="2.5392"
     stroke="#000000"
     fill="#E9C6AF"
     id="path9121" /><path
     d="M761.193,200.975v-4.836l-2.418-1.814l-3.022-2.418   l-1.209-2.418l-2.419,1.209l-2.418,3.627l-1.209,3.023l1.813,6.045l2.418,2.418v0.605l3.023,4.836l4.231-3.021l1.209-2.42v-1.813   V200.975z"
     stroke-width="2.5392"
     stroke="#000000"
     fill="#E9C6AF"
     id="path9123" /><path
     d="M662.65,303.147l-4.837,1.209L656,305.565   l-1.813,3.627l3.022,1.814l1.209,0.604l1.21,1.209l1.209,1.209l2.418,1.814l0.604,1.209l2.418-1.209l3.023-2.418l-1.813-6.047   L662.65,303.147z"
     stroke-width="2.5392"
     stroke="#000000"
     fill="#E9C6AF"
     id="path9125" /><path
     d="M751.52,353.93l9.068,9.672l7.255,8.465l3.628,5.439   l7.254,3.629l6.65,1.813l6.65,1.209l5.441,2.418l2.418,4.232l4.231,9.674l3.628,4.836l4.836,7.256l4.837,7.857l3.022,10.883   l1.209,5.441l1.814,10.277l1.209,6.65v4.232l1.813,3.021l2.418,7.256v1.813l-1.209,3.629l-3.627,1.209l-7.255-1.209l-2.418,1.209   l-5.441,5.439l-6.046,5.441h-8.464l-15.113-2.418l-3.628-4.232l-5.441-1.813l-8.464-3.627l-1.813-5.441v-3.627l4.232-3.629   l4.231-1.813l3.628-0.605l3.022,1.209l2.418,3.023l3.023,4.232l4.231,2.418l6.046,3.627l3.022,3.023l3.628,0.604l3.022-0.604   l1.813-1.209l-0.604-1.814l-3.627-4.836l-1.209-1.209l-3.023-2.418l-7.859-4.232l-4.836-4.836l-6.046-4.838l-3.627-1.209   l-2.419,0.605l-4.231,1.813l-0.604,3.023l-5.441,1.209h-2.418l-3.022,1.209l-1.814,1.209l-5.44-1.209l-5.441-1.209l-2.418-1.814   l-1.813-1.813l-2.419-3.627l-0.604-4.838l-0.604-3.021l-0.604-1.209l-2.418-3.629l-2.419-3.021l-1.209-3.023l-0.604-9.674   l0.604-8.463l-1.209-5.441l-1.209-1.813l-0.604-2.42l-0.604-2.418l0.604-2.418l1.813,1.209l1.813,2.418l3.628,3.023l5.44,4.232   l2.419,4.232l1.209,4.836l3.022,4.836l4.232,6.65l3.627,2.418l3.628-0.604l1.813-1.814l4.836-1.209l-1.209-1.814h-1.813   l-1.813-1.209l-3.628-5.441l-1.813-3.627l1.209-1.813l1.814-1.814v-1.814l-2.419-1.209l-4.231-2.418l-1.209-1.813l-4.232-2.42   l-3.022-1.209l-2.419-1.209l-1.813-2.418l-3.022-2.418l-0.604-1.814l1.209-1.813l0.604-2.418l1.813-1.209l1.209-1.814l-3.627-0.605   h-6.046l-10.277-1.813h-8.464l-6.046-2.418l-4.836-5.441l-5.441-3.023l3.023-2.418l2.418-2.418l3.022-1.814h1.813l1.814,1.209   h3.022l3.022-1.209l-1.209-2.418l-2.418-0.604l-6.65,0.604l-4.231,0.605l-4.837-1.814l-4.232-1.209l1.21-4.836l3.627-5.441   l1.813-2.418l7.255-3.023l4.837-4.232l3.627-3.021l7.859-1.209l6.65-0.605l9.068,1.814l4.836,2.418l2.419,3.627l9.673,6.045   L751.52,353.93z"
     stroke-width="2.5392"
     stroke="#000000"
     fill="#E9C6AF"
     id="path9127" /><path
     d="M248.538,25.249l-1.795,3.592v2.992l0.599,2.395   l1.795,2.393l1.796,4.189l3.591-1.795l0.599-5.984l-1.197-2.395l-1.796-2.992L248.538,25.249z"
     stroke-width="2.5392"
     stroke="#000000"
     fill="#E9C6AF"
     id="path9175" /><path
     d="M260.508,88.688l-6.583-5.387l-2.992-5.984   l-2.395-5.387l0.599-3.59l1.796-5.387l1.795-0.598l1.796,0.598l1.795,1.197l0.599,2.992v2.395v2.992l0.599,2.393l2.394-2.393   l1.197-5.387l1.197-4.787l4.788-3.592l4.787,1.197l3.591,1.197l1.197,4.189v2.393l0.599,7.781l-0.599,4.189v2.992l0.599,3.59   l2.992,2.994l1.796-1.797l2.394-2.992l3.591-1.197l2.395,2.395l2.394,5.387l1.197,4.787l0.599,4.189l1.196,1.797l-2.992,2.992   l-2.394,3.59l-1.796,3.592l2.395,4.189l3.591,3.59v8.379v2.992v2.992v4.189v2.992l-1.796,2.395h-2.992l-5.387-1.795l-3.591-4.189   l-1.795-3.592l-1.796-5.385l-1.197-3.592l-3.591-10.773l-2.394-5.984l-0.599-4.189l-3.591-10.771l-1.796-2.395L260.508,88.688z"
     stroke-width="2.5392"
     stroke="#000000"
     fill="#E9C6AF"
     id="path9177" /><path
     d="M328.137,173.075h-8.379l-2.992,3.592l-2.394,2.393   l-1.796,4.789l2.394,4.787l4.788-0.598l5.387-3.592l3.591-4.787l2.992-1.797l1.197-2.992v-2.393L328.137,173.075z"
     stroke-width="2.5392"
     stroke="#000000"
     fill="#E9C6AF"
     id="path9179" /><path
     d="M300.606,224.544l-5.984,5.387l-4.189,3.592   l-2.395,6.582l-1.795,5.387l0.599,5.387l-2.993,7.781v5.385l0.599,3.592l-1.795,3.592l-1.197,5.385l-0.599,4.189l-1.197,1.197   l-2.992,4.789l0.599,3.59l2.394,4.189v3.592l0.599,4.189l3.591,7.182l3.591,4.189h7.78l4.788-2.395l4.189-4.189l8.379-4.787v-8.379   l-1.795-1.797l-2.395-2.992l2.992-7.779v-7.781v-3.59l2.993-2.992l5.386-2.395v-3.592l-1.196-3.59l0.598-7.182l1.197-1.797   l1.796-2.992l2.992-7.182l-1.197-4.189l-6.583-5.984l-6.583-2.395l-5.985-2.393L300.606,224.544z"
     stroke-width="2.5392"
     stroke="#000000"
     fill="#E9C6AF"
     id="path9181" /></g>
	<g
   id="DK-82"
   inkscape:label="#g3095"><path
     d="M217.947-158.359l2.459-1.322l3.598-5.396h3.597   l5.978,1.799l2.989,0.609l0.608,2.988l-1.217,4.18l3.016,3.598l2.988,2.988l3.571,3.596l8.992,2.99l16.743-1.799l2.406-2.988   l0.608-2.99l1.19-2.988l3.597-1.189l1.19,1.771l2.989,3.016l4.787,4.787l5.396,2.381l5.369,1.799l4.206,1.797l1.19,4.18   l1.798,3.598l2.381,1.799l10.183,2.988l4.18,2.406h4.787l0.608-4.787l2.988-4.205v-2.381l2.407-5.395l4.787-4.18l3.571-1.799   l4.787-1.799l0.608-3.596l-0.608-2.381l-1.19-3.016l-4.179-1.191l0.582-4.178l6.586-2.408l3.597-1.189l2.407-1.189l1.799,2.379   l2.988,5.396l4.787,2.381l5.978-1.191l2.381-1.797l4.787-1.191l11.982,0.609l7.775,2.379l7.194,5.979l1.799,4.787l0.582,5.396   l1.19,2.988l6.004,2.988l0.582,1.217l6.586,1.191l6.004-1.799l4.179-1.191l7.776,0.582l4.205-0.582l-0.608-3.596l-1.189-1.799   l-0.608-2.381l-4.788-1.799l-1.798-3.598l4.787-3.596l3.597-1.799l3.598-2.381l0.582-4.205l1.798-2.99l0.608-7.166l2.989-1.799   l4.787-2.99l0.608-2.988l2.381-3.016l4.787,0.609l7.775-0.609l9.575,2.408l8.385,1.799l2.988,2.379v5.396v2.988l-2.988,7.195   l-2.989,6.586l2.381,2.988l3.015,1.799l2.989,2.988l2.381-1.217l3.597,2.406l1.799,4.789l5.978,1.189l1.799-3.598l0.607-1.771   l3.571-2.406l1.799,2.406l2.988,0.582l2.407-5.369l4.787-1.217l2.381-1.189l3.597-4.18l1.799-6.004l6.586-3.57l2.407,2.379   l1.771,1.191l7.194-2.99l7.776-8.965l8.993-9.576l4.787-5.977l1.19-7.803l2.988-3.57l2.381-4.205l4.205-3.598l3.598-2.381   l5.369,4.18l1.217,3.596l1.189,3.598l4.18,1.799l7.194,1.799l5.369,1.799l2.988,2.988l9.602-1.217l2.381-1.771l5.978,2.988   l4.787,2.988l1.799,2.99l0.608,1.797l0.581,3.598l0.608,3.57l4.788,6.586l5.396,7.777l4.179,5.395l4.206,4.18l1.771,4.787   l-1.19,4.205l1.19,5.396l-4.787,2.381l-1.19,4.178l4.787,2.408h5.396l2.988,0.607l2.381,2.381l3.597,4.18l0.608,4.787l2.381,8.992   l1.217,5.979l5.369,4.205l7.194-1.217l5.369-3.57l3.015-1.799l4.788,0.582l3.57,1.217l2.407,2.988l-0.608,4.18l-1.799,2.406   l-2.381,2.988l-3.597,3.57l-2.989,3.598l1.799,6.004l3.598,0.582l2.38,0.609l4.787-2.99l2.989,0.582l6.586,0.609l4.787,2.988   l4.788,4.18l1.189,2.406l0.608,4.787l-0.608,5.396l-2.38,2.988l-0.608,4.18l-0.45,3.438l4.655,0.662l4.259,3.438l5.131,5.979   l3.438,5.131l5.978,2.566l3.412,1.691l6.851,1.719l4.258,1.721l8.57,4.258l5.978,0.873l5.131-3.439l7.697-3.412l7.696-2.564h10.263   l18.806-3.412l11.955-0.873l6.851,3.439l1.719-4.285l-2.565-4.26l-2.565-5.131l-6.004-2.564l1.719-4.285l2.566-4.285l5.978,0.873   l5.978-1.719v-0.848l6.851-1.719l6.85,0.846l1.693-3.412l-1.693-4.283l-6.004-1.693l-5.978-0.873l-3.412-2.539l-5.131-3.438   l-0.847-5.133l3.412-4.258l4.259-2.566l4.284-4.283l5.132-5.133l0.846-3.41l-2.565-2.566l-0.846-5.131l-4.285-3.412l-5.104-2.566   l1.692-6.004h4.285l3.412,1.719l5.131,4.285l1.719,4.26l5.132,2.564l5.978,1.719l3.412-5.977l1.719-1.719l-3.412-2.566   l-3.438-1.719h-5.978h-4.284l-2.566-2.566l-0.846-4.258l1.719-0.873l7.697-0.846l5.131-0.848l6.824-2.564l2.565-1.721l0.847-3.412   l1.719-5.131l3.412-0.846l1.72,1.693v4.283l-0.847,5.133l0.847,4.258l4.284,4.285l9.39,3.412l4.285-1.693v-3.438l1.719-1.693   l3.412-0.873l1.693-2.566l-0.847-5.977l-4.259-1.719l-2.565-1.693v-2.566v-2.564l2.565-3.412h3.412l5.132-3.439l6.823-5.977   l6.851-4.285l1.72-3.412l-0.873-3.412l-0.847-3.438l0.847-4.26l2.565-5.131v-8.543l-2.565-6.85l-0.847-4.285l0.847-8.543   l1.719-3.412l1.72-2.566l2.565-6.85l4.259-1.693l1.719-3.438v-1.693l-4.285-0.873l-1.692-2.566l2.565-8.543v-2.564l-1.719-4.26   l-3.412-10.262l-0.873-11.135l-5.131-14.521l-5.132-11.982l0.873-11.108l3.412-9.39l3.412-6.004l5.131-5.131l3.438-5.978   l8.543-5.979l3.412-2.565l0.847-3.412l3.438-6.004l9.39-3.412l2.565-0.846l3.438-5.132l1.692-5.131v-5.131l4.285-5.132l3.412-0.873   l5.978-2.539l0.873-3.438v-3.411l3.412-2.566h2.565l4.285,0.847l4.258-1.692l3.438-0.873l1.693,0.873l3.438,1.692v4.285   l0.847,2.565l5.131,3.412h6.824l3.438,0.846l1.693,2.566v2.565l-5.978,2.565l-2.566,1.719v2.566l-1.719,3.412l-5.104,2.565   l-3.438,6.004l-1.693,2.565l1.693,0.847l2.565,1.719l2.565,1.693l1.719,2.565v5.131l-6.85,5.978l-5.132-2.565l-1.692-3.412   l-2.565-1.719l0.847-5.105v-2.565l-1.72-0.873l-2.565,0.873l-3.412,5.105l-4.285,3.438l-4.258,1.693h-4.285h-6.824l-3.438,1.719   l1.72,3.412l3.412,2.565l4.284,2.566l-0.846,3.438l0.846,5.131l5.978,8.543h6.851l4.259-2.565l3.438-5.131l2.565-1.72l3.412-1.692   l7.696,2.565l3.412,0.847l1.72,4.284l8.543,4.259l4.285-1.693l2.565-2.565l1.692-2.565l4.285-6.851l9.39-11.108l8.569-10.263   l3.412-2.565l7.696,1.719l6.852,1.693l5.977,5.131l1.693,5.978l-0.847,9.416l-3.412,4.285l-4.284-1.72l-3.412,0.847l-3.412,4.285   l0.846,2.565l3.412,4.259l5.132,3.438l7.696,9.389l2.566,2.566l3.411,1.719l2.565-2.565l3.439-4.285l3.411-5.131l4.285-4.259   l1.692-2.565l-2.565-3.412l-0.847-3.438l1.72-17.086l1.692-3.438l2.566-4.259l1.719-2.565l5.131-1.719l4.259-2.566l6.004-4.258   l3.412-5.132l4.285-1.719l0.847-4.285l2.565-9.39l1.719-2.565l-0.872-3.412v-0.872l4.284-0.847h0.847l4.284,0.847l2.565-0.847   l5.132-9.416l10.263-11.955l3.412-3.438l1.719-5.104l0.847-12.828v-8.57v-3.412v-6.85l3.411-6.824l0.873-5.132l3.412-8.543   l2.565-2.565h7.697l1.692-1.719l0.873-1.72l-3.438-4.259l-5.131-5.131l-2.539-6.851l-7.697-6.823l-10.263-7.697l-1.719-2.565   v-4.285l-0.847-6.824l-2.565-5.131l-7.697-8.569l-10.262-5.132l-9.416-0.846l-6.824,0.846l-6.004,3.438l-10.236-0.873l-17.959,1.72   l-10.263,4.285l-20.524,0.846l-8.543,0.847l-17.113-3.412l-12.828-1.719l-8.543-4.259l-8.543-9.416l-5.132-4.285l-9.416-11.955   l-1.692-7.696l-2.565-8.543l-1.217-6.031c-1.237-0.64-2.222-1.163-2.222-1.163h-5.369l-2.989,0.608l-3.597,5.396l-8.385,8.357   l-4.787,6.005l-4.18,8.357l-4.787,4.206l-1.799,6.586l0.582,11.955l0.608,9.574l-2.38,4.206l-1.217,4.787l1.798,3.57l5.978,0.608   l3.598-0.608l2.988,0.608l1.217,1.799l-4.205,1.799l-3.598-0.608l-11.955-1.19l-7.775,1.19l-6.586,0.608l-2.989,2.988l-8.993,3.598   h-4.179l-5.396-4.206l-11.373,1.217l-4.788-0.608l-4.179-0.608l6.586-3.57h5.978l12.563,0.582h4.787l16.161-3.598l8.385-5.369   l4.179-8.992v-9.575l-0.582-6.586v-10.156l2.381-7.194l5.396-3.598l1.19-5.978l6.586-7.168l3.597-3.597l7.776-5.978l8.385-6.586   l7.168-5.396l6.823-0.265l0.794-0.503l4.284-5.131v-5.132l-2.565-8.543l1.693-3.412l0.872-2.565l-1.719-9.416v-4.285l-2.565-5.131   l-1.085-2.698l-2.592-1.058l-0.847-1.692l-5.078,1.692h-4.231h-3.386l-1.693,3.386l-4.231-2.539l-1.692-1.693l-5.079-0.846   l-5.925,3.385l-11.003,5.079l1.587-2.381l-4.258,4.259l-5.978,2.988l-4.179,1.799l-1.19,2.38l-1.799,3.598l-0.608,5.978   l-7.194,1.19l-4.787,1.799l-1.19,6.004l-2.381,2.988l-4.205,3.598l-8.967,5.978l-13.779,4.787l-5.37,2.989l-3.597,1.189h-13.172   l-2.989-0.582l-1.798-1.798l-1.19,2.38l-2.407,3.598l-2.38,2.406l-1.799,1.19l-2.989,1.19l-4.179,2.407h-7.803l-2.38,1.771   l-2.407,2.407l-1.799,2.989l-1.772,2.988l-8.384,1.799h-4.788l-6.586-3.598l-5.396-2.988l-4.179-1.19l-4.205,0.608l-3.571,1.772   h-5.396l-2.989-4.18l-5.396-6.586l-5.369-7.775l-1.217-2.989l-4.787-0.608l-5.369,1.19l-3.598,1.217l-1.798,2.38l-2.989,0.608   l-2.407-1.19l-0.581-3.015l1.798-5.369l1.19-4.788l1.799-2.406l1.799-1.19l2.988-2.381l3.598-3.015l-1.217-4.18l-4.18-1.189   l-6.586-2.407l-8.966-2.989l-13.172-1.189H727.92l-4.179-6.586l-2.989-2.407l-2.406-1.772l-0.608-5.396l2.406-2.407v-2.988   l-0.607-4.179l-1.799-1.799l-0.582-1.19l-1.799-4.205l-2.988-1.799l-5.396,0.608l-2.988,4.179l-1.19,3.016l2.989,1.19l1.189,5.978   l-1.798,2.988l-3.571,4.206l-3.015,4.179l-2.381,3.597l-2.407-4.205l-13.145-6.56v-3.016l-2.407-4.179h-5.396l-4.788-2.988   l-2.988-2.989l-4.179,1.19l-6.216-1.561l0.105,1.825l1.825,4.84l1.799,5.449l-3.016,3.015l-3.016,3.016l-0.607,4.231l-0.608,6.666   l-3.624,4.813v2.434l-1.217,4.231l0.608,5.449l-3.016,5.422l-2.433,4.231l-3.624,2.434v5.422l0.608,2.434l3.016,3.016l0.608,1.825   l2.433,1.189l6.031,0.608l3.015-2.406l1.825-1.217l1.217-1.799l1.799-1.825l6.665-2.407l2.407,0.582l1.217,1.825l0.607,3.016   l-1.824,3.041l-1.799,1.19l-1.217,1.217l0.608,2.407l0.608,1.825l1.19,3.015l-1.19,3.624h-4.232l-2.433-1.799l-1.799-1.217   l-0.608-3.623l-1.217-0.608l-2.407,2.433l-1.216,1.19l-3.016,4.232l-3.65,3.041l-2.406-0.607l-0.608-3.624l-3.624-3.65   l-3.623-6.639l-4.841-8.464l-1.825-6.639v-3.042l1.217-6.639l4.841-3.623l3.623-3.042l3.016-4.232l0.608-3.015l-1.19-7.247   l-4.232-3.016l-3.649-1.217l-1.799-0.608l-4.84-1.217l-5.449-2.406h-6.03l-1.825,2.406l-2.406,2.434l-3.624,1.19l-4.231-1.19   l-1.825-3.624l-1.825-3.041l-0.582-2.407l0.582-5.448l1.825-4.841l-0.608-2.406l-1.799-0.608l-1.825,1.825l-1.217,3.015   l-0.608,3.016l-1.798,5.448l-3.016,3.016l-4.84,2.433l-3.042,4.232l1.217,2.407l4.84,1.217l6.057-1.825l2.407,0.608l0.608,2.406   l-3.016,5.449l-1.824,2.433h-1.825l-2.407-2.433l-2.406-2.407l-6.058,0.608l-3.015,0.582l-1.217,1.825l-1.825,3.623v2.434   l3.042,2.407v3.015l-1.217,4.841l-1.825,5.448l-4.813,2.407h-5.449l-2.434-5.423l-1.189-4.231l-1.217-7.882l0.608-6.639   l1.798-6.058l4.232-7.247l2.434-4.84l2.406-3.624l3.624-2.406l4.231-2.434l4.841,1.825l2.434-0.608l-0.608-3.016l-4.232-3.042   l-1.217-4.231l2.434-3.624l7.247,0.608l1.217-1.798l1.799-6.058l2.433-3.015v-2.434l4.232-7.247h1.799l7.855-0.608l0.608-3.016   l-0.608-4.84l-2.407-3.016l-3.015-4.231l-4.232-4.232l-2.434-6.057l-4.231-11.479l-0.608-4.231v-6.058l2.434-3.623l-1.217-4.232   l-3.624-1.798l-3.015-1.825l-3.042-4.232l-6.639-3.015h-3.624h-3.042l-4.231,3.015l2.434,1.825l1.217,3.016l-1.217,1.799h-5.449   l-3.623-2.407l-2.407-0.608l-4.231-4.232l-7.274-1.216l-3.623-1.799l-2.407,3.015l-6.665,4.232l-7.247,5.448l-4.232,3.624   l-4.231,2.407l-6.639,1.216l-1.217,3.016l-1.217,7.882l-3.624,3.016l-3.623,6.03l-3.016,3.65l-3.65,3.015l-3.015,3.624l2.434,3.015   l4.231-1.189l3.016-0.608l1.799-1.217l2.433,1.825h1.799l2.434-1.217l3.015-1.217l2.434,1.217l1.799,3.623l5.448,2.407l1.799,3.042   l-0.582,2.406l-3.649,3.016l-5.423-0.582l-2.434-3.65l-0.608-2.406l-1.798-1.217l-1.217,0.608l-0.608,3.015l-1.799,1.825   l-3.041,1.825l-6.031,1.19l-2.434-3.016l-4.231-0.608l0.608-3.623l-2.407-0.608l-1.825,3.015l-2.406,3.65l-3.016,1.799   l-3.042,4.231l-2.406,2.434l0.608,5.422l-3.624,4.841l-4.84,3.623l-0.608,3.624l-6.665,4.84l-4.232,5.449l-3.015,1.825   l-1.799-2.434l-2.434-2.407l-4.231-2.434h-4.232l-2.406,1.825l-1.825,4.232l2.433,7.855l2.407,2.406l0.608,2.434l2.407,3.016   l0.608,2.434v4.813l3.015,1.825l4.232,3.015l1.825,3.624l7.247,3.65l1.825,1.189v5.449l-2.434,3.623l-1.799,3.016l-3.623,1.825   l-4.232,3.623v3.624l0.608,4.231l1.799,3.042l1.217,3.623v6.031l-0.608,5.448l-3.624,7.855l-5.448,3.016l-7.855,1.217l-8.464,1.824   l-11.479-4.84l-3.623-1.217l-4.841-6.03v-3.042l0.608-4.84l-1.825-1.799l-3.015,3.016l-4.841-1.217l-1.217-1.799l3.016-3.016   l3.042-2.433l0.608-7.247l-0.608-4.232l-1.217-4.84l-3.016-3.016l-2.434-3.624v-7.882l0.608-4.231l0.608-3.624l1.825-3.015   l1.799-1.825v-1.799l-3.624,1.217l-0.608,1.799l-3.015,4.84l-1.217,1.825l-1.799,3.016l-3.65,4.84l-3.015,1.19l-2.407,3.042   l0.608,3.015l-4.231,2.407l-1.825-1.19l-2.407-2.434l-0.608-2.406l-1.217-2.434l-1.825-3.624l-5.422-4.84l-7.855-3.624l-7.882-4.84   l-5.422-3.016l-7.855-3.015l-3.65-1.217l-13.277-0.608h-3.65l-2.407,2.434l-3.015,2.406l-0.608,5.449v3.015l-3.624,0.608   l-2.434-4.231l-0.607-4.841l-0.582-7.855l1.189-2.407l3.624,0.582l3.65-0.582l1.189-2.433l-3.015-3.624l-2.407-3.015h-2.434   l-9.071-2.434l-5.423-2.407l-1.825-3.015l1.217-4.841v-3.623l-3.041-2.434l-7.855-3.016l-3.624-4.231l0.608-6.058l1.825-3.015   h2.406l2.407,0.608l1.825,1.798l2.407,0.608l0.608-4.84l-0.608-1.799l-2.407-1.217l-3.016-1.217v-4.231l3.624-3.624l3.015,1.825   l1.825-3.623l2.407-1.217l1.825-3.016l-1.217-3.042l-3.016-0.581l-1.217-3.65l-1.216-5.422l-2.407-1.217l-3.624,4.231l-2.433,3.624   l-4.841,8.464l-7.247,12.695l-4.84,12.696l-4.232,12.087l-5.422,15.738l-5.449,15.711l-3.015,13.912l-3.042,11.479l-0.608,15.103   l-0.582,12.695l-2.433,13.305l-1.217,16.319l-1.799,13.304l-0.608,10.289v5.422l2.407,1.825h3.041l1.799-6.057l-0.608-7.247v-4.841   l0.608-10.87v-4.232l3.042-1.825l0.582,1.217l2.433,1.217h2.407l3.624,1.19l0.608,5.448v3.016l-1.19,3.041l-1.825,1.19l-1.217,3.65   v2.406l3.042,2.407l1.799,4.232l2.433,5.448l4.232,5.448l7.855,7.856l6.03,6.639l2.434,4.231l0.608,5.448l0.582,4.232l1.824,3.016   l4.232,2.433l4.84,1.799h1.799l-0.582,4.232l-1.217,4.84l-4.231,1.825l-7.247,4.84l-4.232,0.608l-3.041-1.825l0.607-4.84   l0.608-5.448l-4.84-3.624l-6.03-2.407l-5.449-2.433l-6.057-4.232l-3.623-3.016l-7.856-0.607l-1.824-3.624v-3.624l1.824-3.015   l3.016-2.434v-4.231l-3.016-3.016l-0.607-3.624l-4.232,0.608l-1.217,1.19l-0.582,3.042v6.03l-1.824,14.521v10.263v12.696   l1.216,26.607l-1.216,14.521l-4.841,18.726l-4.231,16.928l-4.841,17.536l-1.799,12.088l-4.231,15.129l-1.825,13.886l-2.407,10.289   l1.799,12.088l1.825,7.856l1.217,6.664l3.015,1.191l3.624-1.799l1.217-4.84v-3.625l-1.825-3.016l-0.608-5.448l1.217-3.016   l1.825-9.071l0.582-6.058l0.608-8.464l3.623-3.623l2.434-9.681v-4.841l1.799-1.798l1.825,1.217l2.406,3.623l6.057,3.016   l4.841,1.825l3.016,2.406l8.464,3.624l4.231,3.015l4.232,4.841l6.665,6.665l6.03,4.84l1.825,6.64l0.608,4.231v12.087l-1.217,10.896   l1.217,10.871l4.231,6.057l2.407,4.232l4.84,5.422l2.407,2.434l3.042,4.84l0.582,6.641l1.216,7.246l-2.406,6.666l-3.042,2.406   l-3.016,2.434l3.016,2.406l3.042,2.408l1.799,1.217l2.433,2.432l-3.623,3.016h-6.666l-2.406,1.799l-3.042,4.84l-3.016,2.434   l-3.015,5.422l-7.247,4.842l-4.841,1.824l-7.273,5.449l-1.799,3.623l-3.623-1.826l-0.608-2.406h-4.841l-0.607,2.406l-1.217,3.625   l-1.799,2.434l-3.016-3.043v-1.189l1.19-0.609l2.434-1.217l-1.825-1.215l-1.217-3.625l1.825-5.422h1.217l3.015,1.799h4.232v-3.623   l1.217-0.609l2.407-1.799l1.824-2.434l1.799-1.797l-3.016-2.434l-0.607-3.625l-3.624-0.607l-1.825,1.217l-1.19,6.031l-1.217-0.582   l-1.216-4.232l-3.016-1.826l2.407-4.23l2.433-0.609l2.407-1.217l0.608-1.799l-4.84-3.014l-7.248,0.582l-2.406,1.217h-2.434v2.432   l1.217,1.191l-0.608,3.041v2.406l-3.016,1.826l-1.216,2.406l2.406,0.609l1.825,1.217v3.623l-1.217,4.232l-1.799,1.799l-0.608,2.432   l-3.015,3.625l-0.608,5.447l-0.608,3.625l-1.825,1.189l-1.799-0.582v-1.824l-0.608-3.625v-4.23l3.016-3.016l2.434-4.232l1.19-5.449   l-1.799-9.68l0.608-3.623v-1.826l-4.232-4.23v-4.814l1.19-3.041l3.042-1.191v-2.434l-1.217-5.447l-2.434-1.799l1.217-2.434   l2.434-3.623l0.582-3.016l-1.799-6.057l-1.217-3.016l-4.84-4.232l-1.19-1.799l0.582-4.84l-3.016-4.232l-1.799-7.273l-3.041-0.582   l-3.016,0.582l2.407,1.217l0.608,1.824v2.408l1.217,5.449l0.607,3.623l1.217,6.057l1.19,9.654l1.217,9.68v21.768l0.608,26.609   l1.217,9.045L217.947-158.359z"
     stroke-width="0.8464"
     stroke="#000000"
     fill="#CDDE87"
     id="path11146" /><path
     d="M1030.159-107.615l-1.196,5.984l-1.796,8.979v12.568   l1.796,5.984l1.196,4.189l5.387,5.387l8.978,5.385l5.386-0.598l2.992,1.795l1.796,1.797l2.394-0.6l2.395-1.795l1.795-2.992   l1.197-5.387l2.394-4.189l2.993-5.387l1.196-4.787l-0.599-5.387l-0.598-3.592l-1.197-3.59l1.197-8.379l2.992-4.789l4.189-4.188   l3.591-4.789l2.992-4.787l2.394-2.992l1.796-2.994l0.599-2.393l4.189-3.592l1.795-7.779l0.599-2.992l-1.795-1.797l-0.599-2.393   l-0.599-2.994l-1.796-3.59l-1.795-0.598l-3.591,1.795l1.196,2.393h1.796l1.197,1.797l0.599,1.795v4.189l0.598,2.992v3.592   l-3.591,1.197l-2.394,4.787l-2.394,1.197l-4.189,1.197l-5.985-1.797l-2.394-1.795l-1.197-4.189l-0.599-1.795l-1.196-1.795   l-2.395-0.6l-2.394-2.395l-0.599-2.393l2.992-2.395l2.395-3.592l2.394-0.598l1.795,1.795l2.993-1.795l2.394-3.59l-2.394-2.994   l-8.978-2.393l-1.197-2.992l-4.788-1.797l-2.992-2.992l-1.196-2.395l-1.197-3.59l-0.599-5.984l-1.197-4.789l-0.599-7.182   l-0.598-5.387v-4.787l-0.599-2.395l-1.197-1.197l-1.197,0.6l-0.598,2.395l-2.993,3.59l-5.984,4.189l-1.796,4.189l-1.795,4.189   l-1.796,3.592v3.59l1.796,6.584l4.189,4.787l5.984,2.395l6.583,2.992l2.993,4.189l1.196,4.189l1.197,3.59v4.189v4.789   l-1.795,10.174l-0.599,4.189l-1.197,3.592l-2.394,2.992l-4.788,1.197l-4.189,2.393l-3.591-0.598l-4.189,3.59l-0.599,2.395   L1030.159-107.615z"
     stroke-width="2.5392"
     stroke="#000000"
     fill="#CDDE87"
     id="path9129" /><path
     d="M1101.379-165.07l-4.788,1.197l-1.795,1.197   l-1.796,0.598l-1.196,2.994l2.394,2.393h5.387l2.394-0.598l1.795-2.395v-1.795l-1.196,0.598l-1.796-0.598L1101.379-165.07z"
     stroke-width="2.5392"
     stroke="#000000"
     fill="#CDDE87"
     id="path9131" /><path
     d="M1112.75-169.259l-2.992,1.797l1.796,2.393   l1.196,0.6l1.796-0.6L1112.75-169.259z"
     stroke-width="2.5392"
     stroke="#000000"
     fill="#CDDE87"
     id="path9133" /><path
     d="M1074.447-136.341L1074.447-136.341z"
     stroke-width="2.5392"
     stroke="#000000"
     fill="#CDDE87"
     id="path9135" /><path
     d="M1073.4-139.782   l2.244,1.645l-1.796,1.197l-1.347-1.496L1073.4-139.782z"
     stroke-width="2.5392"
     stroke="#000000"
     fill="#CDDE87"
     sodipodi:nodetypes="ccccc"
     id="path9137" /><path
     d="M996.046-183.622l-4.189,1.197v1.795l3.591,1.797   l0.599,1.195l1.795,1.197l5.387,1.797l3.591,1.195l1.197-2.393l1.197-1.797l-2.993-1.795l-4.189-0.598l-1.795-0.6l-1.197-0.598   L996.046-183.622z"
     stroke-width="2.5392"
     stroke="#000000"
     fill="#CDDE87"
     id="path9139" /><path
     d="M927.22-62.728l9.576-2.395l3.591,0.6l2.992,1.795   l5.985-2.395v-3.59l-2.395-2.994l1.197-3.59l2.394-1.795l1.197-1.797l1.197-2.393h1.795v1.795l-1.196,1.197l2.992,2.992   l2.394,4.189v4.189l-1.196,5.387l-1.197,4.787l-2.992,2.992l-4.788,0.6c0,0-3.591-1.197-5.985-1.197c-2.394,0-10.174,0-10.174,0   l-4.788-2.992l-1.796-2.395h-2.394l-2.394-0.598l0.599-1.197l1.795-1.197H927.22z"
     stroke-width="2.5392"
     stroke="#000000"
     fill="#CDDE87"
     id="path9141" /><path
     d="M1043.925-302.72l-5.387,2.394l-1.197,2.395   l-1.196,1.197l-3.591,1.196l-7.183,1.197l-0.599,2.992l1.796,5.985l3.591,6.583l-0.599,5.387l1.197,1.795l1.796,1.795v4.189   l2.992,1.795l7.182-1.197l2.992-1.195l1.197-2.992l0.599-1.797l2.394-2.992l1.197-7.779l-0.599-6.584l-0.599-3.591l0.599-4.189   l-2.394-1.795l-1.197-2.395v-2.394H1043.925z"
     stroke-width="2.5392"
     stroke="#000000"
     fill="#CDDE87"
     id="path9143" /><path
     d="M356.864-673.781l-6.583,1.796l-1.796,4.188   l5.387,0.599l2.394,2.395l3.591,7.182l4.189,2.992l7.182,8.978l2.992,1.196l1.197,5.387l0.599,7.182v2.993l2.394,3.591l1.796,3.591   l-0.599,2.992l2.395,4.788l2.394,2.394l4.788,1.197l2.394-2.394l0.599-1.796l-1.796-1.796h-2.394h-1.796l-1.196-2.394l2.394-2.394   l1.796-2.993l1.795-0.599l7.78-0.598l4.189,0.598l2.992-3.591l1.796-5.984l0.599-1.796l1.795-4.787l0.599-2.993l2.992-1.196   l2.395,1.795v1.796l2.394,2.394l2.395,2.992l1.795-2.992v-2.394l1.796-2.395l-1.197-1.795l-0.599-2.395l-1.196-4.188v-2.395   l3.591-1.197l1.795-1.795l-1.795-1.796l-2.395-0.599l-3.591-0.598l-1.795-1.197l-2.395-1.197l-2.394,0.599l-2.395,1.796v2.992   l1.197,2.992l-0.599,3.591l-2.992,0.599h-2.992l-0.599-1.795l-0.599-2.395l-3.591-2.394l0.599-2.993l2.992-3.591l3.591-1.795   l0.599-2.395l-0.599-1.196l2.992-0.599l0.599-2.394v-4.189l-1.196-1.197v-2.395l-1.197-1.196l-1.796,0.599l-1.196,2.394   l-1.796-0.599l-6.583,1.197l-4.189,1.795l-5.387,1.796l-1.795,4.788l-1.197,1.196l-1.796,1.197l-1.795,1.197l-1.796-1.197   l-2.394-2.394l-2.395-2.395l-1.196-1.795l-2.992-3.591l-2.395-3.591l-2.394,0.598l-1.796,1.796l-2.394,1.796L356.864-673.781z"
     stroke-width="2.5392"
     stroke="#000000"
     fill="#CDDE87"
     id="path9159" /><path
     d="   M417.311-581.614l-0.599-8.978l1.795-4.788l2.993-2.394l1.795-1.197l1.197-3.591l0.599-2.395l-0.599-2.992l-1.197-0.599   l-1.197-2.992l-1.795-0.599l-1.796,2.395l-0.599,2.394l-1.795,2.394l-2.395,3.592l-1.795,2.992l-1.197,3.591l-0.599,4.788   l0.599,4.787v4.189l1.197,1.796l0.599,1.796l1.196,0.598v1.796l-1.795,0.599l-1.197,1.197l-0.599,1.196v1.796l1.796-0.599   l1.197-1.796l2.394-1.196l2.394-2.993l0.599-1.795L417.311-581.614z"
     stroke-width="2.5392"
     stroke="#000000"
     fill="#CDDE87"
     sodipodi:nodetypes="cccccccccccccccccccccccccccccccccc"
     id="path9161" /><path
     d="M558.554-759.963l-8.978,0.599l-7.182-2.993   l-3.591,2.993l0.598,5.386l5.985,1.197l0.599,5.387l4.189,4.188l2.992,2.993l2.992,4.189h5.387l3.591-4.788l4.189-4.189h8.379   l1.795-2.992l2.395-2.395l-1.796-1.795l-2.394-1.197l-2.395-2.394l4.189-1.796l1.197-3.591l-5.985-1.197l-4.188,1.796l-4.788-1.197   L558.554-759.963z"
     stroke-width="2.5392"
     stroke="#000000"
     fill="#CDDE87"
     id="path9169" /><path
     d="M265.894-271.599l-3.591,1.795l-1.197,2.395   l-1.795,4.189l-0.599,4.189l1.196,2.992h2.993l5.386-1.795v-2.395l1.796-4.789l0.599-2.992l-1.197-4.189L265.894-271.599z"
     stroke-width="2.5392"
     stroke="#000000"
     fill="#CDDE87"
     id="path9173" /><path
     d="M1412.591-625.902l-5.984-1.796l-4.788-2.394   l-5.386,2.394l-1.197,4.189l2.992,5.387l1.197,4.189l1.196,4.189l2.993,1.795l5.386,4.189h4.788l2.395-2.992l2.394-3.591   l8.978-7.78l2.394-4.189l5.985-2.992l6.583-4.189l3.591-1.796l0.599-3.591h-7.183l-6.583,1.796l-11.97,1.795l0.599,2.395h-4.189   L1412.591-625.902z"
     stroke-width="2.5392"
     stroke="#000000"
     fill="#CDDE87"
     id="path9183" /></g>
	
		<rect
   id="rect9185"
   x="1533.485"
   y="-684.553"
   fill="none"
   stroke="#000000"
   stroke-width="1.9882"
   width="286.674"
   height="292.659" />
	<g
   id="DK-84"
   inkscape:label="#g3194"><path
     d="M1563.091-43.038l3.861,1.111l5.079,2.539   l5.925,7.617l6.771,7.617l9.311,2.539l7.617-0.846l6.771,0.846l2.539,3.387l-3.386,5.924l-1.693,5.078l5.079,2.539l4.231,3.387   l4.232,3.385l0.846,4.232l-7.617,4.23l-3.386,4.232l-4.231,2.539l-8.464-1.691l-9.311,5.078l-3.386,8.463l3.386,14.389l4.232,6.771   l-4.232,5.078l1.693,6.771l7.617,3.385l5.925,1.693l3.385-5.078l0.847-5.926l5.079,2.539l6.771,4.232l4.231-4.232l5.079,0.848   l11.849,5.924l6.771,7.617l2.592,3.969l3.386-1.535l5.132-2.564l0.872-6.004l5.978,0.871l4.259-4.283l1.72,1.719l7.696,1.693   l3.412,0.871l1.719,1.693l3.412,3.439l9.416,0.846l4.259-1.719l-0.847-1.693l2.565-0.873h4.285l0.847,3.439v1.691l-0.847,6.004   l1.693,3.412l2.564,2.566l3.439,2.564l6.823,5.133l3.438,1.719l0.847,2.566l1.72,2.539l3.411,0.871l3.412,2.566h3.412l2.565-0.873   l1.72-3.412l2.565-3.412l6.851-4.285l5.131-0.846l5.132-0.846l4.258-2.566l1.719-0.873v-5.131v-3.412l-1.719-4.285l-0.847-2.564   l0.847-4.26l0.847-0.871v-2.541l-0.847-6.004h-2.565l-0.847-5.131l-3.412-3.412v-2.564v-2.566l-3.438-4.285l-0.847-2.564   l-4.284-1.693l2.565-2.566h3.438l1.692-1.719l-1.692-5.131l-3.438-3.412l-3.412-5.977l-2.565-1.721l-2.565-4.285l0.846-2.564   l2.566-1.693l0.873-5.131l-3.439-3.438l-2.564,0.871l-0.847,4.26h-1.72l-1.692-1.693l-0.873-5.979l-1.692-4.283l0.846-3.412   l3.412-5.131l2.566-6.006l1.719-5.977v-5.979l-2.565-10.262l-3.412-8.543l-2.565-5.131l0.846-7.697l-1.719-11.109l-1.693-6.004   l-2.565-4.258l-2.565-2.566l-0.846-6.004l-2.566-9.389l-4.285-8.543l-1.719-6.852l0.873-6.85v-5.979l6.824-6.824l1.719-11.135   l5.978-11.109l4.285-6.85l6.823-4.258l1.72-3.412l4.285-2.566l0.847-3.438l1.719-2.566l1.692-4.258l2.565-5.131v-4.285   l-5.131-2.566l-2.565-0.846l-2.565-4.285l-5.131-5.977l-11.109-7.697l-5.131-0.848l-4.259-3.438l-5.131-3.412h-17.113l-5.978-1.719   l-5.978-2.566l-6.004-0.846l-5.978-5.131l-5.131-5.133l-7.697-3.412l-11.109-2.564l-4.284-3.412h-8.544l-17.959,5.977   l-13.674,4.285l-17.087,6.824l-3.438,3.412l-4.258,8.57l-6.851,5.131l-0.847,6.824l-8.569,7.697l-12.802,3.412l-15.394,7.695   l-7.696,6.004l-16.24,11.109l-11.136,4.285l-13.675,5.105l-5.131,4.283l-1.692,5.979l2.565,2.566l0.847,1.719l1.719,1.719   l2.565,4.258l7.671,3.439l6.004-0.873l6.824-3.412h4.284l3.412-2.566l5.131-3.412l7.697-3.438h6.851l4.259,4.285l2.565,2.564   l1.719,3.412l0.847,5.131l2.565,5.979l2.565,3.438l0.873,9.391l-0.873,6.85l0.873,7.697l4.258,0.848l2.566,1.719l1.719,1.719   l-4.285,7.67l-4.258,5.131l-0.873,3.439l2.566,14.521l3.438,2.564v5.979l0.847,6.85l1.72,8.543L1563.091-43.038z"
     stroke-width="0.8464"
     stroke="#000000"
     fill="#FF8080"
     id="path4184" /><path
     d="M1487.498-16.747l6.665,1.904l11.85-1.693   l1.693-3.385l1.692-1.693l5.078,3.387l8.464,4.23l3.889,2.328l1.692-3.359l5.131-2.564l1.72,4.283l0.846,3.412l1.72,4.285   l2.565-4.285l2.565-2.564l6.824-2.566l3.438-4.258l2.565-3.439l0.847-6.822l-1.719-8.545l-1.693-4.283l-3.438-7.697l-0.847-8.543   v-12.828l-1.719-7.697l-3.412-5.131l-3.412-5.131l-2.565-5.133l0.847-6.85l0.846-5.977l4.285-2.566l2.565-5.131l-0.847-5.131   l-3.438-5.133l-8.544-0.846l-4.258-5.979l-7.697-3.438l-7.696-5.105h-5.132l-2.565,3.412l-0.873,5.131l0.873,7.697l1.693,2.566   l1.719,1.693l6.851,7.695l-1.72,6.004l-2.565,1.693l0.847,3.412l4.285,1.719l2.565,3.412l1.719,6.004l0.847,5.131l-3.412,4.26   l-1.719,7.697l-1.72,4.283l-4.259,3.412l-4.284-1.719h-7.697l-5.131,5.131l-3.412,3.439l-3.412,5.977v9.416l-2.565,5.131v11.955   l1.692,5.979L1487.498-16.747z"
     stroke-width="0.8464"
     stroke="#000000"
     fill="#FF8080"
     id="path11168" /><path
     d="M1443.743-308.669l3.627,3.022l1.814,0.604   l0.604,3.627l-1.209,3.023l-3.022-3.628h-3.627L1443.743-308.669z"
     stroke-width="2.5392"
     stroke="#000000"
     fill="#FF8080"
     id="path9081" /><path
     d="M1799.224,53.464l1.21-7.859l-0.605-6.047   l-0.604-2.418l-1.813-1.209l-1.813,1.814l-1.813,1.813l-1.814,1.209l-3.022,3.629l-3.022,4.23l-0.604,6.65l1.209,4.232l3.022,4.232   l1.814,2.418l3.022,2.418l3.022-1.814l4.232,3.023l1.813-3.023l-2.419-2.418l-1.813-3.021l0.604-3.629L1799.224,53.464z"
     stroke-width="2.5392"
     stroke="#000000"
     fill="#FF8080"
     id="path9083" /><path
     d="M1615.477-640.864l-3.591,4.189l0.599,7.182   l-1.197,4.787l-4.788,8.978l-5.386,7.182l-1.197,4.189l-1.796,6.584l-3.591,7.78l-2.394,10.772l-1.197,6.583v4.189l1.796,6.584   l1.197,6.583l1.196,13.167l-0.599,8.379l-2.394,5.386l-1.197,4.189l-2.394,4.189l-1.796,4.788l1.796,3.591l2.394,1.197l5.387,2.992   l6.583,7.182l4.788,4.788l11.371,4.189l7.182,1.196l6.583,3.591l5.387,3.592l9.576,2.394l6.583,2.992l12.568,5.387l4.788,5.984   l3.591,4.788c0,0,7.182,1.796,9.575,2.395c2.395,0.598,7.182,1.196,7.182,1.196l5.985,1.796l10.772,1.795l4.189,2.395   c0,0,0.599,3.591,7.182,1.795c6.584-1.795,8.379-2.394,8.379-2.394l2.992-4.788l5.387-5.984l3.591-1.796l1.796-4.788l-0.599-5.386   l-0.599-1.796l-4.189-2.992l-1.795-3.591l3.591-4.189l1.795-2.992l1.796-4.189l1.795-1.796l1.197-3.591l1.197-0.599l4.189-3.591   l-0.599-5.984l-0.599-5.985v-5.984l-2.395-2.395l2.993-5.386l0.599-2.993l1.197-2.394v-4.189l-1.796-1.796l-1.197-2.992   l-2.992-1.197l-1.796-1.196l-4.189-1.796l-6.583-1.795l-3.591-2.992l-7.182-2.395l-6.584-4.788l-4.189-2.394l-8.378-4.189   l-4.189-5.984l-6.583-4.189l-2.993-4.788v-5.985l-1.796-0.599l-2.992-2.394l-2.992,1.796l-3.591,1.196c0,0,1.197,0-1.796-0.599   c-2.992-0.598-5.984-4.188-5.984-4.188l-5.387-1.197l-2.394-2.395l-8.379-4.787l-3.591-4.189l-8.978-5.387l-4.788-3.591   l-1.795-4.189l-5.387-8.379l-5.386-5.984l-3.591-3.591l-1.197-4.788L1615.477-640.864z"
     stroke-width="2.5392"
     stroke="#000000"
     fill="#FF8080"
     id="path10156" /></g>
	<path
   id="path10158"
   fill="#FF8080"
   stroke="#000000"
   stroke-width="2.5392"
   d="M1762.106-655.827L1762.106-655.827z" />
	<path
   id="path10160"
   fill="#FF8080"
   stroke="#000000"
   stroke-width="2.5392"
   d="M1762.705-652.834l3.591-0.599v-2.395h-3.591   V-652.834z" />
	
		
	
		
	
		
	
		
	
		
	
	
	
	
	
	
	
	
	
	
</g>
</svg>