<?xml version="1.0" encoding="UTF-8" standalone="no"?>
<!-- Created with Inkscape (http://www.inkscape.org/) -->

<svg
   xmlns:dc="http://purl.org/dc/elements/1.1/"
   xmlns:cc="http://creativecommons.org/ns#"
   xmlns:rdf="http://www.w3.org/1999/02/22-rdf-syntax-ns#"
   xmlns:svg="http://www.w3.org/2000/svg"
   xmlns="http://www.w3.org/2000/svg"
   xmlns:sodipodi="http://sodipodi.sourceforge.net/DTD/sodipodi-0.dtd"
   xmlns:inkscape="http://www.inkscape.org/namespaces/inkscape"
   id="svg1306"
   sodipodi:version="0.32"
   inkscape:version="0.48.3.1 r9886"
   width="901pt"
   height="845pt"
   sodipodi:docname="pakistan.svg"
   version="1.0">
  <metadata
     id="metadata1311">
    <rdf:RDF>
      <cc:Work
         rdf:about="">
        <dc:format>image/svg+xml</dc:format>
        <dc:type
           rdf:resource="http://purl.org/dc/dcmitype/StillImage" />
      </cc:Work>
    </rdf:RDF>
  </metadata>
  <defs
     id="defs1309" />
  <sodipodi:namedview
     inkscape:window-height="744"
     inkscape:window-width="770"
     inkscape:pageshadow="2"
     inkscape:pageopacity="0.0"
     borderopacity="1.0"
     bordercolor="#666666"
     pagecolor="#ffffff"
     id="base"
     inkscape:zoom="0.5"
     inkscape:cx="656.33372"
     inkscape:cy="541.32473"
     inkscape:window-x="612"
     inkscape:window-y="9"
     inkscape:current-layer="svg1306"
     showgrid="false"
     inkscape:window-maximized="0" />
  <path
     style="fill:red;fill-opacity:1;fill-rule:evenodd;stroke:#000000;stroke-width:1;stroke-linecap:butt;stroke-linejoin:miter;stroke-opacity:1;stroke-miterlimit:4;stroke-dasharray:none"
     d="M 849.35415,249.08945 L 846.85899,251.07675 L 843.87804,252.0704 L 842.37653,253.06405 L 841.38288,254.07978 L 840.38923,256.06708 L 839.88136,259.04802 L 836.39255,263.04469 L 833.91946,263.04469 L 832.41796,264.54621 L 830.07736,265.53986 L 830.91644,266.53351 L 832.41796,268.03503 L 832.90374,269.02867 L 834.91312,271.01597 L 837.40828,272.00963 L 839.39558,273.51113 L 840.38923,274.50478 L 840.38923,276.0063 L 839.88136,276.49208 L 837.40828,276.49208 L 836.39255,278.50145 L 836.39255,279.9809 L 836.39255,282.47606 L 834.40526,284.46336 L 833.41161,285.96487 L 832.41796,287.46638 L 830.91644,289.45368 L 828.92915,288.46003 L 826.43399,286.47273 L 824.44669,284.97121 L 819.96422,281.96818 L 816.9612,281.48241 L 814.9739,281.96818 L 813.98025,281.96818 L 812.98661,282.98392 L 810.97722,284.46336 L 808.98992,285.96487 L 807.99627,284.97121 L 806.49476,282.47606 L 806.49476,279.4951 L 804.50746,276.49208 L 804.50746,273.99691 L 806.49476,273.99691 L 807.99627,273.99691 L 809.98357,273.51113 L 811.97087,273.00327 L 812.85411,271.70048 L 811.48509,272.00963 L 809.98357,271.52383 L 808.98992,270.02233 L 808.98992,268.03503 L 806.49476,267.52715 L 806.49476,266.53351 L 807.48841,263.53048 L 807.99627,261.54318 L 806.00897,261.05739 L 803.51382,259.04802 L 803.51382,257.56859 L 801.50444,256.06708 L 800.51079,256.06708 L 799.51714,258.56224 L 798.52349,260.04166 L 797.02198,262.05105 L 795.54254,263.53048 L 795.03468,262.53684 L 792.05373,261.54318 L 790.55221,260.54954 L 791.54586,260.04166 L 792.53951,259.04802 L 793.53316,258.05437 L 794.04103,257.06072 L 794.04103,256.55286 L 791.54586,255.55921 L 788.56491,255.55921 L 787.06341,255.07342 L 786.55554,253.06405 L 785.56189,252.0704 L 784.06037,251.58461 L 781.5873,251.58461 L 780.08578,251.58461 L 779.57792,253.5719 L 778.58427,255.07342 L 777.08275,255.55921 L 773.59395,256.06708 L 772.11451,257.06072 L 769.61935,258.05437 L 769.61935,259.55589 L 770.10513,260.54954 L 770.10513,261.05739 L 770.10513,262.53684 L 770.613,264.03835 L 770.613,265.53986 L 770.10513,267.52715 L 770.10513,269.02867 L 769.11148,270.50811 L 766.13054,270.50811 L 762.64172,270.02233 L 758.15927,271.01597 L 756.65775,272.51748 L 754.16258,273.99691 L 754.16258,276.0063 L 753.6768,277.9936 L 753.16893,278.98724 L 753.16893,280.48875 L 751.66743,283.97757 L 750.67378,284.97121 L 749.68013,287.46638 L 751.66743,289.96154 L 750.67378,290.95519 L 749.19433,292.94248 L 748.68648,294.444 L 746.69918,295.43765 L 746.69918,295.92343 L 746.69918,297.42494 L 742.70251,298.92646 L 739.72155,300.91376 L 737.22639,301.90742 L 735.72488,302.41527 L 736.23275,304.91044 L 737.22639,305.90409 L 737.22639,307.89139 L 736.23275,307.89139 L 734.73123,309.3929 L 736.71852,310.38655 L 736.71852,311.3802 L 738.22004,312.37385 L 739.21369,313.36749 L 740.20734,314.869 L 741.70886,316.8563 L 739.21369,319.85933 L 737.71217,320.85298 L 737.22639,322.84027 L 736.71852,324.34179 L 734.73123,324.34179 L 732.74393,324.34179 L 731.75028,322.3545 L 731.75028,321.84663 L 729.7409,320.34512 L 728.26148,317.36418 L 728.26148,314.869 L 727.75361,313.36749 L 725.76631,313.36749 L 723.75693,313.36749 L 722.27749,314.38323 L 719.78234,313.36749 L 719.27447,312.37385 L 716.29352,312.37385 L 714.79201,312.37385 L 715.29987,314.38323 L 716.29352,315.37688 L 716.29352,316.8563 L 716.77931,317.87203 L 717.28717,318.86568 L 717.28717,320.85298 L 717.28717,321.84663 L 716.77931,322.84027 L 716.77931,324.34179 L 717.79504,325.33545 L 719.27447,325.84331 L 719.27447,326.32909 L 719.27447,327.83061 L 719.78234,329.33212 L 718.28082,329.33212 L 715.78566,329.33212 L 713.79835,330.81155 L 713.79835,331.82728 L 711.3032,331.82728 L 709.80168,331.31942 L 706.82073,332.31306 L 704.32558,332.31306 L 702.82406,333.30672 L 700.35098,335.31609 L 700.35098,337.3034 L 698.84946,339.2907 L 699.33524,341.78585 L 699.33524,343.77315 L 699.33524,345.78253 L 697.85581,348.25561 L 698.3416,349.75712 L 698.84946,351.25864 L 699.84311,352.25229 L 699.84311,355.7411 L 700.35098,357.7284 L 701.34463,360.22355 L 702.82406,362.21085 L 704.32558,362.21085 L 705.31922,362.21085 L 706.82073,361.72507 L 707.81438,361.72507 L 708.80803,363.71237 L 708.80803,364.70602 L 708.80803,366.20754 L 706.31288,367.70905 L 706.31288,368.7027 L 707.3286,369.69634 L 708.32225,368.7027 L 710.30955,368.19483 L 711.3032,367.70905 L 712.29685,366.7154 L 714.30622,366.7154 L 715.29987,368.19483 L 715.78566,369.69634 L 715.29987,371.19786 L 715.29987,373.69302 L 714.79201,375.17246 L 714.30622,376.1661 L 714.30622,378.66126 L 714.30622,379.65491 L 711.81106,380.16278 L 709.3159,380.16278 L 706.82073,381.6643 L 705.82708,384.15945 L 705.82708,385.63889 L 703.33193,388.13405 L 702.82406,390.12135 L 703.33193,391.115 L 704.32558,393.61016 L 701.83041,395.11168 L 699.84311,396.10533 L 698.3416,396.61319 L 698.3416,398.60049 L 698.3416,400.58779 L 698.3416,402.0893 L 697.85581,403.08295 L 696.3543,404.58446 L 695.36065,405.07025 L 695.36065,407.07963 L 695.36065,408.55907 L 696.3543,410.06057 L 696.3543,412.04787 L 696.3543,413.0636 L 694.367,415.0509 L 694.367,417.03819 L 694.367,418.53971 L 692.35763,419.53336 L 691.36397,421.03488 L 690.37033,422.51431 L 688.86882,427.01885 L 685.88786,429.9998 L 684.38636,430.99344 L 683.90056,432.49495 L 683.3927,434.48225 L 683.90056,436.46956 L 683.3927,438.96471 L 682.90691,439.95836 L 682.90691,441.96774 L 682.90691,442.96139 L 683.90056,443.95504 L 684.89421,445.45655 L 684.89421,445.94234 L 683.90056,447.44385 L 682.39906,448.4375 L 682.90691,449.93902 L 684.38636,451.44052 L 684.38636,452.91997 L 682.39906,452.91997 L 680.41176,452.91997 L 679.90389,454.42148 L 680.41176,455.41512 L 681.40541,456.91664 L 680.89754,458.41815 L 680.41176,459.41179 L 678.40238,460.40545 L 676.92294,460.89123 L 674.91357,459.89759 L 673.91991,459.89759 L 672.44049,459.89759 L 669.94532,460.89123 L 668.4438,460.89123 L 664.955,459.89759 L 661.97405,459.89759 L 657.97736,461.90697 L 654.99642,463.89426 L 651.99339,468.37673 L 650.99975,470.87188 L 648.50459,471.86553 L 645.01578,471.86553 L 643.53635,473.85283 L 643.53635,475.35435 L 644.02212,477.34164 L 643.53635,479.35103 L 642.5206,481.82411 L 641.68152,483.21521 L 642.03483,486.32864 L 642.03483,492.29054 L 642.03483,495.29357 L 642.03483,496.28722 L 644.02212,496.773 L 644.52999,497.28087 L 643.53635,498.78237 L 643.53635,499.77603 L 642.03483,500.26181 L 640.53331,500.26181 L 639.53966,500.26181 L 638.54601,500.26181 L 638.54601,501.27755 L 639.53966,502.27119 L 639.53966,504.25849 L 638.03815,504.25849 L 636.55871,505.25214 L 636.05085,505.76001 L 636.05085,506.75365 L 635.05721,508.25516 L 633.55569,507.74731 L 632.05418,508.25516 L 632.05418,509.7346 L 631.06054,511.23611 L 631.06054,512.22976 L 631.56839,513.73128 L 632.05418,514.72492 L 632.05418,516.22643 L 630.57474,519.71525 L 627.57172,523.68984 L 627.08593,525.69922 L 625.58442,528.68016 L 624.59077,532.67686 L 624.59077,535.14993 L 623.59712,538.15295 L 623.08926,540.14025 L 622.0956,540.64813 L 623.08926,541.64177 L 625.07655,541.64177 L 624.59077,543.62907 L 624.59077,544.62272 L 626.57806,544.62272 L 627.57172,543.62907 L 628.56536,543.14328 L 630.57474,543.14328 L 631.06054,544.13692 L 630.06687,546.12422 L 628.07957,548.6194 L 626.57806,551.60034 L 625.58442,553.10186 L 625.07655,556.0828 L 625.07655,558.57796 L 624.59077,562.06677 L 621.10196,567.0571 L 620.1083,570.03804 L 619.11466,571.53956 L 618.6068,575.53623 L 617.61315,577.52353 L 615.11799,578.51719 L 614.61011,580.01871 L 613.13069,581.01235 L 612.13704,582.00599 L 612.13704,582.99965 L 612.13704,583.5075 L 608.64822,585.4948 L 605.15942,586.00268 L 603.6579,587.4821 L 602.15638,587.4821 L 600.65487,589.49149 L 601.6706,590.97092 L 601.6706,593.97395 L 601.16273,596.46911 L 601.16273,598.96426 L 600.16908,600.95156 L 600.16908,602.45308 L 599.17543,603.44673 L 599.17543,605.43402 L 599.66123,605.91982 L 600.65487,605.91982 L 603.6579,605.91982 L 605.15942,607.42132 L 606.63884,608.92284 L 607.14672,610.42435 L 606.15306,611.418 L 605.15942,611.90379 L 605.6452,614.39895 L 606.63884,616.89411 L 607.6325,617.40199 L 609.13401,617.40199 L 609.13401,616.38625 L 611.62917,615.90047 L 611.62917,618.39563 L 611.62917,619.38928 L 610.63552,622.87808 L 610.63552,625.37326 L 610.63552,626.85268 L 610.12766,627.86841 L 609.13401,630.3415 L 609.13401,631.35723 L 608.14036,631.84302 L 605.15942,633.83031 L 604.14369,637.31911 L 600.65487,641.3158 L 597.67393,643.30308 L 596.17241,644.8046 L 595.68663,647.78556 L 595.68663,649.28708 L 595.68663,651.78223 L 597.16605,654.27739 L 596.17241,656.26469 L 594.69298,658.25199 L 594.18511,660.74715 L 593.67725,661.74081 L 591.68996,665.73748 L 591.20416,667.72478 L 589.19478,669.22629 L 586.21384,670.7278 L 584.22654,671.72145 L 583.21081,672.7151 L 584.71232,674.21662 L 585.70597,676.71178 L 586.30216,678.69908 L 589.19478,678.69908 L 591.20416,677.70542 L 594.18511,676.71178 L 595.68663,676.71178 L 597.16605,676.20391 L 600.65487,676.71178 L 602.66425,678.19121 L 604.14369,679.18487 L 609.13401,680.20059 L 613.13069,682.18789 L 616.11163,685.16884 L 616.11163,688.65765 L 616.11163,690.66703 L 618.09893,694.64163 L 618.6068,698.6383 L 620.1083,703.12076 L 622.60347,708.11108 L 625.07655,712.59355 L 628.56536,716.56815 L 632.56204,719.57117 L 636.05085,721.0506 L 640.53331,722.55212 L 643.9338,725.15768 L 644.02212,725.04727 L 648.0188,722.04424 L 652.98705,716.08235 L 655.99007,714.58085 L 658.97103,714.07297 L 661.97405,713.07933 L 662.9677,713.07933 L 666.45651,714.07297 L 669.43745,716.08235 L 672.44049,719.0633 L 673.91991,720.05695 L 674.91357,721.0506 L 674.91357,722.04424 L 675.42143,723.05997 L 675.42143,726.54879 L 675.42143,728.02821 L 676.92294,730.52339 L 679.41811,734.0122 L 681.40541,735.99949 L 682.90691,737.01523 L 683.90056,738.00888 L 687.38938,738.00888 L 692.35763,738.00888 L 696.3543,736.50736 L 705.31922,731.03125 L 713.29049,727.54244 L 720.26812,726.04092 L 727.24573,725.04727 L 733.73758,725.53306 L 740.7152,725.04727 L 756.65775,718.55544 L 759.15291,716.56815 L 760.14656,714.58085 L 761.14021,709.10473 L 761.14021,705.10806 L 762.64172,702.12711 L 765.62267,698.13042 L 769.11148,695.14948 L 774.60967,689.6513 L 778.58427,685.6767 L 780.57157,682.67366 L 782.58094,672.20723 L 784.56824,662.24866 L 785.07611,660.26136 L 790.55221,653.76953 L 794.52681,652.2901 L 798.01562,651.78223 L 799.51714,649.28708 L 803.9996,646.7919 L 829.92279,631.84302 L 830.91644,626.3669 L 831.91009,623.36387 L 834.40526,620.38293 L 837.89406,617.40199 L 839.39558,613.40529 L 849.1775,592.27371 L 856.57467,562.66297 L 857.28126,561.27186 L 871.03778,554.9125 L 881.61462,551.40161 L 884.06562,550.34172 L 886.5387,547.86864 L 892.52267,542.23796 L 893.22927,540.11817 L 892.16938,535.19409 L 891.10948,532.72101 L 889.36508,530.60123 L 886.892,529.54134 L 885.47881,529.18804 L 884.77221,528.83474 L 885.83211,527.42155 L 886.1854,526.71495 L 886.1854,525.67714 L 887.5986,524.97055 L 887.95189,523.91065 L 888.65848,524.26395 L 889.71837,524.26395 L 891.10948,523.55737 L 892.16938,522.49746 L 892.87597,521.08427 L 893.93587,520.02439 L 894.64246,518.2579 L 896.05564,517.22009 L 897.46883,516.1602 L 897.46883,515.4536 L 897.46883,514.0404 L 897.82214,511.56733 L 897.82214,510.50744 L 899.23533,509.09424 L 899.91984,506.99655 L 900.97973,506.28995 L 902.03963,505.93665 L 903.80611,504.87676 L 904.5127,503.81687 L 905.92589,502.40369 L 905.92589,500.63719 L 906.98578,500.63719 L 906.98578,499.95268 L 908.3769,498.53949 L 908.73019,497.4796 L 909.79009,496.06641 L 910.84998,495.35981 L 910.84998,494.29992 L 910.49667,492.88673 L 910.49667,492.18014 L 912.26317,491.47353 L 913.67635,490.78903 L 913.67635,488.31594 L 913.67635,486.90275 L 915.44285,485.48956 L 916.50274,485.13627 L 917.18725,485.48956 L 918.60044,485.84286 L 919.30703,486.19616 L 920.01363,485.48956 L 920.36692,484.07637 L 921.42682,482.33197 L 922.13341,481.62538 L 924.2532,481.62538 L 925.66639,481.62538 L 927.0575,480.56548 L 928.82399,479.85889 L 929.53057,476.32592 L 929.53057,474.91273 L 931.65036,473.85283 L 932.35696,473.85283 L 934.12344,473.85283 L 935.51455,471.40183 L 936.92774,469.63534 L 936.57444,468.57546 L 934.47674,467.86886 L 933.41685,467.51556 L 932.00366,467.86886 L 930.94377,468.57546 L 928.82399,467.51556 L 927.0575,466.80896 L 927.0575,465.39578 L 927.0575,463.29807 L 927.0575,462.23818 L 927.76408,461.17828 L 928.11738,459.41179 L 927.76408,457.29202 L 927.4108,456.23212 L 927.76408,453.42782 L 929.17728,452.01464 L 929.17728,450.24815 L 929.17728,449.18826 L 929.88388,448.12837 L 930.23717,446.73725 L 931.65036,444.61748 L 932.35696,442.49769 L 932.71025,440.73121 L 932.00366,439.31802 L 931.65036,437.9269 L 930.59047,436.51372 L 929.17728,435.80712 L 929.88388,433.68733 L 928.82399,431.56755 L 928.82399,429.46985 L 927.0575,428.40996 L 927.0575,426.99677 L 926.35089,425.93687 L 925.99761,425.23028 L 925.31309,423.81709 L 924.2532,423.4638 L 923.5466,422.05061 L 923.5466,420.99071 L 923.8999,419.9529 L 924.6065,419.2463 L 925.31309,418.18641 L 925.31309,417.47983 L 924.95979,416.77322 L 924.95979,416.06663 L 925.66639,414.65344 L 927.76408,412.18036 L 932.35696,408.66947 L 934.80796,405.13649 L 935.86785,404.4299 L 936.22115,404.4299 L 936.92774,404.78319 L 939.40082,404.78319 L 941.16731,404.4299 L 941.87391,403.39208 L 941.87391,402.68549 L 941.87391,400.5657 L 941.87391,399.50581 L 942.93379,398.44592 L 943.61831,398.44592 L 945.0315,398.44592 L 946.44469,398.44592 L 947.15128,398.09262 L 947.15128,397.38603 L 948.56448,397.38603 L 950.68426,397.03273 L 952.78196,396.32614 L 953.84185,394.91295 L 955.25504,394.58173 L 955.25504,393.52184 L 955.96164,392.10864 L 957.37482,391.75535 L 959.14131,391.75535 L 960.5545,392.81525 L 961.23902,393.52184 L 962.29891,393.52184 L 962.65221,392.46195 L 963.3588,391.75535 L 964.0654,391.75535 L 965.47859,392.10864 L 966.18518,391.75535 L 966.18518,390.69545 L 966.18518,389.63557 L 966.89178,388.92897 L 968.65826,388.22238 L 970.40267,387.16248 L 973.44986,386.63254 L 975.45923,386.14675 L 975.94502,382.65795 L 976.93868,380.67065 L 978.44018,378.66126 L 978.44018,374.68667 L 975.94502,372.67729 L 972.4562,370.20421 L 970.46891,369.18849 L 967.48796,368.7027 L 964.99281,367.20119 L 960.51034,366.7154 L 958.50096,363.71237 L 955.52002,362.21085 L 953.53272,361.72507 L 950.52968,364.70602 L 947.54874,365.69967 L 946.04723,363.71237 L 943.06629,362.21085 L 940.06326,363.71237 L 937.5681,364.70602 L 935.07292,364.70602 L 932.59985,363.22658 L 930.59047,360.22355 L 930.10468,357.24261 L 930.10468,356.73475 L 932.09198,353.24594 L 932.59985,351.25864 L 930.59047,348.76347 L 930.59047,345.78253 L 930.10468,343.77315 L 931.09834,341.278 L 932.59985,338.29704 L 931.58412,337.3034 L 929.59683,339.79855 L 928.60317,340.7922 L 925.11435,342.29372 L 922.13341,342.29372 L 920.12404,342.29372 L 918.13674,340.28434 L 915.64157,339.79855 L 913.65428,341.278 L 911.15911,341.78585 L 909.6576,340.7922 L 908.26649,338.45161 L 907.67031,338.29704 L 903.67363,337.3034 L 900.69268,335.31609 L 897.71174,333.81458 L 893.71505,332.31306 L 891.72776,330.81155 L 888.72473,330.32576 L 886.22957,327.83061 L 885.23592,327.83061 L 883.75649,325.84331 L 881.7471,324.84966 L 880.75346,322.84027 L 879.25194,322.84027 L 876.271,324.34179 L 874.76949,324.84966 L 873.77583,325.33545 L 872.78219,325.33545 L 871.28067,324.84966 L 870.28702,323.34815 L 869.29337,321.84663 L 868.29973,321.36085 L 866.79821,320.34512 L 865.2967,319.85933 L 863.81725,319.35147 L 862.31575,318.86568 L 861.3221,317.87203 L 861.82997,316.37052 L 862.82361,315.86266 L 863.3094,314.869 L 862.82361,311.88806 L 861.82997,310.38655 L 860.32846,309.3929 L 859.3348,308.39924 L 858.82694,306.38987 L 858.82694,304.40257 L 858.82694,303.40892 L 858.82694,302.41527 L 858.82694,301.42162 L 858.82694,300.91376 L 857.83328,299.41224 L 856.33178,298.4186 L 855.33813,297.42494 L 856.33178,295.92343 L 858.34116,294.92978 L 859.82058,293.93614 L 860.32846,292.43463 L 860.32846,291.44097 L 859.3348,290.95519 L 858.34116,289.96154 L 858.82694,289.45368 L 860.32846,287.46638 L 860.32846,285.457 L 859.3348,283.4697 L 858.82694,281.96818 L 858.34116,280.97454 L 857.32543,279.9809 L 855.84598,279.4951 L 855.33813,277.9936 L 856.33178,275.49842 L 857.32543,273.51113 L 857.32543,272.51748 L 856.33178,270.50811 L 856.33178,268.52081 L 854.85234,266.53351 L 854.85234,265.03199 L 855.33813,264.54621 L 856.33178,263.53048 L 856.83964,262.05105 L 856.83964,260.04166 L 855.84598,257.56859 L 854.85234,255.55921 L 852.84296,253.5719 L 851.84931,251.58461 L 850.85567,249.57523 L 850.85567,249.509 L 850.3478,249.57523 L 849.35415,249.08945 z "
     id="PK-PB"
     inkscape:label="#path1351" />
  <path
     style="fill:blue;fill-opacity:1;fill-rule:evenodd;stroke:#000000;stroke-width:1;stroke-linecap:butt;stroke-linejoin:miter;stroke-opacity:1;stroke-miterlimit:4;stroke-dasharray:none"
     d="M 643.9338,725.15768 L 640.53331,722.55212 L 636.05085,721.0506 L 632.56204,719.57117 L 628.56536,716.56815 L 625.07655,712.59355 L 622.60347,708.11108 L 620.1083,703.12076 L 618.6068,698.6383 L 618.09893,694.64163 L 616.11163,690.66703 L 616.11163,688.65765 L 616.11163,685.16884 L 613.13069,682.18789 L 609.13401,680.20059 L 604.14369,679.18487 L 602.66425,678.19121 L 600.65487,676.71178 L 597.16605,676.20391 L 595.68663,676.71178 L 594.18511,676.71178 L 591.20416,677.70542 L 589.19478,678.69908 L 585.22019,678.69908 L 578.24257,679.69272 L 573.76011,679.69272 L 566.27462,679.69272 L 558.30335,680.20059 L 546.33541,679.69272 L 538.36413,680.20059 L 531.89437,680.68637 L 527.4119,681.19424 L 523.41523,682.67366 L 521.42793,686.16248 L 520.43429,688.17186 L 518.93277,689.6513 L 515.44395,691.15281 L 510.9615,694.15583 L 506.96483,697.64465 L 502.99023,699.63194 L 499.98719,702.6129 L 496.49838,703.60654 L 494.00322,706.60957 L 491.50805,708.59687 L 490.02862,709.59051 L 490.02862,711.59989 L 489.03498,713.5872 L 488.01925,714.58085 L 484.04465,716.08235 L 480.55583,717.076 L 476.55916,719.57117 L 470.57519,722.04424 L 467.08637,723.54576 L 463.11178,724.05362 L 457.1278,724.05362 L 454.63264,724.05362 L 452.64534,724.53942 L 450.65804,726.04092 L 450.65804,727.03457 L 450.65804,728.53609 L 450.65804,730.52339 L 449.64232,733.01855 L 449.15652,734.52006 L 447.65502,737.01523 L 445.15985,738.49466 L 442.17891,740.50403 L 442.17891,741.49769 L 441.18525,743.48499 L 440.6774,746.46594 L 439.68375,747.96745 L 437.69646,749.46896 L 437.18858,751.45626 L 436.7028,753.95142 L 435.68707,757.44023 L 435.68707,760.42118 L 435.68707,763.4242 L 434.20764,764.41785 L 432.70612,766.91302 L 432.70612,768.41454 L 433.21398,773.89064 L 433.21398,774.37643 L 433.21398,776.87158 L 433.21398,779.87461 L 433.69977,782.36978 L 433.69977,785.35072 L 433.69977,786.85224 L 433.69977,788.83954 L 433.69977,789.83319 L 434.20764,791.82049 L 434.69342,792.83621 L 435.20128,793.32199 L 435.20128,794.31564 L 434.20764,794.31564 L 434.69342,795.81716 L 433.21398,797.80446 L 432.70612,798.31233 L 432.70612,800.29962 L 432.70612,801.80113 L 433.69977,805.28995 L 434.20764,806.79145 L 434.20764,808.77875 L 434.69342,810.28027 L 433.69977,811.27392 L 433.21398,812.26757 L 433.21398,813.76909 L 433.21398,816.75003 L 433.21398,818.73733 L 434.20764,820.23884 L 434.20764,822.22613 L 434.20764,825.22917 L 434.69342,826.70863 L 434.69342,827.70225 L 436.19494,830.19745 L 437.69646,831.19107 L 437.69646,833.68626 L 439.68375,834.67987 L 440.6774,836.68929 L 441.18525,838.16868 L 443.68043,842.16539 L 444.16621,845.14631 L 446.1535,848.63512 L 448.64867,852.63183 L 450.65804,855.61274 L 452.64534,858.61577 L 453.63899,862.10458 L 453.63899,863.60609 L 453.63899,866.07918 L 452.64534,869.08221 L 452.13749,870.58373 L 452.13749,873.5647 L 452.13749,876.05982 L 452.13749,880.03442 L 452.64534,881.05016 L 452.64534,884.53897 L 450.65804,886.52626 L 449.64232,888.51356 L 448.16289,892.00237 L 447.65502,893.50388 L 447.65502,895.49119 L 447.65502,896.9927 L 445.66773,896.9927 L 443.68043,897.98638 L 442.17891,899.4879 L 440.6774,901.4752 L 440.6774,902.46881 L 440.6774,903.97032 L 440.6774,905.95762 L 437.69646,906.95131 L 435.68707,908.45281 L 435.20128,910.44011 L 434.20764,912.44946 L 433.21398,913.92893 L 432.19826,914.43676 L 431.71247,915.93828 L 432.70612,918.91926 L 432.19826,921.41437 L 431.20461,923.90957 L 430.71882,925.38898 L 430.71882,926.40471 L 429.72518,927.88417 L 426.72215,928.39201 L 426.23637,929.38569 L 423.7412,931.88082 L 422.74755,933.86811 L 422.74755,935.85541 L 422.23969,938.85844 L 419.25873,942.34725 L 418.26509,943.34093 L 415.26206,944.33455 L 412.76691,944.84245 L 409.78596,944.84245 L 406.78292,946.82975 L 404.30985,949.32487 L 402.80833,950.80434 L 401.81468,951.82007 L 401.30682,953.29947 L 400.82103,954.29316 L 398.81165,954.29316 L 397.15557,954.29316 L 396.3165,954.80098 L 396.3165,955.79466 L 396.3165,956.78828 L 394.83706,958.2898 L 395.83071,958.2898 L 397.33222,958.2898 L 400.31317,958.79769 L 401.30682,957.78196 L 402.80833,957.78196 L 404.30985,957.78196 L 405.30349,957.78196 L 407.29079,958.79769 L 408.28444,957.78196 L 410.77961,957.78196 L 411.28746,957.78196 L 412.76691,957.78196 L 413.27476,958.79769 L 416.25571,960.2771 L 417.24936,960.785 L 418.75088,960.785 L 418.75088,960.2771 L 419.74453,959.28348 L 420.73818,959.79131 L 421.24604,961.27078 L 424.73485,963.28013 L 426.72215,964.27381 L 426.72215,962.7723 L 426.72215,961.77861 L 428.73152,962.28651 L 430.71882,962.7723 L 431.71247,962.7723 L 432.19826,963.7659 L 432.70612,964.7596 L 433.69977,964.7596 L 436.7028,964.27381 L 437.69646,964.27381 L 438.6901,965.77528 L 438.6901,966.76898 L 436.7028,967.76258 L 435.68707,968.75628 L 433.69977,969.7499 L 433.21398,971.7372 L 430.71882,972.7529 L 430.71882,973.7466 L 431.20461,975.7339 L 432.70612,975.7339 L 435.20128,976.2417 L 436.19494,976.2417 L 438.18223,977.2353 L 436.19494,978.229 L 433.69977,978.229 L 433.21398,978.229 L 433.21398,979.2226 L 433.69977,980.7242 L 433.69977,981.7179 L 435.68707,981.7179 L 436.7028,983.2194 L 436.7028,983.7052 L 435.20128,984.6988 L 435.68707,985.6925 L 436.19494,987.194 L 437.69646,988.6954 L 439.17588,989.689 L 440.19161,989.689 L 440.19161,990.6827 L 439.17588,990.6827 L 439.68375,993.1779 L 439.68375,994.6795 L 439.68375,995.6732 L 442.17891,995.6732 L 443.68043,995.6732 L 444.16621,996.6668 L 443.17255,997.1746 L 441.18525,998.1682 L 440.19161,998.1682 L 439.68375,998.6541 L 440.6774,1000.1555 L 439.68375,1001.657 L 439.68375,1003.1365 L 441.18525,1004.1523 L 441.67105,1005.1459 L 440.19161,1006.6253 L 440.19161,1007.6411 L 440.6774,1008.6346 L 441.67105,1010.1141 L 442.6647,1011.6156 L 443.17255,1013.603 L 443.17255,1014.6187 L 443.17255,1015.6123 L 443.68043,1016.606 L 444.16621,1017.0918 L 445.15985,1018.5933 L 446.66137,1020.5805 L 446.66137,1022.082 L 448.64867,1022.5899 L 449.64232,1023.0757 L 451.14383,1024.0694 L 452.13749,1025.0852 L 453.63899,1025.5709 L 454.63264,1026.0788 L 455.62629,1027.0725 L 455.62629,1027.5582 L 455.14051,1029.5675 L 456.61994,1030.0534 L 456.13416,1031.5548 L 454.63264,1032.0627 L 453.63899,1031.5548 L 454.14686,1032.0627 L 455.14051,1032.5484 L 456.13416,1033.5421 L 459.62297,1034.5359 L 460.61661,1034.5359 L 462.11813,1035.5516 L 463.59756,1036.0373 L 463.59756,1037.0309 L 463.59756,1038.0246 L 464.61329,1038.5325 L 467.08637,1039.5262 L 469.09576,1040.0341 L 471.59092,1040.0341 L 472.0767,1038.5325 L 471.59092,1037.5389 L 471.08305,1037.0309 L 470.57519,1036.0373 L 471.59092,1036.0373 L 472.58456,1036.0373 L 474.57186,1037.5389 L 476.55916,1038.5325 L 479.05433,1037.5389 L 479.05433,1036.0373 L 480.04798,1034.05 L 480.55583,1034.05 L 481.04163,1035.0436 L 482.54313,1034.5359 L 483.53679,1035.0436 L 483.53679,1036.0373 L 485.54616,1037.0309 L 486.53981,1038.5325 L 488.01925,1039.5262 L 488.5271,1038.5325 L 490.02862,1039.0182 L 491.02228,1041.5135 L 492.5238,1042.5071 L 493.00957,1042.5071 L 493.00957,1041.0277 L 493.00957,1038.0246 L 493.51744,1035.5516 L 492.5238,1032.0627 L 492.01592,1030.5611 L 491.50805,1029.0598 L 492.5238,1030.0534 L 493.51744,1030.5611 L 494.51108,1031.0471 L 494.51108,1032.0627 L 494.00322,1033.0563 L 494.00322,1034.05 L 494.00322,1035.0436 L 496.01259,1035.5516 L 496.49838,1037.5389 L 497.00625,1039.0182 L 496.01259,1040.0341 L 495.50474,1040.5198 L 495.50474,1042.0213 L 494.99687,1043.015 L 494.00322,1044.0086 L 494.51108,1045.5101 L 494.99687,1047.0116 L 496.49838,1046.5038 L 496.49838,1045.5101 L 497.49204,1045.0023 L 498.99355,1045.5101 L 499.50141,1047.0116 L 500.98084,1048.0053 L 502.99023,1048.4911 L 503.47601,1045.9959 L 504.46965,1043.015 L 504.97753,1038.0246 L 504.97753,1035.5516 L 506.47904,1034.05 L 508.46634,1032.5484 L 512.44092,1030.5611 L 512.9488,1030.5611 L 513.94244,1030.5611 L 514.9361,1029.0598 L 516.4376,1029.0598 L 516.94547,1027.0725 L 518.42489,1026.5645 L 543.84023,1026.0788 L 544.83389,1002.6507 L 544.3481,999.6477 L 546.33541,999.1619 L 547.83691,999.1619 L 549.33843,999.6477 L 549.33843,1000.6634 L 550.81786,1002.1429 L 551.32572,1004.1523 L 551.8115,1005.6316 L 552.82723,1006.1396 L 552.82723,1005.1459 L 552.82723,1003.6443 L 554.30667,1001.657 L 555.30032,1001.657 L 555.80818,1000.6634 L 555.80818,1000.1555 L 555.80818,999.6477 L 557.30969,999.6477 L 558.30335,1000.1555 L 559.29699,1002.1429 L 559.29699,1003.6443 L 559.29699,1004.638 L 561.79217,1004.638 L 562.78581,1004.638 L 563.29367,1003.6443 L 566.78248,1002.1429 L 568.26192,1001.657 L 569.25556,1001.657 L 571.75072,1003.1365 L 573.76011,1003.6443 L 575.23953,1004.638 L 577.24892,1003.6443 L 579.72199,1003.1365 L 581.73138,1002.1429 L 583.71868,1001.657 L 586.21384,1001.657 L 589.19478,1002.1429 L 592.6836,1002.1429 L 597.16605,1002.6507 L 600.65487,1002.6507 L 604.14369,1003.1365 L 606.15306,1004.638 L 609.13401,1007.1332 L 612.13704,1009.6283 L 614.61011,1011.1299 L 619.11466,1011.1299 L 626.09228,1011.1299 L 630.57474,1011.1299 L 636.05085,1009.6283 L 638.03815,1009.1205 L 638.03815,1007.6411 L 639.03181,1005.6316 L 640.04753,1003.1365 L 642.03483,1001.1492 L 644.02212,1000.6634 L 646.51729,999.6477 L 648.0188,999.1619 L 650.0061,998.6541 L 650.99975,998.6541 L 651.99339,997.6605 L 654.99642,996.1589 L 656.98372,995.6732 L 658.97103,995.6732 L 660.47253,996.1589 L 660.95833,994.6795 L 663.45348,992.67 L 664.955,992.67 L 667.93594,992.1843 L 672.44049,991.1906 L 673.43414,991.6764 L 674.42779,993.1779 L 672.92627,994.6795 L 672.92627,996.1589 L 672.92627,998.1682 L 672.44049,999.6477 L 674.42779,1002.1429 L 676.41508,1003.6443 L 677.91659,1004.1523 L 680.89754,1005.1459 L 684.38636,1005.1459 L 688.86882,1004.1523 L 693.85914,1002.1429 L 695.36065,1002.1429 L 695.36065,1000.6634 L 694.367,1000.6634 L 693.85914,999.6477 L 693.85914,998.1682 L 697.34794,996.6668 L 699.33524,994.6795 L 701.34463,994.6795 L 701.83041,995.1652 L 703.83979,995.1652 L 704.83344,996.1589 L 705.82708,996.6668 L 705.82708,993.6859 L 707.3286,992.67 L 709.3159,992.67 L 710.30955,991.1906 L 710.30955,990.6827 L 711.81106,989.689 L 709.3159,988.6954 L 707.3286,987.7017 L 703.83979,987.7017 L 702.82406,985.6925 L 703.83979,984.2131 L 703.83979,981.7179 L 701.83041,980.7242 L 702.33828,978.7148 L 701.83041,977.7211 L 700.83676,975.7339 L 702.82406,973.7466 L 704.83344,972.7529 L 708.80803,970.7436 L 708.80803,970.2578 L 708.32225,968.75628 L 705.82708,966.2611 L 705.82708,963.7659 L 703.33193,959.28348 L 699.33524,953.80736 L 697.85581,948.81705 L 695.36065,944.84245 L 695.36065,941.35363 L 695.36065,938.35061 L 692.86549,934.86181 L 692.35763,932.3666 L 688.86882,929.38569 L 686.39573,927.39839 L 683.90056,924.90319 L 683.90056,921.41437 L 681.89118,919.91287 L 680.89754,917.41774 L 678.91024,914.92255 L 678.91024,912.44946 L 678.91024,908.96065 L 678.91024,901.98303 L 678.91024,896.48487 L 678.40238,893.50388 L 676.41508,891.00876 L 675.42143,891.00876 L 672.44049,892.99606 L 671.42475,892.99606 L 667.93594,894.49757 L 664.44712,893.98967 L 660.95833,895.0054 L 658.48524,895.49119 L 654.99642,894.49757 L 651.99339,893.98967 L 649.49824,891.51658 L 648.50459,887.51995 L 648.0188,885.02475 L 645.01578,882.52962 L 642.5206,880.54232 L 640.53331,876.54562 L 637.55236,873.5647 L 637.04451,870.07589 L 638.03815,868.08859 L 638.03815,866.07918 L 638.03815,863.09826 L 639.53966,860.11728 L 641.52696,856.62847 L 643.02848,852.63183 L 643.02848,850.64453 L 642.03483,848.14933 L 642.03483,845.65421 L 643.02848,844.66053 L 643.53635,842.67323 L 644.02212,840.66389 L 643.02848,838.67659 L 643.02848,836.18139 L 642.5206,835.6956 L 643.53635,833.68626 L 643.53635,830.19745 L 643.53635,828.71798 L 641.04118,826.22286 L 636.05085,824.72134 L 631.06054,824.72134 L 622.60347,824.72134 L 618.09893,824.21343 L 614.61011,823.21983 L 612.62281,820.72463 L 611.1213,819.24519 L 608.14036,817.25789 L 605.6452,816.24216 L 602.15638,814.76273 L 599.66123,814.25487 L 597.16605,812.75336 L 595.68663,809.7724 L 595.17875,808.77875 L 595.17875,806.79145 L 596.17241,804.78208 L 596.17241,801.80113 L 596.68027,796.81081 L 597.16605,792.32834 L 599.17543,788.83954 L 599.66123,785.35072 L 600.16908,781.86191 L 601.16273,779.87461 L 604.14369,777.86524 L 607.6325,773.89064 L 609.13401,771.90334 L 612.13704,769.89397 L 614.61011,768.90031 L 619.11466,763.91 L 623.08926,759.42752 L 625.07655,755.45293 L 626.09228,753.95142 L 629.58109,750.46261 L 632.56204,746.97379 L 633.55569,744.47864 L 634.06356,740.50403 L 636.05085,736.50736 L 637.55236,731.03125 L 639.03181,729.02188 L 640.04753,728.02821 L 642.5206,727.03457 L 643.9338,725.15768 z "
     id="PK-SD"
     inkscape:label="#path1331" />
  <path
     style="fill:#808000;fill-opacity:1;fill-rule:evenodd;stroke:#000000;stroke-width:1;stroke-linecap:butt;stroke-linejoin:miter;stroke-opacity:1;stroke-miterlimit:4;stroke-dasharray:none"
     d="M 586.30216,678.69908 L 585.70597,676.71178 L 584.71232,674.21662 L 583.21081,672.7151 L 584.22654,671.72145 L 586.21384,670.7278 L 589.19478,669.22629 L 591.20416,667.72478 L 591.68996,665.73748 L 593.67725,661.74081 L 594.18511,660.74715 L 594.69298,658.25199 L 596.17241,656.26469 L 597.16605,654.27739 L 595.68663,651.78223 L 595.68663,649.28708 L 595.68663,647.78556 L 596.17241,644.8046 L 597.67393,643.30308 L 600.65487,641.3158 L 604.14369,637.31911 L 605.15942,633.83031 L 608.14036,631.84302 L 609.13401,631.35723 L 609.13401,630.3415 L 610.12766,627.86841 L 610.63552,626.85268 L 610.63552,625.37326 L 610.63552,622.87808 L 611.62917,619.38928 L 611.62917,618.39563 L 611.62917,615.90047 L 609.13401,616.38625 L 609.13401,617.40199 L 607.6325,617.40199 L 606.63884,616.89411 L 605.6452,614.39895 L 605.15942,611.90379 L 606.15306,611.418 L 607.14672,610.42435 L 606.63884,608.92284 L 605.15942,607.42132 L 603.6579,605.91982 L 600.65487,605.91982 L 599.66123,605.91982 L 599.17543,605.43402 L 599.17543,603.44673 L 600.16908,602.45308 L 600.16908,600.95156 L 601.16273,598.96426 L 601.16273,596.46911 L 601.6706,593.97395 L 601.6706,590.97092 L 600.65487,589.49149 L 602.15638,587.4821 L 603.6579,587.4821 L 605.15942,586.00268 L 608.64822,585.4948 L 612.13704,583.5075 L 612.13704,582.99965 L 612.13704,582.00599 L 613.13069,581.01235 L 614.61011,580.01871 L 615.11799,578.51719 L 617.61315,577.52353 L 618.6068,575.53623 L 619.11466,571.53956 L 620.1083,570.03804 L 621.10196,567.0571 L 624.59077,562.06677 L 625.07655,558.57796 L 625.07655,556.0828 L 625.58442,553.10186 L 626.57806,551.60034 L 628.07957,548.6194 L 630.06687,546.12422 L 631.06054,544.13692 L 630.57474,543.14328 L 628.56536,543.14328 L 627.57172,543.62907 L 626.57806,544.62272 L 624.59077,544.62272 L 624.59077,543.62907 L 625.07655,541.64177 L 623.08926,541.64177 L 622.0956,540.64813 L 623.08926,540.14025 L 623.59712,538.15295 L 624.59077,535.14993 L 624.59077,532.67686 L 625.58442,528.68016 L 627.08593,525.69922 L 627.57172,523.68984 L 630.57474,519.71525 L 632.05418,516.22643 L 632.05418,514.72492 L 631.56839,513.73128 L 631.06054,512.22976 L 631.06054,511.23611 L 632.05418,509.7346 L 632.05418,508.25516 L 633.55569,507.74731 L 635.05721,508.25516 L 636.05085,506.75365 L 636.05085,505.76001 L 636.55871,505.25214 L 638.03815,504.25849 L 639.53966,504.25849 L 639.53966,502.27119 L 638.54601,501.27755 L 638.54601,500.26181 L 639.53966,500.26181 L 640.53331,500.26181 L 642.03483,500.26181 L 643.53635,499.77603 L 643.53635,498.78237 L 644.52999,497.28087 L 644.02212,496.773 L 642.03483,496.28722 L 642.03483,495.29357 L 642.03483,492.29054 L 642.03483,486.32864 L 641.52696,481.82411 L 641.52696,478.84316 L 641.04118,475.86222 L 641.04118,472.85918 L 641.04118,468.88458 L 641.04118,459.41179 L 641.04118,454.92934 L 641.04118,450.4248 L 640.53331,449.43115 L 639.53966,449.43115 L 637.04451,451.44052 L 634.54933,452.91997 L 632.05418,453.91362 L 630.57474,453.91362 L 630.57474,455.41512 L 629.07323,458.41815 L 629.07323,459.89759 L 628.56536,460.89123 L 627.57172,458.41815 L 626.57806,455.92299 L 625.58442,452.43418 L 625.58442,448.94537 L 624.0829,446.93598 L 622.0956,445.94234 L 620.1083,444.94869 L 619.60045,443.44718 L 619.11466,424.52368 L 620.59409,422.51431 L 621.10196,418.53971 L 620.1083,417.03819 L 619.11466,417.54606 L 619.11466,419.02549 L 618.09893,420.52701 L 616.6195,421.52066 L 616.11163,420.04123 L 615.11799,420.04123 L 615.11799,418.53971 L 613.61647,417.03819 L 614.12433,415.0509 L 615.11799,414.05725 L 616.6195,413.54939 L 617.10528,413.0636 L 615.11799,411.56209 L 615.11799,411.05422 L 613.61647,410.06057 L 612.13704,407.5654 L 613.61647,406.08598 L 614.61011,403.59081 L 614.12433,403.59081 L 613.61647,403.59081 L 611.1213,404.0766 L 608.64822,404.0766 L 605.15942,405.07025 L 603.6579,406.08598 L 603.15002,408.07327 L 601.16273,411.05422 L 599.66123,412.04787 L 597.67393,413.0636 L 593.67725,413.0636 L 591.20416,414.05725 L 589.70266,414.05725 L 585.22019,414.54304 L 582.72502,414.10142 L 582.72502,414.54304 L 580.22987,415.53668 L 578.72835,418.03184 L 576.74105,419.02549 L 575.23953,420.04123 L 575.23953,421.52066 L 575.23953,423.53003 L 572.74438,424.01582 L 571.75072,426.00312 L 570.75708,428.49828 L 568.26192,430.50766 L 566.78248,431.5013 L 565.76675,432.98074 L 564.28732,434.48225 L 561.28429,435.98377 L 559.80487,435.98377 L 556.80183,436.46956 L 553.31302,438.47894 L 550.33208,439.95836 L 548.3227,439.95836 L 546.84326,436.46956 L 546.33541,434.99012 L 544.3481,433.99647 L 542.3608,430.99344 L 542.3608,428.49828 L 540.35142,426.51098 L 537.37047,426.00312 L 535.38317,425.51733 L 535.38317,424.52368 L 533.3738,423.02218 L 531.3865,422.02853 L 528.40556,424.01582 L 524.91674,424.52368 L 524.91674,425.00947 L 526.90404,426.00312 L 528.40556,426.51098 L 529.3992,426.51098 L 531.89437,427.01885 L 532.88802,428.49828 L 531.89437,429.9998 L 529.88498,429.9998 L 526.90404,429.00615 L 524.40888,428.49828 L 521.42793,427.50463 L 519.41856,427.01885 L 514.45031,427.01885 L 512.9488,425.51733 L 510.9615,424.52368 L 509.96785,422.51431 L 506.96483,422.51431 L 505.46331,423.53003 L 504.46965,425.51733 L 502.48235,428.0125 L 499.98719,429.49192 L 499.50141,430.99344 L 499.98719,431.98709 L 499.98719,433.4886 L 498.48568,433.4886 L 497.00625,433.4886 L 496.01259,434.48225 L 494.51108,436.46956 L 492.01592,437.48528 L 489.52076,437.48528 L 486.53981,437.48528 L 483.53679,440.46623 L 482.54313,442.45353 L 479.56219,444.46291 L 476.55916,445.45655 L 473.57822,445.45655 L 470.57519,444.46291 L 467.08637,444.46291 L 466.60059,444.94869 L 468.1021,446.45021 L 468.58789,447.95173 L 469.58154,448.94537 L 469.09576,451.44052 L 469.09576,452.43418 L 470.57519,453.42782 L 472.58456,454.42148 L 474.064,454.42148 L 477.06704,454.42148 L 480.04798,453.91362 L 481.54949,455.41512 L 482.05735,457.91029 L 480.55583,459.89759 L 477.06704,459.89759 L 475.07974,461.90697 L 471.08305,464.88791 L 467.59425,464.88791 L 465.60695,465.88156 L 462.60391,466.87521 L 457.63567,467.86886 L 452.64534,468.37673 L 449.64232,468.88458 L 447.16923,468.88458 L 444.67407,467.86886 L 442.6647,467.38308 L 439.17588,466.38943 L 436.19494,466.38943 L 433.21398,466.38943 L 431.20461,465.39578 L 431.20461,463.38639 L 432.19826,461.90697 L 430.71882,460.89123 L 428.22367,460.40545 L 423.7412,461.39909 L 418.75088,463.38639 L 416.76358,466.38943 L 414.77628,467.86886 L 412.76691,468.37673 L 409.78596,468.88458 L 408.28444,471.35767 L 408.28444,474.3607 L 407.29079,478.33529 L 404.79563,479.83681 L 402.80833,482.33197 L 401.30682,484.31927 L 397.818,486.81443 L 392.82768,487.80808 L 387.85943,488.80173 L 384.37062,498.27452 L 379.88816,516.22643 L 379.88816,517.70587 L 381.87546,521.19469 L 383.86276,523.20407 L 383.86276,525.19136 L 384.37062,527.68652 L 383.37697,530.18168 L 382.36125,532.16898 L 381.87546,543.62907 L 380.37395,545.13058 L 378.87243,547.11789 L 377.87878,550.12091 L 376.88513,553.10186 L 376.39936,556.0828 L 378.87243,558.57796 L 383.86276,563.56829 L 383.37697,567.0571 L 376.88513,572.53321 L 295.16304,593.97395 L 292.16,593.46608 L 281.69358,590.97092 L 272.72864,589.97726 L 264.75737,589.97726 L 256.27823,590.48514 L 251.79577,591.47878 L 249.30061,591.47878 L 243.8245,593.46608 L 239.34204,594.45973 L 236.84687,596.95489 L 234.35171,599.95792 L 232.36441,602.93887 L 229.86925,602.93887 L 225.38679,600.44371 L 217.9013,597.94853 L 209.42217,595.47546 L 195.97478,592.47244 L 123.2176,596.46911 L 119.72879,595.96124 L 15.064436,554.60337 L 15.064436,555.59701 L 41.981286,592.47244 L 43.968586,592.47244 L 44.962226,593.46608 L 44.962226,594.96759 L 44.454366,597.94853 L 43.460716,599.45005 L 43.460716,600.95156 L 45.470096,603.93252 L 46.949526,604.92617 L 47.457396,606.42768 L 47.943176,608.41498 L 47.943176,610.42435 L 48.958906,611.418 L 50.438336,612.41165 L 51.431986,613.40529 L 51.431986,614.90681 L 52.447716,615.90047 L 53.441366,615.90047 L 53.927156,617.40199 L 52.447716,619.38928 L 51.939856,620.89079 L 54.435016,622.87808 L 54.920806,624.3796 L 57.415966,632.35087 L 61.898426,639.81429 L 65.387236,644.29674 L 68.390266,647.78556 L 72.872726,653.76953 L 77.863046,658.75984 L 81.351861,661.25502 L 83.847025,661.25502 L 85.834322,663.24232 L 89.323133,664.23596 L 94.313459,665.73748 L 97.294406,666.24534 L 102.77052,669.22629 L 108.75449,670.21993 L 112.2433,672.7151 L 114.73846,675.21027 L 116.72576,676.20391 L 117.71941,679.18487 L 120.72244,683.18154 L 123.70338,686.16248 L 127.70006,685.16884 L 135.67133,684.68306 L 136.66498,686.67036 L 136.66498,690.66703 L 136.15712,693.64797 L 135.67133,697.13678 L 134.16982,700.6256 L 134.16982,703.12076 L 134.16982,706.60957 L 134.67769,711.59989 L 136.15712,718.06965 L 137.65863,722.55212 L 137.65863,727.54244 L 137.17285,732.0249 L 137.17285,737.01523 L 137.17285,740.50403 L 137.17285,744.9865 L 136.66498,747.48166 L 134.16982,752.95777 L 132.18252,754.45928 L 132.18252,754.94506 L 133.17617,756.93236 L 133.68404,758.43388 L 132.66831,759.9354 L 130.68101,760.92904 L 131.67466,761.9227 L 133.17617,762.91634 L 135.16347,763.91 L 137.17285,763.91 L 140.15379,764.92572 L 142.14109,765.4115 L 144.15047,765.4115 L 145.6299,765.4115 L 149.11872,764.41785 L 153.11539,763.4242 L 155.61056,763.4242 L 157.59785,763.4242 L 159.09937,762.91634 L 161.08667,762.91634 L 162.58818,763.4242 L 164.06761,765.4115 L 165.08334,765.4115 L 168.57215,768.41454 L 169.05794,771.39548 L 169.05794,773.89064 L 167.55642,773.89064 L 166.07699,775.39216 L 164.06761,778.3731 L 164.06761,780.86826 L 164.06761,788.33167 L 164.57548,789.3474 L 166.07699,790.82683 L 165.08334,792.83621 L 162.58818,793.82986 L 160.5788,795.30929 L 160.5788,797.31868 L 159.09937,802.79478 L 158.10572,809.7724 L 157.08999,811.27392 L 153.11539,810.76605 L 151.61388,810.76605 L 148.63293,810.28027 L 146.13777,809.26454 L 143.13474,809.26454 L 138.65228,809.26454 L 135.16347,809.26454 L 131.18887,808.77875 L 128.18585,808.77875 L 126.70641,810.28027 L 124.69703,811.27392 L 123.2176,811.27392 L 120.72244,812.26757 L 119.22092,812.75336 L 117.23363,813.76909 L 115.22425,813.26122 L 112.75117,813.26122 L 109.74814,813.76909 L 107.76084,813.76909 L 104.77989,814.25487 L 104.27203,815.75639 L 101.29108,815.75639 L 99.789569,816.75003 L 97.802271,816.75003 L 96.300757,818.73733 L 96.300757,821.23249 L 94.313459,823.72765 L 93.297729,824.72134 L 93.297729,825.71495 L 93.805595,827.21647 L 93.805595,828.21015 L 92.811945,829.20377 L 90.824647,828.71798 L 86.320107,826.70863 L 83.847025,826.70863 L 83.339159,828.21015 L 82.831294,829.71166 L 81.837645,831.19107 L 78.348836,832.20679 L 74.860026,833.68626 L 63.907806,836.68929 L 61.898426,839.18442 L 59.911126,848.14933 L 57.923826,858.61577 L 56.422316,866.07918 L 56.422316,869.08221 L 52.933506,869.08221 L 49.952556,869.56799 L 49.444696,871.57741 L 49.444696,875.06621 L 49.952556,877.05351 L 50.946206,878.04712 L 50.946206,879.54864 L 49.444696,881.05016 L 47.457396,882.04384 L 47.457396,883.52324 L 47.943176,885.02475 L 46.949526,886.01844 L 46.949526,888.02778 L 45.955876,891.51658 L 45.470096,899.97368 L 44.454366,906.46552 L 41.473416,911.94163 L 40.479766,913.92893 L 41.473416,914.92255 L 42.974936,914.92255 L 45.470096,914.92255 L 47.943176,915.43044 L 48.958906,915.93828 L 50.946206,916.93196 L 52.447716,916.42405 L 53.927156,916.42405 L 53.927156,917.41774 L 52.933506,919.42708 L 50.946206,921.41437 L 49.444696,923.90957 L 48.958906,925.89687 L 49.444696,927.39839 L 50.438336,928.39201 L 53.927156,927.88417 L 56.930176,928.39201 L 58.409616,927.39839 L 58.409616,925.89687 L 60.418996,923.90957 L 62.914156,922.91589 L 63.907806,922.40807 L 66.888746,922.40807 L 72.364856,923.90957 L 75.853676,924.90319 L 76.361536,923.90957 L 75.853676,923.40167 L 74.374236,921.90017 L 73.866376,919.91287 L 74.374236,917.92557 L 77.355186,916.93196 L 79.342486,916.42405 L 83.847025,915.93828 L 88.815269,917.92557 L 90.316782,919.91287 L 90.824647,921.41437 L 88.815269,923.40167 L 87.821619,924.39536 L 87.335836,924.90319 L 89.808917,925.89687 L 93.297729,926.40471 L 95.792892,926.40471 L 95.792892,925.38898 L 93.297729,924.39536 L 92.30408,922.91589 L 92.30408,921.90017 L 94.799243,918.91926 L 99.789569,917.92557 L 102.28473,917.41774 L 103.27838,916.42405 L 102.28473,916.42405 L 102.77052,915.93828 L 105.26568,915.43044 L 111.24965,915.43044 L 123.2176,915.93828 L 133.68404,917.92557 L 139.16015,919.42708 L 142.64896,919.42708 L 146.13777,917.41774 L 148.63293,916.93196 L 154.10904,917.92557 L 157.59785,919.91287 L 163.07396,920.42078 L 167.55642,920.90655 L 171.5531,922.91589 L 174.04826,922.91589 L 176.54343,922.40807 L 177.02921,921.41437 L 175.54978,919.42708 L 174.04826,917.92557 L 173.05461,916.42405 L 173.5404,915.93828 L 175.04191,913.92893 L 178.02286,911.43373 L 184.00683,909.44643 L 190.98446,908.96065 L 194.98113,909.95433 L 196.48265,909.95433 L 198.95573,911.43373 L 202.95241,912.93525 L 204.45392,913.44314 L 207.94273,913.44314 L 211.43155,913.92893 L 212.91098,913.44314 L 215.914,912.93525 L 215.914,910.94795 L 215.914,909.44643 L 213.90462,907.94491 L 211.91733,908.45281 L 210.92368,907.94491 L 208.93639,907.45913 L 208.93639,906.46552 L 209.93003,906.46552 L 211.91733,905.47183 L 213.41884,904.964 L 214.41249,904.964 L 215.40614,905.47183 L 216.90765,905.47183 L 220.39647,904.964 L 221.39011,905.47183 L 222.38377,906.46552 L 220.39647,906.95131 L 219.8886,906.95131 L 217.9013,906.95131 L 216.39979,907.94491 L 216.39979,908.45281 L 216.39979,908.96065 L 216.90765,910.44011 L 217.9013,911.43373 L 218.40917,912.44946 L 217.39344,913.44314 L 217.39344,914.92255 L 218.40917,914.92255 L 221.39011,915.43044 L 224.37106,915.93828 L 225.87257,915.93828 L 227.37408,915.93828 L 228.36774,916.42405 L 230.8629,917.92557 L 233.84384,918.41135 L 234.8375,918.41135 L 235.85323,919.91287 L 237.84052,920.90655 L 239.82782,921.90017 L 242.83085,921.90017 L 243.8245,921.90017 L 245.30393,920.90655 L 245.81179,919.91287 L 247.79909,919.91287 L 248.79274,920.42078 L 250.80212,920.90655 L 252.78941,923.40167 L 252.78941,924.90319 L 251.79577,926.89049 L 252.28156,927.88417 L 252.78941,928.39201 L 255.28458,928.39201 L 257.27188,928.39201 L 259.25917,926.89049 L 259.76705,925.89687 L 257.77975,925.89687 L 257.27188,925.38898 L 256.27823,924.39536 L 256.7861,921.41437 L 257.77975,920.42078 L 259.76705,918.91926 L 261.26855,917.41774 L 264.75737,916.93196 L 266.74466,916.93196 L 270.74134,916.93196 L 275.2238,916.42405 L 277.2111,916.42405 L 278.71261,917.41774 L 281.69358,918.91926 L 285.18238,918.41135 L 287.16968,918.91926 L 288.18541,919.42708 L 290.1727,920.42078 L 292.66787,920.42078 L 293.15365,919.42708 L 294.1473,917.41774 L 294.1473,915.43044 L 296.64246,913.44314 L 298.65184,913.44314 L 300.63914,914.43676 L 301.63279,913.92893 L 304.12796,913.44314 L 305.62947,912.93525 L 308.10255,913.44314 L 308.10255,914.43676 L 308.10255,915.43044 L 309.11828,915.43044 L 310.11193,915.43044 L 313.60075,913.44314 L 316.0959,913.92893 L 317.57534,914.43676 L 318.56899,914.92255 L 322.05779,916.42405 L 325.54661,916.93196 L 327.55599,917.92557 L 329.54328,916.93196 L 331.0448,914.92255 L 335.52726,913.44314 L 337.51455,912.93525 L 340.49551,911.94163 L 341.51124,911.94163 L 346.98734,911.94163 L 350.96194,911.43373 L 353.96497,910.94795 L 355.95227,909.95433 L 359.44107,910.44011 L 360.94259,910.94795 L 364.4314,910.44011 L 366.41871,908.96065 L 368.91386,908.96065 L 372.91054,909.44643 L 377.87878,910.44011 L 383.86276,913.44314 L 384.85641,914.43676 L 386.35792,913.92893 L 385.36427,911.94163 L 383.86276,910.94795 L 382.86912,910.44011 L 384.37062,908.45281 L 384.37062,907.94491 L 381.3676,906.95131 L 379.3803,906.46552 L 378.87243,904.964 L 376.88513,903.97032 L 375.38362,902.46881 L 374.38998,902.46881 L 371.40903,902.46881 L 368.406,904.45611 L 364.4314,906.95131 L 359.94894,907.45913 L 357.45378,906.95131 L 357.45378,905.95762 L 359.94894,905.95762 L 361.42837,903.4625 L 362.92989,900.48152 L 364.91719,898.98 L 367.41235,898.49422 L 370.41538,897.98638 L 371.40903,898.49422 L 375.89148,898.49422 L 376.39936,897.98638 L 377.393,897.47849 L 377.87878,897.98638 L 377.87878,899.4879 L 381.3676,899.97368 L 382.36125,900.48152 L 382.86912,901.4752 L 384.85641,902.97671 L 385.85006,904.964 L 388.34522,904.964 L 389.33887,905.47183 L 389.84673,907.45913 L 389.84673,908.45281 L 390.3546,910.44011 L 390.84038,911.43373 L 392.82768,913.44314 L 392.34189,915.43044 L 389.84673,915.43044 L 388.34522,915.93828 L 389.84673,917.41774 L 390.3546,918.41135 L 391.34824,919.91287 L 394.83706,921.90017 L 396.3165,924.39536 L 400.82103,926.89049 L 401.30682,928.39201 L 402.30047,931.37299 L 402.30047,933.86811 L 399.8053,935.85541 L 399.8053,937.35692 L 399.31952,939.34422 L 399.31952,941.35363 L 399.31952,944.33455 L 399.31952,945.83607 L 397.818,949.81066 L 396.82436,950.80434 L 397.818,952.30586 L 398.81165,953.29947 L 397.15557,954.29316 L 398.81165,954.29316 L 400.82103,954.29316 L 401.30682,953.29947 L 401.81468,951.82007 L 402.80833,950.80434 L 404.30985,949.32487 L 406.78292,946.82975 L 409.78596,944.84245 L 412.76691,944.84245 L 415.26206,944.33455 L 418.26509,943.34093 L 419.25873,942.34725 L 422.23969,938.85844 L 422.74755,935.85541 L 422.74755,933.86811 L 423.7412,931.88082 L 426.23637,929.38569 L 426.72215,928.39201 L 429.72518,927.88417 L 430.71882,926.40471 L 430.71882,925.38898 L 431.20461,923.90957 L 432.19826,921.41437 L 432.70612,918.91926 L 431.71247,915.93828 L 432.19826,914.43676 L 433.21398,913.92893 L 434.20764,912.44946 L 435.20128,910.44011 L 435.68707,908.45281 L 437.69646,906.95131 L 440.6774,905.95762 L 440.6774,903.97032 L 440.6774,902.46881 L 440.6774,901.4752 L 442.17891,899.4879 L 443.68043,897.98638 L 445.66773,896.9927 L 447.65502,896.9927 L 447.65502,895.49119 L 447.65502,893.50388 L 448.16289,892.00237 L 449.64232,888.51356 L 450.65804,886.52626 L 452.64534,884.53897 L 452.64534,881.05016 L 452.13749,880.03442 L 452.13749,876.05982 L 452.13749,873.5647 L 452.13749,870.58373 L 452.64534,869.08221 L 453.63899,866.07918 L 453.63899,863.60609 L 453.63899,862.10458 L 452.64534,858.61577 L 450.65804,855.61274 L 448.64867,852.63183 L 446.1535,848.63512 L 444.16621,845.14631 L 443.68043,842.16539 L 441.18525,838.16868 L 440.6774,836.68929 L 439.68375,834.67987 L 437.69646,833.68626 L 437.69646,831.19107 L 436.19494,830.19745 L 434.69342,827.70225 L 434.69342,826.70863 L 434.20764,825.22917 L 434.20764,822.22613 L 434.20764,820.23884 L 433.21398,818.73733 L 433.21398,816.75003 L 433.21398,813.76909 L 433.21398,812.26757 L 433.69977,811.27392 L 434.69342,810.28027 L 434.20764,808.77875 L 434.20764,806.79145 L 433.69977,805.28995 L 432.70612,801.80113 L 432.70612,800.29962 L 432.70612,798.31233 L 433.21398,797.80446 L 434.69342,795.81716 L 434.20764,794.31564 L 435.20128,794.31564 L 435.20128,793.32199 L 434.69342,792.83621 L 434.20764,791.82049 L 433.69977,789.83319 L 433.69977,788.83954 L 433.69977,786.85224 L 433.69977,785.35072 L 433.69977,782.36978 L 433.21398,779.87461 L 433.21398,776.87158 L 433.21398,774.37643 L 433.21398,773.89064 L 432.70612,768.41454 L 432.70612,766.91302 L 434.20764,764.41785 L 435.68707,763.4242 L 435.68707,760.42118 L 435.68707,757.44023 L 436.7028,753.95142 L 437.18858,751.45626 L 437.69646,749.46896 L 439.68375,747.96745 L 440.6774,746.46594 L 441.18525,743.48499 L 442.17891,741.49769 L 442.17891,740.50403 L 445.15985,738.49466 L 447.65502,737.01523 L 449.15652,734.52006 L 449.64232,733.01855 L 450.65804,730.52339 L 450.65804,728.53609 L 450.65804,727.03457 L 450.65804,726.04092 L 452.64534,724.53942 L 454.63264,724.05362 L 457.1278,724.05362 L 463.11178,724.05362 L 467.08637,723.54576 L 470.57519,722.04424 L 476.55916,719.57117 L 480.55583,717.076 L 484.04465,716.08235 L 488.01925,714.58085 L 489.03498,713.5872 L 490.02862,711.59989 L 490.02862,709.59051 L 491.50805,708.59687 L 494.00322,706.60957 L 496.49838,703.60654 L 499.98719,702.6129 L 502.99023,699.63194 L 506.96483,697.64465 L 510.9615,694.15583 L 515.44395,691.15281 L 518.93277,689.6513 L 520.43429,688.17186 L 521.42793,686.16248 L 523.41523,682.67366 L 527.4119,681.19424 L 531.89437,680.68637 L 538.36413,680.20059 L 546.33541,679.69272 L 558.30335,680.20059 L 566.27462,679.69272 L 573.76011,679.69272 L 578.24257,679.69272 L 585.22019,678.69908 L 586.30216,678.69908 z "
     id="PK-BA"
     inkscape:label="#path1336" />
  <path
     style="fill:#782121;fill-opacity:1;fill-rule:evenodd;stroke:#000000;stroke-width:1;stroke-linecap:butt;stroke-linejoin:miter;stroke-opacity:1;stroke-miterlimit:4;stroke-dasharray:none"
     d="M 885.05927,168.25059 L 883.75649,169.35465 L 882.74076,169.84044 L 881.7471,172.33559 L 881.7471,174.32289 L 880.75346,176.81805 L 879.7598,178.31956 L 878.25829,179.31322 L 878.25829,181.80838 L 875.27734,183.28781 L 871.78853,185.2972 L 868.29973,185.78298 L 864.81091,185.78298 L 861.82997,187.79235 L 860.32846,190.7733 L 859.82058,194.26211 L 857.83328,195.25576 L 857.83328,197.24306 L 858.34116,198.74458 L 858.34116,201.7476 L 858.34116,203.7349 L 857.32543,205.7222 L 855.84598,205.23641 L 854.85234,204.72855 L 853.35083,203.7349 L 852.35719,204.22068 L 850.3478,204.22068 L 849.35415,205.23641 L 846.3732,205.23641 L 844.8717,207.22371 L 844.38591,209.71887 L 843.87804,211.70617 L 843.37018,216.18863 L 843.37018,218.17593 L 843.37018,220.67109 L 843.87804,222.68047 L 843.87804,224.66778 L 845.37955,226.65507 L 845.86534,227.64872 L 846.85899,229.15023 L 848.3605,232.63905 L 848.3605,234.62634 L 848.86837,237.1215 L 849.35415,238.62302 L 849.86201,242.11184 L 850.85567,247.58793 L 850.85567,249.57523 L 851.84931,251.58461 L 852.84296,253.5719 L 854.85234,255.55921 L 855.84598,257.56859 L 856.83964,260.04166 L 856.83964,262.05105 L 856.33178,263.53048 L 855.33813,264.54621 L 854.85234,265.03199 L 854.85234,266.53351 L 856.33178,268.52081 L 856.33178,270.50811 L 857.32543,272.51748 L 857.32543,273.51113 L 856.33178,275.49842 L 855.33813,277.9936 L 855.84598,279.4951 L 857.32543,279.9809 L 858.34116,280.97454 L 858.82694,281.96818 L 859.3348,283.4697 L 860.32846,285.457 L 860.32846,287.46638 L 858.82694,289.45368 L 858.34116,289.96154 L 859.3348,290.95519 L 860.32846,291.44097 L 860.32846,292.43463 L 859.82058,293.93614 L 858.34116,294.92978 L 856.33178,295.92343 L 855.33813,297.42494 L 856.33178,298.4186 L 857.83328,299.41224 L 858.82694,300.91376 L 858.82694,301.42162 L 858.82694,302.41527 L 858.82694,303.40892 L 858.82694,304.40257 L 858.82694,306.38987 L 859.3348,308.39924 L 860.32846,309.3929 L 861.82997,310.38655 L 862.82361,311.88806 L 863.3094,314.869 L 862.82361,315.86266 L 861.82997,316.37052 L 861.3221,317.87203 L 862.31575,318.86568 L 863.81725,319.35147 L 865.2967,319.85933 L 866.79821,320.34512 L 868.29973,321.36085 L 869.29337,321.84663 L 870.28702,323.34815 L 871.28067,324.84966 L 872.78219,325.33545 L 873.77583,325.33545 L 874.76949,324.84966 L 876.271,324.34179 L 879.25194,322.84027 L 880.75346,322.84027 L 881.7471,324.84966 L 883.75649,325.84331 L 885.23592,327.83061 L 886.22957,327.83061 L 888.72473,330.32576 L 891.72776,330.81155 L 893.71505,332.31306 L 897.71174,333.81458 L 900.69268,335.31609 L 903.67363,337.3034 L 907.67031,338.29704 L 908.26649,338.45161 L 908.17817,338.29704 L 909.17182,335.80188 L 910.16547,334.30036 L 909.6576,332.82093 L 908.17817,331.31942 L 908.17817,330.32576 L 909.17182,328.82425 L 908.17817,327.83061 L 906.16879,326.83696 L 903.18783,323.83393 L 900.18481,322.84027 L 899.19116,321.84663 L 896.69601,321.36085 L 895.21656,319.35147 L 893.71505,316.8563 L 891.72776,315.37688 L 888.23895,311.3802 L 886.73743,308.39924 L 886.73743,307.89139 L 886.73743,304.91044 L 887.24529,302.90106 L 889.23259,301.90742 L 892.7214,300.42797 L 893.71505,299.41224 L 894.7087,296.4313 L 894.7087,293.93614 L 894.7087,291.44097 L 893.71505,289.45368 L 895.21656,287.95216 L 895.21656,285.457 L 895.21656,283.4697 L 893.20719,279.9809 L 891.72776,279.4951 L 889.23259,278.50145 L 887.24529,277.48572 L 885.74378,276.99994 L 883.75649,275.49842 L 882.74076,273.99691 L 881.7471,272.00963 L 882.25498,269.51445 L 883.24862,266.02563 L 885.74378,262.53684 L 888.72473,261.54318 L 889.71837,260.04166 L 892.21354,260.04166 L 896.21022,258.56224 L 898.70538,255.55921 L 900.69268,253.5719 L 900.69268,251.58461 L 901.68633,250.59096 L 902.67998,248.58159 L 898.19752,246.59429 L 895.70235,247.10215 L 892.21354,246.59429 L 889.71837,246.59429 L 889.23259,248.09581 L 885.74378,248.09581 L 884.75013,248.09581 L 880.75346,247.58793 L 879.7598,246.59429 L 877.26464,243.10548 L 875.76313,241.60396 L 875.76313,239.1088 L 876.271,236.12785 L 878.76616,235.61999 L 881.26132,235.1342 L 882.25498,234.14056 L 882.74076,230.65175 L 881.7471,226.16929 L 878.25829,222.68047 L 877.26464,222.1726 L 874.2837,220.18531 L 872.78219,219.67744 L 870.28702,219.67744 L 868.29973,217.69014 L 870.28702,216.6965 L 871.78853,215.19499 L 874.2837,214.68712 L 874.2837,211.70617 L 872.78219,210.20465 L 873.77583,207.7095 L 876.77886,206.23005 L 877.77251,204.72855 L 878.76616,201.7476 L 876.77886,200.73187 L 876.77886,198.74458 L 880.75346,196.75727 L 886.22957,195.76362 L 891.21989,193.75424 L 896.21022,190.26544 L 899.19116,188.786 L 903.18783,186.77662 L 906.16879,186.77662 L 908.17817,187.79235 L 912.15277,189.77965 L 918.64459,191.28117 L 923.61284,192.27481 L 926.10801,193.26847 L 927.10165,194.26211 L 928.60317,194.76998 L 931.09834,193.75424 L 933.5935,193.75424 L 940.06326,194.76998 L 941.56477,195.25576 L 944.54571,196.75727 L 948.03453,197.24306 L 949.02817,197.75093 L 951.52335,197.24306 L 954.0185,195.25576 L 956.51366,194.76998 L 959.49462,194.76998 L 961.50399,194.76998 L 961.50399,193.75424 L 962.49764,191.28117 L 962.49764,187.79235 L 962.49764,184.30354 L 961.50399,178.80535 L 960.51034,176.31019 L 959.49462,174.83076 L 957.02153,172.82138 L 955.01215,172.33559 L 953.02486,172.82138 L 950.0439,173.32924 L 948.54239,173.83711 L 946.04723,175.82441 L 944.05993,177.81171 L 941.0569,179.31322 L 937.08232,181.30051 L 932.09198,181.80838 L 926.10801,180.81474 L 925.11435,179.31322 L 920.12404,176.81805 L 916.14944,173.32924 L 911.66698,169.35465 L 908.66395,167.85313 L 904.18149,165.35797 L 900.69268,164.36432 L 898.19752,164.36432 L 895.21656,165.86583 L 890.7341,167.34527 L 888.23895,167.85313 L 886.22957,168.84677 L 885.05927,168.25059 z "
     id="PK-JK"
     inkscape:label="#path1348" />
  <path
     style="fill:#000000;fill-opacity:1;fill-rule:evenodd;stroke:#000000;stroke-width:1;stroke-linecap:butt;stroke-linejoin:miter;stroke-opacity:1;stroke-miterlimit:4;stroke-dasharray:none"
     d="M 812.85411,271.70048 L 811.97087,273.00327 L 809.98357,273.51113 L 807.99627,273.99691 L 806.49476,273.99691 L 804.50746,273.99691 L 804.50746,276.49208 L 806.49476,279.4951 L 806.49476,282.47606 L 807.99627,284.97121 L 808.98992,285.96487 L 810.97722,284.46336 L 812.98661,282.98392 L 813.98025,281.96818 L 814.9739,281.96818 L 816.9612,281.48241 L 819.96422,281.96818 L 824.44669,284.97121 L 826.43399,286.47273 L 828.92915,288.46003 L 830.91644,289.45368 L 832.41796,287.46638 L 833.41161,285.96487 L 834.40526,284.46336 L 836.39255,282.47606 L 836.39255,279.9809 L 836.39255,278.50145 L 837.40828,276.49208 L 839.88136,276.49208 L 840.38923,276.0063 L 840.38923,274.50478 L 839.39558,273.51113 L 837.40828,272.00963 L 834.91312,271.01597 L 832.90374,269.02867 L 832.41796,268.03503 L 830.91644,266.53351 L 830.07736,265.53986 L 828.92915,266.02563 L 825.44034,266.02563 L 822.4373,267.01929 L 822.4373,268.52081 L 818.9485,270.02233 L 815.96755,271.01597 L 812.85411,271.70048 z "
     id="path1361" />
  <path
     style="fill:#000080;fill-opacity:1;fill-rule:evenodd;stroke:#000000;stroke-width:1;stroke-linecap:butt;stroke-linejoin:miter;stroke-opacity:1;stroke-miterlimit:4;stroke-dasharray:none"
     d="M 653.07538,466.74272 L 650.49188,465.88156 L 650.0061,462.39274 L 648.0188,455.41512 L 646.51729,447.95173 L 645.01578,439.47258 L 642.5206,435.98377 L 641.04118,430.99344 L 640.04753,426.00312 L 638.03815,420.52701 L 638.03815,415.53668 L 637.04451,411.56209 L 634.06356,408.07327 L 633.55569,404.58446 L 631.06054,401.09565 L 631.06054,398.09262 L 632.05418,392.61652 L 633.55569,391.62286 L 637.55236,388.13405 L 642.5206,384.64525 L 646.00942,383.14373 L 651.99339,378.66126 L 653.98069,373.18516 L 655.48221,370.20421 L 656.98372,369.69634 L 658.48524,370.20421 L 659.96467,371.19786 L 660.95833,372.67729 L 662.9677,374.17881 L 663.45348,372.67729 L 664.44712,371.19786 L 664.44712,368.19483 L 661.97405,367.20119 L 659.96467,365.21389 L 656.47586,361.21721 L 653.98069,359.22991 L 650.49188,354.23958 L 649.01245,352.76016 L 649.01245,349.27134 L 649.49824,344.76679 L 650.99975,343.77315 L 651.99339,341.78585 L 654.99642,335.80188 L 656.47586,331.82728 L 658.97103,327.83061 L 659.47888,326.32909 L 660.47253,326.32909 L 660.95833,327.32274 L 663.45348,328.82425 L 665.94864,328.82425 L 668.95167,327.83061 L 672.44049,326.32909 L 675.92929,323.34815 L 678.40238,319.35147 L 680.41176,317.36418 L 681.89118,315.86266 L 678.91024,315.37688 L 675.92929,314.869 L 674.42779,314.38323 L 671.42475,313.87536 L 668.95167,312.37385 L 668.95167,310.89441 L 665.94864,310.89441 L 663.96135,308.39924 L 659.96467,306.89773 L 659.96467,304.91044 L 660.95833,304.40257 L 661.97405,302.90106 L 661.46618,302.41527 L 659.47888,301.42162 L 656.47586,301.42162 L 656.98372,298.92646 L 658.48524,298.4186 L 662.45983,298.4186 L 663.45348,298.4186 L 664.955,296.4313 L 666.9423,294.444 L 669.43745,293.93614 L 672.44049,292.94248 L 672.44049,290.44733 L 672.44049,287.46638 L 674.42779,286.95851 L 676.92294,286.95851 L 678.91024,287.46638 L 681.89118,287.95216 L 685.88786,288.46003 L 688.38303,287.46638 L 690.37033,286.47273 L 693.37335,286.95851 L 694.85279,285.457 L 695.36065,282.98392 L 695.84643,281.48241 L 697.34794,280.97454 L 696.86217,279.4951 L 696.3543,277.9936 L 696.3543,276.49208 L 695.84643,273.99691 L 698.3416,273.51113 L 699.33524,273.99691 L 702.33828,275.01265 L 703.33193,277.48572 L 705.82708,278.50145 L 707.81438,280.48875 L 709.3159,281.48241 L 714.79201,281.48241 L 716.77931,280.97454 L 718.28082,281.96818 L 722.27749,282.98392 L 727.75361,282.98392 L 729.25512,282.98392 L 729.25512,284.46336 L 729.25512,286.47273 L 727.75361,288.46003 L 728.74725,289.96154 L 732.74393,290.95519 L 734.73123,289.96154 L 737.22639,287.46638 L 740.7152,284.46336 L 742.70251,282.47606 L 742.70251,280.48875 L 740.7152,279.4951 L 740.7152,276.99994 L 743.21036,276.0063 L 744.6898,273.51113 L 743.21036,270.50811 L 739.21369,269.51445 L 737.71217,268.52081 L 735.72488,269.02867 L 735.23909,271.01597 L 733.22972,272.51748 L 730.24877,274.50478 L 726.25209,274.50478 L 723.27114,274.50478 L 720.77598,273.51113 L 720.77598,271.01597 L 722.76328,269.02867 L 721.28384,266.53351 L 719.27447,265.53986 L 716.29352,263.53048 L 715.78566,262.05105 L 715.78566,260.54954 L 715.78566,258.05437 L 712.80472,254.56557 L 711.81106,249.57523 L 712.80472,246.08642 L 716.29352,241.60396 L 719.78234,234.62634 L 722.76328,230.14387 L 724.26479,228.64237 L 725.25844,226.16929 L 727.75361,225.15355 L 730.73455,220.67109 L 731.75028,217.69014 L 731.24242,216.18863 L 730.24877,214.20133 L 728.26148,212.21405 L 728.74725,211.1983 L 729.7409,209.71887 L 730.73455,209.21101 L 730.73455,208.21735 L 729.25512,207.22371 L 730.73455,205.7222 L 732.23607,204.72855 L 734.73123,203.22703 L 735.72488,201.23974 L 735.23909,198.74458 L 734.73123,195.76362 L 736.71852,194.26211 L 736.23275,193.26847 L 735.23909,191.76695 L 734.22337,191.76695 L 730.73455,191.28117 L 727.75361,190.7733 L 725.25844,188.27814 L 723.27114,183.79568 L 721.76963,180.81474 L 720.59933,177.85586 L 719.78234,180.30686 L 716.77931,181.80838 L 712.80472,183.79568 L 709.3159,184.78932 L 707.81438,187.79235 L 706.82073,190.26544 L 706.82073,192.27481 L 705.31922,194.26211 L 703.33193,195.25576 L 701.34463,197.24306 L 697.85581,200.24608 L 695.84643,201.23974 L 694.85279,202.23338 L 694.85279,205.23641 L 694.85279,208.21735 L 694.85279,210.20465 L 693.37335,211.70617 L 690.87819,211.1983 L 688.38303,211.70617 L 688.38303,214.20133 L 688.38303,216.6965 L 687.87517,218.17593 L 690.37033,219.67744 L 692.35763,221.17896 L 693.85914,223.67411 L 695.84643,225.15355 L 697.85581,225.66141 L 698.84946,226.16929 L 698.84946,228.64237 L 698.84946,230.65175 L 697.85581,231.13753 L 696.86217,233.1469 L 696.3543,234.14056 L 696.3543,235.1342 L 696.86217,236.63572 L 698.3416,237.1215 L 698.84946,238.11514 L 697.85581,239.1088 L 698.84946,241.60396 L 697.34794,243.61334 L 696.3543,243.61334 L 694.367,245.09278 L 694.367,247.10215 L 695.84643,250.08311 L 693.85914,251.07675 L 691.36397,251.07675 L 689.37667,252.0704 L 687.38938,254.07978 L 685.88786,254.07978 L 684.38636,253.5719 L 682.90691,253.5719 L 682.90691,255.55921 L 682.39906,257.06072 L 679.41811,257.06072 L 678.40238,257.06072 L 677.40873,257.56859 L 675.42143,258.56224 L 672.44049,257.56859 L 669.43745,257.56859 L 665.94864,258.05437 L 663.45348,258.56224 L 660.47253,258.56224 L 657.97736,259.04802 L 655.48221,259.04802 L 651.99339,258.56224 L 650.99975,257.06072 L 647.51094,257.56859 L 645.01578,256.55286 L 643.53635,256.55286 L 641.04118,255.55921 L 638.54601,254.56557 L 636.05085,253.5719 L 632.56204,253.06405 L 629.58109,253.06405 L 627.08593,252.0704 L 622.60347,252.0704 L 619.60045,253.06405 L 618.6068,253.5719 L 619.60045,255.55921 L 619.60045,256.55286 L 617.61315,258.05437 L 616.6195,259.04802 L 617.10528,260.54954 L 618.6068,262.05105 L 619.60045,263.53048 L 620.1083,264.54621 L 620.59409,266.53351 L 622.0956,268.52081 L 622.60347,270.02233 L 624.0829,271.01597 L 624.0829,273.00327 L 625.07655,273.51113 L 626.57806,274.50478 L 628.56536,275.01265 L 632.56204,276.0063 L 634.54933,275.49842 L 635.54299,277.9936 L 635.54299,279.4951 L 636.05085,280.97454 L 637.04451,281.48241 L 638.54601,282.98392 L 638.03815,285.457 L 637.55236,289.45368 L 636.55871,291.94884 L 637.55236,292.94248 L 638.54601,293.93614 L 638.54601,295.92343 L 640.53331,295.92343 L 642.5206,297.93282 L 643.53635,299.41224 L 646.00942,301.90742 L 646.51729,303.91679 L 646.51729,307.4056 L 644.02212,307.89139 L 643.02848,309.3929 L 640.04753,312.88171 L 638.03815,313.36749 L 636.55871,314.38323 L 635.54299,315.86266 L 634.54933,317.36418 L 632.56204,317.36418 L 631.06054,316.8563 L 629.58109,317.36418 L 629.58109,318.86568 L 628.07957,320.85298 L 627.57172,321.84663 L 625.58442,321.84663 L 624.59077,321.84663 L 622.60347,323.34815 L 620.1083,324.84966 L 617.61315,325.84331 L 616.11163,325.84331 L 614.61011,324.34179 L 612.62281,322.84027 L 611.62917,322.84027 L 609.64187,323.83393 L 607.6325,326.32909 L 606.15306,325.84331 L 601.6706,325.33545 L 597.67393,326.32909 L 596.17241,327.83061 L 593.67725,330.32576 L 593.19146,332.31306 L 593.19146,334.80823 L 593.67725,337.78918 L 594.18511,339.2907 L 593.67725,341.78585 L 593.19146,342.29372 L 591.68996,343.28737 L 590.6963,345.27467 L 589.70266,347.26197 L 587.20749,348.76347 L 586.21384,349.75712 L 587.20749,351.74442 L 588.709,352.76016 L 589.70266,353.75381 L 590.18844,355.23324 L 590.18844,356.73475 L 590.6963,358.72205 L 589.19478,361.72507 L 586.21384,365.21389 L 585.22019,367.70905 L 582.21717,367.70905 L 580.73773,368.7027 L 578.72835,369.69634 L 578.24257,372.67729 L 577.24892,375.68032 L 577.24892,379.16913 L 578.72835,381.15643 L 579.72199,383.14373 L 580.22987,385.15311 L 580.22987,386.63254 L 579.72199,388.64192 L 579.23622,391.115 L 580.22987,393.12438 L 579.23622,395.61954 L 578.72835,398.09262 L 578.72835,399.10836 L 579.23622,401.09565 L 580.22987,403.08295 L 580.22987,405.57811 L 581.22351,409.06692 L 582.72502,411.56209 L 582.72502,414.10142 L 585.22019,414.54304 L 589.70266,414.05725 L 591.20416,414.05725 L 593.67725,413.0636 L 597.67393,413.0636 L 599.66123,412.04787 L 601.16273,411.05422 L 603.15002,408.07327 L 603.6579,406.08598 L 605.15942,405.07025 L 608.64822,404.0766 L 611.1213,404.0766 L 613.61647,403.59081 L 614.12433,403.59081 L 614.61011,403.59081 L 613.61647,406.08598 L 612.13704,407.5654 L 613.61647,410.06057 L 615.11799,411.05422 L 615.11799,411.56209 L 617.10528,413.0636 L 616.6195,413.54939 L 615.11799,414.05725 L 614.12433,415.0509 L 613.61647,417.03819 L 615.11799,418.53971 L 615.11799,420.04123 L 616.11163,420.04123 L 616.6195,421.52066 L 618.09893,420.52701 L 619.11466,419.02549 L 619.11466,417.54606 L 620.1083,417.03819 L 621.10196,418.53971 L 620.59409,422.51431 L 619.11466,424.52368 L 619.60045,443.44718 L 620.1083,444.94869 L 622.0956,445.94234 L 624.0829,446.93598 L 625.58442,448.94537 L 625.58442,452.43418 L 626.57806,455.92299 L 627.57172,458.41815 L 628.56536,460.89123 L 629.07323,459.89759 L 629.07323,458.41815 L 630.57474,455.41512 L 630.57474,453.91362 L 632.05418,453.91362 L 634.54933,452.91997 L 637.04451,451.44052 L 639.53966,449.43115 L 640.53331,449.43115 L 641.04118,450.4248 L 641.04118,454.92934 L 641.04118,459.41179 L 641.04118,468.88458 L 641.04118,472.85918 L 641.04118,475.86222 L 641.52696,478.84316 L 641.52696,481.82411 L 641.68152,483.21521 L 642.5206,481.82411 L 643.53635,479.35103 L 644.02212,477.34164 L 643.53635,475.35435 L 643.53635,473.85283 L 645.01578,471.86553 L 648.50459,471.86553 L 650.99975,470.87188 L 651.99339,468.37673 L 653.07538,466.74272 z "
     id="PK-TA"
     inkscape:label="#path1366" />
  <path
     style="fill:#00ff00;fill-opacity:1;fill-rule:evenodd;stroke:#000000;stroke-width:1;stroke-linecap:butt;stroke-linejoin:miter;stroke-opacity:1;stroke-miterlimit:4;stroke-dasharray:none"
     d="M 850.3478,24.81185 C 850.3478,24.81185 849.3604,26.300766 847.36685,26.799148 C 845.3733,27.297541 845.37955,28.808526 845.37955,28.808526 L 842.8844,28.300664 L 841.38288,27.30702 L 839.88136,26.799148 L 835.39891,26.799148 L 831.91009,27.792803 L 826.43399,28.808526 L 822.94517,28.808526 L 818.4627,28.808526 L 815.96755,28.808526 L 812.98661,30.795821 L 809.49779,30.795821 L 807.00263,30.795821 L 804.99325,31.789482 L 801.01865,32.783122 L 798.52349,32.783122 L 795.54254,32.783122 L 791.54586,32.783122 L 787.54919,33.776772 L 783.06672,34.284638 L 781.07943,35.786154 L 779.57792,37.773454 L 777.08275,38.767094 L 773.10816,39.27497 L 770.613,38.767094 L 767.63205,40.26861 L 764.62902,41.748045 L 761.14021,42.25591 L 758.64504,42.763786 L 759.15291,44.243211 L 761.14021,45.744727 L 761.14021,47.732027 L 760.14656,47.732027 L 758.15927,47.732027 L 756.14988,47.732027 L 754.67045,49.233543 L 752.17528,50.227183 L 752.17528,51.728699 L 752.17528,53.230215 L 750.67378,53.715999 L 748.68648,54.709639 L 747.18496,56.719031 L 744.6898,57.712671 L 743.69616,59.192106 L 739.72155,60.693622 L 736.23275,60.693622 L 735.23909,60.693622 L 734.73123,62.195138 L 736.23275,63.674562 L 736.71852,66.169728 L 736.71852,67.671244 L 735.72488,68.664895 L 734.22337,68.17911 L 732.74393,67.671244 L 732.23607,66.169728 L 729.7409,64.182428 L 726.75996,63.674562 L 723.75693,64.182428 L 723.75693,66.169728 L 723.27114,68.17911 L 722.27749,69.172761 L 720.26812,70.166411 L 720.77598,71.160051 L 721.28384,71.667921 L 722.27749,72.661571 L 721.76963,74.141001 L 719.27447,74.141001 L 717.79504,75.156731 L 716.29352,76.636171 L 715.29987,77.629821 L 712.80472,80.632841 L 712.29685,81.626491 L 711.3032,82.620141 L 709.80168,82.620141 L 708.32225,82.620141 L 706.82073,85.115301 L 706.31288,87.610461 L 704.83344,88.096251 L 702.33828,89.597761 L 701.83041,90.591411 L 701.34463,92.092931 L 699.84311,94.080221 L 698.84946,94.588081 L 698.84946,96.575381 L 699.84311,97.083251 L 701.34463,98.562681 L 703.33193,101.05785 L 706.82073,102.0515 L 708.80803,103.06722 L 710.30955,104.06087 L 711.3032,105.05452 L 711.3032,106.04817 L 711.3032,107.54968 L 712.29685,108.54334 L 713.79835,108.54334 L 715.29987,110.04485 L 716.77931,113.02579 L 716.77931,114.52731 L 718.28082,115.52095 L 717.79504,117.02247 L 718.78869,118.5019 L 720.26812,119.49555 L 721.28384,120.00342 L 721.28384,120.99707 L 721.28384,122.98437 L 721.28384,124.48588 L 720.26812,125.98739 L 719.78234,127.48891 L 720.26812,128.96834 L 721.76963,129.47621 L 722.27749,130.46986 L 723.75693,130.97771 L 725.25844,131.97137 L 726.25209,133.95866 L 726.25209,134.95231 L 725.76631,135.94596 L 724.26479,135.94596 L 725.25844,136.93961 L 725.76631,138.44113 L 726.25209,140.42842 L 727.75361,141.44416 L 729.25512,143.43145 L 729.25512,144.93296 L 727.75361,147.40605 L 726.25209,148.42177 L 724.77266,148.90756 L 723.75693,149.90121 L 722.27749,149.90121 L 721.76963,150.89486 L 721.28384,152.90423 L 723.75693,154.89153 L 725.25844,156.87883 L 727.24573,158.38035 L 727.75361,159.374 L 729.7409,159.374 L 729.7409,160.36765 L 729.7409,162.37702 L 728.74725,165.35797 L 726.75996,166.85948 L 724.77266,167.34527 L 723.27114,168.33892 L 721.76963,171.82773 L 722.27749,173.32924 L 723.27114,174.83076 L 721.28384,176.31019 L 720.77598,177.32592 L 720.59933,177.85586 L 721.76963,180.81474 L 723.27114,183.79568 L 725.25844,188.27814 L 727.75361,190.7733 L 730.73455,191.28117 L 734.22337,191.76695 L 735.23909,191.76695 L 736.23275,193.26847 L 736.71852,194.26211 L 734.73123,195.76362 L 735.23909,198.74458 L 735.72488,201.23974 L 734.73123,203.22703 L 732.23607,204.72855 L 730.73455,205.7222 L 729.25512,207.22371 L 730.73455,208.21735 L 730.73455,209.21101 L 729.7409,209.71887 L 728.74725,211.1983 L 728.26148,212.21405 L 730.24877,214.20133 L 731.24242,216.18863 L 731.75028,217.69014 L 730.73455,220.67109 L 727.75361,225.15355 L 725.25844,226.16929 L 724.26479,228.64237 L 722.76328,230.14387 L 719.78234,234.62634 L 716.29352,241.60396 L 712.80472,246.08642 L 711.81106,249.57523 L 712.80472,254.56557 L 715.78566,258.05437 L 715.78566,260.54954 L 715.78566,262.05105 L 716.29352,263.53048 L 719.27447,265.53986 L 721.28384,266.53351 L 722.76328,269.02867 L 720.77598,271.01597 L 720.77598,273.51113 L 723.27114,274.50478 L 726.25209,274.50478 L 730.24877,274.50478 L 733.22972,272.51748 L 735.23909,271.01597 L 735.72488,269.02867 L 737.71217,268.52081 L 739.21369,269.51445 L 743.21036,270.50811 L 744.6898,273.51113 L 743.21036,276.0063 L 740.7152,276.99994 L 740.7152,279.4951 L 742.70251,280.48875 L 742.70251,282.47606 L 740.7152,284.46336 L 737.22639,287.46638 L 734.73123,289.96154 L 732.74393,290.95519 L 728.74725,289.96154 L 727.75361,288.46003 L 729.25512,286.47273 L 729.25512,284.46336 L 729.25512,282.98392 L 727.75361,282.98392 L 722.27749,282.98392 L 718.28082,281.96818 L 716.77931,280.97454 L 714.79201,281.48241 L 709.3159,281.48241 L 707.81438,280.48875 L 705.82708,278.50145 L 703.33193,277.48572 L 702.33828,275.01265 L 699.33524,273.99691 L 698.3416,273.51113 L 695.84643,273.99691 L 696.3543,276.49208 L 696.3543,277.9936 L 696.86217,279.4951 L 697.34794,280.97454 L 695.84643,281.48241 L 695.36065,282.98392 L 694.85279,285.457 L 693.37335,286.95851 L 690.37033,286.47273 L 688.38303,287.46638 L 685.88786,288.46003 L 681.89118,287.95216 L 678.91024,287.46638 L 676.92294,286.95851 L 674.42779,286.95851 L 672.44049,287.46638 L 672.44049,290.44733 L 672.44049,292.94248 L 669.43745,293.93614 L 666.9423,294.444 L 664.955,296.4313 L 663.45348,298.4186 L 662.45983,298.4186 L 658.48524,298.4186 L 656.98372,298.92646 L 656.47586,301.42162 L 659.47888,301.42162 L 661.46618,302.41527 L 661.97405,302.90106 L 660.95833,304.40257 L 659.96467,304.91044 L 659.96467,306.89773 L 663.96135,308.39924 L 665.94864,310.89441 L 668.95167,310.89441 L 668.95167,312.37385 L 671.42475,313.87536 L 674.42779,314.38323 L 675.92929,314.869 L 678.91024,315.37688 L 681.89118,315.86266 L 680.41176,317.36418 L 678.40238,319.35147 L 675.92929,323.34815 L 672.44049,326.32909 L 668.95167,327.83061 L 665.94864,328.82425 L 663.45348,328.82425 L 660.95833,327.32274 L 660.47253,326.32909 L 659.47888,326.32909 L 658.97103,327.83061 L 656.47586,331.82728 L 654.99642,335.80188 L 651.99339,341.78585 L 650.99975,343.77315 L 649.49824,344.76679 L 649.01245,349.27134 L 649.01245,352.76016 L 650.49188,354.23958 L 653.98069,359.22991 L 656.47586,361.21721 L 659.96467,365.21389 L 661.97405,367.20119 L 664.44712,368.19483 L 664.44712,371.19786 L 663.45348,372.67729 L 662.9677,374.17881 L 660.95833,372.67729 L 659.96467,371.19786 L 658.48524,370.20421 L 656.98372,369.69634 L 655.48221,370.20421 L 653.98069,373.18516 L 651.99339,378.66126 L 646.00942,383.14373 L 642.5206,384.64525 L 637.55236,388.13405 L 633.55569,391.62286 L 632.05418,392.61652 L 631.06054,398.09262 L 631.06054,401.09565 L 633.55569,404.58446 L 634.06356,408.07327 L 637.04451,411.56209 L 638.03815,415.53668 L 638.03815,420.52701 L 640.04753,426.00312 L 641.04118,430.99344 L 642.5206,435.98377 L 645.01578,439.47258 L 646.51729,447.95173 L 648.0188,455.41512 L 650.0061,462.39274 L 650.49188,465.88156 L 653.07538,466.74272 L 654.99642,463.89426 L 657.97736,461.90697 L 661.97405,459.89759 L 664.955,459.89759 L 668.4438,460.89123 L 669.94532,460.89123 L 672.44049,459.89759 L 673.91991,459.89759 L 674.91357,459.89759 L 676.92294,460.89123 L 678.40238,460.40545 L 680.41176,459.41179 L 680.89754,458.41815 L 681.40541,456.91664 L 680.41176,455.41512 L 679.90389,454.42148 L 680.41176,452.91997 L 682.39906,452.91997 L 684.38636,452.91997 L 684.38636,451.44052 L 682.90691,449.93902 L 682.39906,448.4375 L 683.90056,447.44385 L 684.89421,445.94234 L 684.89421,445.45655 L 683.90056,443.95504 L 682.90691,442.96139 L 682.90691,441.96774 L 682.90691,439.95836 L 683.3927,438.96471 L 683.90056,436.46956 L 683.3927,434.48225 L 683.90056,432.49495 L 684.38636,430.99344 L 685.88786,429.9998 L 688.86882,427.01885 L 690.37033,422.51431 L 691.36397,421.03488 L 692.35763,419.53336 L 694.367,418.53971 L 694.367,417.03819 L 694.367,415.0509 L 696.3543,413.0636 L 696.3543,412.04787 L 696.3543,410.06057 L 695.36065,408.55907 L 695.36065,407.07963 L 695.36065,405.07025 L 696.3543,404.58446 L 697.85581,403.08295 L 698.3416,402.0893 L 698.3416,400.58779 L 698.3416,398.60049 L 698.3416,396.61319 L 699.84311,396.10533 L 701.83041,395.11168 L 704.32558,393.61016 L 703.33193,391.115 L 702.82406,390.12135 L 703.33193,388.13405 L 705.82708,385.63889 L 705.82708,384.15945 L 706.82073,381.6643 L 709.3159,380.16278 L 711.81106,380.16278 L 714.30622,379.65491 L 714.30622,378.66126 L 714.30622,376.1661 L 714.79201,375.17246 L 715.29987,373.69302 L 715.29987,371.19786 L 715.78566,369.69634 L 715.29987,368.19483 L 714.30622,366.7154 L 712.29685,366.7154 L 711.3032,367.70905 L 710.30955,368.19483 L 708.32225,368.7027 L 707.3286,369.69634 L 706.31288,368.7027 L 706.31288,367.70905 L 708.80803,366.20754 L 708.80803,364.70602 L 708.80803,363.71237 L 707.81438,361.72507 L 706.82073,361.72507 L 705.31922,362.21085 L 704.32558,362.21085 L 702.82406,362.21085 L 701.34463,360.22355 L 700.35098,357.7284 L 699.84311,355.7411 L 699.84311,352.25229 L 698.84946,351.25864 L 698.3416,349.75712 L 697.85581,348.25561 L 699.33524,345.78253 L 699.33524,343.77315 L 699.33524,341.78585 L 698.84946,339.2907 L 700.35098,337.3034 L 700.35098,335.31609 L 702.82406,333.30672 L 704.32558,332.31306 L 706.82073,332.31306 L 709.80168,331.31942 L 711.3032,331.82728 L 713.79835,331.82728 L 713.79835,330.81155 L 715.78566,329.33212 L 718.28082,329.33212 L 719.78234,329.33212 L 719.27447,327.83061 L 719.27447,326.32909 L 719.27447,325.84331 L 717.79504,325.33545 L 716.77931,324.34179 L 716.77931,322.84027 L 717.28717,321.84663 L 717.28717,320.85298 L 717.28717,318.86568 L 716.77931,317.87203 L 716.29352,316.8563 L 716.29352,315.37688 L 715.29987,314.38323 L 714.79201,312.37385 L 716.29352,312.37385 L 719.27447,312.37385 L 719.78234,313.36749 L 722.27749,314.38323 L 723.75693,313.36749 L 725.76631,313.36749 L 727.75361,313.36749 L 728.26148,314.869 L 728.26148,317.36418 L 729.7409,320.34512 L 731.75028,321.84663 L 731.75028,322.3545 L 732.74393,324.34179 L 734.73123,324.34179 L 736.71852,324.34179 L 737.22639,322.84027 L 737.71217,320.85298 L 739.21369,319.85933 L 741.70886,316.8563 L 740.20734,314.869 L 739.21369,313.36749 L 738.22004,312.37385 L 736.71852,311.3802 L 736.71852,310.38655 L 734.73123,309.3929 L 736.23275,307.89139 L 737.22639,307.89139 L 737.22639,305.90409 L 736.23275,304.91044 L 735.72488,302.41527 L 737.22639,301.90742 L 739.72155,300.91376 L 742.70251,298.92646 L 746.69918,297.42494 L 746.69918,295.92343 L 746.69918,295.43765 L 748.68648,294.444 L 749.19433,292.94248 L 750.67378,290.95519 L 751.66743,289.96154 L 749.68013,287.46638 L 750.67378,284.97121 L 751.66743,283.97757 L 753.16893,280.48875 L 753.16893,278.98724 L 753.6768,277.9936 L 754.16258,276.0063 L 754.16258,273.99691 L 756.65775,272.51748 L 758.15927,271.01597 L 762.64172,270.02233 L 766.13054,270.50811 L 769.11148,270.50811 L 770.10513,269.02867 L 770.10513,267.52715 L 770.613,265.53986 L 770.613,264.03835 L 770.10513,262.53684 L 770.10513,261.05739 L 770.10513,260.54954 L 769.61935,259.55589 L 769.61935,258.05437 L 772.11451,257.06072 L 773.59395,256.06708 L 777.08275,255.55921 L 778.58427,255.07342 L 779.57792,253.5719 L 780.08578,251.58461 L 781.5873,251.58461 L 784.06037,251.58461 L 785.56189,252.0704 L 786.55554,253.06405 L 787.06341,255.07342 L 788.56491,255.55921 L 791.54586,255.55921 L 794.04103,256.55286 L 794.04103,257.06072 L 793.53316,258.05437 L 792.53951,259.04802 L 791.54586,260.04166 L 790.55221,260.54954 L 792.05373,261.54318 L 795.03468,262.53684 L 795.54254,263.53048 L 797.02198,262.05105 L 798.52349,260.04166 L 799.51714,258.56224 L 800.51079,256.06708 L 801.50444,256.06708 L 803.51382,257.56859 L 803.51382,259.04802 L 806.00897,261.05739 L 807.99627,261.54318 L 807.48841,263.53048 L 806.49476,266.53351 L 806.49476,267.52715 L 808.98992,268.03503 L 808.98992,270.02233 L 809.98357,271.52383 L 811.48509,272.00963 L 815.96755,271.01597 L 818.9485,270.02233 L 822.4373,268.52081 L 822.4373,267.01929 L 825.44034,266.02563 L 828.92915,266.02563 L 832.41796,264.54621 L 833.91946,263.04469 L 836.39255,263.04469 L 839.88136,259.04802 L 840.38923,256.06708 L 841.38288,254.07978 L 842.37653,253.06405 L 843.87804,252.0704 L 846.85899,251.07675 L 849.35415,249.08945 L 850.3478,249.57523 L 850.85567,249.509 L 850.85567,247.58793 L 849.86201,242.11184 L 849.35415,238.62302 L 848.86837,237.1215 L 848.3605,234.62634 L 848.3605,232.63905 L 846.85899,229.15023 L 845.86534,227.64872 L 845.37955,226.65507 L 843.87804,224.66778 L 843.87804,222.68047 L 843.37018,220.67109 L 843.37018,218.17593 L 843.37018,216.18863 L 843.87804,211.70617 L 844.38591,209.71887 L 844.8717,207.22371 L 846.3732,205.23641 L 849.35415,205.23641 L 850.3478,204.22068 L 852.35719,204.22068 L 853.35083,203.7349 L 854.85234,204.72855 L 855.84598,205.23641 L 857.32543,205.7222 L 858.34116,203.7349 L 858.34116,201.7476 L 858.34116,198.74458 L 857.83328,197.24306 L 857.83328,195.25576 L 859.82058,194.26211 L 860.32846,190.7733 L 861.82997,187.79235 L 864.81091,185.78298 L 868.29973,185.78298 L 871.78853,185.2972 L 875.27734,183.28781 L 878.25829,181.80838 L 878.25829,179.31322 L 879.7598,178.31956 L 880.75346,176.81805 L 881.7471,174.32289 L 881.7471,172.33559 L 882.74076,169.84044 L 883.75649,169.35465 L 885.05927,168.25059 L 884.24227,167.85313 L 883.24862,166.85948 L 881.7471,164.8501 L 882.74076,163.37068 L 883.75649,163.37068 L 885.23592,162.37702 L 887.24529,162.37702 L 887.73107,161.3613 L 886.73743,160.36765 L 884.75013,159.88186 L 883.75649,158.88821 L 881.7471,158.88821 L 879.25194,157.87248 L 878.76616,157.87248 L 875.76313,157.87248 L 875.27734,156.39305 L 872.78219,154.38367 L 871.78853,154.38367 L 870.28702,154.89153 L 868.7855,155.39941 L 867.30607,154.38367 L 865.2967,152.90423 L 865.2967,152.39637 L 864.30305,153.39002 L 862.82361,153.39002 L 861.82997,154.38367 L 861.3221,155.39941 L 860.32846,154.89153 L 860.32846,153.39002 L 860.32846,151.91059 L 858.34116,148.42177 L 859.3348,144.93296 L 858.34116,141.92993 L 859.82058,140.42842 L 860.81423,139.43478 L 861.3221,136.45383 L 861.82997,135.94596 L 863.3094,134.46653 L 864.30305,133.95866 L 866.79821,133.4508 L 866.79821,132.45715 L 864.30305,131.4635 L 861.82997,130.46986 L 859.82058,130.46986 L 855.84598,129.96199 L 851.36352,128.96834 L 848.86837,128.96834 L 847.87472,129.47621 L 844.8717,128.48256 L 841.89074,128.48256 L 837.89406,127.48891 L 831.42431,124.48588 L 827.42764,122.49858 L 823.45303,120.00342 L 820.95788,117.50825 L 820.45,115.52095 L 820.45,113.53366 L 820.45,112.51793 L 821.95152,111.03849 L 821.44365,108.54334 L 819.96422,107.04182 L 816.9612,107.04182 L 814.9739,107.04182 L 813.98025,107.54968 L 811.48509,108.54334 L 807.48841,108.03547 L 804.99325,108.03547 L 802.0123,107.04182 L 799.03136,107.54968 L 796.02833,110.04485 L 793.04738,110.53063 L 790.04435,110.53063 L 787.06341,109.02911 L 784.06037,106.55604 L 782.58094,105.54031 L 782.58094,104.54666 L 782.58094,102.0515 L 784.56824,100.57207 L 784.56824,97.083251 L 784.56824,96.089601 L 783.57459,95.073871 L 782.58094,92.092931 L 782.58094,90.105631 L 782.58094,88.096251 L 782.58094,83.613791 L 783.06672,80.124971 L 783.06672,77.144031 L 785.56189,75.642521 L 786.55554,76.150381 L 789.05071,77.629821 L 792.05373,76.636171 L 792.05373,75.156731 L 792.53951,72.661571 L 795.03468,71.667921 L 797.52985,70.166411 L 800.025,69.658541 L 801.01865,68.17911 L 801.50444,65.176078 L 802.52016,63.674562 L 802.52016,61.687272 L 804.99325,60.693622 L 806.00897,59.699972 L 807.99627,58.198456 L 808.98992,57.204805 L 811.48509,55.217515 L 812.98661,52.722349 L 813.98025,51.728699 L 815.45968,50.227183 L 815.45968,48.239883 L 813.98025,46.252582 L 812.98661,45.744727 L 812.98661,43.249561 L 814.46603,42.763786 L 816.9612,41.748045 L 818.9485,40.26861 L 822.94517,40.754394 L 825.44034,40.754394 L 826.94185,40.26861 L 829.41493,38.767094 L 832.41796,37.265588 L 834.40526,37.265588 L 836.90042,37.265588 L 839.39558,38.259239 L 841.89074,38.767094 L 846.3732,37.773454 L 847.36685,39.27497 L 850.3478,40.26861 L 852.35719,40.26861 L 854.85234,39.27497 L 857.32543,39.27497 L 859.82058,39.760755 L 861.82997,39.760755 L 863.81725,38.259239 L 864.81091,37.773454 L 864.81091,35.786154 L 863.81725,34.770422 L 863.3094,33.290998 L 862.82361,32.297337 L 861.82997,32.297337 L 860.32846,32.297337 L 859.3348,31.281616 L 858.82694,30.287966 L 857.83328,29.294318 L 856.33178,29.294318 L 853.83661,29.294318 L 851.36352,28.808526 L 851.36352,27.792803 L 850.36988,24.81185 L 850.3478,24.81185 z "
     id="PK-KP"
     inkscape:label="#path1343" />
  <path
     style="fill:#808000;fill-opacity:1;fill-rule:evenodd;stroke:#000000;stroke-width:1;stroke-linecap:butt;stroke-linejoin:miter;stroke-opacity:1;stroke-miterlimit:4;stroke-dasharray:none"
     d="M 850.36988,24.81185 L 851.36352,27.792803 L 851.36352,28.808526 L 853.83661,29.294318 L 856.33178,29.294318 L 857.83328,29.294318 L 858.82694,30.287966 L 859.3348,31.281616 L 860.32846,32.297337 L 861.82997,32.297337 L 862.82361,32.297337 L 863.3094,33.290998 L 863.81725,34.770422 L 864.81091,35.786154 L 864.81091,37.773454 L 863.81725,38.259239 L 861.82997,39.760755 L 859.82058,39.760755 L 857.32543,39.27497 L 854.85234,39.27497 L 852.35719,40.26861 L 850.3478,40.26861 L 847.36685,39.27497 L 846.3732,37.773454 L 841.89074,38.767094 L 839.39558,38.259239 L 836.90042,37.265588 L 834.40526,37.265588 L 832.41796,37.265588 L 829.41493,38.767094 L 826.94185,40.26861 L 825.44034,40.754394 L 822.94517,40.754394 L 818.9485,40.26861 L 816.9612,41.748045 L 814.46603,42.763786 L 812.98661,43.249561 L 812.98661,45.744727 L 813.98025,46.252582 L 815.45968,48.239883 L 815.45968,50.227183 L 813.98025,51.728699 L 812.98661,52.722349 L 811.48509,55.217515 L 808.98992,57.204805 L 807.99627,58.198456 L 806.00897,59.699972 L 804.99325,60.693622 L 802.52016,61.687272 L 802.52016,63.674562 L 801.50444,65.176078 L 801.01865,68.17911 L 800.025,69.658541 L 797.52985,70.166411 L 795.03468,71.667921 L 792.53951,72.661571 L 792.05373,75.156731 L 792.05373,76.636171 L 789.05071,77.629821 L 786.55554,76.150381 L 785.56189,75.642521 L 783.06672,77.144031 L 783.06672,80.124971 L 782.58094,83.613791 L 782.58094,88.096251 L 782.58094,90.105631 L 782.58094,92.092931 L 783.57459,95.073871 L 784.56824,96.089601 L 784.56824,97.083251 L 784.56824,100.57207 L 782.58094,102.0515 L 782.58094,104.54666 L 782.58094,105.54031 L 784.06037,106.55604 L 787.06341,109.02911 L 790.04435,110.53063 L 793.04738,110.53063 L 796.02833,110.04485 L 799.03136,107.54968 L 802.0123,107.04182 L 804.99325,108.03547 L 807.48841,108.03547 L 811.48509,108.54334 L 813.98025,107.54968 L 814.9739,107.04182 L 816.9612,107.04182 L 819.96422,107.04182 L 821.44365,108.54334 L 821.95152,111.03849 L 820.45,112.51793 L 820.45,113.53366 L 820.45,115.52095 L 820.95788,117.50825 L 823.45303,120.00342 L 827.42764,122.49858 L 831.42431,124.48588 L 837.89406,127.48891 L 841.89074,128.48256 L 844.8717,128.48256 L 847.87472,129.47621 L 848.86837,128.96834 L 851.36352,128.96834 L 855.84598,129.96199 L 859.82058,130.46986 L 861.82997,130.46986 L 864.30305,131.4635 L 866.79821,132.45715 L 866.79821,133.4508 L 864.30305,133.95866 L 863.3094,134.46653 L 861.82997,135.94596 L 861.3221,136.45383 L 860.81423,139.43478 L 859.82058,140.42842 L 858.34116,141.92993 L 859.3348,144.93296 L 858.34116,148.42177 L 860.32846,151.91059 L 860.32846,153.39002 L 860.32846,154.89153 L 861.3221,155.39941 L 861.82997,154.38367 L 862.82361,153.39002 L 864.30305,153.39002 L 865.2967,152.39637 L 865.2967,152.90423 L 867.30607,154.38367 L 868.7855,155.39941 L 870.28702,154.89153 L 871.78853,154.38367 L 872.78219,154.38367 L 875.27734,156.39305 L 875.76313,157.87248 L 878.76616,157.87248 L 879.25194,157.87248 L 881.7471,158.88821 L 883.75649,158.88821 L 884.75013,159.88186 L 886.73743,160.36765 L 887.73107,161.3613 L 887.24529,162.37702 L 885.23592,162.37702 L 883.75649,163.37068 L 882.74076,163.37068 L 881.7471,164.8501 L 883.24862,166.85948 L 884.24227,167.85313 L 886.22957,168.84677 L 888.23895,167.85313 L 890.7341,167.34527 L 895.21656,165.86583 L 898.19752,164.36432 L 900.69268,164.36432 L 904.18149,165.35797 L 908.66395,167.85313 L 911.66698,169.35465 L 916.14944,173.32924 L 920.12404,176.81805 L 925.11435,179.31322 L 926.10801,180.81474 L 932.09198,181.80838 L 937.08232,181.30051 L 941.0569,179.31322 L 944.05993,177.81171 L 946.04723,175.82441 L 948.54239,173.83711 L 950.0439,173.32924 L 953.02486,172.82138 L 955.01215,172.33559 L 957.02153,172.82138 L 959.49462,174.83076 L 960.51034,176.31019 L 961.50399,178.80535 L 962.49764,184.30354 L 962.49764,187.79235 L 962.49764,191.28117 L 961.50399,193.75424 L 961.50399,194.76998 L 962.98342,195.25576 L 963.99916,197.24306 L 965.47859,198.25878 L 969.47526,200.24608 L 970.97678,201.23974 L 973.44986,202.23338 L 977.44653,202.23338 L 982.43687,202.23338 L 989.90026,202.74126 L 992.39544,202.23338 L 995.37638,202.74126 L 996.8779,202.23338 L 998.37941,200.24608 L 1001.3603,198.25878 L 1003.8555,196.24941 L 1005.8428,193.75424 L 1007.3443,192.27481 L 1009.8395,189.77965 L 1012.8204,188.786 L 1016.8171,188.786 L 1018.8044,188.786 L 1021.2996,188.786 L 1023.7947,188.27814 L 1026.7757,187.2845 L 1027.7914,185.78298 L 1032.2739,182.80203 L 1034.769,182.29416 L 1037.75,182.29416 L 1040.2451,182.80203 L 1043.2261,183.28781 L 1046.2291,182.80203 L 1049.7179,181.80838 L 1052.2131,180.30686 L 1053.2067,178.80535 L 1054.6862,175.82441 L 1057.6892,173.83711 L 1058.175,171.34195 L 1055.7019,169.84044 L 1055.7019,166.85948 L 1057.1813,165.86583 L 1060.1844,164.8501 L 1064.6668,162.8628 L 1068.1556,162.8628 L 1070.1429,162.8628 L 1072.6381,161.3613 L 1073.6317,156.87883 L 1072.6381,153.89789 L 1072.6381,151.40272 L 1074.1396,150.89486 L 1108.012,125.47952 L 1113.996,122.98437 L 1112.0087,122.49858 L 1108.5198,122.49858 L 1106.5325,121.99072 L 1103.5295,121.50493 L 1100.5485,120.99707 L 1097.0597,121.50493 L 1094.5646,122.98437 L 1092.0694,121.99072 L 1088.5806,120.00342 L 1085.0918,118.5019 L 1082.5967,119.00977 L 1078.622,119.49555 L 1076.6347,118.5019 L 1073.6317,117.02247 L 1071.6444,115.52095 L 1068.1556,115.52095 L 1064.159,115.0131 L 1061.178,113.02579 L 1058.175,111.03849 L 1056.1877,110.53063 L 1054.2004,111.52428 L 1050.7116,108.54334 L 1047.7085,106.55604 L 1043.2261,104.06087 L 1040.7309,104.54666 L 1039.7373,103.55301 L 1039.7373,102.0515 L 1038.7436,100.57207 L 1037.2421,99.070551 L 1038.2578,96.575381 L 1038.7436,93.594441 L 1037.2421,93.594441 L 1034.769,95.581731 L 1033.2675,96.089601 L 1031.2802,96.575381 L 1030.7724,97.083251 L 1029.2708,99.070551 L 1027.7914,98.562681 L 1026.2899,98.562681 L 1024.3026,99.070551 L 1023.7947,101.05785 L 1021.8074,100.57207 L 1018.8044,100.0642 L 1016.8171,100.57207 L 1015.3156,100.57207 L 1013.3283,99.578421 L 1011.341,97.083251 L 1011.341,94.588081 L 1010.3474,89.597761 L 1008.8458,87.610461 L 1005.8428,86.616811 L 1003.3697,86.616811 L 1000.8746,86.616811 L 997.87154,85.623171 L 995.88424,82.134351 L 995.88424,79.639191 L 996.8779,77.629821 L 998.37941,76.636171 L 1000.3667,75.642521 L 1000.8746,74.141001 L 1000.8746,72.661571 L 1000.3667,70.652191 L 1001.3603,69.658541 L 1003.8555,69.172761 L 1003.8555,67.671244 L 1001.3603,66.677594 L 999.88092,62.680922 L 999.88092,60.693622 L 999.88092,59.699972 L 999.88092,53.715999 L 998.8652,51.220833 L 997.87154,48.239883 L 995.37638,44.751076 L 993.38908,41.748045 L 992.9033,39.760755 L 990.40814,36.779804 L 984.90994,32.783122 L 979.43384,30.795821 L 975.94502,30.795821 L 971.97043,30.287966 L 969.47526,30.287966 L 968.48162,31.789482 L 969.47526,32.783122 L 966.47223,32.783122 L 963.99916,33.290998 L 961.50399,30.287966 L 961.50399,27.792803 L 961.50399,25.319722 L 961.50399,20.815175 L 958.01517,18.342093 L 955.52002,17.326361 L 951.52335,16.840578 L 948.03453,16.840578 L 945.05359,14.85328 L 942.05056,14.345418 L 938.07596,14.345418 L 935.07292,15.339073 L 930.59047,16.332717 L 929.11104,18.827877 L 928.09531,18.827877 L 926.10801,14.345418 L 925.11435,12.843903 L 922.61919,12.35812 L 918.64459,12.35812 L 916.14944,11.364476 L 915.64157,10.856605 L 914.14007,10.856605 L 911.15911,11.850258 L 908.17817,13.351774 L 906.67665,14.85328 L 907.67031,16.332717 L 906.16879,17.834232 L 905.68301,16.332717 L 902.19419,15.339073 L 901.68633,15.339073 L 899.19116,15.339073 L 896.69601,16.840578 L 894.7087,18.827877 L 892.21354,20.329392 L 890.22625,21.323046 L 888.72473,23.310344 L 886.22957,25.319722 L 885.74378,23.818206 L 882.74076,23.818206 L 881.26132,24.303988 L 881.26132,27.30702 L 881.26132,29.294318 L 877.77251,30.287966 L 874.76949,30.795821 L 873.29004,30.287966 L 870.79489,28.808526 L 866.79821,26.799148 L 864.30305,26.799148 L 862.31575,25.805504 L 857.83328,25.805504 L 854.85234,26.313366 L 850.36988,24.81185 z "
     id="PK-GB"
     inkscape:label="#path1315" />
  <path
     style="fill:none;fill-opacity:0.75;fill-rule:evenodd;stroke:#000000;stroke-width:1;stroke-linecap:butt;stroke-linejoin:miter;stroke-opacity:1;stroke-miterlimit:4;stroke-dasharray:none"
     d="M 972.95929,386.64044 L 972.95929,386.64044 z "
     id="path1317" />
</svg>
