<?xml version="1.0" encoding="UTF-8" standalone="no"?>
<!-- Created with Inkscape (http://www.inkscape.org/) -->

<svg
   xmlns:dc="http://purl.org/dc/elements/1.1/"
   xmlns:cc="http://creativecommons.org/ns#"
   xmlns:rdf="http://www.w3.org/1999/02/22-rdf-syntax-ns#"
   xmlns:svg="http://www.w3.org/2000/svg"
   xmlns="http://www.w3.org/2000/svg"
   xmlns:sodipodi="http://sodipodi.sourceforge.net/DTD/sodipodi-0.dtd"
   xmlns:inkscape="http://www.inkscape.org/namespaces/inkscape"
   width="133.0625"
   height="105.6875"
   id="svg13160"
   version="1.1"
   inkscape:version="0.48.3.1 r9886"
   sodipodi:docname="saudi_arabia.svg">
  <defs
     id="defs13162" />
  <sodipodi:namedview
     id="base"
     pagecolor="#ffffff"
     bordercolor="#666666"
     borderopacity="1.0"
     inkscape:pageopacity="0.0"
     inkscape:pageshadow="2"
     inkscape:zoom="5.6"
     inkscape:cx="53.683987"
     inkscape:cy="52.834247"
     inkscape:document-units="px"
     inkscape:current-layer="g5993"
     showgrid="false"
     fit-margin-top="0"
     fit-margin-left="0"
     fit-margin-right="0"
     fit-margin-bottom="0"
     inkscape:window-width="708"
     inkscape:window-height="952"
     inkscape:window-x="633"
     inkscape:window-y="4"
     inkscape:window-maximized="0" />
  <metadata
     id="metadata13165">
    <rdf:RDF>
      <cc:Work
         rdf:about="">
        <dc:format>image/svg+xml</dc:format>
        <dc:type
           rdf:resource="http://purl.org/dc/dcmitype/StillImage" />
        <dc:title />
      </cc:Work>
    </rdf:RDF>
  </metadata>
  <g
     inkscape:label="Layer 1"
     inkscape:groupmode="layer"
     id="layer1"
     transform="translate(-308.4775,-479.50893)">
    <g
       transform="translate(291.915,466.35268)"
       id="Provinzen">
      <g
         id="g5993">
        <rect
           style="fill:none"
           x="33.273998"
           y="63.612999"
           width="0.12"
           height="0.12"
           id="rect5995" />
        <rect
           style="fill:none"
           x="33.153999"
           y="63.493"
           width="0.12"
           height="0.12"
           id="rect5997" />
        <rect
           style="fill:none"
           x="35.793999"
           y="66.972"
           width="0.12"
           height="0.12"
           id="rect5999" />
        <polygon
           style="fill:none"
           points="37.834,67.454 37.714,67.454 37.714,67.573 "
           id="polygon6001" />
        <polygon
           style="fill:none"
           points="37.834,67.693 37.714,67.573 37.714,67.813 "
           id="polygon6003" />
        <rect
           style="fill:none"
           x="30.034"
           y="56.772999"
           width="0.12"
           height="0.12"
           id="rect6005" />
        <polygon
           style="fill:none"
           points="36.634,66.972 36.514,66.972 36.514,67.092 "
           id="polygon6007" />
        <polygon
           style="fill:none"
           points="117.395,61.813 117.514,61.813 117.395,61.693 "
           id="polygon6009" />
        <polygon
           style="fill:none"
           points="118.594,63.853 118.714,63.972 118.714,63.853 "
           id="polygon6011" />
        <polygon
           style="fill:none"
           points="114.634,57.013 114.634,57.132 114.754,57.132 "
           id="polygon6013" />
        <polygon
           style="fill:none"
           points="106.234,43.693 106.354,43.693 106.234,43.573 "
           id="polygon6015" />
        <rect
           style="fill:none"
           x="106.114"
           y="43.693001"
           width="0.12"
           height="0.12"
           id="rect6017" />
        <polygon
           style="fill:none"
           points="114.874,54.013 114.874,54.252 115.114,54.252 "
           id="polygon6019" />
        <polygon
           style="fill:none"
           points="33.395,63.132 33.514,63.013 33.274,63.132 "
           id="polygon6021" />
        <polygon
           style="fill:none"
           points="45.034,84.013 45.274,83.773 45.274,83.653 45.154,83.773 45.154,83.892 "
           id="polygon6023" />
        <polygon
           style="fill:none"
           points="44.434,81.853 44.314,81.972 44.314,82.092 44.555,82.092 44.555,81.972 "
           id="polygon6025" />
        <polygon
           style="fill:none"
           points="45.395,83.533 45.274,83.533 45.274,83.653 "
           id="polygon6027" />
        <polygon
           style="fill:none"
           points="60.395,106.574 60.395,106.453 60.274,106.574 "
           id="polygon6029" />
        <polygon
           style="fill:none"
           points="44.674,77.052 44.434,77.052 44.434,77.172 44.555,77.172 "
           id="polygon6031" />
        <polygon
           style="fill:none"
           points="44.914,81.132 44.794,81.013 44.794,81.132 "
           id="polygon6033" />
        <polygon
           style="fill:none"
           points="44.794,81.132 44.674,81.373 44.674,81.494 44.794,81.613 "
           id="polygon6035" />
        <path
           style="fill:#ff00ff;stroke:#b2b2b2;stroke-width:0.10000000000000001"
           inkscape:connector-curvature="0"
           d="m 42.946,72.409 0.305,-0.026 0.153,-0.02 0.141,-0.044 0.142,-0.036 0.133,-0.045 0.147,-0.039 0.149,0.063 0.136,0.146 0.069,0.142 0.187,0.318 0.439,0.328 0.155,0.148 0.108,0.135 0.223,0.291 0.141,0.148 0.139,0.122 0.166,0.11 0.145,0.053 0.139,-0.012 0.173,-0.029 0.136,-0.033 0.305,-0.092 0.279,-0.045 0.134,0.007 0.154,0.062 0.053,0.137 0.015,0.134 0.006,0.134 -0.012,0.141 0.02,0.14 0.127,0.104 0.27,-0.07 0.142,-0.049 0.132,-0.029 0.147,-0.055 0.443,-0.129 0.172,-0.061 0.161,-0.051 0.15,-0.055 0.149,-0.035 0.145,-0.043 0.446,-0.061 0.276,-0.016 0.145,0.021 0.134,0.113 0.063,0.131 0.039,0.132 0.019,0.143 0.005,0.15 -0.013,0.152 -0.059,0.285 -0.051,0.143 -0.063,0.14 -0.049,0.125 -0.062,0.125 -0.083,0.146 -0.119,0.269 0.011,0.153 0.108,0.132 0.282,0.044 0.307,0.1 0.07,0.034 0.069,0.032 0.128,0.084 0.147,0.123 0.108,0.134 0.05,0.13 0.03,0.141 v 0.141 l -0.039,0.299 -0.044,0.132 -0.031,0.128 -0.039,0.131 0.006,0.143 0.113,0.14 0.145,0.04 0.146,0.033 0.272,0.033 0.151,0.007 0.157,-0.015 0.147,-0.05 0.141,-0.073 0.136,-0.077 0.152,-0.123 0.146,-0.134 0.133,-0.139 0.121,-0.148 0.15,-0.129 0.146,-0.059 0.145,0.055 0.142,0.035 0.136,0.044 0.26,0.076 0.14,0.028 0.127,0.062 0.161,0.056 0.131,0.037 0.152,0.027 0.143,-0.033 0.137,-0.15 0.158,-0.263 0.252,-0.39 0.07,-0.131 0.202,-0.251 0.599,-0.454 0.172,-0.139 0.641,-0.432 0.296,-0.242 0.3,-0.271 0.113,-0.122 0.146,-0.141 0.143,-0.15 0.113,-0.143 0.122,-0.119 0.147,-0.123 0.164,-0.113 0.135,-0.079 0.299,-0.118 0.294,-0.084 0.291,-0.092 0.153,-0.116 0.103,-0.135 v -0.134 l -0.073,-0.146 -0.135,-0.087 -0.147,-0.076 -0.13,-0.049 -0.283,-0.135 -0.283,-0.174 -0.138,-0.119 -0.056,-0.135 0.02,-0.131 0.103,-0.122 0.134,-0.122 0.281,-0.184 0.137,-0.078 0.147,-0.074 0.163,-0.096 0.308,-0.16 0.155,-0.07 0.306,-0.124 0.332,-0.11 0.299,-0.137 0.288,-0.161 0.152,-0.103 0.108,-0.142 0.086,-0.128 0.053,-0.129 0.045,-0.131 0.027,-0.131 0.009,-0.154 0.003,-0.152 -0.017,-0.137 -0.025,-0.127 -0.042,-0.149 -0.075,-0.145 -0.086,-0.152 -0.01,-0.131 0.027,-0.145 0.091,-0.135 0.139,-0.084 0.156,-0.059 0.144,-0.029 0.152,-0.009 0.152,0.015 0.139,0.021 0.15,0.044 0.288,0.052 0.193,0.021 0.015,-0.049 -0.018,-0.288 -0.026,-0.254 0.005,-0.206 0.024,-0.301 -0.013,-0.244 0.008,-0.251 0.039,-0.212 0.068,-0.318 0.048,-0.133 0.103,-0.195 -0.031,-0.137 -0.035,-0.064 -0.03,-0.094 -0.031,-0.049 -0.043,-0.102 -0.007,-0.105 0.007,-0.084 0.035,-0.081 0.036,-0.054 0.158,-0.175 0.047,-0.04 0.083,-0.092 0.104,-0.155 0.073,-0.149 0.038,-0.102 0.053,-0.232 -0.005,-0.105 -0.012,-0.109 -0.119,-0.064 -0.393,-0.286 -0.128,-0.104 -0.105,-0.139 -0.066,-0.153 -0.053,-0.131 -0.12,-0.428 -0.071,-0.291 -0.03,-0.144 -0.028,-0.18 -0.063,-0.282 -0.056,-0.146 -0.089,-0.14 -0.128,-0.122 -0.131,-0.076 -0.271,-0.062 -0.418,-0.084 -0.133,-0.041 -0.145,-0.056 -0.138,-0.081 -0.1,-0.132 -0.082,-0.139 -0.018,-0.131 -0.012,-0.135 0.019,-0.556 0.009,-0.146 0.014,-0.129 0.022,-0.145 0.009,-0.14 0.044,-0.298 0.02,-0.301 -0.012,-0.145 -0.042,-0.201 -0.113,-0.14 L 61.018,58.755 60.747,58.68 60.452,58.611 60.301,58.585 60.021,58.516 59.869,58.49 59.756,58.439 59.494,58.37 59.328,58.321 59.127,58.271 58.838,58.227 58.705,58.215 58.544,58.18 58.392,58.16 58.072,58.101 57.74,58.06 57.6,58.035 57.308,58.019 h -0.155 l -0.302,0.012 -0.319,0.026 -0.155,0.003 -0.156,0.026 -0.287,0.088 -0.155,0.104 -0.131,0.125 -0.113,0.131 -0.105,0.154 -0.116,0.134 -0.105,0.144 -0.136,0.121 -0.139,0.091 -0.152,0.067 -0.15,0.047 -0.279,0.042 -0.137,0.007 -0.147,-0.007 -0.159,-0.014 -0.438,-0.015 -0.31,0.057 -0.331,0.113 -0.653,0.215 -0.447,0.175 -0.136,0.038 -0.146,0.022 -0.15,0.012 -0.137,-0.017 -0.156,-0.056 -0.129,-0.067 -0.146,-0.128 -0.089,-0.132 -0.085,-0.139 -0.031,-0.143 -0.008,-0.126 0.087,-0.925 0.016,-0.435 v -0.28 l -0.028,-0.266 -0.027,-0.196 -0.059,-0.283 -0.038,-0.13 -0.031,-0.149 -0.048,-0.143 -0.057,-0.134 -0.048,-0.131 -0.035,-0.137 -0.009,-0.137 0.157,-0.877 0.034,-0.134 0.025,-0.157 0.057,-0.28 0.076,-0.442 0.035,-0.291 V 53.329 L 50.608,53.175 50.543,53.038 50.401,53 l -0.158,0.05 -0.147,0.072 -0.149,0.038 -0.144,-0.015 -0.139,-0.041 -0.139,-0.121 -0.077,-0.138 -0.034,-0.137 0.034,-0.146 0.102,-0.143 0.105,-0.122 0.089,-0.126 0.097,-0.271 0.039,-0.146 v -0.148 l -0.011,-0.162 -0.033,-0.148 -0.044,-0.139 -0.077,-0.131 -0.107,-0.174 -0.091,-0.131 -0.13,-0.117 -0.139,-0.072 -0.145,-0.006 -0.136,0.021 -0.146,0.05 -0.565,0.099 -0.139,0.028 -0.328,0.056 -0.273,0.041 -0.173,0.028 -0.148,0.021 -0.14,0.025 -0.142,0.012 -0.471,0.068 -0.158,0.011 -0.43,-0.003 -0.277,-0.023 -0.136,-0.047 -0.139,-0.09 -0.133,-0.09 -0.168,-0.133 -0.142,-0.096 -0.138,-0.117 -0.139,-0.098 -0.134,-0.082 -0.143,-0.064 -0.144,-0.04 -0.147,-0.038 -0.141,-0.021 -0.292,-0.067 -0.141,-0.078 -0.092,-0.129 -0.047,-0.135 -0.036,-0.268 -0.091,-0.131 -0.143,-0.068 -0.139,0.006 -0.074,0.125 0.009,0.127 0.048,0.131 0.057,0.132 0.036,0.128 -0.146,0.111 -0.136,-0.01 -0.136,-0.055 -0.277,-0.125 -0.152,-0.084 -0.283,-0.131 -0.141,-0.027 -0.145,0.006 -0.158,0.049 -0.309,0.223 -0.142,0.131 -0.138,0.104 -0.142,0.125 -0.147,0.083 -0.135,0.003 -0.136,-0.061 -0.033,-0.129 0.024,-0.135 0.036,-0.145 0.017,-0.134 -0.027,-0.129 -0.145,-0.128 -0.271,-0.116 -0.133,-0.073 -0.136,-0.104 -0.028,-0.138 0.015,-0.146 0.021,-0.129 -0.048,-0.137 -0.135,-0.074 -0.143,-0.031 -0.136,-0.014 -0.136,-0.005 -0.57,0.008 -0.142,-0.008 -0.137,-0.036 -0.149,-0.096 -0.109,-0.13 -0.09,-0.138 -0.2,-0.279 -0.18,-0.309 -0.065,-0.143 -0.057,-0.138 -0.047,-0.154 -0.047,-0.128 -0.036,-0.135 -0.027,-0.147 -0.031,-0.129 -0.057,-0.134 -0.146,-0.125 -0.142,-0.055 -0.147,0.015 -0.134,0.063 -0.3,0.172 -0.147,0.071 -0.46,0.251 -0.163,0.08 -0.164,0.045 -0.153,0.025 -0.152,0.002 -0.142,-0.014 -0.148,-0.041 -0.15,-0.076 -0.134,-0.102 -0.146,-0.119 -0.142,-0.092 -0.149,-0.073 -0.149,-0.063 -0.134,-0.048 -0.152,-0.009 -0.144,0.023 -0.139,0.044 -0.139,0.058 -0.157,0.082 -0.143,0.099 -0.153,0.069 -0.138,0.074 -0.297,0.115 -0.138,0.038 -0.153,0.058 -0.152,0.076 -0.149,0.064 -0.139,0.041 -0.157,0.031 -0.428,0.074 -0.145,0.045 -0.139,0.119 -0.043,0.133 0.016,0.127 0.149,0.086 0.15,-0.02 0.138,-0.025 0.146,-0.046 0.139,-0.028 0.143,0.006 0.137,0.024 0.147,0.091 0.113,0.147 0.069,0.141 0.035,0.14 0.059,0.297 0.017,0.146 -0.015,0.299 -0.02,0.269 -0.066,0.28 -0.045,0.291 -0.016,0.134 0.002,0.127 0.012,0.135 0.021,0.184 0.048,0.143 0.055,0.129 0.085,0.137 0.099,0.137 0.152,0.143 0.142,0.082 0.154,0.052 0.58,0.137 0.139,0.048 0.146,0.049 0.133,0.113 0.068,0.203 0.002,0.158 -0.05,0.145 -0.086,0.141 -0.197,0.277 -0.169,0.268 -0.122,0.273 -0.024,0.133 -0.009,0.141 0.004,0.129 0.04,0.143 0.08,0.147 0.096,0.132 0.079,0.139 0.081,0.148 0.056,0.133 0.091,0.27 0.033,0.135 0.022,0.135 0.036,0.129 0.017,0.141 0.138,-0.059 0.101,-0.125 0.12,-0.125 0.135,-0.064 0.145,0.035 0.15,0.104 0.279,0.187 0.152,0.082 0.149,0.063 0.134,0.079 0.274,0.122 0.133,0.104 0.042,0.138 0.055,0.259 0.057,0.148 0.068,0.135 0.111,0.131 0.144,0.106 0.142,0.085 0.277,0.201 0.285,0.244 0.116,0.134 0.095,0.144 0.067,0.137 0.169,0.393 0.041,0.137 0.125,0.548 0.056,0.134 0.033,0.147 0.071,0.135 0.137,0.056 0.41,-0.016 0.168,0.036 0.143,0.102 0.064,0.144 v 0.139 l -0.048,0.262 -0.017,0.129 -0.108,0.541 -0.047,0.291 -0.03,0.423 0.003,0.67 0.049,0.43 0.021,0.274 0.014,0.135 0.011,0.282 -0.006,0.14 0.006,0.133 -0.045,0.141 -0.074,0.137 -0.095,0.135 -0.158,0.092 -0.135,0.053 -0.173,0.025 -0.299,-0.02 -0.288,-0.063 -0.134,-0.018 -0.147,0.018 -0.138,0.055 -0.101,0.126 -0.107,0.191 -0.105,0.125 -0.144,0.127 -0.15,0.074 -0.282,0.084 -0.186,0.027 -0.142,0.002 -0.147,-0.012 -0.283,-0.006 -0.132,0.021 -0.143,0.053 -0.113,0.124 -0.062,0.132 -0.035,0.139 -0.035,0.203 -0.162,0.344 h 0.089 l 0.239,0.24 v 0.24 h 0.12 v 0.12 h 0.12 v 0.24 h -0.24 v 0.239 l 0.36,0.36 v 0.12 l 0.24,0.239 h 0.239 l 0.121,0.12 c 0.168,-0.013 0.328,0.027 0.479,0.12 v -0.12 l -0.12,-0.12 v 0.12 h -0.12 v -0.12 h 0.12 l -0.12,-0.119 h 0.36 l -0.12,-0.12 h 0.24 v 0.12 h 0.12 v 0.239 h 0.119 v -0.12 h 0.12 l -0.12,0.12 h 0.12 v 0.12 c 0.231,0.243 0.45,0.425 0.721,0.601 l 0.239,-0.12 v 0.12 h 0.12 v -0.24 -0.119 h 0.12 l -0.12,0.119 0.12,0.12 -0.12,0.12 c 0.198,0.067 0.358,0.188 0.48,0.359 h 0.12 l 0.119,0.119 h 0.121 l 0.119,-0.119 v 0.119 l 0.12,0.121 h 0.12 v 0.121 h 0.12 v 0.119 h 0.12 v 0.12 h 0.12 v 0.12 h 0.239 v 0.12 h 0.12 l 0.12,0.119 h 0.12 l 0.12,0.12 h 0.12 v 0.24 h 0.12 c 0.147,0.042 0.268,0.122 0.359,0.24 v 0.239 h 0.24 l 0.24,0.24 v 0.361 l 0.12,0.119 v 0.359 h 0.12 c 0.041,0.148 0.121,0.268 0.24,0.359 v 0.361 l 0.239,0.24 v -0.12 h 0.12 l -0.12,-0.12 h -0.12 v -0.12 h 0.24 v 0.12 l 0.12,0.12 v 0.12 h 0.12 v 0.238 l 0.105,0.214 0.54,-0.057 h 0.152 z"
           id="SA-03"
           inkscape:label="#path6037" />
        <path
           style="fill:#000080;stroke:#b2b2b2;stroke-width:0.10000000000000001"
           inkscape:connector-curvature="0"
           d="m 61.092,107.108 0.105,-0.122 0.133,-0.073 0.267,-0.119 0.133,-0.065 0.116,-0.118 0.086,-0.126 0.056,-0.131 0.038,-0.125 0.039,-0.128 0.03,-0.146 0.089,-0.279 0.027,-0.134 0.04,-0.126 0.046,-0.221 0.004,-0.139 -0.021,-0.129 -0.048,-0.131 -0.177,-0.423 -0.048,-0.144 -0.103,-0.412 -0.147,-0.434 -0.128,-0.123 -0.132,-0.058 -0.126,-0.042 -0.271,-0.046 -0.141,-0.015 -0.134,-0.006 -0.142,-0.003 -0.394,0.026 -0.146,0.006 -0.138,-0.026 -0.122,-0.063 -0.125,-0.128 -0.064,-0.14 -0.042,-0.137 -0.036,-0.137 -0.021,-0.141 -0.012,-0.131 -0.003,-0.297 0.022,-0.411 0.006,-0.16 0.03,-0.259 v -0.128 l -0.02,-0.3 0.015,-0.138 0.039,-0.131 0.126,0.114 0.111,0.134 0.122,0.093 0.137,-0.012 0.288,-0.221 0.141,-0.125 0.279,-0.17 0.146,-0.043 0.127,-0.018 0.137,-0.007 0.471,0.064 0.134,0.026 h 0.127 l 0.137,-0.012 0.143,-0.046 0.134,-0.088 0.088,-0.131 0.051,-0.128 0.027,-0.14 0.038,-0.137 0.043,-0.134 0.113,-0.254 0.012,-0.174 -0.017,-0.132 -0.073,-0.131 -0.205,-0.272 -0.077,-0.139 -0.028,-0.137 -0.01,-0.133 0.018,-0.135 0.073,-0.311 0.081,-0.271 0.057,-0.282 0.021,-0.126 0.002,-0.128 -0.04,-0.148 -0.085,-0.146 -0.126,-0.143 -0.128,-0.055 -0.14,-0.023 -0.135,-0.012 -0.145,0.012 -0.274,0.133 -0.005,0.026 -0.14,0.066 -0.135,0.021 -0.131,0.007 -0.278,-0.015 -0.146,0.006 -0.152,-0.013 -0.139,0.019 -0.141,0.09 -0.097,0.129 -0.159,0.264 -0.077,0.164 -0.105,0.254 -0.044,0.15 -0.05,0.123 -0.134,0.378 -0.044,0.159 -0.033,0.158 -0.02,0.131 -0.017,0.146 -0.022,0.128 -0.038,0.125 -0.07,0.137 -0.141,0.109 -0.13,0.049 -0.134,0.041 -0.142,0.022 -0.136,0.004 -0.194,-0.026 -0.148,-0.071 -0.143,-0.122 -0.103,-0.133 -0.158,-0.277 -0.116,-0.145 -0.141,-0.117 -0.125,-0.072 -0.265,-0.138 -0.143,-0.062 -0.147,-0.123 -0.089,-0.156 -0.005,-0.131 0.008,-0.271 0.02,-0.126 0.024,-0.278 -0.012,-0.138 -0.113,-0.285 -0.035,-0.146 -0.006,-0.14 0.02,-0.137 0.05,-0.26 0.022,-0.282 v -0.14 l -0.037,-0.143 -0.061,-0.143 -0.113,-0.135 -0.134,-0.061 -0.404,-0.088 -0.13,-0.049 -0.126,-0.129 -0.041,-0.13 0.012,-0.126 0.111,-0.125 0.265,-0.248 0.106,-0.121 0.25,-0.248 0.144,-0.072 0.146,-0.047 0.137,-0.021 0.271,-0.02 0.425,-0.076 0.149,-0.034 0.142,-0.068 0.08,-0.123 0.031,-0.127 0.046,-0.143 0.093,-0.251 0.151,-0.278 0.184,-0.271 0.08,-0.137 0.077,-0.152 0.018,-0.13 0.012,-0.149 -0.006,-0.148 -0.086,-0.259 -0.047,-0.132 -0.031,-0.143 -0.041,-0.288 0.016,-0.124 0.05,-0.135 0.063,-0.122 0.111,-0.144 0.136,-0.113 0.142,-0.04 0.143,-0.022 0.129,0.005 0.131,0.038 0.13,0.072 0.131,0.125 0.092,0.141 0.086,0.277 0.027,0.136 0.047,0.129 0.075,0.139 0.092,0.134 0.125,0.088 0.133,0.043 0.138,-0.025 0.41,-0.207 0.295,-0.088 0.148,-0.008 0.156,0.012 0.308,0.037 0.149,-0.006 0.267,-0.098 0.282,-0.199 0.175,-0.093 0.134,-0.067 0.132,-0.041 0.14,-0.008 0.133,0.049 0.125,0.094 0.131,0.111 0.108,0.145 0.029,0.035 0.084,0.143 0.148,0.291 0.181,0.417 0.075,0.15 0.148,0.321 0.085,0.15 0.102,0.135 0.131,0.111 0.124,0.074 0.147,0.042 0.142,0.015 0.131,-0.013 0.138,-0.046 0.134,-0.059 0.149,-0.102 0.302,-0.252 0.12,-0.123 0.243,-0.248 0.303,-0.273 0.435,-0.404 0.153,-0.127 0.135,-0.125 0.159,-0.119 0.285,-0.171 0.142,-0.079 0.146,-0.068 0.184,-0.074 0.138,-0.039 0.133,-0.045 0.145,-0.076 0.144,-0.119 0.209,-0.251 0.127,-0.125 0.145,-0.116 0.152,-0.076 0.16,-0.041 0.131,-0.008 0.266,0.017 0.142,0.003 0.134,-0.02 0.142,-0.053 0.285,-0.166 0.152,-0.056 0.133,-0.029 0.28,-0.017 0.128,0.02 0.274,0.093 0.139,0.065 0.128,0.043 0.141,0.023 0.145,-0.009 0.152,-0.061 0.136,-0.079 0.313,-0.26 0.295,-0.197 0.146,-0.082 0.15,-0.075 0.153,-0.055 0.154,-0.054 0.146,-0.037 0.135,-0.043 -0.164,-0.257 -0.102,-0.144 -0.08,-0.16 -0.265,-0.413 -0.183,-0.301 -0.216,-0.294 -0.186,-0.281 -0.235,-0.291 -0.122,-0.137 -0.114,-0.141 -0.077,-0.134 -0.028,-0.131 -0.003,-0.148 0.009,-0.126 0.063,-0.264 0.088,-0.289 0.028,-0.125 0.092,-0.289 0.044,-0.285 -0.014,-0.255 -0.009,-0.139 -0.014,-0.131 -0.011,-0.129 -0.027,-0.148 -0.027,-0.291 -0.004,-0.141 0.056,-0.121 0.089,-0.127 0.113,-0.118 0.098,-0.12 0.071,-0.124 0.066,-0.135 0.039,-0.134 0.021,-0.15 0.003,-0.141 -0.07,-0.446 -0.027,-0.136 -0.014,-0.135 -0.034,-0.15 -0.094,-0.752 -0.031,-0.143 -0.047,-0.297 -0.014,-0.146 v -0.26 l 0.017,-0.156 0.03,-0.137 0.022,-0.14 0.105,-0.407 0.011,-0.149 -0.065,-0.13 -0.153,-0.079 -0.435,-0.062 -0.324,-0.08 -0.137,-0.021 -0.133,-0.012 -0.134,0.023 -0.152,0.037 -0.149,0.053 -0.297,0.092 -0.154,0.04 -0.146,0.021 -0.152,-0.018 -0.526,-0.213 -0.136,-0.143 -0.078,-0.135 -0.016,-0.135 0.008,-0.133 0.045,-0.268 0.008,-0.268 -0.025,-0.14 0.018,-0.14 0.16,-0.394 L 69.86,76.3 69.784,76.149 69.658,76.045 69.524,75.967 69.382,75.916 69.246,75.88 69.092,75.838 68.958,75.818 68.67,75.797 68.518,75.794 67.827,75.727 67.545,75.707 67.254,75.71 67.1,75.728 66.664,75.744 66.379,75.709 66.246,75.665 65.963,75.531 65.83,75.416 65.725,75.277 65.652,75.134 65.464,74.724 65.348,74.456 65.276,74.31 65.156,74.007 65.077,73.853 64.891,73.419 64.818,73.14 64.774,72.837 64.75,72.706 64.725,72.417 64.677,72.274 64.619,72.143 64.391,71.727 64.338,71.581 64.3,71.451 64.249,71.163 64.191,70.877 64.13,70.724 64.025,70.58 63.891,70.476 63.765,70.4 l -0.13,-0.061 -0.137,-0.076 -0.127,-0.122 -0.048,-0.14 -0.017,-0.141 -0.003,-0.274 0.009,-0.129 0.022,-0.15 0.008,-0.146 0.022,-0.132 0.019,-0.085 -0.193,-0.021 -0.288,-0.052 -0.15,-0.044 -0.139,-0.021 -0.152,-0.015 -0.152,0.009 -0.144,0.029 -0.156,0.059 -0.139,0.084 -0.091,0.135 -0.027,0.145 0.01,0.131 0.086,0.152 0.075,0.145 0.042,0.149 0.025,0.127 0.017,0.137 -0.003,0.152 -0.009,0.155 -0.027,0.131 -0.045,0.131 -0.053,0.129 -0.086,0.128 -0.108,0.142 -0.152,0.103 -0.288,0.161 -0.299,0.137 -0.332,0.11 -0.306,0.124 -0.155,0.07 -0.308,0.16 -0.163,0.096 -0.147,0.074 -0.137,0.078 -0.281,0.184 -0.134,0.122 -0.103,0.122 -0.02,0.131 0.056,0.135 0.138,0.119 0.283,0.174 0.283,0.135 0.13,0.049 0.147,0.076 0.135,0.087 0.073,0.146 v 0.134 l -0.103,0.135 -0.153,0.116 -0.291,0.092 -0.294,0.084 -0.299,0.118 -0.135,0.079 -0.164,0.113 -0.147,0.123 -0.122,0.119 -0.113,0.143 -0.143,0.15 -0.146,0.141 -0.113,0.122 -0.3,0.271 -0.296,0.242 -0.641,0.432 -0.172,0.139 -0.599,0.454 -0.202,0.251 -0.07,0.131 -0.252,0.39 -0.158,0.263 -0.137,0.15 -0.143,0.033 -0.152,-0.027 -0.131,-0.037 -0.161,-0.056 -0.127,-0.062 -0.14,-0.028 -0.26,-0.076 -0.136,-0.044 -0.142,-0.035 -0.145,-0.055 -0.146,0.059 -0.15,0.129 -0.121,0.148 -0.133,0.139 -0.146,0.134 -0.152,0.123 -0.136,0.077 -0.141,0.073 -0.147,0.05 -0.157,0.015 -0.151,-0.007 -0.272,-0.033 -0.146,-0.033 -0.145,-0.04 -0.113,-0.14 -0.006,-0.143 0.039,-0.131 0.031,-0.128 0.044,-0.132 0.039,-0.299 v -0.141 l -0.03,-0.141 -0.05,-0.13 -0.108,-0.134 -0.147,-0.123 -0.128,-0.084 -0.069,-0.032 -0.07,-0.034 -0.307,-0.1 -0.282,-0.044 -0.108,-0.132 -0.011,-0.153 0.119,-0.269 0.083,-0.146 0.062,-0.125 0.049,-0.125 0.063,-0.14 0.051,-0.143 0.059,-0.285 0.013,-0.152 -0.005,-0.15 -0.019,-0.143 -0.039,-0.132 -0.063,-0.131 -0.134,-0.113 -0.145,-0.021 -0.276,0.016 -0.446,0.061 -0.145,0.043 -0.149,0.035 -0.15,0.055 -0.161,0.051 -0.172,0.061 -0.443,0.129 -0.147,0.055 -0.132,0.029 -0.142,0.049 -0.27,0.07 -0.127,-0.104 -0.02,-0.14 0.012,-0.141 -0.006,-0.134 -0.015,-0.134 -0.053,-0.137 -0.154,-0.062 -0.134,-0.007 -0.279,0.045 -0.305,0.092 -0.136,0.033 -0.173,0.029 -0.139,0.012 L 45.877,74.15 45.711,74.04 45.572,73.918 45.431,73.77 45.208,73.479 45.1,73.344 44.945,73.196 44.506,72.868 44.319,72.55 44.25,72.408 l -0.136,-0.146 -0.149,-0.063 -0.147,0.039 -0.133,0.045 -0.142,0.036 -0.141,0.044 -0.153,0.02 -0.305,0.026 H 42.8 l -0.54,0.057 0.015,0.028 -0.12,0.119 h 0.12 v 0.359 l 0.12,0.12 v 0.12 l 0.119,0.119 h -0.119 l 0.119,0.121 v 0.121 h 0.12 v 0.119 l 0.12,0.12 v 0.239 l 0.36,0.359 h 0.12 l -0.12,0.121 0.12,0.12 v 0.36 l -0.12,0.119 0.24,0.24 v 0.121 h 0.239 v 0.119 h 0.36 v 0.24 l 0.24,0.239 v 0.12 l 0.12,0.119 h -0.12 v 0.121 h -0.12 v -0.121 l -0.12,0.121 v 0.121 l 0.36,0.359 v 0.239 h 0.119 v -0.12 h 0.24 l -0.119,0.12 h -0.121 v 0.12 h 0.121 v 0.24 l 0.119,0.12 v 0.12 c 0.06,0.244 0.18,0.443 0.36,0.6 v 0.24 l -0.12,0.24 0.12,0.119 -0.12,0.12 0.12,0.12 -0.12,0.119 v 0.121 l 0.12,0.121 v 0.119 l 0.12,-0.119 v 0.239 l -0.12,0.12 v -0.12 l -0.12,0.12 v 0.119 h 0.12 v 0.24 l -0.36,0.36 v 0.12 h 0.12 l -0.12,0.12 v 0.358 l -0.119,0.121 0.119,0.121 v -0.121 l 0.12,-0.24 v -0.119 l 0.12,0.119 h -0.12 v 0.48 l -0.12,-0.119 v 0.119 h -0.119 v 0.12 l -0.121,0.12 0.121,0.119 v 0.12 h -0.24 v -0.12 l 0.119,-0.119 v -0.12 h -0.119 l -0.12,0.12 v -0.12 l -0.24,0.239 h 0.12 v 0.24 l -0.12,-0.12 0.12,0.239 v 0.121 h 0.12 v 0.24 l 0.12,0.12 v 0.12 l 0.24,0.239 v 0.12 h 0.119 v 0.119 h 0.12 v 0.241 l 0.24,0.36 0.12,-0.121 v -0.119 l 0.12,-0.12 v -0.12 h 0.12 l -0.12,0.12 v 0.12 l -0.24,0.24 0.12,0.238 v 0.841 h 0.12 v 0.12 l 0.12,-0.12 h 0.119 l -0.119,0.12 h 0.119 v 0.119 h 0.12 v 0.841 l -0.239,0.239 -0.12,-0.119 h -0.12 v 0.48 l 0.12,0.119 v 0.121 h 0.12 v 0.119 h 0.119 v 0.119 l 0.12,0.121 -0.12,0.121 v 0.119 h 0.12 v 0.24 l 0.12,0.239 v 0.12 h 0.24 v 0.119 c 0.042,0.148 0.122,0.269 0.24,0.361 h -0.12 v 0.12 l 0.12,0.239 0.24,0.12 h 0.119 l 0.12,0.12 v 0.24 h 0.24 v 0.12 h 0.12 v 0.12 c 0.108,0.188 0.188,0.388 0.24,0.6 h 0.119 l 0.36,0.36 v 0.239 c 0.121,0.161 0.239,0.318 0.36,0.48 v 0.121 l 0.24,0.239 h 0.119 v 0.12 c 0.119,0.299 0.318,0.539 0.601,0.72 h 0.12 l 0.12,0.239 h 0.12 l 0.119,0.121 h 0.12 l 0.24,0.238 h 0.12 l 0.12,0.242 h 0.239 v -0.121 h -0.119 l -0.12,-0.121 h 0.239 l 0.24,0.121 v 0.121 h 0.24 l -0.12,-0.121 h 0.601 l 0.239,0.24 v 0.12 h 0.12 l 0.12,0.239 h 0.36 v 0.24 h 0.12 c 0.118,0.092 0.198,0.213 0.239,0.361 h 0.12 l 0.12,0.119 h 0.24 l 0.12,0.12 h 0.12 l 0.359,0.359 h 0.12 l 0.24,0.239 h 0.12 l 0.12,0.121 v 0.12 l -0.12,0.239 h 0.24 v 0.121 l 0.119,0.119 v 0.24 h 0.12 l 0.12,0.121 v 0.239 h 0.12 v -0.12 h 0.48 v -0.119 h 0.12 c 0.041,0.146 0.121,0.268 0.239,0.359 v 0.119 l 0.12,0.12 v 0.721 h -0.12 l 0.12,0.12 v 0.119 l 0.12,-0.119 v 0.119 l 0.24,0.12 h 0.239 l 0.121,0.12 h 0.119 v 0.119 h 0.12 v 1.082 h 0.12 v 0.119 h 0.24 v 0.24 h 0.12 v 0.119 l 0.12,0.12 v 0.481 l 0.119,0.239 v 0.12 h 0.12 v 0.119 h 0.24 l 0.12,0.12 h 0.12 v 0.48 h -0.12 v 0.12 l 0.12,0.119 h -0.12 l -0.12,0.121 0.12,0.119 v 0.24 h 0.12 v 0.121 l 0.24,0.239 h 0.239 v 0.359 l -0.119,0.12 v 0.24 l -0.12,0.121 v 0.119 h 0.12 l 0.119,0.24 v 0.119 l 0.12,0.12 v 0.12 h 0.12 v 0.119 h 0.12 v 0.121 h 0.479 v 0.12 l 0.36,0.359 -0.12,0.12 h 0.24 l -0.12,0.119 h 0.12 c 0.009,0.378 0.047,0.719 0.12,1.08 l 0.12,0.121 h 0.12 v 0.121 l 0.12,-0.121 v 0.121 h -0.12 l -0.12,0.119 0.12,0.12 v -0.12 h 0.12 v 0.12 h 0.119 l -0.119,0.12 h 0.119 l 0.12,0.119 v 0.12 h 0.12 l -0.12,0.12 h 0.12 v 0.36 h 0.084 l 0.198,-0.417 0.072,-0.101 z"
           id="SA-02"
           inkscape:label="#path6039" />
        <path
           style="fill:#808000;stroke:#b2b2b2;stroke-width:0.10000000000000001"
           inkscape:connector-curvature="0"
           d="m 73.914,111.484 0.053,-0.143 0.039,-0.122 0.008,-0.134 -0.017,-0.154 -0.044,-0.137 -0.033,-0.129 -0.104,-0.273 -0.033,-0.131 -0.016,-0.135 0.077,-0.128 0.047,-0.142 0.015,-0.135 v -0.15 l -0.009,-0.146 v -0.15 l 0.014,-0.129 0.062,-0.268 0.058,-0.434 0.003,-0.126 -0.003,-0.143 -0.008,-0.134 -0.028,-0.128 -0.033,-0.131 -0.055,-0.163 -0.059,-0.148 -0.069,-0.28 -0.005,-0.157 0.021,-0.146 0.161,-0.312 0.103,-0.119 0.116,-0.119 0.113,-0.137 0.125,-0.125 0.105,-0.125 0.49,-0.513 0.438,-0.388 0.438,-0.344 0.134,-0.143 0.116,-0.15 0.083,-0.12 0.066,-0.143 0.072,-0.263 0.055,-0.148 0.173,-0.192 0.166,-0.099 0.14,-0.045 0.285,-0.039 0.135,-0.026 0.137,-0.038 0.294,-0.123 0.152,-0.087 0.283,-0.171 0.118,-0.125 0.104,-0.135 0.068,-0.122 0.062,-0.149 0.047,-0.134 0.022,-0.128 0.008,-0.26 -0.019,-0.154 -0.021,-0.293 -0.03,-0.154 -0.032,-0.137 -0.045,-0.128 -0.038,-0.148 -0.089,-0.277 -0.029,-0.131 -0.015,-0.139 0.042,-0.145 0.083,-0.146 0.139,-0.11 0.139,-0.063 0.139,-0.05 0.288,-0.131 0.133,-0.119 0.071,-0.134 0.028,-0.144 0.012,-0.125 -0.051,-0.291 -0.008,-0.143 0.011,-0.125 0.022,-0.146 -0.009,-0.135 -0.127,-0.089 -0.138,-0.114 -0.375,-0.341 -0.128,-0.1 -0.26,-0.223 -0.15,-0.119 -0.368,-0.339 -0.261,-0.276 -0.123,-0.113 -0.255,-0.219 -0.138,-0.134 -0.15,-0.131 -0.119,-0.144 -0.114,-0.151 -0.091,-0.146 -0.302,-0.57 -0.088,-0.145 -0.126,-0.152 -0.128,-0.132 -0.118,-0.11 -0.134,-0.146 -0.055,-0.148 0.017,-0.139 0.055,-0.271 0.024,-0.146 0.034,-0.125 0.017,-0.133 0.033,-0.139 0.062,-0.294 0.047,-0.16 0.061,-0.125 0.072,-0.134 0.213,-0.297 0.092,-0.141 0.071,-0.123 0.054,-0.124 0.039,-0.125 0.011,-0.14 -0.002,-0.129 -0.031,-0.143 -0.07,-0.168 -0.123,-0.146 -0.247,-0.2 -0.146,-0.138 -0.268,-0.311 -0.1,-0.162 -0.073,-0.133 -0.257,-0.434 -0.131,-0.163 -0.122,-0.131 -0.272,-0.214 -0.376,-0.356 -0.131,-0.105 -0.152,-0.095 -0.135,0.043 -0.146,0.037 -0.154,0.054 -0.153,0.055 -0.15,0.075 -0.146,0.082 -0.295,0.197 -0.313,0.26 -0.136,0.079 -0.152,0.061 -0.145,0.009 -0.141,-0.023 -0.128,-0.043 -0.139,-0.065 -0.274,-0.093 -0.128,-0.02 -0.28,0.017 -0.133,0.029 -0.152,0.056 -0.285,0.166 -0.142,0.053 -0.134,0.02 -0.142,-0.003 -0.266,-0.017 -0.131,0.008 -0.16,0.041 -0.152,0.076 -0.145,0.116 -0.127,0.125 -0.209,0.251 -0.144,0.119 -0.145,0.076 -0.133,0.045 -0.138,0.039 -0.184,0.074 -0.146,0.068 -0.142,0.079 -0.285,0.171 -0.159,0.119 -0.135,0.125 -0.153,0.127 -0.435,0.404 -0.303,0.273 -0.243,0.248 -0.12,0.123 -0.302,0.252 -0.149,0.102 -0.134,0.059 -0.138,0.046 -0.131,0.013 -0.142,-0.015 -0.147,-0.042 -0.124,-0.074 -0.131,-0.111 -0.102,-0.135 -0.085,-0.15 -0.148,-0.321 -0.075,-0.15 -0.181,-0.417 -0.148,-0.291 -0.084,-0.143 -0.029,-0.035 -0.07,0.225 -0.072,0.154 -0.211,0.518 -0.03,0.125 -0.011,0.141 0.044,0.143 0.128,0.117 0.131,0.099 0.115,0.14 0.033,0.143 -0.014,0.145 -0.052,0.132 -0.139,0.134 -0.155,0.111 -0.146,0.09 -0.162,0.116 -0.146,0.091 -0.147,0.102 -0.155,0.088 -0.148,0.118 -0.111,0.202 -0.045,0.125 -0.017,0.145 0.048,0.354 0.011,0.145 -0.057,0.131 -0.315,0.543 -0.063,0.147 -0.069,0.126 -0.063,0.128 -0.046,0.134 -0.063,0.139 -0.045,0.126 -0.058,0.104 0.274,-0.133 0.145,-0.012 0.135,0.012 0.14,0.023 0.128,0.055 0.126,0.143 0.085,0.146 0.04,0.148 -0.002,0.128 -0.021,0.126 -0.057,0.282 -0.081,0.271 -0.073,0.311 -0.018,0.135 0.01,0.133 0.028,0.137 0.077,0.139 0.205,0.272 0.073,0.131 0.017,0.132 -0.012,0.174 -0.113,0.254 -0.043,0.134 -0.038,0.137 -0.027,0.14 -0.051,0.128 -0.088,0.131 -0.134,0.088 -0.143,0.046 -0.137,0.012 h -0.127 l -0.134,-0.026 -0.471,-0.064 -0.137,0.007 -0.127,0.018 -0.146,0.043 -0.279,0.17 -0.141,0.125 -0.288,0.221 -0.137,0.012 -0.122,-0.093 -0.111,-0.134 -0.126,-0.114 -0.039,0.131 -0.015,0.138 0.02,0.3 v 0.128 l -0.03,0.259 -0.006,0.16 -0.022,0.411 0.003,0.297 0.012,0.131 0.021,0.141 0.036,0.137 0.042,0.137 0.064,0.14 0.125,0.128 0.122,0.063 0.138,0.026 0.146,-0.006 0.394,-0.026 0.142,0.003 0.134,0.006 0.141,0.015 0.271,0.046 0.126,0.042 0.132,0.058 0.128,0.123 0.147,0.434 0.103,0.412 0.048,0.144 0.177,0.423 0.048,0.131 0.021,0.129 -0.004,0.139 -0.046,0.221 -0.04,0.126 -0.027,0.134 -0.089,0.279 -0.03,0.146 -0.039,0.128 0.137,-0.043 0.274,-0.015 0.142,-0.023 0.135,-0.011 0.128,0.008 0.125,0.057 0.104,0.133 0.021,0.137 0.002,0.135 -0.069,0.383 -0.061,0.273 -0.02,0.135 -0.021,0.271 -0.003,0.134 0.052,0.142 0.137,0.084 0.128,-0.002 0.276,-0.055 0.133,-0.023 0.143,-0.004 0.127,0.012 0.124,0.035 0.123,0.102 0.077,0.146 0.075,0.26 0.017,0.127 0.063,0.144 0.133,0.12 0.14,0.021 0.123,0.015 0.148,0.003 0.277,0.023 0.146,-0.002 0.421,-0.03 0.131,0.009 0.127,0.032 0.122,0.087 0.114,0.141 0.088,0.285 0.1,0.268 0.101,0.133 0.122,0.105 0.122,0.08 0.122,0.109 0.103,0.148 0.125,0.141 0.146,0.075 0.133,0.038 0.128,0.009 0.128,-0.032 0.104,-0.122 0.062,-0.274 0.047,-0.259 0.038,-0.143 0.028,-0.146 0.131,-0.422 0.06,-0.123 0.159,-0.262 0.111,-0.119 0.141,-0.107 0.271,-0.172 0.139,-0.075 0.139,-0.06 0.128,-0.025 0.13,0.07 0.053,0.135 -0.055,0.554 -0.009,0.129 0.039,0.129 0.122,0.101 0.401,0.148 0.134,0.085 0.138,0.151 0.082,0.137 0.107,0.295 0.063,0.131 0.094,0.139 0.125,0.105 0.137,0.041 0.271,0.023 0.13,0.047 0.1,0.133 0.094,0.149 0.547,0.753 c 0.185,-0.111 0.366,-0.228 0.56,-0.32 h 0.48 l 0.24,0.24 h 0.359 c 0.07,0.043 0.117,0.103 0.179,0.151 l 0.092,-0.158 0.051,-0.134 z"
           id="SA-14"
           inkscape:label="#path6041" />
        <path
           style="fill:#2b0000;stroke:#b2b2b2;stroke-width:0.10000000000000001"
           inkscape:connector-curvature="0"
           d="m 99.156,102.054 0.247,-2.04 0.254,-1.837 -0.86,0.248 -0.992,0.233 -1.295,0.166 -1.703,0.267 -2.129,0.188 -2.063,0.189 -1.547,0.156 -1.694,0.12 -1.575,0.146 -1.1,0.113 -0.652,0.008 -0.565,-0.018 -0.632,-0.07 -0.421,-0.039 -0.592,-0.132 -0.338,-0.136 -0.299,-0.134 -0.318,-0.166 -0.495,-0.349 -0.453,-0.304 -0.608,-0.364 0.009,0.135 -0.022,0.146 -0.011,0.125 0.008,0.143 0.051,0.291 -0.012,0.125 -0.028,0.144 -0.071,0.134 -0.133,0.119 -0.288,0.131 -0.139,0.05 -0.139,0.063 -0.139,0.11 -0.083,0.146 -0.042,0.145 0.015,0.139 0.029,0.131 0.089,0.277 0.037,0.147 0.046,0.131 0.032,0.137 0.03,0.154 0.021,0.293 0.019,0.154 -0.008,0.26 -0.022,0.128 -0.047,0.134 -0.062,0.149 -0.068,0.122 -0.104,0.135 -0.118,0.125 -0.283,0.171 -0.152,0.087 -0.294,0.123 -0.137,0.038 -0.135,0.026 -0.285,0.039 -0.14,0.045 -0.166,0.099 -0.173,0.192 -0.055,0.148 -0.072,0.263 -0.066,0.143 -0.083,0.12 -0.116,0.15 -0.134,0.143 -0.438,0.344 -0.438,0.388 -0.49,0.513 -0.105,0.125 -0.125,0.125 -0.113,0.137 -0.116,0.119 -0.103,0.119 -0.161,0.312 -0.021,0.146 0.005,0.157 0.069,0.28 0.059,0.148 0.055,0.163 0.033,0.131 0.028,0.128 0.008,0.134 0.003,0.143 -0.003,0.126 -0.058,0.434 -0.062,0.268 -0.014,0.129 v 0.15 l 0.009,0.146 v 0.15 l -0.015,0.135 -0.047,0.142 -0.077,0.128 0.016,0.135 0.033,0.131 0.104,0.273 0.033,0.129 0.044,0.137 0.017,0.154 -0.008,0.134 -0.039,0.122 -0.053,0.143 -0.05,0.122 -0.092,0.158 c 0.236,0.189 0.429,0.411 0.542,0.688 0.168,-0.012 0.328,0.027 0.479,0.121 v -0.121 h 0.12 l 0.24,0.121 h 0.12 l 0.12,-0.121 h 0.119 l -0.119,0.24 0.119,0.12 h 0.24 c 0.121,-0.161 0.239,-0.319 0.36,-0.481 h 0.24 l 0.239,0.242 h 0.12 c 0.089,-0.187 0.209,-0.347 0.36,-0.481 h 0.12 v 0.12 h 0.36 l 0.239,-0.12 h 1.2 l 0.12,0.12 h 0.483 l 0.242,-0.121 h 3.508 c 2.977,1.412 6.516,1.721 9.796,1.21 l 1.572,2.056 h 1.089 l 1.814,-0.967 c 0.039,-0.127 0.09,-0.249 0.133,-0.374 l 0.442,-4.218 0.966,-7.747 z"
           id="SA-10"
           inkscape:label="#path6043" />
        <path
           style="fill:#800080;stroke:#b2b2b2;stroke-width:0.10000000000000001"
           inkscape:connector-curvature="0"
           d="m 146.555,77.412 -0.363,0.484 -16.206,-2.177 -6.113,-7.783 v -0.605 l -0.119,-0.238 h -0.239 v -0.12 l -0.239,-0.239 h -0.12 v -0.12 h -0.6 v 0.12 h -0.121 v 0.12 h -0.119 l -0.12,-0.12 -0.12,0.12 -0.12,-0.12 v -0.361 h 0.12 l 0.12,-0.479 0.239,-0.24 h 0.121 v -0.119 h 0.119 v -0.121 h 0.12 v -0.24 h 0.12 v -0.12 h 0.24 v -0.119 h 0.12 l -0.12,-0.12 h -0.12 v -0.12 l -0.12,-0.12 -0.12,0.12 v -0.12 l -0.239,0.24 v 0.12 h -0.121 c -0.041,0.147 -0.121,0.267 -0.239,0.358 h -0.24 l 0.12,-0.119 v -0.359 h -0.12 v -0.24 l -0.12,0.12 v -0.12 l -0.12,0.12 v -0.12 l -0.12,0.12 -0.119,-0.12 c -0.193,0.185 -0.383,0.336 -0.601,0.479 l -0.96,-0.119 c -0.288,-0.394 -0.568,-0.794 -0.84,-1.2 l -0.12,0.12 -0.12,-0.12 v 0.12 h -0.12 v 0.119 l -0.12,-0.119 h 0.12 l -0.12,-0.12 v -0.12 l -0.119,-0.12 0.119,-0.121 v -0.119 h -0.119 v -0.239 l -0.24,-0.24 h -0.12 v -0.36 l -0.24,-0.24 v -0.12 l -0.36,-0.359 v -0.12 l -0.119,0.12 0.119,0.12 h -0.119 v -0.12 -0.36 l -0.12,-0.24 h 0.12 v -0.239 l -0.24,-0.24 v -0.84 h -0.12 v -0.239 h -0.12 v -0.242 l -0.24,-0.239 h -0.119 l -0.121,-0.119 h -0.119 v 0.239 l -0.36,-0.359 v -0.12 l -0.24,-0.239 h 0.12 l -0.12,-0.121 h -0.12 l -0.119,-0.12 v -0.12 l -0.36,-0.359 0.12,-0.12 H 115 V 57.5 l -0.24,-0.24 v -0.12 h -0.12 v -0.119 l 0.12,0.119 h 0.12 v 0.12 H 115 v 0.119 h 0.12 l 0.12,0.121 h 0.12 V 57.379 L 115.24,57.26 V 57.021 H 115 v -0.12 c -0.144,-0.251 -0.307,-0.496 -0.48,-0.721 v -0.239 l 0.12,-0.12 -0.12,-0.12 0.12,-0.12 -0.12,-0.119 h -0.239 v -0.121 h -0.12 l -0.12,-0.12 v 0.12 l -0.12,0.121 h -0.12 v -0.121 l 0.12,-0.12 -0.12,-0.12 v -0.239 h 0.12 v -0.12 h -0.12 v -0.24 l 0.12,-0.121 v -0.119 l 0.12,-0.12 v -0.119 h 0.12 l 0.12,0.119 v 0.239 l 0.239,0.241 v 0.12 l 0.12,0.12 v 0.239 h 0.24 l -0.12,-0.12 v -0.119 l 0.12,-0.12 V 54.381 H 115 l 0.12,-0.119 h -0.24 v -0.239 l 0.24,0.239 0.12,-0.12 v -1.319 l -0.36,-0.359 h -0.12 l -0.12,-0.121 h -0.12 l -0.119,-0.12 v 0.12 h -0.12 v -0.12 h -0.12 l -0.12,-0.24 v -0.239 l -0.12,-0.12 v -0.12 h -0.12 l 0.12,-0.121 v -0.479 h -0.12 v -0.602 l 0.12,0.121 v 0.24 h 0.12 v 0.12 h 0.12 l 0.12,-0.12 h 0.12 l 0.119,0.12 h 0.12 v 0.12 l 0.24,0.239 v -0.119 l -0.24,-0.36 h -0.12 l -0.239,-0.24 v -0.121 l -0.12,-0.119 h -0.12 l -0.12,-0.12 v -0.119 c -0.135,-0.151 -0.295,-0.271 -0.48,-0.36 h -0.479 v -0.119 l -0.24,-0.121 h -0.12 l -0.119,-0.12 h -0.12 l -0.24,-0.24 h -0.12 l -0.12,-0.119 v -0.12 l -0.12,-0.12 v -0.12 h -0.12 l -0.12,-0.121 v -0.119 h -0.119 v -0.12 h -0.12 v -0.119 c -0.118,-0.093 -0.198,-0.213 -0.24,-0.36 l 0.12,-0.119 v -0.121 l -0.12,0.121 -0.24,-0.242 -0.12,0.242 v 0.119 l 0.24,0.12 v 0.12 l -0.12,-0.12 h -0.12 l -0.119,-0.12 -0.121,0.12 h -0.119 v -0.239 l -0.24,0.239 h -0.24 v -0.12 l 0.12,-0.119 v 0.119 h 0.12 v -0.361 h -0.12 l -0.12,-0.119 v 0.361 h -0.12 v -0.121 h -0.12 v -0.24 h -0.119 l 0.119,-0.239 v -0.12 l -0.119,-0.12 v -0.239 h 0.119 l -0.119,-0.121 h -0.36 v 0.121 h -0.12 v -0.361 h 0.12 l 0.12,-0.12 -0.12,-0.119 h -0.12 v 0.119 l -0.12,0.12 h -0.12 v -0.12 l -0.12,-0.119 h -0.12 l -0.119,-0.12 v 0.12 h -0.12 l 0.12,-0.24 h 0.119 v 0.12 l 0.12,-0.12 h 0.12 v 0.12 l 0.12,-0.12 h 0.12 v 0.12 l 0.12,-0.12 h 0.24 v -0.12 h 0.12 v -0.121 l -0.24,-0.119 v -0.12 l -0.12,-0.119 h -0.24 v -0.12 h -0.72 l -0.12,0.12 h -0.24 v -0.12 h 0.12 v -0.12 h -0.12 l -0.36,-0.36 h -0.119 l -0.24,0.121 v 0.239 h -0.24 V 44.55 h -0.24 l -0.119,-0.121 0.119,-0.121 v -0.119 h 0.12 v 0.119 l 0.12,-0.119 -0.12,-0.12 h -0.12 V 43.95 l -0.119,-0.12 v 0.12 l -0.12,-0.12 0.12,-0.12 v -0.12 h -0.24 l 0.12,0.12 h -0.12 v 0.12 h -0.12 v -0.12 h 0.12 v -0.12 -0.119 l 0.12,-0.121 v -0.36 h 0.12 v 0.12 h 0.119 l 0.12,0.12 0.12,-0.12 v -0.12 l -0.12,-0.119 h -0.12 l -0.119,-0.12 h -0.12 v -0.24 h -0.12 l -0.12,-0.121 v -0.119 h -0.12 v -0.12 h -0.12 v -0.119 l 0.12,-0.12 h 0.12 v 0.12 l 0.12,-0.12 v -0.12 c -0.246,-0.011 -0.489,-0.052 -0.721,-0.12 v -0.119 h -0.119 v -0.121 l -0.36,-0.36 v -0.359 l 0.12,-0.12 v -0.119 h 0.12 l -0.12,-0.121 h -0.12 v -0.12 c -0.281,-0.181 -0.481,-0.421 -0.601,-0.72 l 0.121,-0.24 v -0.12 l 0.119,-0.119 -0.119,-0.12 h -0.121 l -0.119,-0.12 0.119,-0.12 -0.119,-0.119 0.119,-0.121 h -0.119 l -0.24,-0.121 v -0.119 l -0.119,-0.119 c -1.561,-0.001 -3.12,-0.001 -4.681,-0.001 v -0.119 c -0.151,-0.228 -0.352,-0.388 -0.601,-0.479 v -0.241 l -0.119,-0.24 v -0.479 c -0.206,-0.535 -0.446,-1.056 -0.721,-1.56 l -5.76,-0.721 c -0.019,10e-4 -0.038,-10e-4 -0.058,-10e-4 l -3.271,1.24 -0.854,0.277 -0.191,0.064 -0.125,0.181 -0.324,0.253 -0.464,0.398 -0.146,0.135 -0.227,0.737 -0.223,0.271 -0.079,0.122 -0.098,0.125 -0.18,0.285 -0.15,0.268 -0.158,0.26 -0.071,0.137 -0.17,0.282 -0.066,0.136 -0.145,0.273 -0.094,0.15 -0.145,0.281 -0.092,0.146 -0.071,0.122 -0.238,0.437 -0.078,0.125 -0.164,0.295 -0.065,0.143 -0.253,0.434 -0.097,0.131 -0.083,0.141 -0.197,0.261 -0.09,0.129 -0.109,0.13 -0.124,0.126 -0.108,0.125 -0.247,0.245 -0.241,0.271 -0.22,0.265 -0.086,0.129 -0.068,0.121 -0.113,0.251 -0.051,0.129 -0.032,0.146 -0.025,0.133 -0.014,0.141 0.022,0.128 0.049,0.132 0.105,0.139 0.119,0.134 0.045,0.041 0.166,0.093 0.44,0.304 0.269,0.229 0.116,0.149 0.081,0.143 0.052,0.145 0.054,0.304 0.032,0.143 0.039,0.143 0.076,0.135 0.152,0.127 0.142,0.098 0.403,0.234 0.464,0.238 0.152,0.067 0.596,0.341 0.146,0.067 0.14,0.046 0.159,0.047 0.163,0.012 0.449,0.012 0.139,0.063 0.127,0.128 0.108,0.152 0.125,0.15 0.274,0.297 0.336,0.299 0.149,0.115 0.255,0.169 0.139,0.067 0.291,0.041 0.3,0.014 0.283,-0.014 0.298,0.009 0.151,0.009 0.135,0.02 0.133,0.035 0.28,0.084 0.136,0.066 0.133,0.074 0.256,0.162 0.425,0.289 0.423,0.316 0.431,0.288 0.141,0.088 0.153,0.062 0.164,0.059 0.271,0.018 0.158,-0.01 0.161,-0.032 0.288,-0.071 0.357,-0.07 h 0.145 l 0.139,0.037 0.136,0.096 0.136,0.132 0.125,0.126 0.139,0.115 0.134,0.099 0.123,0.126 0.131,0.119 0.125,0.125 0.133,0.111 0.077,0.137 0.062,0.143 0.127,0.157 0.139,0.05 0.294,0.061 0.139,0.046 0.891,0.339 0.162,0.053 0.14,0.062 0.297,0.124 0.131,0.076 0.141,0.099 0.1,0.14 0.053,0.132 0.048,0.171 0.022,0.149 0.027,0.291 0.027,0.418 -0.006,0.173 0.012,0.143 -0.003,0.71 0.005,0.411 0.064,0.879 -0.008,0.157 v 0.165 l 0.011,0.15 -0.03,0.272 -0.003,0.466 0.012,0.26 0.017,0.148 -0.009,0.134 -0.059,0.548 -0.02,1.071 -0.027,0.88 0.061,1.295 0.063,0.438 0.062,0.212 0.116,0.196 0.089,0.118 0.419,0.314 0.413,0.224 0.775,0.496 0.535,0.387 0.876,0.868 0.805,0.741 0.308,0.365 0.324,0.547 0.217,0.469 0.116,0.452 0.13,0.766 -0.005,0.638 0.003,0.733 -0.131,1.064 -0.253,1.422 -1.191,9.533 -0.352,2.959 -0.377,2.725 -0.283,1.982 -0.278,2.164 -0.332,2.547 -0.367,3.037 -0.254,1.837 -0.247,2.04 -0.962,7.744 -0.442,4.218 c 0.833,-2.407 2.399,-4.455 4.221,-6.278 6.381,-3.829 13.469,-3.621 20.608,-5.115 l 2.916,-0.611 c 6.635,-2.24 13.266,-4.475 19.857,-6.839 l 4.2,-13.08 -3.017,-4.71 z"
           id="SA-04"
           inkscape:label="#path6045" />
        <path
           style="fill:#008080;stroke:#b2b2b2;stroke-width:0.10000000000000001"
           inkscape:connector-curvature="0"
           d="m 71.313,110.791 -0.1,-0.133 -0.13,-0.047 -0.271,-0.023 -0.137,-0.041 -0.125,-0.105 -0.094,-0.139 -0.063,-0.131 -0.107,-0.295 -0.082,-0.137 -0.138,-0.151 -0.134,-0.085 -0.401,-0.148 -0.122,-0.101 -0.039,-0.129 0.009,-0.129 0.055,-0.554 -0.053,-0.135 -0.13,-0.07 -0.128,0.025 -0.139,0.06 -0.139,0.075 -0.271,0.172 -0.141,0.107 -0.111,0.119 -0.159,0.262 -0.06,0.123 -0.131,0.422 -0.028,0.146 -0.038,0.143 -0.047,0.259 -0.062,0.274 -0.104,0.122 -0.128,0.032 -0.128,-0.009 -0.133,-0.038 -0.146,-0.075 -0.125,-0.141 -0.103,-0.148 -0.122,-0.109 -0.122,-0.08 -0.122,-0.105 -0.101,-0.133 -0.1,-0.268 -0.088,-0.285 -0.114,-0.141 -0.122,-0.087 -0.127,-0.032 -0.131,-0.009 -0.421,0.03 -0.146,0.002 -0.277,-0.023 -0.148,-0.003 -0.123,-0.015 -0.14,-0.021 -0.133,-0.12 -0.063,-0.144 -0.017,-0.127 -0.075,-0.26 -0.077,-0.146 -0.123,-0.102 -0.124,-0.035 -0.127,-0.012 -0.143,0.004 -0.133,0.023 -0.276,0.055 -0.128,0.002 -0.137,-0.084 -0.052,-0.142 0.003,-0.134 0.021,-0.271 0.02,-0.135 0.061,-0.273 0.069,-0.383 -0.002,-0.135 -0.021,-0.137 -0.104,-0.133 -0.125,-0.057 -0.128,-0.008 -0.135,0.011 -0.142,0.023 -0.274,0.015 -0.137,0.043 -0.038,0.125 -0.056,0.131 -0.086,0.126 -0.116,0.118 -0.133,0.065 -0.267,0.119 -0.133,0.073 -0.105,0.122 -0.056,0.128 -0.198,0.417 h 0.036 v 0.24 h 0.24 v 0.119 l 0.12,0.12 h 0.12 v 0.119 h -0.12 v 0.121 h 0.12 v 0.24 h 0.12 v 0.12 c 0.161,0.121 0.318,0.239 0.479,0.359 v 0.239 l 0.12,-0.119 h 0.12 v 0.119 l 0.12,0.121 h 0.359 v 0.24 h 0.24 v 0.12 l 0.24,0.239 h 0.12 l 0.12,0.12 h 0.119 c 0.181,0.282 0.421,0.482 0.721,0.601 v 0.239 l 0.061,0.06 -0.061,0.061 h 0.12 v -0.12 l 0.12,0.12 h 0.119 v 0.119 l 0.12,0.121 h 0.12 v 0.121 h 0.12 l 0.12,0.119 h -0.12 l 0.12,0.12 v 0.12 h 0.24 l 0.119,0.119 v 0.24 l -0.119,0.119 v 0.242 h 0.119 v 0.239 h 0.121 l -0.121,0.359 h 0.121 v 0.36 l 0.119,0.24 v 0.239 h 0.24 l -0.12,-0.119 v -0.12 l -0.12,-0.12 v -0.12 l 0.24,0.12 v 0.12 h 0.12 v 0.359 h 0.12 v 0.24 h 0.12 v 0.121 h 0.239 l 0.12,0.119 h 0.12 v 0.12 h 0.12 v 0.12 l -0.12,0.119 v 0.12 h 0.12 v 0.239 l -0.12,0.121 0.24,0.24 v 0.12 h 0.24 l 0.24,0.12 v 0.119 h 0.119 v 0.12 c 0.043,0.147 0.123,0.268 0.24,0.36 v 0.24 l 0.12,-0.12 v 0.599 h -0.12 l 0.12,0.121 -0.12,0.121 0.12,0.119 v 0.359 h 0.24 v 0.12 h 0.12 v 0.239 l -0.12,0.121 v 0.24 l 0.12,0.12 h 0.359 c 0.122,-0.173 0.282,-0.292 0.48,-0.36 h 0.12 v -0.36 h 0.239 c 0.197,-0.067 0.357,-0.188 0.48,-0.359 h 0.12 v -0.12 l 0.24,-0.48 v -0.12 l -0.12,-0.119 h 0.72 v -0.24 l -0.12,-0.12 v -0.121 c 0.093,-0.117 0.213,-0.197 0.36,-0.239 v -0.12 l -0.12,-0.119 -0.36,-0.12 v -0.36 l -0.239,-0.121 v -0.119 l 0.239,-0.359 v -0.48 l -0.12,-0.121 c -0.013,-0.168 0.027,-0.327 0.12,-0.479 l 0.12,-0.12 -0.12,-0.241 h 0.12 c 0.093,-0.117 0.213,-0.197 0.36,-0.239 h 0.12 l 0.119,-0.12 v -0.119 c -0.092,-0.118 -0.212,-0.198 -0.359,-0.24 h -0.24 v -0.119 l 0.721,-0.721 h 0.119 c 0.09,-0.061 0.188,-0.104 0.28,-0.16 l -0.547,-0.753 -0.084,-0.144 z"
           id="SA-09"
           inkscape:label="#path6047" />
        <path
           style="fill:#00ffff;stroke:#b2b2b2;stroke-width:0.10000000000000001"
           inkscape:connector-curvature="0"
           d="m 34.463,64.625 0.035,-0.139 0.062,-0.132 0.113,-0.124 0.143,-0.053 0.132,-0.021 0.283,0.006 0.147,0.012 0.142,-0.002 0.186,-0.027 0.282,-0.084 0.15,-0.074 0.144,-0.127 0.105,-0.125 0.107,-0.191 0.101,-0.126 0.138,-0.055 0.147,-0.018 0.134,0.018 0.288,0.063 0.299,0.02 0.173,-0.025 0.135,-0.053 0.158,-0.092 0.095,-0.135 0.074,-0.137 0.045,-0.141 -0.006,-0.133 0.006,-0.14 -0.011,-0.282 -0.014,-0.135 -0.021,-0.273 -0.049,-0.43 -0.003,-0.67 0.03,-0.423 0.047,-0.291 0.108,-0.541 0.017,-0.129 0.048,-0.262 V 59.015 L 38.369,58.871 38.226,58.769 38.058,58.733 37.648,58.749 37.511,58.693 37.44,58.56 37.407,58.413 37.351,58.279 37.226,57.731 37.185,57.594 37.016,57.201 36.949,57.064 36.854,56.92 36.738,56.786 36.453,56.542 36.176,56.341 36.034,56.256 35.89,56.15 35.779,56.019 35.711,55.884 35.654,55.736 35.6,55.478 35.558,55.34 35.425,55.236 35.151,55.114 35.017,55.035 34.868,54.972 34.716,54.89 l -0.279,-0.187 -0.15,-0.104 -0.145,-0.035 -0.135,0.064 -0.12,0.125 -0.101,0.125 -0.138,0.059 -0.017,-0.141 -0.036,-0.129 -0.022,-0.135 -0.033,-0.135 -0.091,-0.27 -0.056,-0.133 -0.081,-0.148 -0.079,-0.139 -0.096,-0.132 -0.08,-0.147 -0.04,-0.143 -0.004,-0.129 0.009,-0.141 0.024,-0.133 0.122,-0.273 0.169,-0.268 0.197,-0.277 0.086,-0.141 0.05,-0.145 -0.002,-0.158 -0.068,-0.202 -0.133,-0.113 -0.146,-0.049 -0.139,-0.048 -0.58,-0.137 -0.154,-0.052 -0.142,-0.082 -0.152,-0.143 -0.099,-0.137 -0.085,-0.137 -0.055,-0.129 -0.048,-0.143 -0.021,-0.184 -0.012,-0.135 -0.002,-0.127 0.016,-0.134 0.045,-0.291 0.066,-0.28 0.019,-0.268 0.015,-0.299 -0.017,-0.146 -0.059,-0.297 -0.035,-0.14 -0.069,-0.141 -0.113,-0.147 -0.147,-0.091 -0.137,-0.024 -0.143,-0.006 -0.139,0.028 -0.146,0.046 -0.138,0.025 -0.15,0.02 -0.149,-0.086 -0.016,-0.127 0.043,-0.133 0.139,-0.119 0.145,-0.045 0.428,-0.074 0.157,-0.031 0.139,-0.041 0.149,-0.064 0.152,-0.076 0.153,-0.058 0.138,-0.038 0.297,-0.115 0.138,-0.074 0.153,-0.069 0.143,-0.099 0.157,-0.082 0.139,-0.058 0.139,-0.044 0.144,-0.023 0.152,0.009 0.134,0.048 0.149,0.063 0.149,0.073 0.142,0.092 0.146,0.119 0.134,0.102 0.15,0.076 0.148,0.041 0.142,0.014 0.152,-0.002 0.153,-0.025 0.164,-0.045 0.163,-0.08 0.46,-0.251 0.147,-0.071 0.3,-0.172 0.134,-0.063 0.147,-0.015 0.142,0.055 0.146,0.125 0.058,0.136 0.036,0.132 0.027,0.147 0.036,0.135 0.047,0.128 0.047,0.154 0.057,0.138 0.065,0.143 0.18,0.309 0.2,0.279 0.09,0.138 0.109,0.13 0.149,0.096 0.137,0.036 0.142,0.008 0.57,-0.008 0.136,0.005 0.136,0.014 0.143,0.031 0.135,0.074 0.048,0.137 -0.021,0.129 -0.015,0.146 0.028,0.138 0.136,0.104 0.133,0.073 0.271,0.116 0.145,0.128 0.027,0.129 -0.017,0.134 -0.036,0.145 -0.024,0.135 0.033,0.129 0.136,0.061 0.135,-0.003 0.147,-0.083 0.142,-0.125 0.138,-0.104 0.142,-0.131 0.309,-0.223 0.158,-0.049 0.145,-0.006 0.141,0.027 0.283,0.131 0.152,0.084 0.277,0.125 0.136,0.055 0.136,0.01 0.146,-0.111 -0.036,-0.128 -0.057,-0.132 -0.048,-0.131 -0.009,-0.127 0.074,-0.125 0.139,-0.006 0.143,0.068 0.091,0.131 0.036,0.268 0.047,0.135 0.092,0.129 0.141,0.078 0.292,0.067 0.141,0.021 0.147,0.038 0.144,0.04 0.143,0.064 0.134,0.082 0.139,0.098 0.138,0.117 0.142,0.096 0.169,0.135 0.133,0.09 0.139,0.09 0.136,0.047 0.277,0.023 0.43,0.003 0.158,-0.011 0.471,-0.068 0.142,-0.012 0.14,-0.025 0.148,-0.021 0.173,-0.028 0.273,-0.041 0.328,-0.056 0.139,-0.028 0.565,-0.099 0.146,-0.05 0.136,-0.021 0.145,0.006 0.139,0.072 0.13,0.117 0.091,0.131 0.107,0.174 0.049,-0.022 0.145,-0.12 0.097,-0.131 0.072,-0.137 0.039,-0.134 0.052,-0.124 0.084,-0.281 0.029,-0.125 0.029,-0.14 0.039,-0.128 0.029,-0.125 0.053,-0.146 0.072,-0.138 0.085,-0.136 0.206,-0.251 0.074,-0.07 0.206,-0.186 0.282,-0.201 0.297,-0.245 0.121,-0.122 0.111,-0.143 0.051,-0.124 0.03,-0.147 L 51.945,47.513 51.882,47.385 51.74,47.274 51.606,47.196 51.34,47.067 51.19,47.006 51.054,46.957 50.873,46.869 50.773,46.81 50.507,46.635 50.42,46.5 50.355,46.369 50.316,46.235 50.25,45.961 50.222,45.805 50.192,45.657 50.15,45.526 50.12,45.38 49.871,44.521 49.832,44.362 49.813,44.225 49.765,44.07 49.743,43.925 49.696,43.773 49.551,43.497 49.432,43.357 49.293,43.217 49.147,43.136 49.009,43.1 48.86,43.047 48.719,42.965 48.633,42.828 48.574,42.691 48.473,42.552 48.338,42.5 48.056,42.459 47.917,42.385 47.774,42.253 47.678,42.111 47.558,41.975 47.423,41.867 47.276,41.789 47.14,41.728 46.994,41.684 46.842,41.649 46.699,41.602 46.536,41.585 46.237,41.505 46.098,41.482 45.953,41.466 45.801,41.46 45.507,41.418 45.365,41.39 45.208,41.341 44.92,41.287 l -0.145,-0.035 -0.14,-0.09 -0.065,-0.135 -0.259,-0.206 -0.135,-0.055 -0.164,-0.029 -0.158,0.014 -0.152,0.03 -0.147,0.052 -0.16,0.072 -0.17,0.088 -0.16,0.096 -0.161,0.076 -0.16,0.063 -0.153,0.03 -0.163,-0.017 -0.139,-0.053 -0.1,-0.131 -0.066,-0.144 -0.042,-0.128 -0.034,-0.147 -0.019,-0.006 -0.12,-0.03 -0.146,0.044 -0.15,0.009 -0.144,-0.079 -0.147,-0.119 -0.134,-0.096 -0.146,0.006 -0.141,0.09 -0.137,0.125 -0.159,0.087 H 40.458 L 40.319,40.635 39.998,40.57 39.546,40.538 39.4,40.54 39.222,40.535 38.748,40.468 38.592,40.427 38.287,40.32 38.142,40.279 37.844,40.151 37.7,40.075 l -0.273,-0.209 -0.15,-0.12 -0.113,-0.131 -0.098,-0.143 -0.072,-0.144 -0.063,-0.137 -0.047,-0.133 -0.037,-0.16 -0.021,-0.155 -0.035,-0.297 -0.017,-0.282 -0.004,-0.162 0.007,-0.27 0.036,-0.463 0.016,-0.129 0.025,-0.357 -0.017,-0.148 -0.069,-0.128 -0.137,-0.113 -0.148,-0.046 -0.142,0.069 -0.139,0.137 -0.1,0.125 -0.137,0.131 -0.149,0.093 -0.147,0.047 -0.141,0.076 -0.142,0.111 -0.091,0.136 -0.064,0.14 -0.122,0.314 -0.061,0.146 -0.059,0.157 -0.069,0.136 -0.097,0.135 -0.147,0.061 -0.141,0.036 -0.355,-0.01 -0.904,-0.069 -0.302,-0.043 -0.199,-0.064 -0.3,-0.117 -0.347,-0.122 -0.35,-0.079 -0.152,-0.027 -0.283,-0.024 -0.157,0.009 -0.313,0.043 -0.505,0.1 -0.472,0.105 -0.33,0.066 -0.175,0.05 -0.139,0.067 -0.287,0.117 -0.158,0.041 -0.172,0.015 -0.16,-0.035 -0.155,-0.075 -0.28,-0.274 -0.095,-0.145 -0.105,-0.143 -0.135,-0.131 -0.111,-0.129 -0.413,-0.553 -0.095,-0.137 -0.118,-0.144 -0.233,-0.271 -0.131,-0.128 -0.164,-0.14 -0.149,-0.105 -0.144,-0.082 -0.152,-0.066 -0.309,-0.084 -0.141,-0.026 -0.33,-0.085 -0.139,-0.02 -0.336,-0.064 -0.318,-0.023 -0.299,0.053 -0.153,0.047 -0.139,0.029 -0.313,0.041 -0.285,-0.036 -0.146,-0.002 -0.145,0.017 -0.499,0.14 -0.152,0.019 -0.147,-0.004 -0.158,0.013 -0.318,0.052 -0.138,0.035 -0.143,0.055 -0.161,0.114 -0.132,0.125 -0.128,0.14 -0.153,0.046 -0.199,-0.026 -0.296,-0.069 -0.164,-0.018 -0.174,0.023 H 19.807 L 19.656,36.338 19.518,36.276 19.372,36.22 19.2,36.206 l -0.299,0.102 -0.147,0.012 -0.511,-0.033 -0.086,0.086 v 0.121 l -0.12,0.12 v 0.24 l -0.12,0.119 v 0.12 l -0.12,0.12 0.12,0.12 v 0.48 l 0.12,0.12 v 0.358 l -0.24,0.242 v 0.119 l -0.12,0.12 v 0.24 l -0.119,0.239 v 0.119 l -0.121,0.121 v 0.12 l -0.119,0.12 v 0.12 l -0.12,0.119 v 0.24 l -0.12,0.12 h 0.12 l -0.12,0.121 v 0.119 h -0.12 v 0.12 h -0.12 v 0.12 h -0.12 v 0.12 h -0.12 v 0.239 h 0.12 v -0.12 h 0.12 v 0.36 h 0.12 l -0.12,0.121 0.12,0.119 V 41.53 h 0.12 v -0.242 h 0.12 l -0.12,-0.119 0.12,-0.12 V 40.93 h 0.36 l -0.121,0.119 h 0.24 v 0.239 h 0.12 v -0.119 h 0.12 v -0.12 h 0.24 l 0.12,-0.119 0.12,0.119 h -0.12 v 0.239 h 0.12 l 0.119,-0.119 0.12,0.119 h 0.24 v -0.119 l 0.12,-0.12 h 0.36 v 0.12 h 0.12 v -0.12 h 0.119 l 0.24,0.12 h 0.12 v 0.119 h 0.24 v 0.121 h 0.479 v 0.121 h -0.119 l -0.121,0.119 h -0.119 v 0.12 h 0.119 l 0.24,0.24 h 0.24 v 0.119 l 0.12,0.12 v 0.119 l 0.12,0.121 h 0.12 v 0.12 h 0.12 v 0.12 h 0.119 v 0.359 l 0.12,0.12 h 0.24 l 0.12,0.12 v 0.121 l 0.12,0.119 v 0.12 l 0.12,0.12 v 0.12 c 0.042,0.147 0.122,0.267 0.24,0.358 v 0.121 l 0.119,-0.121 v 0.722 l 0.24,0.239 v 0.119 h 0.12 v 0.241 l 0.601,0.6 h 0.119 l 0.12,0.12 h 0.12 v 0.121 c 0.188,0.176 0.348,0.375 0.48,0.599 v 0.239 h -0.12 v 0.361 h 0.12 l -0.12,0.12 h 0.12 c 0.092,0.249 0.251,0.448 0.479,0.599 v 0.121 h 0.12 c 0.093,0.118 0.213,0.198 0.36,0.24 v 0.12 l 0.12,0.119 h 0.239 v 0.24 h 0.12 l 0.12,0.12 -0.12,0.121 h 0.12 v 0.239 h 0.12 l -0.12,0.12 h 0.12 v 0.239 h 0.12 v 0.239 l 0.12,0.121 h 0.24 v 0.24 c 0.092,0.118 0.212,0.198 0.359,0.24 v 0.12 h 0.12 v 0.119 h 0.12 l -0.12,0.12 c 0.151,0.135 0.271,0.295 0.36,0.48 v 0.12 c 0.12,0.161 0.238,0.318 0.359,0.479 v 0.24 l 0.12,0.12 v 0.24 l 0.12,0.119 v 0.12 l 0.24,0.24 v 0.121 l 0.24,0.239 v 0.12 l 0.119,0.239 v 0.239 l 0.12,0.121 v 0.12 h 0.12 l 0.12,0.12 h 0.12 l 0.12,0.12 v 0.119 h 0.6 l 0.12,0.12 h 0.12 V 55.8 l -0.12,0.239 h -0.12 l -0.12,0.12 v 0.119 l 0.12,0.121 v 0.121 h 0.12 v 0.239 l 0.12,0.12 v -0.12 h 0.12 v 0.12 h -0.12 v 0.239 h 0.12 v -0.119 l 0.12,0.119 h 0.12 l 0.239,0.239 0.12,-0.119 h -0.12 v -0.239 h 0.12 v 0.119 h 0.12 v 0.12 l 0.24,0.24 h -0.12 l 0.24,0.24 v -0.12 h 0.24 v 0.24 h 0.119 v 0.119 h 0.12 l -0.12,0.12 0.24,0.24 v 0.36 l 0.24,0.12 v 0.12 h 0.12 l 0.12,0.119 v 0.36 h 0.119 v 0.36 l 0.24,0.24 v 0.119 h 0.12 c 0.144,0.35 0.384,0.63 0.72,0.84 v 0.481 l -0.119,0.119 v 0.12 h 0.119 v 0.24 l 0.12,0.119 v 0.36 l -0.12,0.121 v 0.359 l -0.239,0.239 0.239,-0.119 -0.119,0.119 h -0.12 -0.48 v 0.12 l 0.36,0.36 v -0.12 h 0.12 v 0.12 h 0.12 v 0.12 h -0.12 v -0.12 h -0.12 l 0.12,0.24 v 0.119 l 0.12,0.12 h 0.119 l 0.24,0.12 0.12,0.241 v 0.119 h 0.12 v 0.12 h 0.12 v 0.12 l 0.12,0.12 v 0.239 h 0.031 l 0.162,-0.344 0.046,-0.182 z"
           id="SA-07"
           inkscape:label="#path6049" />
        <path
           style="fill:#ff0000;stroke:#b2b2b2;stroke-width:0.10000000000000001"
           inkscape:connector-curvature="0"
           d="m 18.898,36.307 0.299,-0.102 0.172,0.014 0.146,0.056 0.138,0.062 0.151,0.052 h 0.173 l 0.174,-0.023 0.164,0.018 0.296,0.069 0.199,0.026 0.153,-0.046 0.128,-0.14 0.132,-0.125 0.161,-0.114 0.143,-0.055 0.138,-0.035 0.318,-0.052 0.158,-0.013 0.147,0.004 0.152,-0.019 0.499,-0.14 0.145,-0.017 0.146,0.002 0.285,0.036 0.313,-0.041 0.139,-0.029 0.153,-0.047 0.299,-0.053 0.318,0.023 0.336,0.064 0.139,0.02 0.33,0.085 0.141,0.026 0.309,0.084 0.152,0.066 0.144,0.082 0.149,0.105 0.164,0.14 0.131,0.128 0.233,0.271 0.118,0.144 0.095,0.137 0.413,0.553 0.111,0.129 0.135,0.131 0.105,0.143 0.095,0.145 0.28,0.274 0.155,0.075 0.16,0.035 0.172,-0.015 0.158,-0.041 0.288,-0.116 0.139,-0.067 0.175,-0.05 0.33,-0.066 0.471,-0.107 0.505,-0.1 0.313,-0.043 0.157,-0.009 0.283,0.024 0.152,0.027 0.35,0.079 0.347,0.122 0.3,0.117 0.199,0.064 0.302,0.043 0.904,0.069 0.355,0.01 0.141,-0.036 0.147,-0.061 0.097,-0.135 0.069,-0.136 0.059,-0.157 0.061,-0.146 0.122,-0.314 0.064,-0.14 0.091,-0.136 0.142,-0.111 0.141,-0.076 0.147,-0.047 0.149,-0.093 0.137,-0.131 0.1,-0.125 0.139,-0.137 0.142,-0.069 0.148,0.046 0.137,0.113 0.069,0.128 0.017,0.148 -0.025,0.357 -0.016,0.129 -0.036,0.463 -0.007,0.27 0.004,0.162 0.017,0.282 0.035,0.297 0.021,0.155 0.037,0.16 0.047,0.133 0.063,0.137 0.072,0.144 0.098,0.143 0.113,0.131 0.15,0.12 0.273,0.209 0.146,0.075 0.298,0.128 0.145,0.041 0.305,0.107 0.156,0.041 0.474,0.067 0.179,0.008 0.146,-0.003 0.452,0.032 0.321,0.065 0.139,0.034 h 0.146 l 0.159,-0.087 0.137,-0.125 0.141,-0.088 0.146,-0.006 0.134,0.096 0.147,0.119 0.144,0.079 0.15,-0.009 0.146,-0.044 0.12,0.03 0.019,0.006 0.034,0.147 0.042,0.128 0.066,0.144 0.1,0.131 0.139,0.053 0.163,0.017 0.153,-0.03 0.16,-0.063 0.161,-0.076 0.16,-0.096 0.17,-0.088 0.16,-0.072 0.147,-0.052 0.152,-0.03 0.158,-0.014 0.164,0.029 0.135,0.055 0.259,0.206 0.08,-0.061 0.261,-0.247 0.116,-0.138 0.105,-0.14 0.11,-0.131 0.15,-0.094 0.477,-0.244 0.19,-0.104 0.327,-0.161 0.325,-0.127 0.167,-0.055 0.492,-0.213 0.355,-0.17 0.479,-0.176 0.139,-0.039 0.181,-0.029 0.324,-0.023 0.139,-0.025 0.158,-0.066 0.169,-0.109 0.147,-0.081 0.335,-0.204 0.149,-0.074 0.324,-0.176 0.469,-0.245 0.127,-0.071 0.342,-0.17 0.169,-0.09 0.156,-0.062 0.162,-0.073 0.519,-0.191 0.286,-0.114 0.142,-0.069 0.146,-0.061 0.151,-0.048 0.33,-0.089 0.304,-0.141 0.163,-0.09 0.156,-0.006 0.279,0.064 0.12,0.055 0.296,-0.315 0.619,-0.495 0.113,-0.15 0.042,-0.133 0.019,-0.126 0.025,-0.184 0.049,-0.309 0.008,-0.14 0.021,-0.133 0.003,-0.299 0.022,-0.162 0.009,-0.52 0.008,-0.154 v -0.15 l 0.011,-0.164 0.021,-0.127 0.032,-0.146 0.089,-0.138 0.134,-0.133 0.169,-0.149 0.327,-0.241 0.18,-0.125 0.145,-0.086 0.305,-0.191 0.191,-0.113 0.194,-0.097 0.54,-0.282 0.583,-0.347 0.751,-0.413 0.737,-0.463 0.202,-0.117 0.178,-0.09 0.181,-0.099 0.31,-0.144 0.153,-0.084 0.18,-0.086 0.48,-0.287 0.304,-0.203 0.317,-0.221 0.196,-0.143 0.169,-0.145 0.138,-0.145 0.143,-0.137 0.036,-0.127 -0.054,-0.139 -0.299,-0.227 -0.142,-0.102 -0.296,-0.189 -0.386,-0.266 -0.3,-0.26 -0.111,-0.15 L 61.16,26.603 61.1,26.459 61.037,26.293 60.96,26.131 60.876,25.985 60.771,25.842 60.645,25.704 60.492,25.57 60.187,25.402 60.007,25.347 59.834,25.305 59.692,25.291 H 59.55 l -0.365,-0.019 -0.192,0.029 -0.155,0.009 -0.302,-0.026 -0.145,-0.032 -0.146,-0.049 -0.136,-0.067 -0.146,-0.11 -0.479,-0.394 -0.455,-0.325 -0.167,-0.11 -0.157,-0.094 -0.178,-0.082 -0.158,-0.033 -0.142,-0.004 -0.471,0.075 -0.176,0.041 -0.155,0.019 -0.175,0.003 -0.164,0.012 -1.493,-0.009 -0.424,-0.012 -0.176,0.003 -0.16,-0.006 -0.175,-0.016 -0.223,-0.025 -0.632,-0.038 -0.171,-0.026 -0.176,-0.037 -0.18,-0.051 -0.15,-0.072 -0.138,-0.078 -0.12,-0.1 L 50.542,23.371 50.4,23.274 50.253,23.202 50.076,23.145 49.934,23.123 H 49.618 L 49.274,23.135 49.105,23.103 48.939,23.059 48.646,23 48.331,22.95 48.185,22.939 H 48.024 L 47.849,22.927 47.513,22.865 47.175,22.786 47.007,22.755 46.579,22.661 46.405,22.63 46.088,22.589 45.8,22.56 45.616,22.551 h -0.154 l -0.358,-0.015 -0.165,0.015 -0.298,0.009 -0.172,0.018 -0.142,0.008 -0.479,0.051 -0.846,0.174 -1.176,0.125 -0.646,0.078 -0.311,0.016 -0.35,0.026 -0.333,0.015 L 40.032,23.062 39.893,23.05 39.75,23.03 39.611,23 39.472,22.947 39.332,22.875 39.181,22.764 39.07,22.633 38.995,22.496 38.912,22.365 38.773,22.064 38.587,21.773 38.482,21.634 38.36,21.482 38.209,21.351 38.063,21.249 37.62,21.001 37.501,20.87 37.479,20.742 37.463,20.608 37.427,20.468 37.424,20.333 37.393,20.046 v -0.283 l 0.117,-0.405 0.053,-0.162 0.063,-0.131 0.125,-0.282 0.044,-0.126 0.067,-0.125 0.052,-0.14 0.031,-0.15 0.039,-0.132 0.043,-0.135 0.4,-2.201 c -2.17,0.58 -4.334,1.182 -6.474,1.877 l 6.24,6.96 -2.16,1.08 -0.96,2.399 c -1.6,0.26 -3.204,0.541 -4.8,0.841 -0.979,1.976 -2.424,3.536 -4.32,4.68 -2.318,-0.336 -4.654,-0.739 -6.96,-1.2 v 0.121 l -0.12,0.119 h 0.12 l -0.12,0.12 0.12,0.12 h -0.12 l -0.12,0.12 0.12,0.119 v 0.12 l -0.12,0.119 h -0.12 l 0.12,0.121 -0.12,0.12 v 0.24 l -0.12,0.119 v 0.481 l -0.119,0.119 v 0.12 l -0.12,0.12 h 0.12 v 0.239 l -0.12,0.12 v 0.24 l -0.12,0.121 v 0.239 h 0.12 v 0.24 l -0.12,0.119 h 0.12 v 0.12 l -0.034,0.033 0.511,0.033 0.147,-0.006 z"
           id="SA-12"
           inkscape:label="#path6051" />
        <path
           style="fill:#800000;stroke:#b2b2b2;stroke-width:0.10000000000000001"
           inkscape:connector-curvature="0"
           d="m 37.984,18.112 -0.039,0.132 -0.031,0.15 -0.052,0.14 -0.067,0.125 -0.044,0.126 -0.125,0.282 -0.063,0.131 -0.053,0.162 -0.117,0.405 v 0.283 l 0.031,0.287 0.003,0.135 0.036,0.14 0.016,0.134 0.022,0.128 0.119,0.131 0.443,0.248 0.146,0.102 0.151,0.131 0.122,0.152 0.105,0.139 0.186,0.291 0.139,0.301 0.083,0.131 0.075,0.137 0.111,0.131 0.151,0.111 0.14,0.072 0.139,0.051 0.139,0.029 0.144,0.021 0.139,0.012 0.154,0.009 0.333,-0.015 0.35,-0.026 0.311,-0.016 0.646,-0.078 1.176,-0.125 0.846,-0.174 0.479,-0.051 0.142,-0.008 0.172,-0.018 0.298,-0.009 0.165,-0.015 0.358,0.015 h 0.154 l 0.184,0.009 0.288,0.029 0.317,0.041 0.174,0.031 0.428,0.094 0.168,0.031 0.338,0.079 0.336,0.062 0.175,0.012 h 0.161 l 0.146,0.011 0.314,0.05 0.295,0.058 0.166,0.044 0.169,0.032 0.344,-0.012 h 0.316 l 0.142,0.022 0.177,0.057 0.147,0.072 0.142,0.097 0.326,0.296 0.12,0.1 0.138,0.078 0.15,0.072 0.18,0.051 0.176,0.037 0.171,0.026 0.632,0.038 0.223,0.025 0.175,0.016 0.16,0.006 0.176,-0.003 0.424,0.012 1.493,0.009 0.164,-0.012 0.175,-0.003 0.153,-0.018 0.178,-0.04 0.471,-0.075 0.142,0.004 0.158,0.033 0.178,0.082 0.157,0.094 0.167,0.11 0.455,0.325 0.479,0.394 0.146,0.11 0.136,0.067 0.146,0.049 0.145,0.032 0.302,0.026 0.155,-0.009 0.192,-0.029 0.365,0.019 h 0.142 l 0.142,0.014 0.173,0.042 0.18,0.055 0.305,0.168 0.153,0.134 0.126,0.138 0.105,0.143 0.084,0.146 0.077,0.162 0.063,0.166 0.063,0.148 0.172,0.291 0.111,0.15 0.3,0.26 0.386,0.266 0.296,0.189 0.142,0.102 0.299,0.227 0.054,0.139 -0.036,0.127 -0.143,0.137 -0.138,0.145 -0.169,0.145 -0.196,0.143 -0.317,0.221 -0.304,0.203 -0.48,0.287 -0.18,0.086 -0.153,0.084 -0.31,0.144 -0.181,0.099 -0.178,0.09 -0.202,0.117 -0.737,0.463 -0.751,0.413 -0.583,0.347 -0.54,0.282 -0.194,0.097 -0.191,0.113 -0.305,0.191 -0.145,0.086 -0.18,0.125 -0.327,0.241 -0.169,0.149 -0.134,0.133 -0.089,0.138 -0.032,0.146 -0.021,0.127 -0.011,0.164 v 0.15 l -0.008,0.154 -0.009,0.52 -0.022,0.162 -0.003,0.299 -0.021,0.133 -0.008,0.14 -0.049,0.309 -0.025,0.184 -0.019,0.126 -0.042,0.133 -0.113,0.15 -0.619,0.495 -0.296,0.315 0.229,0.104 0.285,0.1 0.137,0.063 0.149,0.055 0.146,0.043 0.29,0.021 0.138,-0.021 0.5,-0.154 0.282,-0.068 0.301,-0.057 0.168,-0.038 0.366,-0.055 0.149,-0.037 0.435,-0.076 0.161,-0.035 0.688,-0.175 0.161,-0.035 0.482,-0.072 0.139,-0.006 0.145,0.037 0.15,0.05 0.149,0.041 0.155,0.05 0.138,0.031 0.274,0.082 0.319,0.104 0.155,0.048 0.291,0.113 0.308,0.043 0.142,-0.003 0.139,-0.028 0.158,-0.042 0.433,-0.153 0.341,-0.057 0.18,-0.014 0.294,0.009 0.136,0.021 0.15,0.035 0.139,0.02 0.49,0.094 0.158,0.037 0.837,0.182 0.145,0.041 0.149,0.025 0.305,0.09 0.136,0.05 0.147,0.084 0.138,0.108 0.15,0.145 0.128,0.149 0.22,0.285 0.122,0.142 0.138,0.143 0.161,0.156 0.163,0.118 0.161,0.091 0.137,0.038 0.179,0.028 0.172,0.006 0.185,-0.024 0.193,-0.046 0.183,-0.063 0.167,-0.078 0.165,-0.114 0.179,-0.092 0.149,-0.07 0.152,-0.053 0.199,-0.035 0.14,0.006 0.121,0.137 0.017,0.155 0.002,0.3 0.022,0.178 0.028,0.154 0.092,0.268 0.122,0.143 0.14,0.104 0.174,0.056 0.296,0.017 0.167,-0.012 0.279,-0.046 0.142,-0.025 0.146,-0.004 0.156,0.015 0.144,0.058 0.145,0.082 0.3,0.154 0.163,0.104 0.171,0.075 0.176,0.056 0.146,-0.02 0.163,-0.05 0.15,-0.069 0.283,-0.161 0.152,-0.102 0.155,-0.111 0.332,-0.202 0.152,-0.06 0.137,0.024 0.144,0.081 0.145,0.125 0.103,0.137 0.094,0.141 0.345,0.596 0.29,0.481 0.1,0.151 0.164,0.279 0.067,0.135 0.116,0.296 0.053,0.157 0.109,0.289 0.043,0.127 0.188,0.442 0.225,0.292 0.144,0.131 0.147,0.123 0.158,0.084 0.142,0.041 0.141,0.031 0.306,0.053 0.66,0.069 0.135,0.007 0.283,0.02 0.136,0.021 0.163,0.016 0.155,0.037 0.289,0.107 0.154,0.072 0.298,0.163 0.273,0.253 0.275,0.271 0.146,0.12 0.146,0.116 0.14,0.085 0.129,0.1 0.131,0.15 0.047,0.137 0.012,0.031 0.128,0.113 0.094,0.15 0.134,0.102 0.141,0.058 0.134,0.029 0.163,-0.052 0.166,-0.094 0.098,-0.121 0.079,-0.129 0.063,-0.132 L 82.269,45.2 82.15,45.066 82.04,44.92 81.991,44.788 81.969,44.66 l 0.014,-0.141 0.025,-0.133 0.032,-0.146 0.051,-0.129 0.113,-0.251 0.068,-0.121 0.086,-0.129 0.22,-0.265 0.241,-0.271 0.247,-0.245 0.108,-0.125 0.124,-0.126 0.109,-0.13 0.09,-0.129 0.197,-0.261 0.083,-0.141 0.097,-0.131 0.253,-0.434 0.065,-0.143 0.164,-0.295 0.078,-0.125 0.238,-0.437 0.071,-0.122 0.092,-0.146 0.145,-0.281 0.094,-0.15 0.145,-0.273 0.066,-0.136 0.17,-0.282 0.071,-0.137 0.158,-0.26 0.15,-0.268 0.18,-0.285 0.098,-0.125 0.079,-0.122 0.223,-0.271 0.227,-0.737 0.146,-0.135 0.464,-0.398 0.324,-0.253 0.125,-0.181 0.191,-0.064 0.854,-0.277 3.271,-1.24 C 88.217,34.301 84.294,33.83 80.46,33.535 69.386,24.772 59.61,15.902 45.507,13.216 l -1.074,0.954 c -1.998,0.553 -4.004,1.069 -6.006,1.604 l -0.4,2.201 -0.043,0.137 z"
           id="SA-08"
           inkscape:label="#path6053" />
        <polygon
           style="fill:#ffff00;stroke:#b2b2b2;stroke-width:0.10000000000000001"
           points="61.521,57.667 61.815,57.518 61.976,57.452 62.14,57.397 62.297,57.368 63.063,57.318 63.21,57.204 63.218,57.061 63.156,56.924 62.982,56.653 62.899,56.514 62.83,56.38 62.78,56.233 62.758,56.083 62.786,55.941 62.838,55.806 62.91,55.675 63.068,55.544 63.227,55.512 63.359,55.53 63.645,55.643 63.79,55.708 63.95,55.76 64.249,55.819 64.394,55.8 64.479,55.667 64.468,55.518 64.451,55.383 64.43,55.242 64.385,55.099 64.354,54.968 64.333,54.834 64.316,54.703 64.33,54.569 64.356,54.436 64.404,54.286 64.46,54.155 64.602,53.87 64.676,53.739 64.814,53.667 64.956,53.702 65.105,53.756 65.267,53.725 65.42,53.678 65.574,53.663 65.716,53.623 65.802,53.475 65.824,53.329 65.874,52.879 65.971,52.754 66.231,52.491 66.742,52.042 67.063,51.799 67.421,51.543 67.58,51.416 68.342,50.85 68.533,50.697 68.732,50.571 68.915,50.448 69.438,50.178 69.605,50.109 70.1,49.931 70.279,49.875 70.438,49.811 70.698,49.723 70.84,49.66 70.983,49.547 71.071,49.393 71.275,48.958 71.427,48.675 71.488,48.549 71.597,48.405 71.731,48.26 71.987,48.076 72.24,47.958 72.786,47.723 73.085,47.586 73.296,47.476 73.643,47.31 74.306,46.969 74.465,46.894 74.637,46.8 75.104,46.62 75.25,46.584 75.395,46.571 75.533,46.593 75.681,46.634 75.83,46.719 76.118,46.964 76.371,47.257 76.64,47.491 77.171,47.889 77.573,48.154 77.735,48.198 77.903,48.209 78.238,48.184 78.403,48.201 78.68,48.26 78.813,48.307 78.954,48.33 79.101,48.288 79.257,48.172 79.371,48.043 79.462,47.901 79.642,47.635 79.764,47.494 79.891,47.374 79.99,47.295 80.024,47.288 80.002,47.249 79.899,46.964 79.911,46.69 79.928,46.549 80.03,46.283 80.094,46.16 80.176,46.017 80.282,45.862 80.394,45.725 80.534,45.592 80.68,45.473 80.82,45.397 80.965,45.335 81.111,45.309 81.1,45.278 81.053,45.141 80.922,44.991 80.793,44.891 80.653,44.806 80.507,44.69 80.36,44.57 80.085,44.299 79.812,44.046 79.514,43.883 79.359,43.811 79.07,43.704 78.915,43.667 78.752,43.651 78.616,43.629 78.333,43.61 78.198,43.603 77.538,43.534 77.232,43.481 77.092,43.45 76.95,43.409 76.792,43.325 76.645,43.202 76.501,43.071 76.276,42.779 76.088,42.336 76.045,42.209 75.936,41.92 75.883,41.763 75.767,41.467 75.699,41.333 75.535,41.053 75.436,40.902 75.146,40.42 74.801,39.825 74.707,39.684 74.604,39.547 74.46,39.422 74.316,39.341 74.18,39.317 74.027,39.376 73.695,39.579 73.54,39.69 73.388,39.792 73.104,39.953 72.954,40.022 72.791,40.072 72.645,40.091 72.469,40.036 72.298,39.96 72.135,39.856 71.835,39.702 71.69,39.62 71.547,39.562 71.391,39.547 71.244,39.551 71.103,39.577 70.823,39.623 70.656,39.634 70.36,39.618 70.187,39.562 70.047,39.458 69.925,39.315 69.833,39.047 69.805,38.893 69.782,38.715 69.78,38.416 69.764,38.26 69.643,38.124 69.503,38.118 69.304,38.153 69.151,38.206 69.002,38.276 68.823,38.368 68.658,38.482 68.491,38.56 68.309,38.624 68.115,38.669 67.931,38.694 67.759,38.688 67.58,38.66 67.443,38.622 67.282,38.531 67.119,38.413 66.958,38.256 66.82,38.114 66.698,37.972 66.479,37.687 66.351,37.538 66.2,37.393 66.063,37.285 65.915,37.201 65.779,37.151 65.475,37.061 65.325,37.036 65.181,36.995 64.344,36.813 64.186,36.776 63.695,36.682 63.557,36.663 63.406,36.627 63.271,36.607 62.977,36.598 62.797,36.612 62.456,36.668 62.023,36.822 61.865,36.864 61.727,36.892 61.585,36.895 61.277,36.852 60.986,36.739 60.831,36.691 60.512,36.586 60.237,36.504 60.1,36.473 59.944,36.423 59.795,36.382 59.645,36.333 59.5,36.295 59.361,36.301 58.879,36.374 58.718,36.409 58.03,36.583 57.869,36.619 57.435,36.695 57.285,36.732 56.919,36.787 56.751,36.825 56.45,36.881 56.168,36.95 55.668,37.104 55.53,37.125 55.24,37.104 55.095,37.061 54.945,37.006 54.809,36.944 54.523,36.844 54.294,36.741 54.174,36.686 53.895,36.622 53.738,36.627 53.575,36.717 53.271,36.858 52.941,36.947 52.79,36.995 52.645,37.055 52.503,37.125 52.217,37.239 51.698,37.43 51.536,37.503 51.38,37.565 51.211,37.655 50.869,37.825 50.742,37.896 50.273,38.141 49.949,38.317 49.8,38.391 49.465,38.595 49.317,38.676 49.148,38.786 48.99,38.852 48.852,38.877 48.527,38.901 48.347,38.93 48.208,38.969 47.729,39.145 47.373,39.315 46.881,39.528 46.714,39.583 46.389,39.709 46.062,39.871 45.871,39.975 45.395,40.219 45.244,40.313 45.134,40.444 45.028,40.583 44.912,40.721 44.651,40.968 44.571,41.029 44.637,41.164 44.776,41.253 44.921,41.289 45.209,41.342 45.366,41.391 45.508,41.419 45.802,41.461 45.954,41.467 46.099,41.483 46.237,41.506 46.536,41.586 46.699,41.603 46.842,41.65 46.994,41.685 47.141,41.729 47.276,41.79 47.424,41.868 47.559,41.976 47.679,42.112 47.774,42.253 47.917,42.385 48.056,42.459 48.338,42.5 48.474,42.553 48.574,42.692 48.633,42.829 48.719,42.965 48.859,43.047 49.009,43.1 49.146,43.135 49.292,43.216 49.431,43.356 49.55,43.496 49.694,43.772 49.741,43.924 49.764,44.069 49.812,44.224 49.83,44.361 49.869,44.52 50.118,45.379 50.148,45.526 50.19,45.657 50.221,45.805 50.249,45.961 50.315,46.236 50.354,46.37 50.42,46.5 50.504,46.634 50.77,46.809 50.869,46.868 51.05,46.956 51.186,47.004 51.336,47.065 51.602,47.194 51.735,47.272 51.877,47.383 51.939,47.511 51.968,47.653 51.938,47.8 51.887,47.924 51.775,48.067 51.654,48.189 51.357,48.434 51.075,48.635 50.869,48.821 50.795,48.891 50.589,49.142 50.504,49.278 50.432,49.416 50.379,49.561 50.35,49.686 50.311,49.814 50.281,49.954 50.252,50.079 50.168,50.36 50.116,50.484 50.077,50.618 50.005,50.754 49.908,50.885 49.764,51.005 49.715,51.028 49.792,51.159 49.836,51.297 49.869,51.446 49.88,51.608 49.88,51.756 49.841,51.902 49.744,52.172 49.655,52.298 49.55,52.42 49.448,52.563 49.414,52.708 49.448,52.845 49.525,52.983 49.664,53.104 49.803,53.145 49.946,53.16 50.096,53.122 50.243,53.049 50.401,53 50.535,53.043 50.601,53.18 50.617,53.334 50.617,53.608 50.582,53.899 50.506,54.341 50.449,54.622 50.424,54.779 50.39,54.913 50.232,55.79 50.241,55.926 50.276,56.063 50.324,56.194 50.381,56.328 50.429,56.47 50.46,56.62 50.498,56.75 50.557,57.033 50.584,57.229 50.612,57.495 50.612,57.775 50.597,58.209 50.51,59.134 50.518,59.26 50.549,59.403 50.634,59.542 50.723,59.673 50.869,59.801 50.998,59.869 51.154,59.924 51.291,59.941 51.441,59.929 51.588,59.907 51.724,59.869 52.171,59.694 52.824,59.479 53.155,59.366 53.465,59.309 53.903,59.324 54.063,59.337 54.21,59.344 54.347,59.337 54.626,59.295 54.776,59.249 54.929,59.181 55.067,59.09 55.203,58.969 55.309,58.826 55.425,58.692 55.53,58.538 55.644,58.407 55.774,58.282 55.93,58.177 56.217,58.089 56.373,58.063 56.528,58.06 56.848,58.034 57.149,58.022 57.305,58.022 57.597,58.038 57.736,58.063 58.068,58.104 58.389,58.163 58.541,58.182 58.702,58.217 58.835,58.229 59.124,58.273 59.325,58.323 59.491,58.372 59.753,58.441 59.85,58.325 59.972,58.204 60.13,58.163 60.285,58.139 60.584,58.129 60.877,58.071 61.054,57.967 61.205,57.86 61.349,57.769 "
           id="SA-06"
           inkscape:label="#polygon6055" />
        <polygon
           style="fill:#0000ff;stroke:#b2b2b2;stroke-width:0.10000000000000001"
           points="81.111,45.309 80.965,45.335 80.82,45.397 80.68,45.473 80.534,45.592 80.394,45.725 80.282,45.862 80.176,46.017 80.094,46.16 80.03,46.283 79.928,46.549 79.911,46.69 79.899,46.964 80.002,47.249 80.024,47.288 80.171,47.315 80.313,47.363 80.454,47.448 80.714,47.631 80.845,47.739 80.973,47.834 81.114,47.959 81.225,48.104 81.297,48.25 81.357,48.39 81.399,48.534 81.405,48.672 81.386,48.819 81.35,48.946 81.271,49.075 81.129,49.174 80.973,49.235 80.825,49.261 80.671,49.311 80.507,49.393 80.347,49.5 80.204,49.63 80.059,49.756 79.714,50.133 79.533,50.397 79.473,50.528 79.39,50.647 79.234,50.766 79.099,50.793 78.952,50.807 78.799,50.831 78.646,50.882 78.503,50.956 78.461,51.089 78.491,51.243 78.558,51.39 78.58,51.532 78.58,51.837 78.558,51.978 78.525,52.108 78.475,52.412 78.443,52.551 78.434,52.685 78.428,52.831 78.441,52.959 78.517,53.094 78.636,53.233 78.76,53.352 79.035,53.596 79.174,53.713 79.39,54.016 79.553,54.304 79.922,54.875 80.047,55.032 80.308,55.333 80.398,55.475 80.424,55.623 80.36,55.753 80.225,55.999 80.227,56.129 80.294,56.264 80.41,56.407 80.588,56.694 80.653,56.84 80.688,56.971 80.726,57.256 80.745,57.522 80.731,57.661 80.676,57.944 80.646,58.071 80.59,58.204 80.451,58.229 80.308,58.235 79.738,58.168 79.578,58.163 79.42,58.182 79.273,58.188 78.965,58.214 78.411,58.279 78.262,58.282 77.929,58.261 77.624,58.204 77.321,58.16 76.895,58.104 76.744,58.098 76.597,58.098 76.454,58.127 76.315,58.166 76.173,58.24 76.03,58.334 75.905,58.456 75.806,58.582 75.721,58.711 75.592,58.965 75.539,59.097 75.387,59.362 75.248,59.479 75.104,59.542 74.965,59.589 74.82,59.665 74.69,59.784 74.604,59.917 74.465,60.051 74.302,60.157 73.964,60.279 73.8,60.322 73.628,60.361 73.185,60.442 72.863,60.508 72.392,60.625 71.948,60.708 71.807,60.765 71.646,60.879 71.35,61.147 71.03,61.487 70.778,61.776 70.685,61.897 70.573,62.025 70.457,62.196 70.36,62.317 70.31,62.455 70.303,62.585 70.332,62.718 70.399,62.852 70.59,63.127 70.658,63.26 70.682,63.391 70.658,63.526 70.599,63.651 70.526,63.772 70.394,63.904 70.232,64.008 70.08,64.087 69.944,64.114 69.805,64.1 69.503,63.989 69.345,63.948 69.173,63.945 69.04,63.933 68.767,63.975 68.469,64.036 68.295,64.058 68.004,64.09 67.831,64.084 67.523,64.061 67.391,64.042 67.244,64.032 66.958,64.002 66.659,63.959 66.525,63.933 66.248,63.86 65.965,63.764 65.83,63.702 65.434,63.476 65.303,63.415 65.164,63.385 65.028,63.391 64.891,63.45 64.749,63.545 64.632,63.671 64.521,63.81 64.352,64.07 64.261,64.192 64.183,64.315 64.077,64.563 64.089,64.672 64.094,64.778 64.041,65.01 64.003,65.112 63.93,65.261 63.825,65.417 63.742,65.508 63.695,65.548 63.537,65.723 63.501,65.777 63.466,65.858 63.459,65.942 63.466,66.047 63.509,66.149 63.54,66.198 63.57,66.292 63.605,66.356 63.637,66.493 63.534,66.688 63.486,66.821 63.418,67.139 63.379,67.351 63.371,67.602 63.384,67.846 63.359,68.147 63.354,68.353 63.381,68.607 63.398,68.895 63.384,68.944 63.365,69.029 63.343,69.161 63.335,69.307 63.313,69.458 63.304,69.586 63.307,69.861 63.323,70.001 63.371,70.141 63.498,70.263 63.635,70.339 63.765,70.4 63.892,70.475 64.025,70.58 64.131,70.723 64.191,70.876 64.249,71.163 64.3,71.451 64.338,71.583 64.391,71.728 64.618,72.144 64.676,72.275 64.724,72.417 64.749,72.707 64.773,72.837 64.817,73.14 64.891,73.419 65.076,73.853 65.155,74.007 65.275,74.31 65.348,74.457 65.464,74.724 65.651,75.134 65.725,75.277 65.83,75.416 65.963,75.531 66.246,75.665 66.379,75.708 66.664,75.744 67.1,75.728 67.252,75.714 67.543,75.711 67.825,75.731 68.517,75.798 68.669,75.801 68.957,75.822 69.091,75.841 69.245,75.883 69.381,75.919 69.522,75.97 69.656,76.048 69.782,76.153 69.858,76.304 69.863,76.436 69.703,76.83 69.686,76.969 69.711,77.109 69.703,77.376 69.658,77.644 69.65,77.777 69.666,77.912 69.744,78.046 69.88,78.189 70.406,78.402 70.559,78.419 70.704,78.399 70.858,78.359 71.155,78.267 71.305,78.214 71.457,78.177 71.591,78.154 71.724,78.166 71.86,78.187 72.185,78.267 72.619,78.329 72.772,78.408 72.838,78.538 72.827,78.687 72.722,79.094 72.699,79.234 72.669,79.371 72.652,79.527 72.652,79.787 72.666,79.933 72.713,80.23 72.744,80.373 72.838,81.125 72.872,81.275 72.886,81.41 72.913,81.545 72.983,81.992 72.98,82.132 72.96,82.283 72.921,82.417 72.854,82.551 72.783,82.675 72.686,82.795 72.572,82.914 72.483,83.041 72.428,83.162 72.432,83.302 72.459,83.593 72.486,83.742 72.497,83.871 72.511,84.001 72.52,84.14 72.527,84.408 72.483,84.693 72.392,84.982 72.363,85.107 72.275,85.396 72.212,85.66 72.203,85.786 72.206,85.934 72.234,86.065 72.312,86.199 72.426,86.339 72.548,86.476 72.783,86.767 72.969,87.048 73.185,87.342 73.367,87.643 73.632,88.056 73.712,88.216 73.813,88.36 73.978,88.617 74.13,88.711 74.261,88.817 74.637,89.173 74.909,89.387 75.031,89.518 75.162,89.681 75.419,90.115 75.492,90.248 75.592,90.41 75.859,90.72 76.005,90.858 76.252,91.058 76.375,91.205 76.445,91.373 76.477,91.515 76.479,91.644 76.468,91.784 76.429,91.909 76.375,92.033 76.304,92.156 76.212,92.296 75.999,92.593 75.927,92.727 75.866,92.852 75.819,93.012 75.758,93.306 75.725,93.445 75.708,93.578 75.674,93.703 75.649,93.848 75.595,94.12 75.578,94.258 75.633,94.407 75.767,94.552 75.885,94.663 76.013,94.794 76.139,94.947 76.227,95.091 76.528,95.662 76.619,95.807 76.733,95.958 76.853,96.102 77.003,96.233 77.141,96.367 77.396,96.585 77.519,96.699 77.779,96.975 78.147,97.314 78.298,97.433 78.558,97.656 78.686,97.755 79.061,98.096 79.198,98.21 79.325,98.299 79.934,98.664 80.387,98.967 80.882,99.316 81.2,99.482 81.499,99.617 81.837,99.752 82.429,99.884 82.85,99.923 83.481,99.994 84.047,100.011 84.699,100.003 85.799,99.89 87.374,99.745 89.068,99.625 90.615,99.468 92.678,99.279 94.807,99.091 96.51,98.825 97.805,98.659 98.797,98.425 99.657,98.177 100.024,95.14 100.356,92.593 100.635,90.429 100.918,88.447 101.295,85.722 101.646,82.763 102.838,73.23 103.091,71.808 103.222,70.744 103.219,70.01 103.224,69.373 103.094,68.607 102.978,68.155 102.761,67.686 102.437,67.139 102.129,66.774 101.324,66.033 100.448,65.165 99.913,64.778 99.138,64.282 98.725,64.058 98.306,63.744 98.217,63.625 98.101,63.429 98.039,63.217 97.976,62.78 97.915,61.485 97.942,60.605 97.962,59.534 98.021,58.986 98.029,58.852 98.013,58.704 98.001,58.444 98.004,57.978 98.034,57.706 98.023,57.555 98.023,57.39 98.031,57.233 97.967,56.354 97.962,55.943 97.965,55.233 97.953,55.09 97.959,54.917 97.932,54.5 97.904,54.208 97.882,54.059 97.834,53.888 97.781,53.756 97.682,53.617 97.541,53.518 97.41,53.442 97.113,53.318 96.974,53.256 96.812,53.204 95.921,52.865 95.782,52.819 95.488,52.758 95.35,52.708 95.223,52.551 95.161,52.409 95.084,52.272 94.951,52.161 94.826,52.036 94.695,51.917 94.572,51.791 94.438,51.692 94.3,51.577 94.175,51.451 94.039,51.319 93.903,51.223 93.765,51.186 93.62,51.186 93.263,51.256 92.975,51.328 92.813,51.36 92.655,51.37 92.385,51.352 92.221,51.293 92.067,51.232 91.927,51.144 91.496,50.856 91.073,50.54 90.648,50.25 90.393,50.088 90.26,50.014 90.124,49.948 89.844,49.864 89.711,49.829 89.576,49.809 89.425,49.8 89.127,49.792 88.844,49.805 88.544,49.792 88.253,49.75 88.114,49.683 87.859,49.514 87.71,49.399 87.374,49.1 87.1,48.803 86.975,48.653 86.866,48.5 86.739,48.373 86.601,48.309 86.151,48.297 85.988,48.286 85.829,48.239 85.689,48.193 85.544,48.125 84.948,47.785 84.796,47.717 84.332,47.479 83.929,47.245 83.787,47.147 83.635,47.02 83.559,46.885 83.52,46.743 83.487,46.6 83.434,46.296 83.382,46.152 83.301,46.009 83.185,45.86 82.916,45.63 82.476,45.327 82.31,45.234 82.247,45.366 82.168,45.495 82.07,45.616 81.904,45.709 81.741,45.761 81.607,45.732 81.467,45.674 81.333,45.573 81.239,45.422 "
           id="SA-01"
           inkscape:label="#polygon6057" />
        <polygon
           style="fill:#008000;stroke:#b2b2b2;stroke-width:0.10000000000000001"
           points="65.303,63.415 65.434,63.476 65.83,63.702 65.965,63.764 66.248,63.86 66.525,63.933 66.659,63.959 66.958,64.002 67.244,64.032 67.391,64.042 67.523,64.061 67.831,64.084 68.004,64.09 68.295,64.058 68.469,64.036 68.767,63.975 69.04,63.933 69.173,63.945 69.345,63.948 69.503,63.989 69.805,64.1 69.944,64.114 70.08,64.087 70.232,64.008 70.394,63.904 70.526,63.772 70.599,63.651 70.658,63.526 70.682,63.391 70.658,63.26 70.59,63.127 70.399,62.852 70.332,62.718 70.303,62.585 70.31,62.455 70.36,62.317 70.457,62.196 70.573,62.025 70.685,61.897 70.778,61.776 71.03,61.487 71.35,61.147 71.646,60.879 71.807,60.765 71.948,60.708 72.392,60.625 72.863,60.508 73.185,60.442 73.628,60.361 73.8,60.322 73.964,60.279 74.302,60.157 74.465,60.051 74.604,59.917 74.69,59.784 74.82,59.665 74.965,59.589 75.104,59.542 75.248,59.479 75.387,59.362 75.539,59.097 75.592,58.965 75.721,58.711 75.806,58.582 75.905,58.456 76.03,58.334 76.173,58.24 76.315,58.166 76.454,58.127 76.597,58.098 76.744,58.098 76.895,58.104 77.321,58.16 77.624,58.204 77.929,58.261 78.262,58.282 78.411,58.279 78.965,58.214 79.273,58.188 79.42,58.182 79.578,58.163 79.738,58.168 80.308,58.235 80.451,58.229 80.59,58.204 80.646,58.071 80.676,57.944 80.731,57.661 80.745,57.522 80.726,57.256 80.688,56.971 80.653,56.84 80.588,56.694 80.41,56.407 80.294,56.264 80.227,56.129 80.225,55.999 80.36,55.753 80.424,55.623 80.398,55.475 80.308,55.333 80.047,55.032 79.922,54.875 79.553,54.304 79.39,54.016 79.174,53.713 79.035,53.596 78.76,53.352 78.636,53.233 78.517,53.094 78.441,52.959 78.428,52.831 78.434,52.685 78.443,52.551 78.475,52.412 78.525,52.108 78.558,51.978 78.58,51.837 78.58,51.532 78.558,51.39 78.491,51.243 78.461,51.089 78.503,50.956 78.646,50.882 78.799,50.831 78.952,50.807 79.099,50.793 79.234,50.766 79.39,50.647 79.473,50.528 79.533,50.397 79.714,50.133 80.059,49.756 80.204,49.63 80.347,49.5 80.507,49.393 80.671,49.311 80.825,49.261 80.973,49.235 81.129,49.174 81.271,49.075 81.35,48.946 81.386,48.819 81.405,48.672 81.399,48.534 81.357,48.39 81.297,48.25 81.225,48.104 81.114,47.959 80.973,47.834 80.845,47.739 80.714,47.631 80.454,47.448 80.313,47.363 80.171,47.315 80.024,47.288 79.99,47.295 79.891,47.374 79.764,47.494 79.642,47.635 79.462,47.901 79.371,48.043 79.257,48.172 79.101,48.288 78.954,48.33 78.813,48.307 78.68,48.26 78.403,48.201 78.238,48.184 77.903,48.209 77.735,48.198 77.573,48.154 77.171,47.889 76.64,47.491 76.371,47.257 76.118,46.964 75.83,46.719 75.681,46.634 75.533,46.593 75.395,46.571 75.25,46.584 75.104,46.62 74.637,46.8 74.465,46.894 74.306,46.969 73.643,47.31 73.296,47.476 73.085,47.586 72.786,47.723 72.24,47.958 71.987,48.076 71.731,48.26 71.597,48.405 71.488,48.549 71.427,48.675 71.275,48.958 71.071,49.393 70.983,49.547 70.84,49.66 70.698,49.723 70.438,49.811 70.279,49.875 70.1,49.931 69.605,50.109 69.438,50.178 68.915,50.448 68.732,50.571 68.533,50.697 68.342,50.85 67.58,51.416 67.421,51.543 67.063,51.799 66.742,52.042 66.231,52.491 65.971,52.754 65.874,52.879 65.824,53.329 65.802,53.475 65.716,53.623 65.574,53.663 65.42,53.678 65.267,53.725 65.105,53.756 64.956,53.702 64.814,53.667 64.676,53.739 64.602,53.87 64.46,54.155 64.404,54.286 64.356,54.436 64.33,54.569 64.316,54.703 64.333,54.834 64.354,54.968 64.385,55.099 64.43,55.242 64.451,55.383 64.468,55.518 64.479,55.667 64.394,55.8 64.249,55.819 63.95,55.76 63.79,55.708 63.645,55.643 63.359,55.53 63.227,55.512 63.068,55.544 62.91,55.675 62.838,55.806 62.786,55.941 62.758,56.083 62.78,56.233 62.83,56.38 62.899,56.514 62.982,56.653 63.156,56.924 63.218,57.061 63.21,57.204 63.063,57.318 62.297,57.368 62.14,57.397 61.976,57.452 61.815,57.518 61.521,57.667 61.349,57.769 61.205,57.86 61.054,57.967 60.877,58.071 60.584,58.129 60.285,58.139 60.13,58.163 59.972,58.204 59.85,58.325 59.753,58.441 59.866,58.492 60.019,58.518 60.299,58.587 60.45,58.614 60.745,58.683 61.017,58.758 61.149,58.82 61.263,58.959 61.305,59.161 61.316,59.305 61.297,59.606 61.253,59.904 61.244,60.043 61.222,60.188 61.208,60.317 61.199,60.462 61.181,61.018 61.192,61.153 61.21,61.284 61.292,61.422 61.392,61.554 61.529,61.635 61.674,61.691 61.807,61.732 62.225,61.816 62.496,61.877 62.627,61.954 62.755,62.076 62.844,62.215 62.899,62.361 62.963,62.643 62.991,62.823 63.021,62.966 63.093,63.257 63.213,63.685 63.266,63.816 63.332,63.969 63.438,64.108 63.565,64.212 63.958,64.499 64.077,64.563 64.183,64.315 64.261,64.192 64.352,64.07 64.521,63.81 64.632,63.671 64.749,63.545 64.891,63.45 65.028,63.391 65.164,63.385 "
           id="SA-05"
           inkscape:label="#polygon6059" />
        <polygon
           style="fill:#00ff00;stroke:#b2b2b2;stroke-width:0.10000000000000001"
           points="62.048,91.046 61.898,91.052 61.591,91.015 61.435,91.003 61.286,91.011 60.991,91.099 60.581,91.306 60.443,91.332 60.311,91.289 60.186,91.201 60.094,91.067 60.019,90.928 59.972,90.799 59.944,90.664 59.858,90.386 59.767,90.246 59.636,90.121 59.506,90.048 59.375,90.01 59.246,90.005 59.104,90.028 58.962,90.068 58.826,90.181 58.715,90.325 58.651,90.447 58.602,90.582 58.586,90.706 58.627,90.994 58.658,91.136 58.705,91.268 58.791,91.527 58.797,91.675 58.785,91.825 58.768,91.955 58.69,92.107 58.61,92.244 58.427,92.515 58.275,92.793 58.183,93.044 58.137,93.187 58.105,93.314 58.025,93.437 57.884,93.505 57.734,93.54 57.31,93.616 57.039,93.635 56.902,93.656 56.756,93.703 56.612,93.775 56.362,94.023 56.256,94.144 55.991,94.392 55.88,94.517 55.868,94.643 55.909,94.773 56.035,94.902 56.165,94.951 56.569,95.039 56.703,95.099 56.816,95.234 56.877,95.376 56.914,95.519 56.914,95.659 56.892,95.941 56.842,96.201 56.822,96.337 56.828,96.477 56.863,96.623 56.977,96.908 56.988,97.045 56.964,97.324 56.944,97.45 56.937,97.72 56.941,97.851 57.03,98.007 57.178,98.13 57.32,98.192 57.585,98.33 57.71,98.402 57.851,98.519 57.967,98.664 58.125,98.941 58.228,99.074 58.37,99.196 58.519,99.267 58.713,99.293 58.849,99.29 58.99,99.267 59.124,99.226 59.254,99.177 59.395,99.068 59.465,98.931 59.503,98.806 59.525,98.678 59.542,98.533 59.562,98.402 59.595,98.244 59.639,98.084 59.772,97.707 59.822,97.583 59.866,97.433 59.972,97.179 60.049,97.015 60.208,96.751 60.305,96.623 60.445,96.533 60.584,96.514 60.736,96.527 60.883,96.521 61.161,96.536 61.292,96.529 61.427,96.508 61.566,96.442 61.571,96.416 61.629,96.311 61.674,96.185 61.736,96.046 61.782,95.913 61.846,95.785 61.915,95.659 61.979,95.511 62.294,94.968 62.351,94.837 62.34,94.693 62.292,94.339 62.309,94.195 62.354,94.07 62.465,93.868 62.613,93.75 62.769,93.662 62.916,93.56 63.063,93.469 63.225,93.353 63.371,93.263 63.526,93.152 63.665,93.018 63.717,92.886 63.73,92.742 63.697,92.599 63.582,92.459 63.451,92.361 63.323,92.244 63.279,92.101 63.29,91.96 63.32,91.835 63.531,91.318 63.604,91.164 63.674,90.939 63.565,90.794 63.435,90.683 63.31,90.589 63.177,90.541 63.037,90.548 62.905,90.589 62.771,90.657 62.597,90.75 62.314,90.949 "
           id="SA-11"
           inkscape:label="#polygon6061" />
      </g>
    </g>
  </g>
</svg>
