<?xml version="1.0" encoding="UTF-8" standalone="no"?>
<!-- Generator: Adobe Illustrator 15.0.2, SVG Export Plug-In . SVG Version: 6.00 Build 0)  -->

<svg
   xmlns:dc="http://purl.org/dc/elements/1.1/"
   xmlns:cc="http://creativecommons.org/ns#"
   xmlns:rdf="http://www.w3.org/1999/02/22-rdf-syntax-ns#"
   xmlns:svg="http://www.w3.org/2000/svg"
   xmlns="http://www.w3.org/2000/svg"
   xmlns:sodipodi="http://sodipodi.sourceforge.net/DTD/sodipodi-0.dtd"
   xmlns:inkscape="http://www.inkscape.org/namespaces/inkscape"
   version="1.1"
   id="Layer_1"
   x="0px"
   y="0px"
   width="520.5px"
   height="461px"
   viewBox="271.5 73.5 520.5 461"
   enable-background="new 271.5 73.5 520.5 461"
   xml:space="preserve"
   inkscape:version="0.48.4 r9939"
   sodipodi:docname="seating.svg"><metadata
   id="metadata4697"><rdf:RDF><cc:Work
       rdf:about=""><dc:format>image/svg+xml</dc:format><dc:type
         rdf:resource="http://purl.org/dc/dcmitype/StillImage" /><dc:title /></cc:Work></rdf:RDF></metadata><defs
   id="defs4695" /><sodipodi:namedview
   pagecolor="#ffffff"
   bordercolor="#666666"
   borderopacity="1"
   objecttolerance="10"
   gridtolerance="10"
   guidetolerance="10"
   inkscape:pageopacity="0"
   inkscape:pageshadow="2"
   inkscape:window-width="1920"
   inkscape:window-height="1018"
   id="namedview4693"
   showgrid="false"
   inkscape:zoom="1.8199566"
   inkscape:cx="260.25"
   inkscape:cy="230.5"
   inkscape:window-x="-8"
   inkscape:window-y="502"
   inkscape:window-maximized="1"
   inkscape:current-layer="Layer_1" />
	<g
   id="g3843">
		<path
   fill="#FFFFFF"
   d="M454.249,258.541c-16.041,0-29.09,13.051-29.09,29.091v30.509c0,16.039,13.049,29.094,29.09,29.094h153.52   c16.041,0,29.087-13.055,29.087-29.094v-30.509c0-16.041-13.046-29.091-29.087-29.091H454.249z"
   id="path3845" />
		<path
   fill="#FFFFFF"
   stroke="#231F20"
   d="M626.225,296.266c-3.334,0-6.034,2.703-6.034,6.04c0,3.331,2.7,6.035,6.034,6.035   M621.855,306.413h4.325v-8.22h-4.325V306.413z M626.225,264.516v75.366 M626.533,264.883v74.745 M435.184,296.266   c3.333,0,6.033,2.703,6.033,6.04c0,3.331-2.7,6.035-6.033,6.035 M439.616,306.413h-4.393v-8.22h4.393V306.413z M531.839,313.825   h-1.725v-9.609h1.725V313.825z M531.839,300.276h-1.725v-9.613h1.725V300.276z M531.839,284.749h-1.725v-26.363h1.725V284.749z   M531.839,345.984h-1.725v-26.37h1.725V345.984z M609.189,325.37c0,1.094-0.892,1.989-1.992,1.989s-1.994-0.896-1.994-1.989   c0-1.104,0.895-1.995,1.994-1.995C608.299,323.375,609.189,324.268,609.189,325.37z M591.725,325.37   c0,8.528,6.939,15.473,15.474,15.473c8.532,0,15.475-6.943,15.475-15.473c0-8.535-6.942-15.479-15.475-15.479   C598.664,309.892,591.725,316.835,591.725,325.37z M609.189,279.695c0,1.1-0.892,1.995-1.992,1.995s-1.994-0.895-1.994-1.995   c0-1.097,0.895-1.989,1.994-1.989C608.299,277.706,609.189,278.599,609.189,279.695z M591.725,279.695   c0,8.535,6.939,15.479,15.474,15.479c8.532,0,15.475-6.944,15.475-15.479c0-8.53-6.942-15.474-15.475-15.474   C598.664,264.222,591.725,271.165,591.725,279.695z M456.414,325.37c0,1.094-0.89,1.989-1.987,1.989   c-1.108,0-1.997-0.896-1.997-1.989c0-1.104,0.889-1.995,1.997-1.995C455.524,323.375,456.414,324.268,456.414,325.37z   M438.946,325.37c0,8.528,6.94,15.473,15.479,15.473c8.533,0,15.475-6.943,15.475-15.473c0-8.535-6.94-15.479-15.475-15.479   C445.888,309.892,438.946,316.835,438.946,325.37z M456.414,279.695c0,1.1-0.89,1.995-1.987,1.995   c-1.108,0-1.997-0.895-1.997-1.995c0-1.097,0.889-1.989,1.997-1.989C455.524,277.706,456.414,278.599,456.414,279.695z   M438.946,279.695c0,8.535,6.94,15.479,15.479,15.479c8.533,0,15.475-6.944,15.475-15.479c0-8.53-6.94-15.474-15.475-15.474   C445.888,264.222,438.946,271.165,438.946,279.695z M532.966,302.204c0,1.102-0.889,1.99-1.987,1.99   c-1.104,0-1.992-0.888-1.992-1.99c0-1.1,0.889-1.994,1.992-1.994C532.077,300.21,532.966,301.104,532.966,302.204z   M515.503,302.204c0,8.534,6.938,15.477,15.475,15.477c8.53,0,15.473-6.941,15.473-15.477c0-8.53-6.941-15.474-15.473-15.474   C522.441,286.73,515.503,293.674,515.503,302.204z M499.269,257.5v89.405 M435.182,264.989v74.402 M434.875,265.293v73.841   M498.452,257.5v89.405 M563.008,257.5v89.405 M562.188,257.5v89.405 M530.979,257.5v89.405 M636.852,317.564   c0,15.783-12.801,28.58-28.583,28.58H453.685c-15.785,0-28.587-12.797-28.587-28.58v-30.719c0-15.785,12.802-28.585,28.587-28.585   h154.584c15.782,0,28.583,12.8,28.583,28.585V317.564z M453.685,257.553c-16.152,0-29.294,13.14-29.294,29.292v30.719   c0,16.151,13.142,29.293,29.294,29.293h154.584c16.15,0,29.284-13.142,29.284-29.293v-30.719c0-16.153-13.134-29.292-29.284-29.292   H453.685z"
   id="path3847" />
		<g
   id="g3849">
			<g
   id="g3851">
				<path
   fill="#FFFFFF"
   d="M549.462,288.91c0-1.434-0.515-2.688-1.485-3.625c-1.253-1.2-3.214-1.843-5.399-1.759h-1.465     c0,0,2.073,2.081,2.073,2.84c0,0.17-0.141,0.305-0.307,0.305h-5.288c-0.168,0-0.31-0.134-0.31-0.305     c0-0.759,2.074-2.84,2.074-2.84c-3.156,0-5.616,0.935-6.904,1.875c-0.571-0.056-1.145-0.084-1.71-0.084     c-9.308,0-16.878,7.571-16.878,16.875c0,1.812,0.289,3.594,0.852,5.297c-0.667,0.742-3.322,3.994-3.322,8.604     c0,2.964,1.13,5.315,1.697,6.304c1.092-1.339,4.197-4.377,9.816-4.377c0.326,0,0.605-0.224,0.677-0.541     c2.22,1.045,4.661,1.597,7.158,1.597c4.513,0,8.753-1.757,11.938-4.944c3.187-3.188,4.938-7.429,4.938-11.938     c0-2.915-0.744-5.752-2.162-8.269c0.869-0.254,1.831-0.703,2.605-1.472C548.991,291.519,549.462,290.332,549.462,288.91z     M544.362,293.458c1.622,2.521,2.562,5.518,2.562,8.731c0,8.94-7.246,16.185-16.184,16.185c-4.142,0-7.914-1.553-10.779-4.117     c-0.087,0.155-0.116,0.299-0.116,0.358c0,1.485,3.062,2.707,3.062,2.707c-6.456,0-9.656,3.861-9.656,3.861     s-1.16-2.354-1.16-5.095c0-4.467,2.857-7.788,2.857-7.788s0.018,2.515,1.141,2.515c0.358,0,0.568-0.077,0.822-0.228     c-1.49-2.443-2.351-5.321-2.351-8.399c0-8.935,7.243-16.181,16.182-16.181c0.648,0,1.285,0.039,1.911,0.121     c1.068-0.868,2.717-1.551,5.161-1.813c-0.41,0.325-1.522,1.272-1.522,2.103c0,0.143,0.039,0.351,0.222,0.534     c0.271,0.273,0.763,0.415,1.416,0.415h4.575c1.015,0,1.381-0.522,1.381-1.002c0-0.933-1.278-2.151-1.278-2.151     c3.093-0.112,6.161,1.351,6.161,4.695c0,1.231-0.399,2.251-1.192,3.048C546.617,292.905,545.302,293.297,544.362,293.458z"
   id="path3853" />
				<path
   fill="#FFFFFF"
   d="M526.049,292.562c0.864,0,2.15,0.329,3.392,1.902l3.495,4.428l2.015-5.316     c-0.142,0-1.956-0.028-3.142-1.209c-0.652-0.651-0.981-1.506-0.981-2.547c0-0.653,0.136-1.385,0.499-2.093     c-0.194-0.007-0.387-0.013-0.584-0.013c-7.994,0-14.479,6.479-14.479,14.476c0,2.11,0.455,4.107,1.259,5.917l4.489-11.848     C522.935,293.806,524.298,292.562,526.049,292.562z"
   id="path3855" />
				<path
   fill="#FFFFFF"
   d="M525.851,309.568c1.397,0,1.938-0.513,1.976-0.557l1.546-1.613l-1.688-3.066l-1.78,4.707     c0,0-1.695-0.501-3.872-0.501c-1.659,0-3.062,0.344-3.972,0.649c0.12,0.217,0.249,0.427,0.381,0.641     c0.752-0.26,1.84-0.463,3.591-0.463C523.695,309.365,525.01,309.568,525.851,309.568z"
   id="path3857" />
				<path
   fill="#FFFFFF"
   d="M537.688,309.4c-1.057,2.799-3.947,5.789-8.882,5.789c-1.892,0-3.153-0.494-4.271-0.934     c-0.912-0.356-1.712-0.665-2.774-0.717c2.471,1.959,5.589,3.137,8.982,3.137c7.998,0,14.484-6.486,14.484-14.487     c0-2.692-0.738-5.21-2.021-7.367C541.769,298.618,537.688,309.4,537.688,309.4z"
   id="path3859" />
			</g>
			<path
   fill="#EE302C"
   d="M543.979,284.934c0,0,0.6,0.561,0.6,1.432c0,0.863-0.677,1.697-2.073,1.697c-1.398,0-4.575,0-4.575,0    c-1.769,0-2.333-0.91-2.333-1.643c0-0.731,0.413-1.126,0.413-1.126s-4.49,0.875-4.49,4.527c0,3.072,3.433,3.061,3.433,3.061h1.005    l-2.804,7.407l-4.257-5.387c-0.268-0.343-1.285-1.643-2.847-1.643c-2.142,0-3.069,2.404-3.388,3.244l-4.524,11.958    c0,0,1.675-0.617,3.895-0.617c1.864,0,3.438,0.382,3.438,0.382l2.097-5.542l2.662,4.828l-1.886,1.978c0,0-0.68,0.776-2.489,0.776    c-1.039,0-2.229-0.198-3.82-0.198c-4.654,0-4.204,1.444-5.942,1.444c-1.229,0-1.555-1.495-1.555-1.495s-1.748,2.91-1.748,6.076    c0,2.054,0.717,3.862,0.717,3.862s3.628-3.084,7.28-3.084c0,0-1.632-0.778-1.632-2.26c0-0.418,0.557-1.767,2.354-1.767    c2.781,0,3.938,1.652,7.301,1.652c4.704,0,7.318-2.913,8.235-5.343l6.159-16.272c0,0,4.871,0.011,4.871-3.97    C548.071,285.261,543.979,284.934,543.979,284.934z"
   id="path3861" />
			<g
   id="g3863">
				<path
   fill="#231F20"
   d="M548.768,288.91c0-3.345-3.068-4.807-6.16-4.695c0,0,1.277,1.218,1.277,2.151     c0,0.48-0.366,1.002-1.381,1.002h-4.575c-0.653,0-1.146-0.142-1.416-0.415c-0.183-0.183-0.222-0.391-0.222-0.534     c0-0.83,1.112-1.777,1.523-2.103c-2.445,0.262-4.094,0.944-5.162,1.813c-0.626-0.082-1.263-0.121-1.911-0.121     c-8.938,0-16.181,7.246-16.181,16.181c0,3.079,0.858,5.956,2.35,8.399c-0.254,0.149-0.464,0.228-0.822,0.228     c-1.123,0-1.141-2.515-1.141-2.515s-2.857,3.321-2.857,7.788c0,2.74,1.16,5.095,1.16,5.095s3.2-3.861,9.656-3.861     c0,0-3.062-1.222-3.062-2.707c0-0.061,0.029-0.203,0.116-0.358c2.865,2.564,6.639,4.117,10.779,4.117     c8.938,0,16.184-7.244,16.184-16.185c0-3.213-0.939-6.21-2.562-8.731c0.938-0.161,2.255-0.553,3.212-1.5     C548.367,291.161,548.768,290.141,548.768,288.91z M516.263,302.189c0-7.996,6.484-14.476,14.479-14.476     c0.197,0,0.39,0.006,0.584,0.013c-0.363,0.708-0.499,1.44-0.499,2.093c0,1.041,0.329,1.896,0.981,2.547     c1.186,1.182,3,1.209,3.142,1.209l-2.015,5.316l-3.495-4.428c-1.24-1.573-2.526-1.902-3.392-1.902     c-1.751,0-3.114,1.244-4.038,3.696l-4.489,11.847C516.718,306.297,516.263,304.299,516.263,302.189z M545.226,302.189     c0,8-6.485,14.487-14.483,14.487c-3.395,0-6.514-1.178-8.982-3.137c1.063,0.052,1.862,0.359,2.774,0.717     c1.118,0.438,2.381,0.934,4.271,0.934c4.935,0,7.825-2.99,8.881-5.789c0,0,4.082-10.782,5.519-14.578     C544.487,296.979,545.226,299.498,545.226,302.189z M543.2,292.88l-6.159,16.272c-0.917,2.43-3.531,5.343-8.235,5.343     c-3.363,0-4.52-1.652-7.301-1.652c-1.798,0-2.354,1.349-2.354,1.767c0,1.48,1.632,2.26,1.632,2.26     c-3.652,0-7.28,3.084-7.28,3.084s-0.717-1.81-0.717-3.862c0-3.166,1.748-6.076,1.748-6.076s0.324,1.495,1.555,1.495     c1.738,0,1.288-1.444,5.942-1.444c1.591,0,2.781,0.198,3.819,0.198c1.812,0,2.49-0.776,2.49-0.776l1.886-1.978l-2.662-4.828     l-2.097,5.542c0,0-1.573-0.382-3.438-0.382c-2.22,0-3.895,0.617-3.895,0.617l4.524-11.958c0.316-0.84,1.246-3.244,3.388-3.244     c1.562,0,2.579,1.3,2.846,1.643l4.258,5.387l2.804-7.407h-1.005c0,0-3.433,0.011-3.433-3.061c0-3.652,4.49-4.527,4.49-4.527     s-0.413,0.396-0.413,1.126c0,0.733,0.564,1.643,2.333,1.643c0,0,3.176,0,4.575,0c1.396,0,2.073-0.833,2.073-1.697     c0-0.871-0.601-1.432-0.601-1.432s4.095,0.327,4.095,3.976C548.071,292.891,543.2,292.88,543.2,292.88z M518.06,309.188     c0.91-0.307,2.312-0.649,3.972-0.649c2.177,0,3.872,0.501,3.872,0.501l1.78-4.707l1.688,3.066l-1.546,1.613     c-0.037,0.044-0.577,0.557-1.976,0.557c-0.841,0-2.154-0.203-3.819-0.203c-1.751,0-2.839,0.203-3.591,0.463     C518.309,309.614,518.18,309.404,518.06,309.188z"
   id="path3865" />
			</g>
		</g>
		<text
   transform="matrix(0 1 -1 0 564.0195 269.5083)"
   fill="#E03A3E"
   font-family="'ArialMT'"
   font-size="6.3612"
   id="text3867">
			DEVILS ATTACK TWICE
		</text>


		<text
   transform="matrix(1 0.0017 -0.0017 1 494.6201 255.8027)"
   fill="#E03A3E"
   font-family="'ArialMT'"
   font-size="3.9425"
   id="text3869">
			DEVILS BENCH
		</text>


		<text
   transform="matrix(1 0.0017 -0.0017 1 537.332 256.0303)"
   fill="#010101"
   font-family="'ArialMT'"
   font-size="3.9425"
   id="text3871">
			VISITORS BENCH
		</text>


	</g>
	<polygon
   fill="#F2EA36"
   points="657.777,304.59 672.667,304.622 666.959,333.8 653.419,329.989 "
   id="polygon3873" />
	<path
   fill="#B11F24"
   d="M432.24,186.899c0,0,16.336-4.008,28.731-2.703l0.496,20.675l-16.281,3.18l-7.213-0.523L432.24,186.899z"
   id="path3875" />
	<path
   fill="#E81D25"
   d="M437.672,206.544c0,0,7.497-1.559,11.303-2.014c3.806-0.455,12.494-0.568,12.494-0.568l1.591,48.051  l-14.597,1.476"
   id="path3877" />
	<path
   fill="#F2EA36"
   d="M429.436,232.919c0,0,5.907-3.209,10.451-4.193l2.954,10.677l-8.71,3.635L429.436,232.919z"
   id="path3879" />
	<path
   fill="#E81D25"
   d="M434.062,242.889c0,0,2.15-1.252,4.082-1.99c1.933-0.738,4.696-1.497,4.696-1.497l3.635,13.405l-7.156,2.083  L434.062,242.889z"
   id="path3881" />
	<polygon
   fill="#E0BC24"
   points="447.46,256.669 440.909,259.055 439.318,254.891 446.467,252.579 "
   id="polygon3883" />
	<path
   fill="#F2EA36"
   d="M448.52,256.214"
   id="path3885" />
	<polygon
   fill="#D7D6D4"
   points="509.859,184.197 551.691,184.197 551.89,198.283 509.633,198.51 "
   id="polygon3887" />
	<polygon
   fill="#010101"
   points="465.479,252.126 490.182,252.126 490.404,240.084 495.077,240.084 495.077,247.582 506.872,247.582  506.872,197.829 465.479,198.056 "
   id="polygon3889" />
	<polygon
   fill="#010101"
   points="509.633,198.51 551.89,198.283 551.89,247.127 509.859,247.127 "
   id="polygon3891" />
	<polygon
   fill="#010101"
   points="554.766,198.737 597.1,198.737 596.874,252.808 574.029,252.808 573.805,240.994 567.756,240.994  567.309,247.582 554.766,247.582 "
   id="polygon3893" />
	<path
   fill="#B11F24"
   d="M602.097,184.134c15.79-2.083,29.156,0.871,29.156,0.871l-6.209,22.592c0,0-2.879-1.211-13.103-2.574  c-10.382-1.384-10.754-0.833-10.754-0.833L602.097,184.134z"
   id="path3895" />
	<path
   fill="#E81D25"
   d="M601.188,203.516c0,0,10.526-0.222,24.025,3.514l-10.629,45.217h-15.291L601.188,203.516z"
   id="path3897" />
	<path
   fill="#E81D25"
   d="M599.674,353.07l15.448-0.604l9.693,46.193c0,0,0.302,1.812-11.813,1.666  c-12.571-0.151-12.723,0.302-12.723,0.302L599.674,353.07z"
   id="path3899" />
	<path
   fill="#E81D25"
   d="M447.308,352.769h15.752l-1.211,48.089c0,0-2.254,0.668-11.624,0c-12.723-0.909-12.838-1.92-12.838-1.92  L447.308,352.769z"
   id="path3901" />
	<path
   fill="#8E191C"
   d="M437.456,398.623c0,0,11.973,2.99,24.393,1.854v21.582c0,0-0.909,0.683-11.208,0.381  c-10.3-0.305-16.857-1.972-16.857-1.972L437.456,398.623z"
   id="path3903" />
	<path
   fill="#B11F24"
   d="M600.279,400.326c0,0,8.179,0.18,15.447-0.606c6.688-0.723,9.045-1.481,9.045-1.481l5.04,22.8  c-10.107,3.065-29.654,1.704-29.654,1.704L600.279,400.326z"
   id="path3905" />
	<polygon
   fill="#D7D6D4"
   points="466.061,408.58 506.085,408.808 506.254,422.741 465.634,422.211 "
   id="polygon3907" />
	<polygon
   fill="#D7D6D4"
   points="509.021,408.58 551.814,408.506 551.695,422.741 509.271,422.741 "
   id="polygon3909" />
	<polygon
   fill="#D7D6D4"
   points="555.362,408.352 596.268,408.352 596.342,422.439 554.918,421.983 "
   id="polygon3911" />
	<polygon
   fill="#010101"
   points="466.061,352.769 505.234,352.769 506.085,408.808 466.061,408.58 "
   id="polygon3913" />
	<polygon
   fill="#010101"
   points="508.8,357.615 551.814,357.615 551.814,408.506 509.021,408.58 "
   id="polygon3915" />
	<polygon
   fill="#010101"
   points="555.141,352.769 596.046,352.467 596.268,408.352 555.362,408.352 "
   id="polygon3917" />
	<path
   fill="#E92525"
   d="M463.06,255.533"
   id="path3919" />
	<polygon
   fill="#E0BC24"
   points="447.308,352.769 463.06,352.769 463.06,348.83 447.914,348.83 "
   id="polygon3921" />
	<rect
   x="466.061"
   y="348.83"
   fill="#E0BC24"
   width="39.175"
   height="3.938"
   id="rect3923" />
	<rect
   x="508.8"
   y="353.98"
   fill="#E0BC24"
   width="43.016"
   height="3.635"
   id="rect3925" />
	<rect
   x="555.141"
   y="349.134"
   fill="#E0BC24"
   width="40.905"
   height="3.635"
   id="rect3927" />
	<polygon
   fill="#E0BC24"
   points="599.674,349.134 599.674,353.07 615.275,353.142 614.655,349.134 "
   id="polygon3929" />
	<polygon
   fill="#E0BC24"
   points="599.294,252.247 614.585,252.247 613.684,256.214 598.916,256.214 "
   id="polygon3931" />
	<polygon
   fill="#E0BC24"
   points="574.029,252.808 596.874,252.808 597.1,256.214 573.58,256.214 "
   id="polygon3933" />
	<polygon
   fill="#E0BC24"
   points="567.309,247.582 554.766,247.582 554.766,251.444 566.86,251.444 "
   id="polygon3935" />
	<polygon
   fill="#E0BC24"
   points="551.89,247.127 509.859,247.127 510.087,251.217 551.89,251.444 "
   id="polygon3937" />
	<polygon
   fill="#E0BC24"
   points="494.902,247.582 506.868,247.582 506.851,251.004 494.88,251.161 "
   id="polygon3939" />
	<polygon
   fill="#E0BC24"
   points="465.479,252.126 490.338,252.126 490.338,256.442 465.256,256.669 "
   id="polygon3941" />
	<polygon
   fill="#E0BC24"
   points="463.059,256.518 449.225,256.593 448.162,252.229 463.06,252.013 "
   id="polygon3943" />
	<polygon
   fill="#2F73BA"
   points="339.675,318.654 299.708,319.409 299.708,287.402 338.872,287.558 "
   id="polygon3945" />
	<rect
   x="456.392"
   y="128.501"
   fill="#72C9F1"
   width="33.821"
   height="26.744"
   id="rect3947" />
	<rect
   x="571.048"
   y="128.804"
   fill="#72C9F1"
   width="33.096"
   height="26.441"
   id="rect3949" />
	<rect
   x="492.625"
   y="128.501"
   fill="#51B848"
   width="36.073"
   height="26.744"
   id="rect3951" />
	<rect
   x="531.838"
   y="128.501"
   fill="#51B848"
   width="35.709"
   height="26.744"
   id="rect3953" />
	<rect
   x="461.031"
   y="449.598"
   transform="matrix(-1 -0.0099 0.0099 -1 949.0481 928.599)"
   fill="#72C9F1"
   width="31.581"
   height="24.707"
   id="rect3955" />
	<rect
   x="567.268"
   y="450.666"
   transform="matrix(-1 -0.0099 0.0099 -1 1161.5049 931.7861)"
   fill="#72C9F1"
   width="31.58"
   height="24.706"
   id="rect3957" />
	<rect
   x="494.831"
   y="449.951"
   transform="matrix(-1 -0.0099 0.0099 -1 1019.0481 929.6595)"
   fill="#51B848"
   width="33.993"
   height="24.707"
   id="rect3959" />
	<rect
   x="531.04"
   y="450.327"
   transform="matrix(-1 -0.0099 0.0099 -1 1091.4763 930.7513)"
   fill="#51B848"
   width="33.996"
   height="24.705"
   id="rect3961" />
	<polygon
   fill="#3554A5"
   points="767.446,336.662 726.59,332.536 728.832,304.988 770.212,304.988 "
   id="polygon3963" />
	<rect
   x="468.247"
   y="97.351"
   fill="#09783D"
   width="34.438"
   height="28.261"
   id="rect3965" />
	<rect
   x="556.097"
   y="97.252"
   fill="#09783D"
   width="33.042"
   height="28.261"
   id="rect3967" />
	<rect
   x="506.169"
   y="97.252"
   fill="#09783D"
   width="46.374"
   height="28.261"
   id="rect3969" />
	<polygon
   fill="#09783D"
   points="503.314,507.963 469.472,508.123 469.307,478.856 503.178,479.166 "
   id="polygon3971" />
	<rect
   x="555.794"
   y="478.616"
   transform="matrix(-1 -0.0014 0.0014 -1 1143.0608 987.0691)"
   fill="#09783D"
   width="32.177"
   height="29.022"
   id="rect3973" />
	<rect
   x="507.001"
   y="478.794"
   fill="#09783D"
   width="45.269"
   height="28.688"
   id="rect3975" />
	<path
   fill="#2F73BA"
   d="M374.484,206.909c6.262-6.136,13.69-11.966,22.529-17.169l-20.927-36.521c0,0-14.818,6.98-31.437,24.136  L374.484,206.909z"
   id="path3977" />
	<path
   fill="#2F73BA"
   d="M357.02,229.209c4.008-6.763,9.018-13.583,15.309-20.104l-29.798-29.518  c-7.059,7.598-14.339,17.03-20.869,28.535L357.02,229.209z"
   id="path3979" />
	<path
   fill="#E0BC24"
   d="M424.15,279.012c2.378-8.167,5.382-12.62,6.838-14.164l-3.24-3.025c-5.59,5.532-7.794,10.454-9.158,15.329  L424.15,279.012z"
   id="path3981" />
	<path
   fill="#B76828"
   d="M658.294,375.027c-15.047,16.247-30.547,21.525-30.547,21.525l6.077,24.086  c17.919-3.763,33.363-11.792,45.975-22.969L658.294,375.027z"
   id="path3983" />
	<path
   fill="#F2EA36"
   d="M650.715,332.766c-2.938,7.707-6.588,13.759-10.312,18.472l11.539,12.151  c5.964-7.201,10.923-16.03,14.342-26.145L650.715,332.766z"
   id="path3985" />
	<path
   fill="#F2EA36"
   d="M638.201,353.87c-8.764,9.871-17.255,12.719-17.255,12.719l3.748,15.94  c9.06-2.83,17.684-8.535,25.001-16.555L638.201,353.87z"
   id="path3987" />
	<path
   fill="#B76828"
   d="M433.821,207.731l-5.482-20.467c-15.173,2.504-31.951,10.226-46.256,24.096l18.32,18.416  C416.219,213.721,433.821,207.731,433.821,207.731z"
   id="path3989" />
	<path
   fill="#F1872E"
   d="M414.107,243.543c12.517-11.72,25.778-14.817,25.778-14.817l-6.12-21.197  c-20.534,6.321-24.069,10.116-35.139,20.455L414.107,243.543z"
   id="path3991" />
	<path
   fill="#F2EA36"
   d="M409.631,274.155c4.576-13.478,12.039-18.892,12.233-18.697l-0.809-0.912l-9.473-9.522  c-11.014,2.551-15.829,5.546-18.035,23.612L409.631,274.155z"
   id="path3993" />
	<path
   fill="#323A3D"
   d="M377.957,303.029c-0.059-0.81-0.119-1.616-0.168-2.437c-0.748-12.888-0.642-24.29,1.614-33.84l-25.265-8.303  c-3.69,12.127-5.972,25.929-6.339,41.536c-0.023,1.021-0.035,2.04-0.039,3.057L377.957,303.029z"
   id="path3995" />
	<path
   fill="#F2EA36"
   d="M406.321,303.016c-0.661-10.754,0.522-19.423,2.496-26.259l-15.552-5.344  c-0.774,7.745-1.202,18.072-1.428,31.61L406.321,303.016z"
   id="path3997" />
	<path
   fill="#F2EA36"
   d="M411.413,330.171c-2.318-6.869-4.077-14.946-4.889-24.429l-14.713,0.006  c0.02,10.38,1.509,20.064,4.138,28.85L411.413,330.171z"
   id="path3999" />
	<path
   fill="#F2EA36"
   d="M422.839,351.705c-3.804-4.813-7.531-11.02-10.507-18.962l-15.563,4.455  c3.426,10.322,8.448,19.323,14.509,26.646L422.839,351.705z"
   id="path4001" />
	<path
   fill="#E81D25"
   d="M419.662,277.511c3.516-11.515,8.086-15.688,8.086-15.688l-6.936-7.521  c-5.147,5.107-8.1,11.166-11.571,19.722L419.662,277.511z"
   id="path4003" />
	<path
   fill="#E0BC24"
   d="M420.796,303.009c0.197-8.728,1.255-15.782,2.645-21.359l-5.499-1.84c-0.152,0.712-0.294,1.43-0.43,2.158  c-0.569,3.083-4.209,11.597-4.279,20.669c-0.002,0.125,0.001,0.251,0.001,0.375L420.796,303.009z"
   id="path4005" />
	<path
   fill="#E81D25"
   d="M415.994,303.011c0.225-9.524,1.396-17.033,2.925-22.874l-10.649-3.563  c-2.472,6.947-4.139,15.513-4.034,26.442L415.994,303.011z"
   id="path4007" />
	<path
   fill="#323A3D"
   d="M384.783,337.795c-3.155-9.249-5.51-19.865-6.603-32.041l-30.408,0.014  c0.19,14.323,2.349,28.087,6.317,40.814L384.783,337.795z"
   id="path4009" />
	<path
   fill="#B76828"
   d="M392.4,303.023c-0.358-11.985,1.147-22.103,3.824-30.626l-21.072-7.005  c-3.693,10.827-6.071,23.339-6.629,37.641L392.4,303.023z"
   id="path4011" />
	<path
   fill="#E0BC24"
   d="M417.89,328.316l6.412-1.836c-2.124-5.543-3.514-12.367-3.533-20.747l-7.464,0.004  c0.516,9.686,3.553,19.271,4.508,22.343C417.837,328.158,417.863,328.238,417.89,328.316z"
   id="path4013" />
	<path
   fill="#E81D25"
   d="M408.75,330.933l11.19-3.204c-2.136-5.96-3.999-13.095-3.981-21.992l-11.667,0.006  c0.002,0.026,0.002,0.049,0.003,0.075C404.649,315.613,406.311,323.912,408.75,330.933z"
   id="path4015" />
	<path
   fill="#E0BC24"
   d="M433.341,340.678c-2.872-2.898-5.721-6.703-7.979-11.664l-6.476,1.854  c2.275,5.104,6.498,11.227,9.715,14.788L433.341,340.678z"
   id="path4017" />
	<path
   fill="#B76828"
   d="M405.983,374.347l-21.039,22.094c12.223,11.118,27.223,19.105,44.641,22.838l5.565-23.797  C435.152,395.48,420.511,390.332,405.983,374.347z"
   id="path4019" />
	<path
   fill="#323A3D"
   d="M382.465,394.103l21.264-22.329c-6.684-7.907-13.18-18.186-18.034-31.402l-30.767,8.809  C360.774,366.639,370.091,382.038,382.465,394.103z"
   id="path4021" />
	<path
   fill="#B76828"
   d="M397.345,334.198c-2.443-7.83-4.174-16.998-4.799-27.738c-0.013-0.24-0.022-0.474-0.034-0.712l-24.072,0.011  c-0.291,12.997,1.156,24.877,4.27,35.493L397.345,334.198z"
   id="path4023" />
	<path
   fill="#B76828"
   d="M396.748,379.104l16.085-16.892c-5.518-6.091-10.812-14.323-14.641-25.422l-24.673,7.063  C378.176,358.147,385.981,370.021,396.748,379.104z"
   id="path4025" />
	<path
   fill="#E81D25"
   d="M430.19,343.986c-3.456-3.383-6.809-7.627-9.36-13.677l-11.138,3.188c3.23,8.25,7.552,14.593,11.983,19.427  L430.19,343.986z"
   id="path4027" />
	<path
   fill="#E0BC24"
   d="M446.042,348.83c-1.459-0.506-5.64-2.01-10.194-5.843l-4.747,4.983c3.363,2.217,11.372,4.777,13.951,5.571  L446.042,348.83z"
   id="path4029" />
	<path
   fill="#F2EA36"
   d="M440.078,376.376l2.044-9.387c-1.151-0.425-8.995-3.548-17.081-12.654l-11.514,12.091  c7.316,8.021,15.938,13.729,24.997,16.56L440.078,376.376z"
   id="path4031" />
	<path
   fill="#E81D25"
   d="M445.214,352.769c-1.972-0.567-6.948-2.028-12.442-6.551l-8.718,9.154  c8.55,8.285,16.874,11.229,18.067,11.623L445.214,352.769z"
   id="path4033" />
	<path
   fill="#E0BC24"
   d="M627.007,342.082c-5.449,5.145-10.384,6.643-10.384,6.643l0.72,4.619c0,0,10.804-3.181,14.809-5.845  L627.007,342.082z"
   id="path4035" />
	<path
   fill="#E81D25"
   d="M630.445,345.703c-6.892,5.954-13.098,7.634-13.098,7.634l3.599,13.252c0,0,9.16-2.629,18.388-11.525  L630.445,345.703z"
   id="path4037" />
	<path
   fill="#B76828"
   d="M679.12,340.938c-5.014,13.256-11.683,23.586-18.548,31.54l21.733,22.888  c12.811-12.151,22.477-27.674,28.582-45.285L679.12,340.938z"
   id="path4039" />
	<path
   fill="#F1872E"
   d="M648.031,364.222c-12.029,11.896-24.303,14.22-24.303,14.22l4.342,19.393  c14.128-3.025,25.941-9.345,35.753-16.982L648.031,364.222z"
   id="path4041" />
	<path
   fill="#E0BC24"
   d="M636.321,328.625c-2.023,4.597-4.473,8.2-6.944,11.003l5.266,5.544c3.118-3.461,7.17-9.309,9.479-14.303  L636.321,328.625z"
   id="path4043" />
	<path
   fill="#E81D25"
   d="M641.491,330.112c-2.468,5.736-5.396,9.923-8.602,13.215l8.823,9.292  c4.355-4.751,8.547-10.992,11.605-19.104L641.491,330.112z"
   id="path4045" />
	<path
   fill="#E0BC24"
   d="M641.199,304.547c0,0.037,0,0.071-0.002,0.107c-0.213,8.375-1.598,15.215-3.604,20.79l7.788,2.239  c0.006-0.016,0.014-0.032,0.019-0.05c0.99-3.181,3.733-13.073,3.722-23.067L641.199,304.547z"
   id="path4047" />
	<path
   fill="#F1872E"
   d="M664.854,336.833c-3.813,10.844-9.028,18.923-14.464,24.922l16.083,16.937  c10.564-9.027,18.29-20.76,22.984-34.778L664.854,336.833z"
   id="path4049" />
	<path
   fill="#B76828"
   d="M687.09,304.663c-1.085,12.578-3.518,23.536-6.81,33.062l31.683,9.115  c4.164-13.117,6.387-27.319,6.516-42.098L687.09,304.663z"
   id="path4051" />
	<path
   fill="#E0BC24"
   d="M639.2,284.46c1.045,4.718,1.681,10.229,1.717,16.678l8.086,0.021c-0.554-7.89-2.81-15.347-3.337-18.813  L639.2,284.46z"
   id="path4053" />
	<path
   fill="#E81D25"
   d="M646.417,304.59c-0.151,8.891-1.674,16.327-3.788,22.301l11.813,3.399  c2.265-7.081,3.679-15.462,3.692-25.372c0-0.112-0.004-0.218-0.004-0.329C658.131,304.59,646.419,304.469,646.417,304.59z"
   id="path4055" />
	<g
   id="g4057">
		<path
   fill="#F2EA36"
   d="M656.975,301.179l14.386,0.037c-0.201-11.251-0.525-20.131-1.104-27.19l-15.111,5.14   C656.58,285.19,657.389,292.477,656.975,301.179z"
   id="path4059" />
		<path
   fill="#F2EA36"
   d="M654.266,275.865l15.67-5.331c-2.166-20.845-6.556-22.966-19.036-25.698l-9.544,10.243   C641.559,254.874,649.795,260.838,654.266,275.865z"
   id="path4061" />
	</g>
	<path
   fill="#F1872E"
   d="M694.763,304.682l-24.026-0.06c-0.021,0.461-0.035,0.916-0.063,1.384c-0.619,10.67-2.332,19.79-4.751,27.586  l24.564,7.068c3.137-10.654,4.596-22.552,4.292-35.531C694.774,304.98,694.767,304.833,694.763,304.682z"
   id="path4063" />
	<path
   fill="#B76828"
   d="M712.537,259.643l-27.166,9.24c1.915,9.078,2.752,19.467,2.045,31.367c-0.02,0.338-0.045,0.669-0.066,1.006  l31.12,0.078c-0.008-0.565-0.01-1.131-0.023-1.7C718.088,284.717,715.975,271.421,712.537,259.643z"
   id="path4065" />
	<path
   fill="#E0BC24"
   d="M632.181,258.05c-7.6-4.941-15.551-5.804-15.551-5.804l-1.136,3.926l-0.03,0.081  c0.001,0.194,6.046,0.669,12.28,6.049L632.181,258.05z"
   id="path4067" />
	<path
   fill="#E0BC24"
   d="M634.981,260.088l-4.791,4.591c3.335,3.639,6.503,8.879,8.584,16.454l6.646-2.261  C644.164,270.016,639.877,264.069,634.981,260.088z"
   id="path4069" />
	<path
   fill="#E81D25"
   d="M644.359,282.773c1.234,5.189,2.086,11.201,2.19,18.386l11.529,0.022c-0.227-8.444-1.26-15.738-2.843-22.048  L644.359,282.773z"
   id="path4071" />
	<g
   id="g4073">
		<path
   fill="#F2EA36"
   d="M639.428,251.087l9.266-8.944c-2.205-2.104-7.6-6.956-13.16-9.874c-6.007-3.149-12.119-4.291-12.119-4.291   l-3.213,11.604C620.2,239.583,634.268,245.732,639.428,251.087z"
   id="path4075" />
		<path
   fill="#F2EA36"
   d="M641.752,253.729c0.119,0.149,0.236,0.297,0.354,0.448c0.59,0.769,9.446-4.857,8.627-9.118L641.752,253.729   z"
   id="path4077" />
	</g>
	<path
   fill="#F1872E"
   d="M667.83,274.851c2.051,7.559,3.204,16.284,3.018,26.364l23.787,0.06  c-0.592-12.584-2.606-23.759-5.685-33.608L667.83,274.851z"
   id="path4079" />
	<g
   id="g4081">
		<path
   fill="#F1872E"
   d="M664.306,227.268c-11-10.178-23.729-16.947-35.495-18.889l-5.479,19.893c0,0,12.792,2.989,25.105,14.202   L664.306,227.268z"
   id="path4083" />
		<path
   fill="#F1872E"
   d="M650.898,244.836c6.301,6.379,12.236,15.05,15.974,26.74l21.014-7.148   c-5.061-14.601-12.524-26.103-21.134-34.785L650.898,244.836z"
   id="path4085" />
	</g>
	<g
   id="g4087">
		<path
   fill="#B76828"
   d="M685.226,211.942l-19.279,18.475c7.803,8.365,16.727,18.604,21.939,34.011l23.657-8.046   C705.562,237.714,696.185,223.039,685.226,211.942z"
   id="path4089" />
		<path
   fill="#B76828"
   d="M682.787,209.556c-14.758-13.957-32.04-21.732-47.672-24.261l-6.307,23.083c0,0,18.498,3.689,34.756,19.599   L682.787,209.556z"
   id="path4091" />
	</g>
	<polygon
   fill="#D7D6D4"
   points="465.406,184.197 507.134,184.424 506.984,198.51 465.406,198.51 "
   id="polygon4093" />
	<polygon
   fill="#D7D6D4"
   points="554.691,184.197 597.1,184.197 597.1,198.737 554.766,198.737 "
   id="polygon4095" />
	<g
   id="g4097">
		<path
   fill="#E81D25"
   d="M639.875,250.678c-9.685-9.42-19.209-10.651-19.675-11.096l-3.564,12.657   c-0.034,0.121-0.056,0.17-0.056,0.17c0.155,0.47,7.237,0.887,14.522,6.673L639.875,250.678z"
   id="path4099" />
		<path
   fill="#E81D25"
   d="M633.665,261.35c3.968,3.905,7.522,9.697,10.031,18.109l10.635-3.617   c-2.992-10.045-7.43-17.356-12.119-22.683L633.665,261.35z"
   id="path4101" />
	</g>
	<path
   fill="#3554A5"
   d="M768.101,267.815l-41.182,7.07c0.829,6.925,3.612,18.284,3.133,26.188l40.16-0.329  C770.212,300.743,770.991,287.209,768.101,267.815z"
   id="path4103" />
	<path
   fill="#3554A5"
   d="M761.013,233.768l-31.021,10.802c2.598,6.857-5.627,18.313-4.379,26.597l41.935-6.823  C765.98,255.111,765.081,244.684,761.013,233.768z"
   id="path4105" />
	<path
   fill="#3554A5"
   d="M743.841,200.175l-33.858,24.233c3.847,5.766,6.041,13.273,9.074,20.732l40.726-14.364  C755.893,220.766,750.71,210.397,743.841,200.175z"
   id="path4107" />
	<g
   id="g4109">
		<path
   fill="#3554A5"
   d="M716.098,362.33c-2.824,6.976-5.8,15.671-11.899,24.385l33.938,25.835c0,0,9.481-13.964,17.359-33.85   L716.098,362.33z"
   id="path4111" />
		<path
   fill="#3554A5"
   d="M721.824,361.516l35.393,14.354c4.149-11.088,8.711-23.142,9.816-36.166l-41.069-3.843   C725.964,335.859,727.371,346.271,721.824,361.516z"
   id="path4113" />
	</g>
	<path
   fill="#3554A5"
   d="M714.604,168.566l-26.161,33.873c5.169,4.639,11.771,11.481,17.976,20.611l35.024-24.255  C734.424,188.371,725.62,178.12,714.604,168.566z"
   id="path4115" />
	<path
   fill="#72C9F1"
   d="M629.381,449.504c-8.547,1.415-17.832,1.974-27.864,1.321l-0.245,24.765c0,0,13.914,1.212,33.647-2.821  L629.381,449.504z"
   id="path4117" />
	<path
   fill="#72C9F1"
   d="M653.961,442.201c-6.618,2.763-13.917,5.084-21.895,6.657l5.507,23.143  c7.948-1.819,16.713-4.498,25.81-8.412L653.961,442.201z"
   id="path4119" />
	<g
   id="g4121">
		<path
   fill="#72C9F1"
   d="M698.843,441.743c7.174-6.03,14.177-13.119,20.778-21.451l-17.686-15.039c0,0-6.737,9.912-20.16,20.519   L698.843,441.743z"
   id="path4123" />
		<path
   fill="#72C9F1"
   d="M678.896,427.974c-6.038,4.486-13.258,8.979-21.656,12.796l9.411,21.364   c9.681-4.452,19.668-10.339,29.397-18.104L678.896,427.974z"
   id="path4125" />
	</g>
	<path
   fill="#72C9F1"
   d="M423.291,445.266c-9.515-2.429-15.705-5.032-15.705-5.032l-9.273,23.4c5.884,2.817,12.09,4.118,18.01,5.732  L423.291,445.266z"
   id="path4127" />
	<path
   fill="#72C9F1"
   d="M426.354,446.107l-6.988,24.146c20.561,4.979,38.363,3.915,38.363,3.915l0.246-24.891  C446.431,449.812,435.264,448.148,426.354,446.107z"
   id="path4129" />
	<g
   id="g4131">
		<path
   fill="#2F73BA"
   d="M345.902,254.675c2.127-7.11,5.209-14.972,9.678-22.979l-35.312-21.059   c-5.403,9.939-10.222,21.364-13.879,34.413L345.902,254.675z"
   id="path4133" />
		<path
   fill="#2F73BA"
   d="M344.285,257.802l-38.785-9.451c-2.837,10.93-4.858,22.961-5.741,36.178l40.236-0.189   C339.996,284.34,340.157,273.22,344.285,257.802z"
   id="path4135" />
	</g>
	<path
   fill="#2F73BA"
   d="M343.883,343.047c-1.424-6.512-2.983-13.491-3.217-20.908l-40.504-0.268c0,0-0.377,12.711,3.993,31.036  L343.883,343.047z"
   id="path4137" />
	<path
   fill="#2F73BA"
   d="M354.122,371.463c-3.973-7.441-7.033-15.582-9.382-24.931l-39.704,9.689  c2.471,9.467,6.202,20.225,11.826,31.394L354.122,371.463z"
   id="path4139" />
	<g
   id="g4141">
		<path
   fill="#2F73BA"
   d="M369.938,395.32c-4.998-5.618-10.28-12.584-14.744-20.372l-36.758,15.711   c5.578,10.497,12.867,21.281,22.372,31.637L369.938,395.32z"
   id="path4143" />
		<path
   fill="#2F73BA"
   d="M372.433,397.733l-29.742,27.059c9.449,9.848,20.975,19.248,35.036,27.569l19.905-34.523   C397.631,417.838,385.25,411.377,372.433,397.733z"
   id="path4145" />
	</g>
	<path
   fill="#09783D"
   d="M422.333,99.457l6.437,27.187c20.508-1.817,35.971-1.061,35.971-1.061l-0.037-27.83  C464.702,97.753,434.146,96.731,422.333,99.457z"
   id="path4147" />
	<path
   fill="#09783D"
   d="M390.513,138.155c10.979-5.68,21.81-8.481,35.137-11.208l-6.893-27.49  c-15.978,2.802-32.335,7.648-40.439,12.495L390.513,138.155z"
   id="path4149" />
	<path
   fill="#5B3729"
   d="M681.006,110.589l-11.789,26.81c6.057,2.291,12.241,4.975,18.471,8.123l13.918-23.725  C701.604,121.797,694.005,115.788,681.006,110.589z"
   id="path4151" />
	<path
   fill="#09783D"
   d="M633.537,98.672c-6.334-0.96-40.658-1.525-40.658-1.525v28.39c0,0,13.611-0.709,33.451,0.956L633.537,98.672  z"
   id="path4153" />
	<path
   fill="#09783D"
   d="M636.629,99.23l-7.573,27.868c10.977,2.008,22.567,3.938,37.563,9.391l10.904-27.376  C666.394,104.772,651.346,101.792,636.629,99.23z"
   id="path4155" />
	<path
   fill="#72C9F1"
   d="M646.021,134.216c-21.262-4.732-38.622-5.149-38.622-5.149l-0.201,26.325  c12.437,0.112,23.172,1.192,31.9,2.56L646.021,134.216z"
   id="path4157" />
	<path
   fill="#72C9F1"
   d="M650.411,135.58l-8.92,22.898c14.043,4.128,21.679,8.089,21.679,8.089l12.785-21.639  C667.247,140.91,657.872,138.104,650.411,135.58z"
   id="path4159" />
	<path
   fill="#72C9F1"
   d="M406.264,136.261c-9.912,3.236-13.631,5.907-19.992,9.542l11.31,21.366c0,0,5.665-3.107,16.218-6.698  L406.264,136.261z"
   id="path4161" />
	<path
   fill="#72C9F1"
   d="M410.904,134.461l5.551,24.822c9.545-2.053,22.128-3.975,37.245-4.537l-0.966-25.956  C452.734,128.79,434.661,127.855,410.904,134.461z"
   id="path4163" />
	<path
   fill="#5B3729"
   d="M390.513,465.453c-6.196-2.637-12.433-4.956-18.176-8.784l-14.416,26.204c0,0,6.912,5.198,20.763,10.884  L390.513,465.453z"
   id="path4165" />
	<path
   fill="#09783D"
   d="M430.952,477.266c-11.813-2.271-24.841-5.302-37.184-10.903l-11.839,28.193  c10.717,4.246,25.119,8.547,43.214,10.991L430.952,477.266z"
   id="path4167" />
	<path
   fill="#09783D"
   d="M434.661,477.948l-5.881,28.864c11.196,1.309,23.717,1.909,37.579,1.391l-0.119-29.347  C466.24,478.856,453.707,479.045,434.661,477.948z"
   id="path4169" />
	<path
   fill="#5B3729"
   d="M678.137,491.157c13.092-6.511,19.47-12.031,19.47-12.031l-14.025-21.853  c-6.512,3.786-12.74,6.718-19.057,9.866L678.137,491.157z"
   id="path4171" />
	<path
   fill="#09783D"
   d="M622.997,478.629c-19.31,0.909-32.417,0.627-32.417,0.627l0.659,28.723  c14.093,0.146,26.4,0.303,37.665-1.404L622.997,478.629z"
   id="path4173" />
	<path
   fill="#09783D"
   d="M632.966,505.84c17.893-3.427,31.979-8.535,42.368-13.37l-12.92-24.633  c-12.165,5.594-25.096,8.321-36.262,10.354L632.966,505.84z"
   id="path4175" />
	<path
   fill="#323A3D"
   d="M376.417,262.892c0.22-0.78,1.023-1.647,1.259-2.436c3.69-12.371,13.615-22.369,18.992-30.578  l-16.909-16.299c-17.568,16.055-23.58,41.151-23.93,42.106L376.417,262.892z"
   id="path4177" />
	<path
   fill="#B76828"
   d="M397.092,269.813c3.719-10.482,9.228-18.414,15.066-24.364l-15.49-15.57  c-8.287,8.294-15.525,19.199-20.604,32.944L397.092,269.813z"
   id="path4179" />
	<path
   fill="#F1872E"
   d="M399.41,381.251c9.674,7.423,21.062,14.385,35.009,17.372l5.071-19.729c0,0-12.271-2.321-24.3-14.216  L399.41,381.251z"
   id="path4181" />
	<path
   fill="#996BA4"
   stroke="#996BA4"
   stroke-width="2"
   stroke-miterlimit="10"
   d="M398.653,192.262  c0,0-54.064,24.842-56.785,103.917c-1.488,43.261,12.498,91.977,56.688,119.165l2.254-3.279c0,0-56.795-25.444-55.689-115.817  c0.413-33.745,14.646-79.485,55.236-101.145L398.653,192.262z"
   id="path4183" />
	<path
   fill="#72C9F1"
   d="M694.714,194.345l20.823,22.416l-9.12,6.29c0,0-9.281-13.03-17.976-20.611L694.714,194.345z"
   id="path4185" />
	<path
   fill="#72C9F1"
   d="M717.204,219.184l12.241,22.292l-11.502,4.465c0,0-2.806-9.004-10.092-20.13L717.204,219.184z"
   id="path4187" />
	<path
   fill="#72C9F1"
   d="M731.024,244.173l6.646,25.048l-12.057,1.945c0,0-1.552-8.604-6.478-22.448L731.024,244.173z"
   id="path4189" />
	<path
   fill="#72C9F1"
   d="M739.09,272.799l1.942,28.273h-12.165c0,0-0.402-12.827-2.311-26.114L739.09,272.799z"
   id="path4191" />
	<path
   fill="#72C9F1"
   d="M741.032,305.002l-2.562,28.712l-12.806-1.222c0,0,2.379-13.138,3.166-27.504L741.032,305.002z"
   id="path4193" />
	<path
   fill="#72C9F1"
   d="M737.788,336.808l-8.468,27.774l-12.241-4.84c0,0,4.971-10.791,7.888-23.966L737.788,336.808z"
   id="path4195" />
	<path
   fill="#72C9F1"
   d="M728.146,367.309l-13.621,27.264l-10.328-7.856c0,0,6.686-12.148,11.899-24.385L728.146,367.309z"
   id="path4197" />
	<polygon
   fill="#B76828"
   points="528.868,455.533 494.925,455.608 494.925,449.768 528.943,449.853 "
   id="polygon4199" />
	<rect
   x="531.145"
   y="450.128"
   fill="#B76828"
   width="33.996"
   height="5.631"
   id="rect4201" />
	<polygon
   fill="#B76828"
   points="539.969,155.199 492.5,155.276 492.5,149.36 540.074,149.446 "
   id="polygon4203" />
	<rect
   x="531.749"
   y="149.568"
   fill="#B76828"
   width="35.814"
   height="5.632"
   id="rect4205" />
	<path
   fill="#C04298"
   d="M341.635,220.031l17.932-23.591l9.188,9.153c0,0-10.358,11.049-16.03,21.051L341.635,220.031z"
   id="path4207" />
	<path
   fill="#C04298"
   d="M329.121,250.56l11.349-27.837l11.208,6.708c0,0-7.087,13.123-10.179,24.168L329.121,250.56z"
   id="path4209" />
	<path
   fill="#C04298"
   d="M322.316,284.451l5.408-30.571l12.272,3.054c0,0-3.357,16.156-4.439,27.469L322.316,284.451z"
   id="path4211" />
	<path
   fill="#C04298"
   d="M322.477,319.031l-0.171-31.579l12.066,0.105c0,0,0.572,20.058,0.804,31.097L322.477,319.031z"
   id="path4213" />
	<path
   fill="#C04298"
   d="M325.988,347.464l-3.425-25.34l13.525,0.047c0,0,0.535,10.593,3.384,21.997L325.988,347.464z"
   id="path4215" />
	<path
   fill="#C04298"
   d="M337.59,378.606l-11.375-27.498l13.295-3.271c0,0,4.247,15.791,9.685,25.735L337.59,378.606z"
   id="path4217" />
	<path
   fill="#C04298"
   d="M357.496,406.771l-18.773-24.749l12.003-5.102c0,0,7.616,12.767,15.669,21.651L357.496,406.771z"
   id="path4219" />
	<path
   fill="#C04298"
   d="M389.363,432.145l-30.054-22.404l9.715-8.989c0,0,16.584,15.028,26.333,21.006L389.363,432.145z"
   id="path4221" />
	<path
   fill="#2A3479"
   stroke="#2A3479"
   stroke-width="2"
   stroke-miterlimit="10"
   d="M698.121,382.455  c0.066-0.118,7.783-11.318,13.949-28.87c5.67-16.141,11.899-40.598,9.386-65.457c-2.619-25.878-11.517-45.958-19.021-58.485  c-8.169-13.641-17.757-22.577-17.833-22.652l2.271-2.537c0.415,0.379,12.381,12.608,17.992,22.881  c7.196,13.178,17.511,33.805,20.204,60.427c2.587,25.554-3.793,50.598-9.601,67.105c-6.284,17.861-13.732,29.066-14.02,29.555  L698.121,382.455z"
   id="path4223" />
	<rect
   x="504.559"
   y="452.016"
   fill="none"
   width="51.004"
   height="11.457"
   id="rect4225" />
	<text
   transform="matrix(1 0 0 1 504.5586 458.4678)"
   fill="#010101"
   font-family="'MyriadPro-Regular'"
   font-size="9.0874"
   id="text4227">
		MEZZANINE
	</text>


	
	
	
	<rect
   x="495.528"
   y="437.735"
   fill="none"
   width="68.154"
   height="13.631"
   id="rect4327" />
	<text
   transform="matrix(1 0 0 1 508.9678 442.251)"
   fill="#010101"
   font-family="'MyriadPro-Regular'"
   font-size="6.3612"
   id="text4329">
		LUXURY SUITES
	</text>


	<rect
   x="391.47"
   y="112.919"
   fill="none"
   width="31.35"
   height="24.534"
   id="rect4331" />
	<text
   transform="matrix(1 0 0 1 391.4697 122.5967)"
   fill="#FFFFFF"
   font-family="'MyriadPro-Regular'"
   font-size="13.6311"
   id="text4333">
		215
	</text>


	<rect
   x="434.409"
   y="106.103"
   fill="none"
   width="31.35"
   height="24.535"
   id="rect4335" />
	<text
   transform="matrix(1 0 0 1 434.4092 115.7812)"
   fill="#FFFFFF"
   font-family="'MyriadPro-Regular'"
   font-size="13.6311"
   id="text4337">
		214
	</text>


	<rect
   x="473.561"
   y="105.421"
   fill="none"
   width="31.351"
   height="24.535"
   id="rect4339" />
	<text
   transform="matrix(1 0 0 1 473.5605 115.0986)"
   fill="#FFFFFF"
   font-family="'MyriadPro-Regular'"
   font-size="13.6311"
   id="text4341">
		213
	</text>


	<rect
   x="519.451"
   y="105.195"
   fill="none"
   width="31.351"
   height="24.535"
   id="rect4343" />
	<text
   transform="matrix(1 0 0 1 519.4512 114.873)"
   fill="#FFFFFF"
   font-family="'MyriadPro-Regular'"
   font-size="13.6311"
   id="text4345">
		212
	</text>


	<rect
   x="562.466"
   y="105.195"
   fill="none"
   width="31.351"
   height="24.535"
   id="rect4347" />
	<text
   transform="matrix(1 0 0 1 562.4658 114.873)"
   fill="#FFFFFF"
   font-family="'MyriadPro-Regular'"
   font-size="13.6311"
   id="text4349">
		211
	</text>


	<rect
   x="599.27"
   y="105.346"
   fill="none"
   width="31.352"
   height="24.534"
   id="rect4351" />
	<text
   transform="matrix(1 0 0 1 599.2695 115.0234)"
   fill="#FFFFFF"
   font-family="'MyriadPro-Regular'"
   font-size="13.6311"
   id="text4353">
		210
	</text>


	<rect
   x="641.678"
   y="111.102"
   fill="none"
   width="31.35"
   height="24.534"
   id="rect4355" />
	<text
   transform="matrix(1 0 0 1 641.6777 120.7793)"
   fill="#FFFFFF"
   font-family="'MyriadPro-Regular'"
   font-size="13.6311"
   id="text4357">
		209
	</text>


	<rect
   x="674.314"
   y="123.664"
   fill="none"
   width="31.35"
   height="24.534"
   id="rect4359" />
	<text
   transform="matrix(1 0 0 1 674.3145 133.3418)"
   fill="#FFFFFF"
   font-family="'MyriadPro-Regular'"
   font-size="13.6311"
   id="text4361">
		208
	</text>


	<rect
   x="388.592"
   y="145.852"
   fill="none"
   width="31.35"
   height="24.535"
   id="rect4363" />
	<text
   transform="matrix(1 0 0 1 388.5928 155.5293)"
   fill="#FFFFFF"
   font-family="'MyriadPro-Regular'"
   font-size="13.6311"
   id="text4365">
		115
	</text>


	<rect
   x="421.308"
   y="137.909"
   fill="none"
   width="31.351"
   height="24.535"
   id="rect4367" />
	<text
   transform="matrix(1 0 0 1 421.3076 147.5879)"
   fill="#FFFFFF"
   font-family="'MyriadPro-Regular'"
   font-size="13.6311"
   id="text4369">
		114
	</text>


	<rect
   x="462.2"
   y="136.092"
   fill="none"
   width="31.35"
   height="24.535"
   id="rect4371" />
	<text
   transform="matrix(1 0 0 1 462.2002 145.7695)"
   fill="#FFFFFF"
   font-family="'MyriadPro-Regular'"
   font-size="13.6311"
   id="text4373">
		113
	</text>


	<rect
   x="499.459"
   y="133.82"
   fill="none"
   width="31.351"
   height="24.534"
   id="rect4375" />
	<text
   transform="matrix(1 0 0 1 499.459 143.498)"
   fill="#FFFFFF"
   font-family="'MyriadPro-Regular'"
   font-size="13.6311"
   id="text4377">
		112
	</text>


	<rect
   x="538.535"
   y="133.82"
   fill="none"
   width="31.35"
   height="24.534"
   id="rect4379" />
	<text
   transform="matrix(1 0 0 1 538.5352 143.498)"
   fill="#FFFFFF"
   font-family="'MyriadPro-Regular'"
   font-size="13.6311"
   id="text4381">
		111
	</text>


	<rect
   x="575.794"
   y="136.546"
   fill="none"
   width="31.351"
   height="24.535"
   id="rect4383" />
	<text
   transform="matrix(1 0 0 1 575.7939 146.2227)"
   fill="#FFFFFF"
   font-family="'MyriadPro-Regular'"
   font-size="13.6311"
   id="text4385">
		110
	</text>


	<rect
   x="613.052"
   y="137.909"
   fill="none"
   width="31.352"
   height="24.535"
   id="rect4387" />
	<text
   transform="matrix(1 0 0 1 613.0518 147.5879)"
   fill="#FFFFFF"
   font-family="'MyriadPro-Regular'"
   font-size="13.6311"
   id="text4389">
		109
	</text>


	<rect
   x="646.675"
   y="145.852"
   fill="none"
   width="31.351"
   height="24.535"
   id="rect4391" />
	<text
   transform="matrix(1 0 0 1 646.6748 155.5293)"
   fill="#FFFFFF"
   font-family="'MyriadPro-Regular'"
   font-size="13.6311"
   id="text4393">
		108
	</text>


	<rect
   x="705.743"
   y="188.799"
   fill="none"
   width="31.351"
   height="24.534"
   id="rect4395" />
	<text
   transform="matrix(1 0 0 1 705.7432 198.4766)"
   fill="#FFFFFF"
   font-family="'MyriadPro-Regular'"
   font-size="13.6311"
   id="text4397">
		107
	</text>


	<rect
   x="727.1"
   y="218.333"
   fill="none"
   width="31.35"
   height="24.535"
   id="rect4399" />
	<text
   transform="matrix(1 0 0 1 727.0996 228.0107)"
   fill="#FFFFFF"
   font-family="'MyriadPro-Regular'"
   font-size="13.6311"
   id="text4401">
		106
	</text>


	<rect
   x="737.55"
   y="247.866"
   fill="none"
   width="31.351"
   height="24.535"
   id="rect4403" />
	<text
   transform="matrix(1 0 0 1 737.5498 257.5439)"
   fill="#FFFFFF"
   font-family="'MyriadPro-Regular'"
   font-size="13.6311"
   id="text4405">
		105
	</text>


	<rect
   x="743.002"
   y="280.127"
   fill="none"
   width="31.35"
   height="24.535"
   id="rect4407" />
	<text
   transform="matrix(1 0 0 1 743.002 289.8057)"
   fill="#FFFFFF"
   font-family="'MyriadPro-Regular'"
   font-size="13.6311"
   id="text4409">
		104
	</text>


	<rect
   x="743.854"
   y="314.205"
   fill="none"
   width="31.352"
   height="24.534"
   id="rect4411" />
	<text
   transform="matrix(1 0 0 1 743.8535 323.8818)"
   fill="#FFFFFF"
   font-family="'MyriadPro-Regular'"
   font-size="13.6311"
   id="text4413">
		103
	</text>


	<rect
   x="737.038"
   y="348.282"
   fill="none"
   width="31.351"
   height="24.534"
   id="rect4415" />
	<text
   transform="matrix(1 0 0 1 737.0381 357.96)"
   fill="#FFFFFF"
   font-family="'MyriadPro-Regular'"
   font-size="13.6311"
   id="text4417">
		102
	</text>


	<rect
   x="723.861"
   y="383.725"
   fill="none"
   width="31.351"
   height="24.533"
   id="rect4419" />
	<text
   transform="matrix(1 0 0 1 723.8613 393.4014)"
   fill="#FFFFFF"
   font-family="'MyriadPro-Regular'"
   font-size="13.6311"
   id="text4421">
		101
	</text>


	<rect
   x="689.841"
   y="419.619"
   fill="none"
   width="31.351"
   height="24.534"
   id="rect4423" />
	<text
   transform="matrix(1 0 0 1 689.8408 429.2959)"
   fill="#FFFFFF"
   font-family="'MyriadPro-Regular'"
   font-size="13.6311"
   id="text4425">
		134
	</text>


	<rect
   x="664.396"
   y="439.61"
   fill="none"
   width="31.349"
   height="24.534"
   id="rect4427" />
	<text
   transform="matrix(1 0 0 1 664.3965 449.2881)"
   fill="#FFFFFF"
   font-family="'MyriadPro-Regular'"
   font-size="13.6311"
   id="text4429">
		133
	</text>


	<rect
   x="636.68"
   y="452.787"
   fill="none"
   width="31.351"
   height="24.535"
   id="rect4431" />
	<text
   transform="matrix(1 0 0 1 636.6797 462.4648)"
   fill="#FFFFFF"
   font-family="'MyriadPro-Regular'"
   font-size="13.6311"
   id="text4433">
		132
	</text>


	<rect
   x="605.328"
   y="458.24"
   fill="none"
   width="31.349"
   height="24.534"
   id="rect4435" />
	<text
   transform="matrix(1 0 0 1 605.3281 467.917)"
   fill="#FFFFFF"
   font-family="'MyriadPro-Regular'"
   font-size="13.6311"
   id="text4437">
		131
	</text>


	<rect
   x="570.796"
   y="459.149"
   fill="none"
   width="31.351"
   height="24.533"
   id="rect4439" />
	<text
   transform="matrix(1 0 0 1 570.7959 468.8262)"
   fill="#FFFFFF"
   font-family="'MyriadPro-Regular'"
   font-size="13.6311"
   id="text4441">
		130
	</text>


	<rect
   x="535.81"
   y="459.604"
   fill="none"
   width="31.351"
   height="24.534"
   id="rect4443" />
	<text
   transform="matrix(1 0 0 1 535.8096 469.2803)"
   fill="#FFFFFF"
   font-family="'MyriadPro-Regular'"
   font-size="13.6311"
   id="text4445">
		129
	</text>


	<rect
   x="500.823"
   y="459.149"
   fill="none"
   width="31.35"
   height="24.533"
   id="rect4447" />
	<text
   transform="matrix(1 0 0 1 500.8232 468.8262)"
   fill="#FFFFFF"
   font-family="'MyriadPro-Regular'"
   font-size="13.6311"
   id="text4449">
		128
	</text>


	<rect
   x="466.744"
   y="458.694"
   fill="none"
   width="31.351"
   height="24.533"
   id="rect4451" />
	<text
   transform="matrix(1 0 0 1 466.7441 468.3721)"
   fill="#FFFFFF"
   font-family="'MyriadPro-Regular'"
   font-size="13.6311"
   id="text4453">
		127
	</text>


	<rect
   x="428.692"
   y="455.969"
   fill="none"
   width="31.35"
   height="24.534"
   id="rect4455" />
	<text
   transform="matrix(1 0 0 1 428.6924 465.6455)"
   fill="#FFFFFF"
   font-family="'MyriadPro-Regular'"
   font-size="13.6311"
   id="text4457">
		126
	</text>


	<rect
   x="399.496"
   y="452.097"
   fill="none"
   width="31.352"
   height="24.536"
   id="rect4459" />
	<text
   transform="matrix(1 0 0 1 399.4961 461.7744)"
   fill="#FFFFFF"
   font-family="'MyriadPro-Regular'"
   font-size="13.6311"
   id="text4461">
		125
	</text>


	<rect
   x="395.522"
   y="482.663"
   fill="none"
   width="31.35"
   height="24.533"
   id="rect4463" />
	<text
   transform="matrix(1 0 0 1 395.5225 492.3398)"
   fill="#FFFFFF"
   font-family="'MyriadPro-Regular'"
   font-size="13.6311"
   id="text4465">
		226
	</text>


	<rect
   x="363.431"
   y="471.749"
   fill="none"
   width="31.351"
   height="24.534"
   id="rect4467" />
	<text
   transform="matrix(1 0 0 1 363.4307 481.4258)"
   fill="#FFFFFF"
   font-family="'MyriadPro-Regular'"
   font-size="13.6311"
   id="text4469">
		225
	</text>


	<rect
   x="438.082"
   y="488.986"
   fill="none"
   width="31.35"
   height="24.533"
   id="rect4471" />
	<text
   transform="matrix(1 0 0 1 438.082 498.6641)"
   fill="#FFFFFF"
   font-family="'MyriadPro-Regular'"
   font-size="13.6311"
   id="text4473">
		227
	</text>


	<rect
   x="475.945"
   y="488.683"
   fill="none"
   width="31.35"
   height="24.535"
   id="rect4475" />
	<text
   transform="matrix(1 0 0 1 475.9453 498.3604)"
   fill="#FFFFFF"
   font-family="'MyriadPro-Regular'"
   font-size="13.6311"
   id="text4477">
		228
	</text>


	<rect
   x="519.565"
   y="488.229"
   fill="none"
   width="31.35"
   height="24.533"
   id="rect4479" />
	<text
   transform="matrix(1 0 0 1 519.5654 497.9062)"
   fill="#FFFFFF"
   font-family="'MyriadPro-Regular'"
   font-size="13.6311"
   id="text4481">
		229
	</text>


	<rect
   x="561.367"
   y="488.229"
   fill="none"
   width="31.35"
   height="24.533"
   id="rect4483" />
	<text
   transform="matrix(1 0 0 1 561.3672 497.9062)"
   fill="#FFFFFF"
   font-family="'MyriadPro-Regular'"
   font-size="13.6311"
   id="text4485">
		230
	</text>


	<rect
   x="598.626"
   y="488.229"
   fill="none"
   width="31.35"
   height="24.533"
   id="rect4487" />
	<text
   transform="matrix(1 0 0 1 598.626 497.9062)"
   fill="#FFFFFF"
   font-family="'MyriadPro-Regular'"
   font-size="13.6311"
   id="text4489">
		231
	</text>


	<rect
   x="637.702"
   y="482.095"
   fill="none"
   width="31.35"
   height="24.534"
   id="rect4491" />
	<text
   transform="matrix(1 0 0 1 637.7021 491.7725)"
   fill="#FFFFFF"
   font-family="'MyriadPro-Regular'"
   font-size="13.6311"
   id="text4493">
		232
	</text>


	<rect
   x="672.062"
   y="469.818"
   fill="none"
   width="31.351"
   height="24.533"
   id="rect4495" />
	<text
   transform="matrix(1 0 0 1 672.0625 479.4951)"
   fill="#FFFFFF"
   font-family="'MyriadPro-Regular'"
   font-size="13.6311"
   id="text4497">
		233
	</text>


	<rect
   x="356.566"
   y="170.406"
   fill="none"
   width="31.349"
   height="24.535"
   id="rect4499" />
	<text
   transform="matrix(1 0 0 1 356.5664 180.084)"
   fill="#FFFFFF"
   font-family="'MyriadPro-Regular'"
   font-size="13.6311"
   id="text4501">
		116
	</text>


	<rect
   x="331.576"
   y="197.213"
   fill="none"
   width="31.35"
   height="24.535"
   id="rect4503" />
	<text
   transform="matrix(1 0 0 1 331.5762 206.8906)"
   fill="#FFFFFF"
   font-family="'MyriadPro-Regular'"
   font-size="13.6311"
   id="text4505">
		117
	</text>


	<rect
   x="312.802"
   y="227.656"
   fill="none"
   width="31.35"
   height="24.535"
   id="rect4507" />
	<text
   transform="matrix(1 0 0 1 312.8022 237.334)"
   fill="#FFFFFF"
   font-family="'MyriadPro-Regular'"
   font-size="13.6311"
   id="text4509">
		118
	</text>


	<rect
   x="303.268"
   y="262.851"
   fill="none"
   width="31.35"
   height="24.534"
   id="rect4511" />
	<text
   transform="matrix(1 0 0 1 303.2676 272.5293)"
   fill="#FFFFFF"
   font-family="'MyriadPro-Regular'"
   font-size="13.6311"
   id="text4513">
		119
	</text>


	<rect
   x="299.522"
   y="297.754"
   fill="none"
   width="31.35"
   height="24.535"
   id="rect4515" />
	<text
   transform="matrix(1 0 0 1 299.522 307.4336)"
   fill="#FFFFFF"
   font-family="'MyriadPro-Regular'"
   font-size="13.6311"
   id="text4517">
		120
	</text>


	<rect
   x="303.802"
   y="331.294"
   fill="none"
   width="31.35"
   height="24.535"
   id="rect4519" />
	<text
   transform="matrix(1 0 0 1 303.8018 340.9707)"
   fill="#FFFFFF"
   font-family="'MyriadPro-Regular'"
   font-size="13.6311"
   id="text4521">
		121
	</text>


	<rect
   x="309.719"
   y="363.101"
   fill="none"
   width="31.35"
   height="24.534"
   id="rect4523" />
	<text
   transform="matrix(1 0 0 1 309.7188 372.7783)"
   fill="#FFFFFF"
   font-family="'MyriadPro-Regular'"
   font-size="13.6311"
   id="text4525">
		122
	</text>


	<rect
   x="326.542"
   y="395.917"
   fill="none"
   width="31.35"
   height="24.535"
   id="rect4527" />
	<text
   transform="matrix(1 0 0 1 326.542 405.5947)"
   fill="#FFFFFF"
   font-family="'MyriadPro-Regular'"
   font-size="13.6311"
   id="text4529">
		123
	</text>


	<rect
   x="354.947"
   y="423.123"
   fill="none"
   width="31.35"
   height="24.533"
   id="rect4531" />
	<text
   transform="matrix(1 0 0 1 354.9463 432.7998)"
   fill="#FFFFFF"
   font-family="'MyriadPro-Regular'"
   font-size="13.6311"
   id="text4533">
		124
	</text>


	<rect
   x="414.668"
   y="219.974"
   fill="none"
   width="31.35"
   height="24.534"
   id="rect4535" />
	<text
   transform="matrix(1 0 0 1 414.668 229.6504)"
   fill="#FFFFFF"
   font-family="'MyriadPro-Regular'"
   font-size="13.6311"
   id="text4537">
		11
	</text>


	<rect
   x="385.588"
   y="247.174"
   fill="none"
   width="31.352"
   height="24.535"
   id="rect4539" />
	<text
   transform="matrix(1 0 0 1 385.5889 256.8516)"
   fill="#FFFFFF"
   font-family="'MyriadPro-Regular'"
   font-size="13.6311"
   id="text4541">
		12
	</text>


	<rect
   x="374.684"
   y="280.797"
   fill="none"
   width="31.349"
   height="24.535"
   id="rect4543" />
	<text
   transform="matrix(1 0 0 1 374.6836 290.4736)"
   fill="#FFFFFF"
   font-family="'MyriadPro-Regular'"
   font-size="13.6311"
   id="text4545">
		13
	</text>


	<rect
   x="373.775"
   y="317.45"
   fill="none"
   width="31.35"
   height="24.533"
   id="rect4547" />
	<text
   transform="matrix(1 0 0 1 373.7754 327.127)"
   fill="#FFFFFF"
   font-family="'MyriadPro-Regular'"
   font-size="13.6311"
   id="text4549">
		14
	</text>


	<rect
   x="386.194"
   y="351.92"
   fill="none"
   width="31.35"
   height="24.534"
   id="rect4551" />
	<text
   transform="matrix(1 0 0 1 386.1943 361.5977)"
   fill="#FFFFFF"
   font-family="'MyriadPro-Regular'"
   font-size="13.6311"
   id="text4553">
		15
	</text>


	<rect
   x="413.761"
   y="377.668"
   fill="none"
   width="31.35"
   height="24.533"
   id="rect4555" />
	<text
   transform="matrix(1 0 0 1 413.7607 387.3447)"
   fill="#FFFFFF"
   font-family="'MyriadPro-Regular'"
   font-size="13.6311"
   id="text4557">
		16
	</text>


	<rect
   x="444.051"
   y="382.212"
   fill="none"
   width="31.352"
   height="24.534"
   id="rect4559" />
	<text
   transform="matrix(1 0 0 1 444.0508 391.8887)"
   fill="#FFFFFF"
   font-family="'MyriadPro-Regular'"
   font-size="13.6311"
   id="text4561">
		17
	</text>


	<rect
   x="477.675"
   y="382.516"
   fill="none"
   width="31.351"
   height="24.532"
   id="rect4563" />
	<text
   transform="matrix(1 0 0 1 477.6748 392.1924)"
   fill="#FFFFFF"
   font-family="'MyriadPro-Regular'"
   font-size="13.6311"
   id="text4565">
		18
	</text>


	<rect
   x="522.657"
   y="382.516"
   fill="none"
   width="31.35"
   height="24.532"
   id="rect4567" />
	<text
   transform="matrix(1 0 0 1 522.6572 392.1924)"
   fill="#FFFFFF"
   font-family="'MyriadPro-Regular'"
   font-size="13.6311"
   id="text4569">
		19
	</text>


	<rect
   x="568.549"
   y="382.516"
   fill="none"
   width="31.35"
   height="24.532"
   id="rect4571" />
	<text
   transform="matrix(1 0 0 1 568.5488 392.1924)"
   fill="#FFFFFF"
   font-family="'MyriadPro-Regular'"
   font-size="13.6311"
   id="text4573">
		20
	</text>


	<rect
   x="603.535"
   y="381.606"
   fill="none"
   width="31.351"
   height="24.532"
   id="rect4575" />
	<text
   transform="matrix(1 0 0 1 603.5352 391.2842)"
   fill="#FFFFFF"
   font-family="'MyriadPro-Regular'"
   font-size="13.6311"
   id="text4577">
		21
	</text>


	<rect
   x="636.25"
   y="376.002"
   fill="none"
   width="31.35"
   height="24.535"
   id="rect4579" />
	<text
   transform="matrix(1 0 0 1 636.25 385.6797)"
   fill="#FFFFFF"
   font-family="'MyriadPro-Regular'"
   font-size="13.6311"
   id="text4581">
		22
	</text>


	<rect
   x="666.54"
   y="350.708"
   fill="none"
   width="31.351"
   height="24.535"
   id="rect4583" />
	<text
   transform="matrix(1 0 0 1 666.54 360.3857)"
   fill="#FFFFFF"
   font-family="'MyriadPro-Regular'"
   font-size="13.6311"
   id="text4585">
		1
	</text>


	<rect
   x="677.143"
   y="314.511"
   fill="none"
   width="31.352"
   height="24.534"
   id="rect4587" />
	<text
   transform="matrix(1 0 0 1 677.1426 324.1885)"
   fill="#FFFFFF"
   font-family="'MyriadPro-Regular'"
   font-size="13.6311"
   id="text4589">
		2
	</text>


	<rect
   x="678.293"
   y="280.131"
   fill="none"
   width="31.352"
   height="24.533"
   id="rect4591" />
	<text
   transform="matrix(1 0 0 1 678.293 289.8096)"
   fill="#FFFFFF"
   font-family="'MyriadPro-Regular'"
   font-size="13.6311"
   id="text4593">
		3
	</text>


	<rect
   x="665.873"
   y="245.447"
   fill="none"
   width="31.35"
   height="24.533"
   id="rect4595" />
	<text
   transform="matrix(1 0 0 1 665.873 255.125)"
   fill="#FFFFFF"
   font-family="'MyriadPro-Regular'"
   font-size="13.6311"
   id="text4597">
		4
	</text>


	<rect
   x="638.764"
   y="220.002"
   fill="none"
   width="31.35"
   height="24.533"
   id="rect4599" />
	<text
   transform="matrix(1 0 0 1 638.7637 229.6807)"
   fill="#FFFFFF"
   font-family="'MyriadPro-Regular'"
   font-size="13.6311"
   id="text4601">
		5
	</text>


	<rect
   x="607.562"
   y="211.369"
   fill="none"
   width="31.35"
   height="24.534"
   id="rect4603" />
	<text
   transform="matrix(1 0 0 1 607.5635 221.0469)"
   fill="#FFFFFF"
   font-family="'MyriadPro-Regular'"
   font-size="13.6311"
   id="text4605">
		6
	</text>


	<rect
   x="571.667"
   y="211.369"
   fill="none"
   width="31.35"
   height="24.534"
   id="rect4607" />
	<text
   transform="matrix(1 0 0 1 571.667 221.0469)"
   fill="#FFFFFF"
   font-family="'MyriadPro-Regular'"
   font-size="13.6311"
   id="text4609">
		7
	</text>


	<rect
   x="527.14"
   y="211.369"
   fill="none"
   width="31.35"
   height="24.534"
   id="rect4611" />
	<text
   transform="matrix(1 0 0 1 527.1396 221.0469)"
   fill="#FFFFFF"
   font-family="'MyriadPro-Regular'"
   font-size="13.6311"
   id="text4613">
		8
	</text>


	<rect
   x="482.61"
   y="211.369"
   fill="none"
   width="31.351"
   height="24.534"
   id="rect4615" />
	<text
   transform="matrix(1 0 0 1 482.6104 221.0469)"
   fill="#FFFFFF"
   font-family="'MyriadPro-Regular'"
   font-size="13.6311"
   id="text4617">
		9
	</text>


	<rect
   x="443.534"
   y="211.369"
   fill="none"
   width="31.351"
   height="24.534"
   id="rect4619" />
	<text
   transform="matrix(1 0 0 1 443.5342 221.0469)"
   fill="#FFFFFF"
   font-family="'MyriadPro-Regular'"
   font-size="13.6311"
   id="text4621">
		10
	</text>


	<path
   fill="#5B3729"
   d="M374.23,113.77l13.306,25.69c-5.811,2.853-11.716,6.111-17.619,9.833l-16.099-22.302  C353.819,126.992,361.781,120.176,374.23,113.77z"
   id="path4623" />
	<rect
   x="360.118"
   y="126.315"
   fill="none"
   width="31.35"
   height="24.534"
   id="rect4625" />
	<text
   transform="matrix(1 0 0 1 360.1182 135.9932)"
   fill="#FFFFFF"
   font-family="'MyriadPro-Regular'"
   font-size="13.6311"
   id="text4627">
		216
	</text>


	<rect
   x="469.951"
   y="176.097"
   fill="none"
   width="121.053"
   height="10.719"
   id="rect4629" />
	<text
   transform="matrix(1 0 0 1 506.2188 182.5488)"
   fill="#29ABE2"
   font-family="'MyriadPro-Regular'"
   font-size="9.0874"
   id="text4631">
		ICE LOUNGE
	</text>


	<rect
   x="504.408"
   y="424.104"
   fill="none"
   width="51.343"
   height="13.633"
   id="rect4633" />
	<text
   transform="matrix(1 0 0 1 504.4082 430.5557)"
   fill="#ED2224"
   font-family="'MyriadPro-Regular'"
   font-size="9.0874"
   id="text4635">
		FIRE LOUNGE
	</text>


	<path
   fill="#C04298"
   d="M361.865,194.49l25.846-20.858l6.875,11.968c0,0-15.424,9.841-23.55,17.947L361.865,194.49z"
   id="path4637" />
	<path
   fill="#72C9F1"
   d="M365.711,198.245l24.725-19.954l6.577,11.449c0,0-14.755,9.415-22.529,17.169L365.711,198.245z"
   id="path4639" />
	<path
   fill="#72C9F1"
   d="M346.429,222.895l17.125-22.529l8.775,8.741c0,0-9.893,10.551-15.309,20.104L346.429,222.895z"
   id="path4641" />
	<path
   fill="#72C9F1"
   d="M334.132,251.785l10.792-26.467l10.657,6.378c0,0-6.739,12.478-9.678,22.979L334.132,251.785z"
   id="path4643" />
	<path
   fill="#72C9F1"
   d="M327.204,284.386l5.225-29.535l11.856,2.95c0,0-3.243,15.608-4.289,26.538L327.204,284.386z"
   id="path4645" />
	<path
   fill="#72C9F1"
   d="M326.977,319.031l-0.171-31.578l12.066,0.105c0,0,0.572,20.057,0.804,31.096L326.977,319.031z"
   id="path4647" />
	<path
   fill="#72C9F1"
   d="M331.065,346.18l-3.255-24.085l12.856,0.044c0,0,0.509,10.069,3.217,20.908L331.065,346.18z"
   id="path4649" />
	
	<path
   fill="#72C9F1"
   d="M342.879,376.34l-11.019-26.638l12.879-3.17c0,0,4.114,15.297,9.382,24.931L342.879,376.34z"
   id="path4667" />
	<path
   fill="#72C9F1"
   d="M361.565,403.033l-17.664-23.286l11.294-4.799c0,0,7.166,12.012,14.744,20.372L361.565,403.033z"
   id="path4669" />
	<path
   fill="#72C9F1"
   d="M391.875,427.814l-28.861-21.517l9.33-8.632c0,0,15.926,14.431,25.287,20.171L391.875,427.814z"
   id="path4671" />
	
</svg>