<?xml version="1.0" encoding="UTF-8" standalone="no"?>
<!-- Created with Inkscape (http://www.inkscape.org/) -->

<svg
   xmlns:dc="http://purl.org/dc/elements/1.1/"
   xmlns:cc="http://creativecommons.org/ns#"
   xmlns:rdf="http://www.w3.org/1999/02/22-rdf-syntax-ns#"
   xmlns:svg="http://www.w3.org/2000/svg"
   xmlns="http://www.w3.org/2000/svg"
   xmlns:sodipodi="http://sodipodi.sourceforge.net/DTD/sodipodi-0.dtd"
   xmlns:inkscape="http://www.inkscape.org/namespaces/inkscape"
   version="1.0"
   width="287.4104"
   height="606.1004"
   id="svg2090"
   inkscape:version="0.48.3.1 r9886"
   sodipodi:docname="sweden_counties.svg">
  <sodipodi:namedview
     pagecolor="#ffffff"
     bordercolor="#666666"
     borderopacity="1"
     objecttolerance="10"
     gridtolerance="10"
     guidetolerance="10"
     inkscape:pageopacity="0"
     inkscape:pageshadow="2"
     inkscape:window-width="1080"
     inkscape:window-height="1898"
     id="namedview56"
     showgrid="false"
     inkscape:zoom="2.0631211"
     inkscape:cx="68.091606"
     inkscape:cy="72.597304"
     inkscape:window-x="1912"
     inkscape:window-y="-8"
     inkscape:window-maximized="1"
     inkscape:current-layer="svg2090" />
  <metadata
     id="metadata1880">
    <rdf:RDF>
      <cc:Work
         rdf:about="">
        <dc:title>Counties of Sweden 2007, coloured</dc:title>
        <dc:date>2007-04-06</dc:date>
        <dc:creator>
          <cc:Agent>
            <dc:title>Lokal_Profil</dc:title>
          </cc:Agent>
        </dc:creator>
        <cc:license
           rdf:resource="http://creativecommons.org/licenses/by-sa/2.5/" />
        <dc:rights>
          <cc:Agent>
            <dc:title>cc-by-sa-2.5</dc:title>
          </cc:Agent>
        </dc:rights>
        <dc:source>Original borders from SCB</dc:source>
        <dc:format>image/svg+xml</dc:format>
        <dc:type
           rdf:resource="http://purl.org/dc/dcmitype/StillImage" />
      </cc:Work>
      <cc:License
         rdf:about="http://creativecommons.org/licenses/by-sa/2.5/">
        <cc:permits
           rdf:resource="http://web.resource.org/cc/Reproduction" />
        <cc:permits
           rdf:resource="http://web.resource.org/cc/Distribution" />
        <cc:requires
           rdf:resource="http://web.resource.org/cc/Notice" />
        <cc:requires
           rdf:resource="http://web.resource.org/cc/Attribution" />
        <cc:permits
           rdf:resource="http://web.resource.org/cc/DerivativeWorks" />
        <cc:requires
           rdf:resource="http://web.resource.org/cc/ShareAlike" />
      </cc:License>
    </rdf:RDF>
  </metadata>
  <defs
     id="defs2092" />
  <g
     transform="translate(-130.2226,-151.3524)"
     style="fill:#800000;fill-opacity:1;stroke:none;opacity:1"
     id="AB">
    <polygon
       points="318.375,549.188 318.25,548.625 318.25,548.188 317.5,548.75 317.375,549 317.563,549.75 317.5,550.25 316.875,550.5 316.563,550.438 316.5,549.813 316.5,549.25 316.75,548.5 316.5,547.375 316.375,547.125 316.25,546.688 316.063,546.375 315.938,546.188 315.75,546.438 315.813,546.75 316.188,547.375 316.313,548.063 316.313,548.438 316.125,548.625 315.938,548.688 315.75,548.625 315.625,548.875 315.75,549.063 315.188,549.5 315,549.625 315,550 315.313,550.25 315.375,550.438 315,551.125 315.063,552.75 315.188,553.313 315.438,553.125 315.75,552.375 315.813,551.875 315.875,551.125 316.188,550.875 316.5,551.125 316.563,551.625 316.688,553.625 316.813,554.875 316.625,555.625 316.438,555.875 316,555.625 315.563,555.563 315.25,557.125 314.813,555.375 313.188,554.625 313.063,553.625 309.75,553.688 308.125,551.375 308.375,547.625 307.25,545.625 306.938,543.563 307.813,542.438 308.25,543.125 308.813,542.875 309.438,542.875 309.938,543.125 310.625,543.438 310.563,543.125 309.813,542 309.75,541.688 309.75,540.625 309.563,540.375 309.5,540.063 309.875,539.938 310,540.25 310.188,540.313 310.75,540.688 311,540.688 311.625,541.375 313.25,542.313 313.75,542.313 314,542.625 314.25,543.438 314.625,544.313 314.813,544.625 315.125,544.75 315.188,544.438 314.875,543.688 314.75,542.75 314.688,542.563 314.5,542.375 314.375,542.125 314.5,541.75 314.938,541.563 315.125,541.75 315.563,541.688 315.563,541.438 316.188,541.563 316.688,541.875 316.875,542.313 317.313,542.688 317.75,542.375 318.25,542.5 318.75,542.438 319.5,542.375 319.875,542.625 320.063,543.063 320.188,543.375 320.375,543.063 320.313,541.938 320.188,541.688 320.313,541.25 320.75,541 321.125,540.688 321.5,540.5 321.938,540.313 322.438,540.25 322.625,540.063 323.063,540 323.563,539.813 324.063,539.75 324.375,539.563 324.125,539.375 324.625,539.313 325,539.688 325.313,539.75 325.625,539.563 325.563,539.313 325.313,538.875 324.75,538.438 323.938,537.5 324.5,536.875 324.625,536.375 324.625,535.813 324.688,535.563 325,535.25 324.875,535.125 325.5,534.563 325.75,534.438 325.875,534.875 325.938,535.063 326.188,535.063 326.688,534.75 326.813,534.875 326.813,535.125 326.813,535.563 326.688,535.625 326.25,535.5 326.125,535.75 326.063,536.25 326.063,536.625 326.5,536.813 326.813,536.813 327.125,537 328.313,536.875 328.75,536.75 328.938,536.5 328.75,536.313 328.313,536.375 328.25,536.188 328.5,536.063 328.563,535.875 328.25,535.5 328.063,535.25 327.688,535.25 327.438,535.25 327.375,535.063 327.5,534.813 327.813,534.813 328.188,534.938 328.625,534.813 328.813,534.625 328.938,534.313 328.813,534.063 328.563,534 328.313,533.875 328.5,533.625 328.75,533.625 328.938,533.813 329.125,533.938 329.375,533.813 329.625,533.813 329.75,534.063 330.125,534 330.375,534.063 330.688,534 331.063,533.313 331.063,533.063 331.188,532.875 331.563,532.813 331.938,532.5 332.188,532 332.375,531.875 333.188,530.938 333.563,530.875 333.75,530.625 334.375,530.125 335,529.688 335.5,529.438 336.25,528.875 337.313,527 337.563,524.813 339.938,523.438 343.188,523.688 344.375,522.875 344.188,521.063 342.125,520.438 342,518.625 343.5,518.688 344.25,516.438 342.938,515.375 340.938,513.938 339.438,511.313 338.438,507.688 337.625,507.125 337.875,504.438 336.188,502.875 336,504.938 335.438,506.25 334.063,505.875 332,505.438 331.625,507.438 331.188,509.438 329.563,510 330.875,511.625 330.063,512 329.688,517.188 328.188,518.75 324.938,519.625 324,522.875 323.563,522.875 323.125,523 322.938,522.875 322.375,523.313 321.938,523.313 321.25,523.938 320.938,524.125 320.5,524.188 318.875,524.813 319,525.125 318.625,525.313 318.375,525.125 317.938,525.125 317.438,525.375 317.188,526 316.813,525.938 316.688,525.438 316.188,525.313 315.875,524.938 315.313,524.938 314.688,524.813 314.813,525.625 314.25,525.875 313.625,526.438 313.813,526.688 313.5,527.188 313.25,527.25 312.875,527.563 312.625,528.25 312.688,528.938 313.5,529.75 313.438,530.313 313.438,530.563 313.563,530.813 313.313,531.5 313,531.688 312.75,532 312.625,532.25 312.75,532.5 313.5,533.375 313.688,533.313 313.563,533 313.688,532.75 313.938,532.75 314.125,532.938 314.125,533.75 314.25,534.063 314.563,534.063 314.688,533.813 314.5,533.563 314.438,533.313 314.75,532.938 315.125,533 315.625,533.313 316,533.563 316.063,533.938 316.25,534.188 316.313,534.875 316.688,535 316.938,535.063 316.938,535.313 317.188,535.375 317.438,535 317.375,534.188 317.5,533.5 317.813,533.438 318,534.063 318.313,533.813 318.5,534.063 318.438,534.313 318.375,534.375 318.313,534.563 317.938,535.813 317.875,536.375 318,536.688 318.188,536.938 318.438,537.25 319.125,538 319.688,538.563 320.5,539 320.688,539.375 320.875,539.563 321.313,539.625 321.625,540 321.938,540 322.188,539.875 322.375,539.438 322.375,539 322.438,538.813 322.563,538.875 322.938,539.313 323.313,539.5 323.688,539.5 324.125,539.375 324.063,539.75 324.375,539.875 324.875,540 325.25,540 325.75,539.875 326.438,539.563 326.875,539.313 327,539.313 327,539.813 327.063,540.5 327.25,540.688 328.063,540.688 328.438,540.625 328.75,540.75 328.938,541.125 329.063,541.438 329.563,541.5 329.875,541.625 329.938,541.875 329.75,542 329.313,541.938 328.563,541.75 328.188,541.75 328.125,541.875 328.188,542 328.375,542.188 328.875,542.25 330,543 330.313,543.438 330.625,543.563 331,543.625 331.375,544.313 331.188,544.563 330.75,544.875 330.563,545.313 330.875,545.625 331.563,545.875 331.875,545.75 332.188,545.625 332.375,545.75 331.938,546.813 331.625,547 331.375,547.125 331.188,547.125 331.063,546.938 330.875,546.938 330.375,547.438 330.188,547.5 329.875,547.438 329.625,547.563 329,547.875 328.688,548.438 329.625,548.375 329.688,548.625 329.375,549 328.375,549.313 327.875,549.625 327.563,549.938 327.313,550.063 327.25,549.875 327.25,549.625 327.563,549.313 327.813,549.125 327.813,549 327.688,548.813 327.813,548.563 328.063,548.438 328.25,548.375 328.438,548.188 328.438,548 328.188,547.813 327.75,547.875 327.438,548.063 327.313,548.375 327.438,548.563 327.375,548.813 327,549.063 326.063,549.5 325.938,549.688 325.375,549.875 325.188,550.125 325.063,550.5 324.813,550.625 324.313,550.688 324,550.813 323.875,551.188 323.813,551.563 323.688,551.75 323.438,551.688 323.375,551.313 323.125,551.25 323.063,551.5 323.25,552.5 323.313,552.875 323.188,553.063 323.063,553.063 322.938,552.688 322.813,552.5 322.688,552.938 322.625,553.313 322.25,554.313 322.5,555.625 322.25,556.563 321.813,556.938 321.313,557.438 321.063,558.438 320.688,558.813 320.188,560.813 318.875,561.25 318.875,560.813 319.25,560.313 319.5,559.875 319.563,559.25 319.125,558.125 318.563,557.188 318.063,556.688 317.938,556.25 318.063,556 318.063,554.5 317.813,554.125 317.875,553.813 318.063,553.375 317.813,552.188 317.563,551.5 317.563,551.125 317.813,550.625 318.063,550.25 317.938,549.813 318.063,549.313 318.375,549.188 "
       transform="translate(-25.94697,35.4107)"
       style="fill:#800000;fill-opacity:1;fill-rule:evenodd;stroke:none;stroke-width:0.10000000000000001;stroke-linecap:square;stroke-miterlimit:4;stroke-dasharray:none;stroke-opacity:1"
       id="polygon89" />
    <polygon
       points="330.188,538.063 330.938,538 331.375,538.125 332.063,538.75 332.063,539.063 331.75,539.25 331.938,539.375 331.875,539.563 331.5,540.125 331.375,540.5 331.563,540.75 332.188,540.625 332.75,540.75 333.25,541.063 333.438,541.313 334.063,541.625 334.25,541.625 334.375,541.438 334.063,541.188 334.063,541 335.563,540.75 337,540.313 337.125,540.5 336.125,541.75 336.188,542 335.813,542.063 335.438,542.188 335.25,542.438 334.688,542.625 334.688,543.063 334.375,543.25 334.063,543.5 333.875,543.688 332.938,543.438 332.688,542.875 332.25,542.75 331.688,542.438 331.5,541.875 331.125,541.688 330.688,541.063 330,541.063 329.75,540.875 329.875,540.688 330.063,540.5 329.938,539.938 330,539.75 330.313,539.5 330.5,539.25 330.25,539.125 329.875,539.188 329.625,539.063 329.063,539 329,539.625 328.875,539.938 328.625,540.188 328.188,540.438 327.688,540.375 327.438,540.25 327.375,540.063 327.375,539.75 327.438,538.813 327.938,538.5 328.125,538.375 328.188,538.063 329.063,538 329.438,538.063 329.875,538 330.188,538.063 "
       transform="translate(-25.94697,35.4107)"
       style="fill:#800000;fill-opacity:1;fill-rule:evenodd;stroke:none;stroke-width:0.10000000000000001;stroke-linecap:square;stroke-miterlimit:4;stroke-dasharray:none;stroke-opacity:1"
       id="polygon91" />
    <polygon
       points="332.25,536.438 332.375,536.75 332.375,537.125 332.25,537.5 332.188,537.813 332.25,538 332.375,538.188 332.5,538.375 332.5,538.75 332.313,539.813 332.313,540.125 332.563,540.313 332.875,540.313 333.625,540.75 334,540.625 335.063,540.438 335.563,540.313 335.813,540 336,539.5 336,539.188 335.813,538.75 335.313,538.5 334.75,538.313 334.25,538.438 334.125,538.125 334.563,538.063 335,538 335.25,538.063 335.438,538 335.688,537.813 335.688,537.563 335.5,537.313 335.25,537.313 334.875,537.563 333.438,536.688 333.125,535.688 333,535.563 332.563,535.5 332.313,535.5 332.063,535.625 331.875,535.563 331.688,535.625 331.75,535.875 331.875,536.063 332.125,536.188 332.25,536.438 "
       transform="translate(-25.94697,35.4107)"
       style="fill:#800000;fill-opacity:1;fill-rule:evenodd;stroke:none;stroke-width:0.10000000000000001;stroke-linecap:square;stroke-miterlimit:4;stroke-dasharray:none;stroke-opacity:1"
       id="polygon93" />
    <polygon
       points="318.25,539.813 318.375,540.125 318.188,540.438 317.75,540.625 317.188,540.438 316.875,540 316.75,539.813 316.375,539.813 316,539.188 315.438,538.313 315.063,537.438 314.938,536.75 314.375,535.625 314.25,535.188 314.188,535 314.25,534.875 314.5,534.688 314.813,535.063 315.125,535.25 315.563,535.75 315.938,535.938 316.125,535.813 316.563,536 317,536.438 316.875,536.5 316.688,536.5 316.438,536.625 316.438,536.875 316.688,537.438 316.875,537.5 317.063,537.375 317,537.125 317.125,537 317.688,537.625 317.75,537.813 318,538.188 318.125,538.75 318.063,539.313 318.063,539.625 318.25,539.813 "
       transform="translate(-25.94697,35.4107)"
       style="fill:#800000;fill-opacity:1;fill-rule:evenodd;stroke:none;stroke-width:0.10000000000000001;stroke-linecap:square;stroke-miterlimit:4;stroke-dasharray:none;stroke-opacity:1"
       id="polygon95" />
    <polygon
       points="314.625,538.375 314.688,538.688 314.563,539 314.875,539.125 314.938,539.688 314.875,539.938 314.938,540.313 315.063,540.5 315.375,540.688 316.188,541.125 317.063,541.75 317.875,541.75 318.125,541.813 318.313,541.938 318.875,542.125 319.438,541.875 319.5,541.75 319.438,541.438 318.75,541.125 318.813,541 318.563,540.938 318,541.125 317.75,541.063 317.25,540.875 316.5,540.438 316.063,540.063 315.5,540 315.063,538.438 314.125,535.688 313.875,535.688 313.5,535.813 313.188,535.938 312.875,536.25 312.938,536.688 313.063,537.063 313.125,537.313 313.375,537.438 313.563,537.438 313.75,537.375 314.063,538.25 314.313,538.438 314.625,538.375 "
       transform="translate(-25.94697,35.4107)"
       style="fill:#800000;fill-opacity:1;fill-rule:evenodd;stroke:none;stroke-width:0.10000000000000001;stroke-linecap:square;stroke-miterlimit:4;stroke-dasharray:none;stroke-opacity:1"
       id="polygon97" />
    <polygon
       points="334.625,533.938 334.875,533.938 335,533.75 335,533.188 334.813,532.688 334.938,532.375 335.125,532.25 335.375,532.25 335.75,532.063 335.938,531.688 336.25,531.125 336.438,530.813 336.75,530.75 336.75,530.563 336.5,530.438 336.438,530 336.188,530 336.125,529.875 336.375,529.625 336.125,529.5 335.813,529.75 335.563,529.938 334.688,530.5 334.625,530.875 334.25,531.188 334.125,531.375 334.188,531.625 333.938,531.875 334,532 334.313,532 334.438,532.125 334.375,532.438 334.125,532.75 333.875,532.625 333.813,532.375 333.563,532.313 333.313,532.438 333.188,532.813 333.375,532.938 333.438,533.125 333.438,533.5 333.5,533.813 333.75,534.063 333.938,534.313 333.875,534.813 333.938,535.063 334.25,535 334.5,534.625 334.5,534.125 334.625,533.938 "
       transform="translate(-25.94697,35.4107)"
       style="fill:#800000;fill-opacity:1;fill-rule:evenodd;stroke:none;stroke-width:0.10000000000000001;stroke-linecap:square;stroke-miterlimit:4;stroke-dasharray:none;stroke-opacity:1"
       id="polygon99" />
    <polygon
       points="331.688,552.25 331.938,551.938 332.063,550.438 332.625,549.875 332.625,549.375 333.125,548.875 333.25,548.5 332.813,547.688 332.813,547.75 331.688,549 330.875,549.375 330.75,549.563 330.938,549.625 330.938,549.75 330.375,550.563 330.438,550.75 330.75,550.688 330.813,550.813 330.688,550.938 330.5,551.125 330.313,551.375 330.438,551.875 330.813,552.125 331.313,551.938 331.438,552.25 331.688,552.25 "
       transform="translate(-25.94697,35.4107)"
       style="fill:#800000;fill-opacity:1;fill-rule:evenodd;stroke:none;stroke-width:0.10000000000000001;stroke-linecap:square;stroke-miterlimit:4;stroke-dasharray:none;stroke-opacity:1"
       id="polygon101" />
    <polygon
       points="342.438,526 341.25,525.438 340,526.188 339.063,527.875 338,528.813 338.438,529.125 340.125,527.813 341.125,527.938 341.25,526.938 342.438,526.813 342.438,526 "
       transform="translate(-25.94697,35.4107)"
       style="fill:#800000;fill-opacity:1;fill-rule:evenodd;stroke:none;stroke-width:0.10000000000000001;stroke-linecap:square;stroke-miterlimit:4;stroke-dasharray:none;stroke-opacity:1"
       id="polygon103" />
    <polygon
       points="327.938,556.313 328.188,556.188 328.375,555.938 328.625,555.813 329.063,555.875 329.75,555.5 329.5,555.25 329.188,555.063 329.375,554.75 330.438,554.125 330.625,553.875 330.625,553.438 330.5,553.313 330.25,553.5 330,553.813 329.313,554.25 328.938,554.125 327.688,554.938 327.438,555.125 326.875,555.563 326.375,556 326.375,556.375 326.563,556.313 326.875,556.125 327.25,555.75 327.375,555.938 327.375,556.25 327.938,556.313 "
       transform="translate(-25.94697,35.4107)"
       style="fill:#800000;fill-opacity:1;fill-rule:evenodd;stroke:none;stroke-width:0.10000000000000001;stroke-linecap:square;stroke-miterlimit:4;stroke-dasharray:none;stroke-opacity:1"
       id="polygon105" />
    <polygon
       points="324.75,554.125 324.938,553.938 325.125,553.563 325.313,553.438 325.5,553.563 325.563,553.875 325.75,554.063 326.125,554 326.375,553.75 326.125,553.25 326.063,552.938 326.25,552.75 326.5,552.875 326.625,552.688 326.563,552.375 326.75,552 327.063,552 327.375,551.813 327.438,551.625 327.188,551.625 326.5,551.438 325.938,551.75 325.25,551.75 325.063,551.875 324.875,552.125 324.875,552.25 324.938,552.563 324.875,552.813 324.438,553.25 324.375,553.438 324.438,553.875 324.313,554.188 324.438,554.25 324.75,554.125 "
       transform="translate(-25.94697,35.4107)"
       style="fill:#800000;fill-opacity:1;fill-rule:evenodd;stroke:none;stroke-width:0.10000000000000001;stroke-linecap:square;stroke-miterlimit:4;stroke-dasharray:none;stroke-opacity:1"
       id="polygon107" />
    <polygon
       points="337.688,537.563 337.938,537.938 338,538.438 338,539 337.875,539.375 337.563,539.625 337,540 336.813,540.063 336.625,540 336.75,539.25 336.75,538.813 336.563,538.25 335.938,537.313 336.625,537 336.938,537.375 337.188,537.188 337.688,537.563 "
       transform="translate(-25.94697,35.4107)"
       style="fill:#800000;fill-opacity:1;fill-rule:evenodd;stroke:none;stroke-width:0.10000000000000001;stroke-linecap:square;stroke-miterlimit:4;stroke-dasharray:none;stroke-opacity:1"
       id="polygon109" />
    <polygon
       points="312,537.875 312.188,538.188 312.125,538.563 312.313,539 312.688,539.313 312.938,539.375 313.063,539.125 313,538.625 313.063,538.375 313.188,538.125 313.125,537.813 312.938,537.625 312.625,536.75 312.375,536.5 312.313,536.188 312,536.125 311.563,536.313 311.563,536.625 311.563,536.813 311.563,537.125 311.563,537.313 311.563,537.5 312,537.875 "
       transform="translate(-25.94697,35.4107)"
       style="fill:#800000;fill-opacity:1;fill-rule:evenodd;stroke:none;stroke-width:0.10000000000000001;stroke-linecap:square;stroke-miterlimit:4;stroke-dasharray:none;stroke-opacity:1"
       id="polygon111" />
    <polygon
       points="324.875,537 325,536.875 325.313,536.938 325.75,537.125 326.313,537.375 326.938,537.5 327.125,537.5 327.438,537.438 327.75,537.5 327.75,537.75 327.625,537.813 327.313,537.813 327.188,537.938 327.25,538.063 327.375,538.25 327.25,538.438 327,538.625 326.625,538.813 326.188,538.813 325.688,538.688 325.375,538.188 325.313,537.938 325.313,537.625 325.125,537.438 324.875,537.375 324.813,537.188 324.875,537 "
       transform="translate(-25.94697,35.4107)"
       style="fill:#800000;fill-opacity:1;fill-rule:evenodd;stroke:none;stroke-width:0.10000000000000001;stroke-linecap:square;stroke-miterlimit:4;stroke-dasharray:none;stroke-opacity:1"
       id="polygon113" />
    <polygon
       points="320.438,539.438 320.438,539.688 320.313,539.813 320.25,540 320.188,540.375 319.875,540.688 319.563,540.625 319.25,540.188 318.688,539.5 318.688,539.25 318.813,538.875 318.938,538.688 319.375,538.625 319.688,538.75 320,539.313 320.188,539.438 320.438,539.438 "
       transform="translate(-25.94697,35.4107)"
       style="fill:#800000;fill-opacity:1;fill-rule:evenodd;stroke:none;stroke-width:0.10000000000000001;stroke-linecap:square;stroke-miterlimit:4;stroke-dasharray:none;stroke-opacity:1"
       id="polygon115" />
    <polygon
       points="340.375,535.688 340.375,535.375 340.313,535.063 340.313,534.75 340.438,534.5 340.75,534.188 341.125,534 341.375,533.938 341.688,534 341.75,534.188 341.813,534.5 341.625,534.688 341.375,534.75 341.375,535.188 341.063,535.563 340.75,535.813 340.625,536 340.563,536.188 340.25,536.438 340.063,536.375 340.125,536.063 340.375,535.688 "
       transform="translate(-25.94697,35.4107)"
       style="fill:#800000;fill-opacity:1;fill-rule:evenodd;stroke:none;stroke-width:0.10000000000000001;stroke-linecap:square;stroke-miterlimit:4;stroke-dasharray:none;stroke-opacity:1"
       id="polygon117" />
    <polygon
       points="338.188,540.625 338.75,540.188 339.063,540.125 339.5,540.5 339.063,541 338.938,541.563 338.625,541.75 338.313,541.625 338,541.75 337.75,541.75 337.75,541.375 337.938,540.875 338.188,540.625 "
       transform="translate(-25.94697,35.4107)"
       style="fill:#800000;fill-opacity:1;fill-rule:evenodd;stroke:none;stroke-width:0.10000000000000001;stroke-linecap:square;stroke-miterlimit:4;stroke-dasharray:none;stroke-opacity:1"
       id="polygon119" />
    <polygon
       points="342.125,536.125 342.25,536.813 342.125,537.063 341.75,537 341.625,536.813 341.625,536.063 341.5,535.813 341.813,535.625 341.875,535.313 342.063,535.125 342.438,535.188 342.5,535.5 342.125,536.125 "
       transform="translate(-25.94697,35.4107)"
       style="fill:#800000;fill-opacity:1;fill-rule:evenodd;stroke:none;stroke-width:0.10000000000000001;stroke-linecap:square;stroke-miterlimit:4;stroke-dasharray:none;stroke-opacity:1"
       id="polygon121" />
    <polygon
       points="337.063,544.063 337.188,543.75 337.438,543.5 337.625,543.625 337.563,544.063 338.063,543.813 338.375,543.875 338.25,544.25 338,544.375 337.625,544.5 337.25,544.688 336.875,544.875 336.563,545.188 336.625,544.875 337.063,544.063 "
       transform="translate(-25.94697,35.4107)"
       style="fill:#800000;fill-opacity:1;fill-rule:evenodd;stroke:none;stroke-width:0.10000000000000001;stroke-linecap:square;stroke-miterlimit:4;stroke-dasharray:none;stroke-opacity:1"
       id="polygon123" />
    <polygon
       points="341.563,537.688 341.625,537.938 341.375,538.125 341.375,538.375 341.125,538.875 341.188,539.125 341.438,539.438 341.25,539.625 340.563,539.563 340.688,539.313 340.75,538.813 340.813,538.25 340.938,537.938 341.188,537.625 341.375,537.625 341.563,537.688 "
       transform="translate(-25.94697,35.4107)"
       style="fill:#800000;fill-opacity:1;fill-rule:evenodd;stroke:none;stroke-width:0.10000000000000001;stroke-linecap:square;stroke-miterlimit:4;stroke-dasharray:none;stroke-opacity:1"
       id="polygon125" />
    <polygon
       points="329.063,535.063 328.938,535.5 329.188,535.688 329.625,535.25 330.063,535.125 330.063,534.938 329.75,534.813 329.5,534.563 329.313,534.625 329.125,534.813 329.063,535.063 "
       transform="translate(-25.94697,35.4107)"
       style="fill:#800000;fill-opacity:1;fill-rule:evenodd;stroke:none;stroke-width:0.10000000000000001;stroke-linecap:square;stroke-miterlimit:4;stroke-dasharray:none;stroke-opacity:1"
       id="polygon127" />
  </g>
  <path
     d="M 151.7059,369.8708 L 150.8934,377.3083 L 148.9559,379.1208 L 149.0184,383.9958 L 147.04965,385.6833 L 143.0809,385.02705 L 142.2684,386.02705 L 142.6434,386.90205 L 140.9559,388.5583 L 139.3934,388.6208 L 139.73715,391.96455 L 138.8934,392.3083 L 139.5184,395.1208 L 138.8934,396.3708 L 140.9559,398.02705 L 141.17465,399.96455 L 140.73715,400.90205 L 141.8934,402.4958 L 141.8309,402.4958 L 141.2059,404.1833 L 140.0809,405.7458 L 141.1434,407.7458 L 142.7059,410.0583 L 143.5184,414.4333 L 144.9559,415.8708 L 146.3934,414.9958 L 147.6434,414.6208 L 150.0184,415.7458 L 152.6434,417.9333 L 154.3934,417.9958 L 154.3309,415.8708 L 152.8309,412.8083 L 153.0184,412.4333 L 153.7059,412.1208 L 153.8309,412.7458 L 154.0809,413.3083 L 154.6434,414.1833 L 155.3309,415.0583 L 156.0809,415.5583 L 156.4559,415.4958 L 156.7059,415.0583 L 156.9559,414.4333 L 157.2684,414.3708 L 157.3309,413.8083 L 156.5184,412.9958 L 156.4559,412.3083 L 156.7059,411.6208 L 157.0809,411.3083 L 157.3309,411.2458 L 157.6434,410.7458 L 157.4559,410.4958 L 158.0809,409.9333 L 158.6434,409.6833 L 158.5184,408.8708 L 159.1434,408.9958 L 159.7059,408.9958 L 160.0184,409.3708 L 160.5184,409.4958 L 160.6434,409.9958 L 161.0184,410.0583 L 161.2684,409.4333 L 161.7684,409.1833 L 162.2059,409.1833 L 162.4559,409.3708 L 162.8309,409.1833 L 162.7059,408.8708 L 164.3309,408.2458 L 164.7684,408.1833 L 165.0809,407.9958 L 165.7684,407.3708 L 166.2059,407.3708 L 166.7684,406.9333 L 166.9559,407.0583 L 167.3934,406.9333 L 167.8309,406.9333 L 168.7684,403.6833 L 172.0184,402.8083 L 173.5184,401.2458 L 173.8934,396.0583 L 174.7059,395.6833 L 173.3934,394.0583 L 175.0184,393.4958 L 175.4559,391.4958 L 175.8309,389.4958 L 175.7059,387.2458 L 176.9559,387.2458 L 177.5184,386.1208 L 176.7059,384.5583 L 175.0184,383.1833 L 176.7059,382.9958 L 176.9559,381.6833 L 175.5184,381.1833 L 174.0184,378.8083 L 173.2059,375.2458 L 172.5184,375.6208 L 172.4559,377.3708 L 173.3309,380.8708 L 172.6434,381.7458 L 170.6434,381.2458 L 167.0809,378.1833 L 164.8934,375.3083 L 164.6434,372.6833 L 162.9559,371.6208 L 160.6434,372.6833 L 159.5184,374.6208 L 157.9559,374.9333 L 156.8309,372.0583 L 156.8934,369.8708 L 151.7059,369.8708 z "
     style="fill:#800000;fill-opacity:1;fill-rule:evenodd;stroke:none;stroke-width:0.10000000000000001;stroke-linecap:square;stroke-miterlimit:4;stroke-dasharray:none;stroke-opacity:1;opacity:1"
     id="C" />
  <polygon
     points="280.125,555.188 282.125,556.125 283.063,557.938 284.5,559.563 285.813,559.875 286.375,560.75 288.875,565.563 292.625,565.688 295.688,566.75 297,568.625 298.5,568.813 300.25,569 302.563,568.188 302.5,567.313 300.75,566.813 301.688,566.313 302.938,566.438 304.188,567.313 305.125,565.875 304.063,564.875 302.563,563.5 303.938,562.938 305,564 306.063,564 308.25,564.5 309.125,563.438 310.5,563.75 310.813,561.875 311.375,562 311.75,562.125 312.875,562 312.313,561.313 312.625,558.75 314,559.875 314.688,559.375 314.188,558.25 315.25,557.125 314.813,555.375 313.188,554.625 313.063,553.625 309.75,553.688 308.125,551.375 308.375,547.625 307.25,545.625 306.938,543.563 307.813,542.438 307.25,541 308.375,540.125 308.125,538.875 307.5,538.688 308.563,537.375 307.625,535.313 304.813,534.625 304.25,535.5 305,538 303.438,538.125 302.625,535.5 303.25,534 302,533.125 301.063,533.625 300.75,535.063 298.375,533.938 297.25,534.5 295.563,534.625 293.563,535.25 291.688,534.938 289.625,535.313 285.75,535.625 285.625,536.75 286.625,537.563 286.375,538.563 283.75,539.125 282,538.875 280.875,538.438 279.375,539.75 277.875,541.5 280.813,541.688 282.313,542.875 286.313,541.563 287.188,541.625 286.438,542.938 284.75,543.625 282.438,543.875 281,544.5 278.688,545.313 278.563,546.813 277.5,547.75 276.125,547.625 276.188,548.875 274.188,549.125 273.125,550.938 272.688,552.75 273.25,553.625 275.5,554.563 276.625,552.188 277.688,552.75 278.063,553.813 280.125,555.188 "
     transform="translate(-156.1696,-115.9417)"
     style="fill:#800000;fill-opacity:1;fill-rule:evenodd;stroke:none;stroke-width:0.10000000000000001;stroke-linecap:square;stroke-miterlimit:4;stroke-dasharray:none;stroke-opacity:1;opacity:1"
     id="D" />
  <polygon
     points="258,589.188 259.063,589.75 259.938,593.25 260.438,594.563 259.688,595.5 259,597.188 259.438,598.813 261,600.688 260.688,601.688 261.438,604.438 262.313,606.5 265.5,606.25 268.375,606.875 268.625,604.938 269.25,604.125 270.563,604.375 271,602.938 272.188,601.813 272,600.625 273.938,600.188 276.25,600.938 276.625,602.25 278.188,601.5 279.375,602.25 281.5,600.313 282.563,600.188 281.5,596.563 282.5,595.75 280.75,593.188 281.063,591.063 283.063,591 283.625,592.063 284.875,591.875 284.375,590.188 284.938,589.563 286.5,588.188 287.438,589.125 289.125,588.438 291.25,591.125 291.938,589.813 293.25,590.5 294.375,595 296.063,595.25 297.375,594.313 296.438,592.5 297.813,591.625 296.063,589.875 295.75,588.563 297.688,589.438 298.75,586.75 297.563,585 295.75,583.625 299.313,582.875 300.063,581 298.438,579.688 296.375,579.563 295.813,578.125 293.813,577.563 293.125,576.5 294.188,576.625 296.5,577 298.813,576.188 300.375,573.625 298.688,571.938 296.188,570.063 293.188,568.688 290,568.438 289.563,570.313 288.375,568.938 286.688,569.625 286,569.313 286,567.938 286.813,567.125 289,567.438 290.5,567.438 293.375,568.188 295.563,568.563 297,568.625 295.688,566.75 292.625,565.688 288.875,565.563 286.375,560.75 285.813,559.875 284.5,559.563 283.063,557.938 282.125,556.125 280.125,555.188 278.063,553.813 277.688,552.75 276.625,552.188 275.5,554.563 273.25,553.625 271.063,556 271.813,557.375 270.875,558.813 269.125,558.813 268.688,560.625 268,559.438 267,560 265.063,558.813 263.75,560.375 262.625,560.375 261.625,561.688 260.813,563.313 260.375,564.813 258.438,565.938 258.125,568.625 256.688,570.375 258.125,571.563 259.438,571.875 260.188,572.563 258.813,573.375 258,575.375 256.688,576 255.75,575 254.813,575.438 254.75,576.75 252.25,578.75 251.938,580.125 251.5,581.563 251.75,582.375 251.188,583.25 250.688,586 249.438,590.063 250.875,590.625 254,590.188 254.125,591.438 257.125,590.813 258,589.188 "
     transform="translate(-156.1696,-115.9417)"
     style="fill:#800000;fill-opacity:1;fill-rule:evenodd;stroke:none;stroke-width:0.10000000000000001;stroke-linecap:square;stroke-miterlimit:4;stroke-dasharray:none;stroke-opacity:1;opacity:1"
     id="E" />
  <polygon
     points="259,597.188 259.688,595.5 260.438,594.563 259.938,593.25 259.063,589.75 258,589.188 257.125,590.813 254.125,591.438 254,590.188 250.875,590.625 249.438,590.063 247.875,592.5 247.438,594.25 245.313,595.625 243.813,598.313 243.313,600.25 243.125,602.625 242,602.688 241.375,603.25 240.75,602.813 240.938,601.125 240.625,599.438 240.063,598.875 240.188,595.938 241.125,594.313 241.938,591.563 242.438,588.313 240.313,588 240.25,591.125 239.313,592.25 239.188,593 236.813,593.688 236.688,592.688 235.063,592 234.438,592.438 233.375,591.813 232.875,591.938 232.438,593.375 231.313,594.688 231.313,596.5 232.125,598.75 231.875,600.375 231.813,603.625 231.063,604.75 230.938,605.875 231.563,607.5 231.188,608.625 230.188,609.125 230.063,610 230.25,611.875 229.875,613 228.813,613.688 226.188,617.688 225.688,619.125 224.438,619.75 224.375,620.75 223.375,621 223,621.75 221.313,622.125 220.75,624.375 219.75,623.938 219.063,624.875 218.625,626.875 217.5,628.25 216.438,629.125 216.438,630.438 217.25,633.063 219.313,631.313 219.563,630.063 220.438,630.563 222.438,629.75 224.688,630.125 225.313,629.625 225.5,630.938 226.188,630.75 227.938,631.938 227.563,633.438 228.125,634.75 229.563,635.375 230.063,632.625 231.063,632.063 232.625,632.25 233.563,634.563 234.875,633.938 235.125,632.938 237.125,632.375 238.313,632.813 239.188,633.75 239.625,633.375 240.938,635.5 241.125,637.25 242,639.375 243,639.938 244.063,639.313 245.313,636.438 244,634.75 243.75,633.313 244.25,632.625 244.313,628.875 245.375,628.875 247.563,628.813 248.875,628.5 249.063,627.188 249.938,627.375 250.313,626.813 251.75,626.625 253,625.875 254.313,625.875 255.688,626.625 256.625,627.625 257,629.625 258.25,629.563 258.625,628.563 259.563,628.313 260.5,627.75 260.875,627.063 262.438,627.188 261.5,625.75 262.813,625.75 263.813,626.5 267.375,626 270.75,627.313 270.063,625.5 269.313,624.938 269.25,622.813 270.25,622.063 269.875,620.25 270.188,619.5 270.125,617.25 271.188,616.438 272.375,617.313 272.438,615.438 273.125,614.813 272.813,613.625 271.875,612.813 273.563,610.688 270.438,608.25 268.875,607.938 268.375,606.875 265.5,606.25 262.313,606.5 261.438,604.438 260.688,601.688 261,600.688 259.438,598.813 259,597.188 "
     transform="translate(-156.1696,-115.9417)"
     style="fill:#800000;fill-opacity:1;fill-rule:evenodd;stroke:none;stroke-width:0.10000000000000001;stroke-linecap:square;stroke-miterlimit:4;stroke-dasharray:none;stroke-opacity:1;opacity:1"
     id="F" />
  <polygon
     points="260.5,627.75 259.563,628.313 258.625,628.563 258.25,629.563 257,629.625 256.625,627.625 255.688,626.625 254.313,625.875 253,625.875 251.75,626.625 250.313,626.813 249.938,627.375 249.063,627.188 248.875,628.5 247.563,628.813 245.375,628.875 244.313,628.875 244.25,632.625 243.75,633.313 244,634.75 245.313,636.438 244.063,639.313 243,639.938 242,639.375 241.125,637.25 240.938,635.5 239.625,633.375 239.188,633.75 238.313,632.813 237.125,632.375 235.125,632.938 234.875,633.938 233.563,634.563 232.625,632.25 231.063,632.063 230.063,632.625 229.563,635.375 229.688,636.375 228.875,638.75 228.063,638.438 227.813,639.188 226.063,639.188 225,640.125 224.625,639.625 222.375,640.25 221.688,639.813 220.688,640.75 221.125,643.813 221.125,647.063 222.125,648.375 222.688,650.375 223,651.563 223.563,652.188 224.188,654.5 223.563,656.188 224.063,657 223.688,657.875 224.563,658.75 226.375,658.875 229.313,658.188 231.25,657.375 233.063,657.438 234.375,656.688 236.375,656.75 237.313,655.25 237.5,654.188 238.375,654.125 239.063,655.188 241.438,655.875 241.75,655.438 245.438,656.438 247.875,657.438 249.5,657.688 251.125,659.813 252.063,660.25 254.125,660.625 255.875,661.438 256.813,660.625 257.875,658.375 259.063,657.5 261.5,657.5 261.688,658.375 263,658.375 263.25,657.313 264.313,656.625 265.313,657.5 266.25,656.438 266.438,654.125 267.063,653.5 266.875,651.688 268.188,649.938 267.938,648.875 268.188,647.125 266.813,644.563 268.625,643.813 270.938,643.438 271.188,642.188 270.25,639.688 270.313,638.875 271.25,638.375 273.438,639.188 274.375,639 276.938,638.75 277.688,636.5 276.75,634.563 275.313,632.625 273.75,631.938 272.875,630.188 270.875,629.25 271.313,628 270.75,627.313 267.375,626 263.813,626.5 262.813,625.75 261.5,625.75 262.438,627.188 260.875,627.063 260.5,627.75 "
     transform="translate(-156.1696,-115.9417)"
     style="fill:#800000;fill-opacity:1;fill-rule:evenodd;stroke:none;stroke-width:0.10000000000000001;stroke-linecap:square;stroke-miterlimit:4;stroke-dasharray:none;stroke-opacity:1;opacity:1"
     id="G" />
  <g
     transform="translate(-130.2226,-151.3524)"
     style="fill:#800000;fill-opacity:1;stroke:none;opacity:1"
     id="H">
    <polygon
       points="275.313,632.625 276.75,634.563 277.688,636.5 276.938,638.75 274.375,639 273.438,639.188 271.25,638.375 270.313,638.875 270.25,639.688 271.188,642.188 270.938,643.438 268.625,643.813 266.813,644.563 268.188,647.125 267.938,648.875 268.188,649.938 266.875,651.688 267.063,653.5 266.438,654.125 266.25,656.438 267.688,655.938 269.563,656.688 269.813,655.313 271.438,655.938 272,657.188 273.125,657.188 273.5,658.25 273.938,659.25 275.188,659.625 276.625,662.375 277.875,663.313 280.063,663.188 281,663.875 282.5,663.125 283.188,659.875 284,657.125 284.938,656.188 285.5,654.313 286.313,654 286.25,652.063 286.563,650.813 287.563,648.875 289.188,648.438 290.125,644.375 291.063,645.125 291.75,644.313 291.125,643.313 290.375,643.813 291,640.063 291.5,637.875 291.375,636.063 292.125,633.875 294.125,630.875 292.25,630 291.438,627.313 292.25,625.75 291.813,623.75 293.5,622.5 293.25,620.25 294.813,620.188 295.625,618 296.313,615.563 295.875,614.063 293.875,611.688 295.875,611.5 296.625,610.75 296.625,609.438 295.188,610 294.375,608.938 295.063,607.313 296.313,606.625 296.25,604.563 294.625,603.5 292.75,600.813 294.188,598.688 296.063,599 297.313,600.063 297.75,597.688 297.375,594.313 296.063,595.25 294.375,595 293.25,590.5 291.938,589.813 291.25,591.125 289.125,588.438 287.438,589.125 286.5,588.188 284.938,589.563 284.375,590.188 284.875,591.875 283.625,592.063 283.063,591 281.063,591.063 280.75,593.188 282.5,595.75 281.5,596.563 282.563,600.188 281.5,600.313 279.375,602.25 278.188,601.5 276.625,602.25 276.25,600.938 273.938,600.188 272,600.625 272.188,601.813 271,602.938 270.563,604.375 269.25,604.125 268.625,604.938 268.375,606.875 268.875,607.938 270.438,608.25 273.563,610.688 271.875,612.813 272.813,613.625 273.125,614.813 272.438,615.438 272.375,617.313 271.188,616.438 270.125,617.25 270.188,619.5 269.875,620.25 270.25,622.063 269.25,622.813 269.313,624.938 270.063,625.5 270.75,627.313 271.313,628 270.875,629.25 272.875,630.188 273.75,631.938 275.313,632.625 "
       transform="translate(-25.94697,35.4107)"
       style="fill:#800000;fill-opacity:1;fill-rule:evenodd;stroke:none;stroke-width:0.10000000000000001;stroke-linecap:square;stroke-miterlimit:4;stroke-dasharray:none;stroke-opacity:1"
       id="polygon75" />
    <polygon
       points="292.938,645.063 291.563,648.5 291.125,650.688 290,652.688 289.813,654.375 290,658.563 290.438,658.75 290.375,665.25 290.75,665.938 290.625,668.063 292.063,666.75 292.813,664.438 294.25,660.938 293.875,659.563 294.813,657.313 295.5,654.813 295.688,652.875 296.875,651.688 296.688,650.813 297.063,648.563 298.688,642.5 299.75,642.188 300.375,640.75 300.313,639.438 300.813,638.563 300.813,635.75 302.063,634.625 301.5,633.313 302.375,633.313 303.125,630.563 304.25,628.125 304.813,627.563 304.813,625.125 304.5,624.188 305.063,622.75 306.125,622.125 305.75,620.563 305.125,620.938 304.625,620.25 303.688,621.063 302.563,622.875 302.375,624.875 302.125,626.188 301.25,626.75 301.5,628.125 301,630.188 300,632.375 299.313,634.063 298.438,634.938 297.75,636.938 297.063,639.438 295.75,639.438 294.813,640.25 294.125,642.688 292.938,645.063 "
       transform="translate(-25.94697,35.4107)"
       style="fill:#800000;fill-opacity:1;fill-rule:evenodd;stroke:none;stroke-width:0.10000000000000001;stroke-linecap:square;stroke-miterlimit:4;stroke-dasharray:none;stroke-opacity:1"
       id="polygon77" />
  </g>
  <polygon
     points="335.188,600.188 336.438,599.75 337.438,599.438 337.875,597.688 338.813,596.875 339.938,596.188 341.5,599.375 342.375,596.625 343.25,595.688 346.313,596.313 347.5,595.313 347.813,593.688 349.438,592.688 351.25,593.25 352.5,593.125 352.875,593.938 352.313,594.688 350.688,594.75 349.375,595.25 348.813,595.875 349.313,596.875 348.5,598.563 347.125,599.438 346.438,599.938 346.563,601.438 345.125,601.5 345.063,604.063 343.375,604.188 342.25,603.375 342.063,605.563 341.375,608.563 342.188,609 341.938,611.5 341.25,612.75 342.313,614.688 343.688,615.688 345.063,616 344.438,617.75 342.75,618.375 341.375,618.813 339.875,621.25 339.938,622.5 340.813,623.125 340.063,624.563 337.563,625.563 337.25,626.375 334.188,628.875 335.063,629.25 332.813,631.063 332.938,633.688 334.125,634.188 332.563,636.438 330.188,638.188 328.688,638.063 329.875,635.188 330.063,633.5 331.5,632.563 332,631.375 331.75,630.375 330.375,631.5 329.875,631.25 330.188,628.875 329.188,628.125 328.5,627.563 328.5,624.375 327.313,624 327.563,622.375 328.688,621.063 328.938,618.438 328.125,617.375 327.625,615.25 327.125,613.25 327.438,611.688 329.188,609.5 330.375,608.938 331.813,606.813 333.375,603.75 334.063,601.188 335.188,600.188 "
     transform="translate(-156.1696,-115.9417)"
     style="fill:#800000;fill-opacity:1;fill-rule:evenodd;stroke:none;stroke-width:0.10000000000000001;stroke-linecap:square;stroke-miterlimit:4;stroke-dasharray:none;stroke-opacity:1;opacity:1"
     id="I" />
  <polygon
     points="248.75,668 249.188,672.688 248.25,673.125 248.063,674.25 249.438,675.438 250.688,676.125 252.188,676.25 253.438,674.75 252.063,673.25 251.313,671.375 251.188,669.688 252.438,669.938 253.375,670 255.063,669.75 257.375,669.625 259,669.625 259.875,668.625 260.688,669.563 262.25,669.688 264.25,669.313 265.188,669 265.75,670.75 267.313,669.875 267.875,668.875 268.938,670 269.813,669.125 271.313,668.563 272.063,669.125 274.313,668.688 275.438,669.75 275.063,670.938 273.625,672.313 274.688,672.688 276.438,671.625 277.938,673 279.313,669.938 280.313,669.25 281.563,666.75 282.5,663.125 281,663.875 280.063,663.188 277.875,663.313 276.625,662.375 275.188,659.625 273.938,659.25 273.5,658.25 273.125,657.188 272,657.188 271.438,655.938 269.813,655.313 269.563,656.688 267.688,655.938 266.25,656.438 265.313,657.5 264.313,656.625 263.25,657.313 263,658.375 261.688,658.375 261.5,657.5 259.063,657.5 257.875,658.375 256.813,660.625 255.875,661.438 254.125,660.625 252.063,660.25 251.125,659.813 249.5,657.688 247.875,657.438 246.563,659.688 245.25,660.063 244.75,662.125 245.188,663.563 245.625,664.875 245.813,666.688 247,667.188 248.25,667 248.75,668 "
     transform="translate(-156.1696,-115.9417)"
     style="fill:#800000;fill-opacity:1;fill-rule:evenodd;stroke:none;stroke-width:0.10000000000000001;stroke-linecap:square;stroke-miterlimit:4;stroke-dasharray:none;stroke-opacity:1;opacity:1"
     id="K" />
  <polygon
     points="229.313,658.188 231.25,657.375 233.063,657.438 234.375,656.688 236.375,656.75 237.313,655.25 237.5,654.188 238.375,654.125 239.063,655.188 241.438,655.875 241.75,655.438 245.438,656.438 247.875,657.438 246.563,659.688 245.25,660.063 244.75,662.125 245.188,663.563 245.625,664.875 245.813,666.688 247,667.188 248.25,667 248.75,668 249.188,672.688 248.25,673.125 248.063,674.25 246.25,674.875 245.375,676.563 243.625,677.625 242.875,679.438 241.875,679.938 240.125,683 239.875,685.813 240.25,688.5 241.563,689.438 241.938,691.813 243.188,692.938 243.438,694.75 242.688,696.313 241,698.063 239.75,700.313 239.313,701.063 237.25,700.75 236.313,700.875 233.938,699.063 232.938,698.625 231.438,699 228.813,698.75 227.938,699.25 226.75,699.25 225.438,700.875 222.875,700.75 222.125,701 221.375,701.625 220.438,701.688 219.375,702.375 219,701.938 218.188,702 217.688,701.75 216.5,701.125 214.375,700.563 213.5,700.75 213,700.75 211.875,699.938 211.063,699.375 210.375,699.5 210,699.688 209.875,700 209.5,700 209.188,699.625 208.75,699.5 207.313,700 208.563,697.563 208.688,697.813 208.875,698.688 209.563,698.938 210.125,699.063 210.375,698.563 210.75,697.688 210.813,696.688 210.625,696 210.375,695.25 209.875,694.188 209.813,693.125 209.813,692.375 210.25,691.938 211.438,691.188 212.125,690.75 213.063,690.5 213.313,690 213.25,689.563 213.25,689.25 213.625,688.438 213.563,688.125 213.313,687.313 212.938,687.063 212.125,686.313 211.563,686.375 211.188,686.188 211.438,685.75 211.188,685.188 210.5,685.438 210.125,684.875 210.5,684.438 210.813,684.188 210.625,682.125 210.188,680.563 208.625,680.188 207.438,676.438 207.063,674.438 206.188,672.688 205.063,671.313 204.125,669.875 203.438,669 203.188,668.313 202.813,665.75 202.5,664.5 201.813,663.188 200.875,662.375 201.875,662.313 203.938,663.625 205.75,664.75 206.25,665.625 206.938,665.625 207.75,665.875 208.25,666 209.125,665.438 209.625,664.188 209.063,662.875 207.938,661.688 207.438,660.25 206.313,659.25 205.125,658.875 205,657.25 206.125,656.375 207.25,655.875 208.75,656.563 209.875,657.375 211.188,656.875 212.688,657.813 212.063,660.063 213.063,660.313 216.625,660.875 217.75,661.875 218.813,660.813 220.125,659.5 221.875,658.438 222.813,658.563 223.688,657.875 224.563,658.75 226.375,658.875 229.313,658.188 "
     transform="translate(-156.1696,-115.9417)"
     style="fill:#800000;fill-opacity:1;fill-rule:evenodd;stroke:none;stroke-width:0.10000000000000001;stroke-linecap:square;stroke-miterlimit:4;stroke-dasharray:none;stroke-opacity:1;opacity:1"
     id="M" />
  <polygon
     points="220.688,640.75 221.125,643.813 221.125,647.063 222.125,648.375 222.688,650.375 223,651.563 223.563,652.188 224.188,654.5 223.563,656.188 224.063,657 223.688,657.875 222.813,658.563 221.875,658.438 220.125,659.5 218.813,660.813 217.75,661.875 216.625,660.875 213.063,660.313 212.063,660.063 212.688,657.813 211.188,656.875 211.938,655.75 212.375,654.563 212.5,652.625 212.25,650.75 211.625,648.688 210.313,647.875 209.063,648.688 207.813,648.625 206.938,646.688 206.188,644.938 205.438,642.813 205.563,640.813 204.313,639.625 202.625,638.25 200.938,637.625 199.875,636.25 200.25,634.938 200.25,633.875 199.688,632.438 198.625,631.688 198,630.063 197.875,627.75 196.813,625.938 195.438,624.25 195.563,622.625 196.688,622.063 196.563,620.938 196.375,619.563 196.125,619.188 195.313,619.375 195.063,618.938 195.625,617.5 195.688,615.563 195.5,614.688 195.063,614.438 194.625,614.875 194.313,615.813 193.75,617.813 193.438,618.438 193.063,618.625 192.563,618.375 192.25,617.625 191.5,615.688 191.438,615 191.625,614.25 192.25,612.625 192.188,611.563 192.125,610.188 193.563,610.188 194.125,610.75 196.313,610.375 197.813,609.875 199.625,608.813 200.813,610.375 200.375,611.938 200.75,612.625 200.938,613.5 200.688,614.375 200.875,614.875 201.438,615.125 201.75,615.5 202,616.875 201.5,619.688 202.25,620.563 202.125,622.563 203.813,622.313 204.375,620.625 207.188,620.125 208.375,620.375 210.313,622.25 211.625,623.188 213.25,623.313 213.688,624.5 213.188,624.813 213.313,627 214.875,626.625 215.875,627 215.625,627.875 216.188,628.188 216.813,627.75 217.5,628.25 216.438,629.125 216.438,630.438 217.25,633.063 219.313,631.313 219.563,630.063 220.438,630.563 222.438,629.75 224.688,630.125 225.313,629.625 225.5,630.938 226.188,630.75 227.938,631.938 227.563,633.438 228.125,634.75 229.563,635.375 229.688,636.375 228.875,638.75 228.063,638.438 227.813,639.188 226.063,639.188 225,640.125 224.625,639.625 222.375,640.25 221.688,639.813 220.688,640.75 "
     transform="translate(-156.1696,-115.9417)"
     style="fill:#800000;fill-opacity:1;fill-rule:evenodd;stroke:none;stroke-width:0.10000000000000001;stroke-linecap:square;stroke-miterlimit:4;stroke-dasharray:none;stroke-opacity:1;opacity:1"
     id="N" />
  <g
     transform="translate(-130.2226,-151.3524)"
     style="fill:#800000;fill-opacity:1;stroke:none;opacity:1"
     id="O">
    <polygon
       points="199.625,608.813 197.813,609.875 196.313,610.375 194.125,610.75 193.563,610.188 192.125,610.188 192.313,609.188 192.375,607.438 192.188,607.063 191.813,607.688 191.563,607.625 190.938,605.813 190.938,605.5 191.125,605.188 192.688,604.313 192.25,604.313 191.625,604.5 191.313,604.25 190.313,604.438 189.938,603.813 189.625,603.688 189.313,603.813 189.188,604.313 188.938,604.438 188.625,604.438 188.25,604.313 187.938,603.688 187.813,603.438 187.813,603.063 188.25,602.5 189,602.125 189.813,601.875 190.063,600.625 189.625,600.625 189,600.688 188.75,600.5 188.625,599.625 188.5,599.313 188,598.875 187.75,598.438 187.938,597.938 188.375,597.313 188.625,596.813 188.875,596 189.625,594.625 189.313,594.188 189.375,593.625 189.5,593.25 190.625,592.063 190.938,591.063 191,590.188 190.875,589.25 190.813,588.375 191.188,587.875 191.688,587.25 192.063,586.563 192.188,585.563 192.063,584.563 192.5,584.438 193,583.875 193.063,583.188 192.438,583.188 192.438,582.313 192,581.438 191.375,580.313 191.563,579.813 192.438,578.813 191.125,578.813 190.188,578.5 189.313,578.563 189.75,579.063 189.5,579.438 188.688,579.438 188.188,580.375 187.563,580.938 187,581.313 186.375,581.438 186,582.25 185.438,582.875 184.688,583.25 183.625,583.438 182.688,583.5 182.5,583.188 183.125,582.25 183.5,581.75 184.125,581.625 184.688,581.25 185.25,580.625 185.563,580.125 185.563,579 185.063,579.375 184.5,580.188 184,580.625 183.125,580.75 183.063,580.438 183.438,580.063 183.625,579.375 183.125,579.25 182.75,579 183,578.25 183.188,577.375 182.5,577.563 182.563,576.313 181.938,576.875 181.375,576.688 181.188,576.313 180.875,576.25 180.688,576.688 179.938,577.125 179.188,577.125 179.125,576.688 179.688,576 179.625,575.563 179.563,575 179.563,574.25 179.75,573.688 180.125,573.625 180.25,574.188 180.563,574.25 181,574 181.125,573.5 181,572.938 181,572.313 180.063,568.375 180.938,567.063 180.063,563.438 178.563,560.688 178.875,557.125 178.75,556.188 178.063,554 178.125,553.375 178.188,553.25 178.688,553.438 179,553.375 179,553 178.438,552.125 178.313,551.625 178.375,549.813 180.25,546.75 181.125,546.625 181.688,546.313 182.5,545.813 183.438,546.125 185.188,550.063 184.75,553.875 184.813,554.938 185.875,555.688 189.063,554.375 189.688,552.688 189.75,551.25 190.563,549.25 192.188,546.875 191.75,546.063 192.063,542.625 193.438,541.625 196.125,540.688 198.875,543.5 198.563,540.438 202.063,540.563 202.688,543.5 204.313,544.25 205.938,543.875 206.688,546.063 209,546.625 210.438,544.188 211.938,545 213.063,546.063 213.063,549.438 211.125,552.75 210.313,554 209.875,557.125 208,559.875 206.5,562.25 206.5,564.625 207.5,565.75 209.688,566 210.063,566.688 209,567.625 207.75,569.188 206.75,570.938 205.375,572.625 203.625,573.688 202.313,575.438 202.25,576.688 204.188,577.063 205,576.5 206.25,576.75 208.125,574 209.313,574.188 208.813,576.625 210.375,576 210.313,575.063 211.938,573.188 214.5,572.813 215.875,570.688 215.813,569.938 217.25,568.5 219.625,564.875 221.063,565.188 221.875,565.938 221.063,568.5 219.813,572.313 220.625,572.938 222.313,573.25 223.313,572.5 223.75,570.625 224.375,568.563 226.313,567.25 228.375,566.625 230.188,565.5 232.125,565.5 233.563,565.125 235.563,563.438 236.188,562.438 235.438,562 233.875,562.563 232.938,563.188 232.75,561.688 231.5,560.438 231.938,559.063 235.563,559.813 236.625,560.563 237.875,559.313 238.75,557.438 239.188,555.125 238.875,553.125 241.313,551.625 243.25,551.625 244.438,553.375 245.188,557.813 246.5,558.75 245.5,560.188 247.125,561.688 248.25,561.75 248.438,564.75 249.938,564.75 250.063,565.875 251.125,565.563 251.813,563.938 253.063,563.938 253.813,565.75 252.688,567.125 250.938,567.938 249.938,568.875 249.875,570.625 249.688,572.25 248.688,574.625 247.875,575.125 246.688,577.813 245.625,580.125 244.063,582 243.438,585 242.625,586.625 242.438,588.313 240.313,588 240.25,591.125 239.313,592.25 239.188,593 236.813,593.688 236.688,592.688 235.063,592 234.438,592.438 233.375,591.813 232.875,591.938 232.438,593.375 231.313,594.688 231.313,596.5 232.125,598.75 231.875,600.375 231.813,603.625 231.063,604.75 230.938,605.875 231.563,607.5 231.188,608.625 230.188,609.125 230.063,610 230.25,611.875 229.875,613 228.813,613.688 226.188,617.688 225.688,619.125 224.438,619.75 224.375,620.75 223.375,621 223,621.75 221.313,622.125 220.75,624.375 219.75,623.938 219.063,624.875 218.625,626.875 217.5,628.25 216.813,627.75 216.188,628.188 215.625,627.875 215.875,627 214.875,626.625 213.313,627 213.188,624.813 213.688,624.5 213.25,623.313 211.625,623.188 210.313,622.25 208.375,620.375 207.188,620.125 204.375,620.625 203.813,622.313 202.125,622.563 202.25,620.563 201.5,619.688 202,616.875 201.75,615.5 201.438,615.125 200.875,614.875 200.688,614.375 200.938,613.5 200.75,612.625 200.375,611.938 200.813,610.375 199.625,608.813 "
       transform="translate(-25.94697,35.4107)"
       style="fill:#800000;fill-opacity:1;fill-rule:evenodd;stroke:none;stroke-width:0.10000000000000001;stroke-linecap:square;stroke-miterlimit:4;stroke-dasharray:none;stroke-opacity:1"
       id="polygon135" />
    <polygon
       points="191.25,587.25 191.438,586.563 191.563,585.5 191.5,584.625 191.688,584 191.938,583.313 191.813,582.75 191.438,582.188 191,581.875 190.625,581.563 190.438,580.813 190.5,580.063 189.688,579.938 189.25,580 188.5,580.438 188.375,581 188.438,581.625 188.313,582.063 188,582.063 187.5,582 187,582.063 186.5,582.625 186.063,583.125 185.5,583.5 185.063,583.75 184.438,584 184.063,584.25 183.625,584.563 183.125,584.5 182.563,584.313 181.875,585.125 181.438,586.125 181.75,585.938 182.063,585.5 182.563,585.563 182.625,586.063 183,586.5 183.5,587.063 183.75,587.625 183.625,588.125 183.313,588.625 183.063,588.813 183.375,589.188 183.813,588.75 184.063,589.125 184.375,589.25 184.813,589.188 185.313,588.688 185.688,588.125 185.813,587.5 186.125,587 186.875,586.563 187.375,586.875 188,587.313 188.313,587.625 188.25,588.188 188.75,588.313 189.188,587.688 189.625,587.438 189.813,587.375 190.438,587.313 191.25,587.25 "
       transform="translate(-25.94697,35.4107)"
       style="fill:#800000;fill-opacity:1;fill-rule:evenodd;stroke:none;stroke-width:0.10000000000000001;stroke-linecap:square;stroke-miterlimit:4;stroke-dasharray:none;stroke-opacity:1"
       id="polygon137" />
    <polygon
       points="187.75,592.875 187.75,593.125 187.438,593.313 186.938,593.5 186.625,593.75 186.438,594.188 186.25,594.563 185.5,594.625 185.375,594.25 185.375,593.438 185,593.25 184.875,593.125 184.688,592.875 184.688,592.313 184.75,591.875 185,591.813 185.625,591.813 185.688,591.5 185.625,591.125 184.75,591.188 184.375,591.125 184.188,590.75 184.188,590.375 184.438,589.813 184.75,589.625 185.063,589.5 186.25,589.75 186.688,589.625 186.938,589.375 187.438,588.313 187.625,588.125 188,588.188 188.438,588.563 188.375,588.938 188.063,589.375 188.5,589.563 189.125,589.188 189.5,589.625 189.563,590.313 189.5,591.313 189.313,591.938 188.938,592.25 188.688,592.188 188.563,591.75 188.125,591.625 187.938,592.375 187.75,592.875 "
       transform="translate(-25.94697,35.4107)"
       style="fill:#800000;fill-opacity:1;fill-rule:evenodd;stroke:none;stroke-width:0.10000000000000001;stroke-linecap:square;stroke-miterlimit:4;stroke-dasharray:none;stroke-opacity:1"
       id="polygon139" />
    <polygon
       points="186.875,602 187.313,601.813 187.625,602.5 187.313,603 187,603.75 187,604.5 186.875,604.938 186.625,605.125 185.563,604.25 185.563,603.875 186.063,603.938 186.188,603.563 186,603.375 186,603 186.438,603.063 186.438,602.313 186.875,602 "
       transform="translate(-25.94697,35.4107)"
       style="fill:#800000;fill-opacity:1;fill-rule:evenodd;stroke:none;stroke-width:0.10000000000000001;stroke-linecap:square;stroke-miterlimit:4;stroke-dasharray:none;stroke-opacity:1"
       id="polygon141" />
    <polygon
       points="186.938,595.813 187.875,595.938 187.5,596.75 185.938,597.563 185.25,597.063 186.063,596 186.938,595.813 "
       transform="translate(-25.94697,35.4107)"
       style="fill:#800000;fill-opacity:1;fill-rule:evenodd;stroke:none;stroke-width:0.10000000000000001;stroke-linecap:square;stroke-miterlimit:4;stroke-dasharray:none;stroke-opacity:1"
       id="polygon143" />
    <polygon
       points="185,602.313 185.375,602.438 186.313,601.25 185.625,600.25 185,602.313 "
       transform="translate(-25.94697,35.4107)"
       style="fill:#800000;fill-opacity:1;fill-rule:evenodd;stroke:none;stroke-width:0.10000000000000001;stroke-linecap:square;stroke-miterlimit:4;stroke-dasharray:none;stroke-opacity:1"
       id="polygon145" />
    <polygon
       points="189.75,588.813 190,588.75 190.25,588.375 190.25,587.938 189.938,587.75 189.813,588.313 189.75,588.813 "
       transform="translate(-25.94697,35.4107)"
       style="fill:#800000;fill-opacity:1;fill-rule:evenodd;stroke:none;stroke-width:0.10000000000000001;stroke-linecap:square;stroke-miterlimit:4;stroke-dasharray:none;stroke-opacity:1"
       id="polygon147" />
    <polygon
       points="189.125,588.563 189.5,587.875 189.563,588.625 189.125,588.563 "
       transform="translate(-25.94697,35.4107)"
       style="fill:#800000;fill-opacity:1;fill-rule:evenodd;stroke:none;stroke-width:0.10000000000000001;stroke-linecap:square;stroke-miterlimit:4;stroke-dasharray:none;stroke-opacity:1"
       id="polygon149" />
  </g>
  <polygon
     points="220.25,542.375 221.375,541.25 221.438,538.25 222.063,539.188 222.875,540.063 224.125,539.938 223.625,538.688 224.25,537.813 226.313,537.5 227.438,539 228.75,541.875 230.313,540.375 230.938,538.438 232.813,537.625 233.813,539.375 235.313,538.125 236.813,539.375 238.063,540.188 239.813,540.125 240.5,543.938 239.063,546.688 237.813,549.125 237.75,551.375 238.438,551.688 239.375,550.063 240.938,548.938 242,549.875 241.313,551.625 243.25,551.625 244.438,553.375 245.813,549.438 244.875,546.938 245.25,545.938 245,543.938 245.813,540.625 245.813,540.188 247.063,537.188 248.938,535.188 247.625,532.375 248.063,531.313 249,531.688 249,529.313 248.25,526 248.625,524.563 247.563,522.438 248.688,521.75 248.25,519.5 248.625,516.313 247.5,515.813 246.875,514.375 249.375,513.438 248.875,511.563 244.375,508.438 243.875,505.25 243,502.438 240.938,502.625 240.563,501.438 239.188,501.438 239.438,504.625 237.125,501.313 234.125,495.125 231.625,494.875 230.25,493.75 229.125,490.438 226.688,485.875 225.875,483.313 224.75,483.313 224.25,480.5 215.313,470.188 214.875,468.125 213.625,468.5 211.063,468.125 206,469.25 207.875,474.5 207.688,476.313 208.563,480.625 210.75,484.563 210.625,486.563 212.313,489.938 212.25,494.375 209.813,497.875 210.438,503.625 209.563,505.75 208.188,509.563 206.75,510.5 206.063,512.375 203.375,513.563 202,515 199.875,515.313 198.125,514.563 195.813,516.75 197.063,519.313 197.125,521.75 195.875,523.188 195.188,524.563 192.813,525.063 191.688,527.063 192.5,531.188 192.938,535.438 193.625,537.188 193.438,541.625 196.125,540.688 198.875,543.5 198.563,540.438 202.063,540.563 202.688,543.5 204.313,544.25 205.938,543.875 206.688,546.063 209,546.625 210.438,544.188 211.938,545 213.063,546.063 213.063,549.438 215.75,548.5 215.813,550.188 217.688,549.875 218.25,551.5 219.375,551.563 219.813,555.563 222.063,556.875 223.063,556.063 222.563,549.75 221.5,545.563 220.25,542.375 "
     transform="translate(-156.1696,-115.9417)"
     style="fill:#800000;fill-opacity:1;fill-rule:evenodd;stroke:none;stroke-width:0.10000000000000001;stroke-linecap:square;stroke-miterlimit:4;stroke-dasharray:none;stroke-opacity:1;opacity:1"
     id="S" />
  <polygon
     points="272.188,536.25 273.438,539.313 272.938,540.563 271.563,540.313 268.875,541.188 265.938,541.063 266,542.125 269,543.375 271.75,542.375 273.438,544.438 272.625,545.75 273.688,547.375 276.125,547.625 276.188,548.875 274.188,549.125 273.125,550.938 272.688,552.75 273.25,553.625 271.063,556 271.813,557.375 270.875,558.813 269.125,558.813 268.688,560.625 268,559.438 267,560 265.063,558.813 263.75,560.375 262.625,560.375 261.625,561.688 260.813,563.313 260.375,564.813 258.438,565.938 259.313,564.063 259.188,562.688 258.5,562.875 258.438,560.75 257.125,561.625 255.875,564.5 253.813,565.75 253.063,563.938 251.813,563.938 251.125,565.563 250.063,565.875 249.938,564.75 248.438,564.75 248.25,561.75 247.125,561.688 245.5,560.188 246.5,558.75 245.188,557.813 244.438,553.375 245.813,549.438 244.875,546.938 245.25,545.938 245,543.938 245.813,540.625 245.813,540.188 247.063,537.188 248.938,535.188 247.625,532.375 248.063,531.313 249,531.688 249,529.313 248.25,526 248.625,524.563 247.563,522.438 248.688,521.75 248.25,519.5 248.625,516.313 247.5,515.813 246.875,514.375 249.375,513.438 248.875,511.563 255.188,512.563 254.625,508.813 256.188,507.813 257.313,507.688 257.438,509.188 258.875,510.25 260.313,509.375 260.813,510.125 261.75,509.938 262.938,511.75 264.813,513.188 267,515.75 268.563,518.5 268.688,520.375 270.188,521.188 271.25,524.813 270.375,526.875 271.25,528 272.625,527.875 272.813,529.563 272.875,532.25 274.875,532.125 274.125,533.563 274.813,534.188 274.813,536.438 272.188,536.25 "
     transform="translate(-156.1696,-115.9417)"
     style="fill:#800000;fill-opacity:1;fill-rule:evenodd;stroke:none;stroke-width:0.10000000000000001;stroke-linecap:square;stroke-miterlimit:4;stroke-dasharray:none;stroke-opacity:1;opacity:1"
     id="T" />
  <path
     d="M 139.3309,388.6208 L 136.2684,388.8083 L 135.2059,389.3083 L 135.2059,390.5583 L 133.2684,391.8083 L 132.3934,393.3708 L 128.5809,393.8083 L 127.8309,393.3708 L 128.1434,391.7458 L 126.8309,390.9333 L 125.7684,390.8083 L 125.0809,389.1208 L 124.0184,388.8083 L 122.5184,390.0583 L 120.1434,389.4958 L 119.7059,390.8083 L 118.8934,391.3708 L 118.9559,392.7458 L 117.7684,394.8708 L 118.7684,396.1833 L 118.0809,399.1833 L 116.7059,398.6208 L 115.0809,398.4958 L 114.0809,400.7458 L 112.3934,402.5583 L 112.5184,404.4333 L 114.0184,405.2458 L 115.0809,408.8708 L 114.2059,410.9333 L 115.0809,412.0583 L 116.4559,411.9333 L 116.6434,413.6208 L 116.7059,416.3083 L 118.7059,416.1833 L 117.9559,417.6208 L 118.6434,418.2458 L 118.6434,420.4958 L 116.0184,420.3083 L 117.2684,423.3708 L 116.7684,424.6208 L 119.7059,424.7458 L 120.5184,426.1833 L 121.7059,425.5583 L 123.2059,423.8083 L 124.7059,422.4958 L 125.8309,422.9333 L 127.5809,423.1833 L 130.2059,422.6208 L 130.4559,421.6208 L 129.4559,420.8083 L 129.5809,419.6833 L 126.5809,419.9958 L 125.9559,418.1833 L 128.3934,418.2458 L 129.7684,417.4333 L 131.5184,418.2458 L 134.0184,417.6833 L 134.8309,416.5583 L 136.1434,415.1833 L 135.4559,413.9958 L 136.8309,413.2458 L 138.3309,414.3083 L 139.5809,415.9333 L 141.2059,415.2458 L 141.7684,414.2458 L 143.5184,414.4333 L 142.7059,410.0583 L 141.1434,407.7458 L 140.0809,405.7458 L 141.2059,404.1833 L 141.8309,402.4958 L 141.8934,402.4958 L 140.73715,400.90205 L 141.17465,399.96455 L 140.9559,398.02705 L 138.8934,396.3708 L 139.5184,395.1208 L 138.8934,392.3083 L 139.73715,391.96455 L 139.3934,388.6208 L 139.3309,388.6208 z "
     style="fill:#800000;fill-opacity:1;fill-rule:evenodd;stroke:none;stroke-width:0.10000000000000001;stroke-linecap:square;stroke-miterlimit:4;stroke-dasharray:none;stroke-opacity:1;opacity:1"
     id="U" />
  <polygon
     points="288.813,480.625 288.25,482.563 286.875,483.688 287.25,485.063 285.625,487.563 283.75,488.125 285.5,491.563 286.375,491.875 286.875,493.063 289,497.25 291.375,497.875 292.563,498.875 292.75,500.375 293.563,500.813 293.813,503.063 295.5,504.563 297.063,504.5 298.75,502.813 298.375,501.938 299.188,500.938 303.188,501.625 305.188,499.938 305.125,495.063 307.063,493.25 307.875,485.813 305.188,484.313 307.688,481.938 305.5,479.75 306.125,477.688 303.875,473.625 305,471.625 303.438,470.375 303.688,469.375 303.063,463.5 304.438,462.063 305.063,459.5 302.688,456.688 302.375,454.625 303.75,452.125 302.375,449.188 303.563,447 304.5,444.75 305.313,442.75 307.375,443.625 308.063,445.125 309.25,445.563 309.875,442.063 308.063,441.313 307.375,440.188 307.438,437.75 306.063,436.313 306.813,432.688 308.188,430.125 308.938,424.625 306,423.813 304.25,424.125 302.438,423.25 301.5,423.813 299.125,423.188 297.938,423.438 295.75,422.125 290.375,420.813 285.188,420.688 281.75,420.813 281,420 273.375,416.438 270.688,416.625 267.688,419.25 267.875,421.938 269.063,422.75 269.375,425.813 263,430.688 263.5,432.5 263.313,434.75 263.313,436.625 262.125,435.688 259.313,435.438 258.875,437.563 257.438,435 256.063,435.813 255.375,434.5 252.125,439.375 251.5,445.938 254.5,447.188 255,449.375 254.25,451.313 256.25,450.875 257.25,451.375 259.5,451.188 262.5,451.75 264.313,447.188 265.625,451 273.875,462.813 274.438,466.625 275.938,469.5 279.438,471.5 283.563,471.938 285.563,476.938 288.813,480.625 "
     transform="translate(-156.1696,-115.9417)"
     style="fill:#800000;fill-opacity:1;fill-rule:evenodd;stroke:none;stroke-width:0.10000000000000001;stroke-linecap:square;stroke-miterlimit:4;stroke-dasharray:none;stroke-opacity:1;opacity:1"
     id="X" />
  <polygon
     points="285.188,420.688 290.375,420.813 295.75,422.125 297.938,423.438 299.125,423.188 301.5,423.813 302.438,423.25 304.25,424.125 306,423.813 308.938,424.625 309.688,422.563 311.375,422.125 311.875,420.313 309.063,419.5 307.5,417.063 307.813,415.438 309.25,415 308.875,411.813 306.875,411.063 306.813,409.938 308.5,409.313 309.875,412.188 312.688,412.813 312.313,410.875 313.625,409.625 315.5,410.625 316.563,407.5 319.375,405.188 317.75,403.688 319.063,402.625 321,399.438 318.438,399.625 318.125,398.25 320.563,398.688 323.063,395.938 321.938,394.875 322.875,394 325.063,395.625 326.938,392.313 327.813,389.5 324.75,389.063 325.125,387.813 326.688,387.688 326.875,385.813 328.688,381.938 330.75,382.063 334.625,379.313 336.188,380.375 337.625,378.563 337.688,375.125 339.75,374.563 340.375,368.813 338.375,365.375 338.313,363.688 334.063,357.313 332.875,356 331.063,356.313 330.125,355.125 327.938,354.688 325.313,354.375 324.063,351.313 324.813,349.563 323.125,348 311.188,353.125 303.063,351.813 295.563,350.438 293.375,348.063 291,353.5 290.813,356.438 291.563,360.688 287.188,362.625 285.938,361.938 285,362.875 282.188,361.5 280.188,363.25 278.188,362 276.75,362.625 280.25,367.063 279.938,369.063 280.125,371.875 281.438,371.375 282.938,372.125 282.75,374.625 291.625,382.563 299.375,391.813 292.813,392.813 289.375,397.375 288,399.313 287.438,402.063 285.313,401.438 282.938,402.438 279.875,401.688 272.938,405.125 266.5,406 264.375,407.5 263.188,406.25 260.125,405.875 257.813,406.313 257.875,408.75 258.5,411.813 257.438,411.813 257.938,413.938 259.125,414.25 260.563,417.688 264.563,420.063 266.75,418.438 267.688,419.25 270.688,416.625 273.375,416.438 281,420 281.75,420.813 285.188,420.688 "
     transform="translate(-156.1696,-115.9417)"
     style="fill:#800000;fill-opacity:1;fill-rule:evenodd;stroke:none;stroke-width:0.10000000000000001;stroke-linecap:square;stroke-miterlimit:4;stroke-dasharray:none;stroke-opacity:1;opacity:1"
     id="Y" />
  <polygon
     points="348.813,365.75 351.563,362.125 353.125,362.188 353.313,360.188 355.25,360.5 358.313,360.25 358.688,359 360.25,358.938 360.563,355.938 362,354.063 364.625,353.5 365.813,351.125 367.063,347.875 368.375,343.313 368.875,339.375 370.813,336.625 373.125,333.438 376.625,330.5 378.625,326.625 378.5,325.188 377.063,325.438 376.125,322.125 374.5,320.438 372.438,320.125 371.25,318.063 372.063,316.938 371.938,313.5 368.688,313.25 367.563,311 369.563,311.375 371.75,308.375 371,306.25 373.063,305.375 375.125,300.625 371.688,298.813 371.188,297.25 361.813,296.25 346.375,289.938 342.938,297.563 342.063,298.563 339,300.438 337.563,298.938 336.063,298 336,297.063 336.563,296.125 333.063,293.75 332.25,293.938 332.188,292.938 330.5,292.313 328.875,291.5 328.313,290.5 327.313,290.063 327,289.063 326.188,288.688 324.125,288.688 322.938,287.375 321.375,286.5 319.125,286 318,285.125 317.063,283.313 315.25,282.813 310.438,281.313 308.188,280.438 293.063,265.125 289.75,265.063 277.188,255.125 271.313,252.875 271.563,255.438 264.188,261.063 263.188,261.188 255.813,261.563 257.313,274.563 255.625,279.5 254.688,289.375 254.563,295.25 252.313,297.438 251.438,302.688 256.375,307.125 257.313,307.5 258.063,308.625 259.313,310.063 259.188,311.625 260.563,313.313 262,313.438 263.375,315.438 263.625,317.813 266.875,319.375 268.563,322.125 267.375,322.938 268.625,323.75 269.063,324.938 270.125,324.563 270.188,325.625 272.25,327.438 272.75,330.5 273.938,330.563 273.75,327.438 275.063,326.688 275.875,329.188 276.063,331.688 280.813,334.938 280.938,337.938 284,337.563 293.375,348.063 295.563,350.438 303.063,351.813 311.188,353.125 323.125,348 324.813,349.563 324.063,351.313 325.313,354.375 327.938,354.688 330.125,355.125 331.063,356.313 332.875,356 334.063,357.313 338.313,363.688 338.375,365.375 340.375,368.813 342.375,369.313 344,368.563 342.75,366 343.563,364.813 345.75,366.75 347.5,369.938 349,368.813 348.25,366.688 348.813,365.75 "
     transform="translate(-156.1696,-115.9417)"
     style="fill:#800000;fill-opacity:1;fill-rule:evenodd;stroke:none;stroke-width:0.10000000000000001;stroke-linecap:square;stroke-miterlimit:4;stroke-dasharray:none;stroke-opacity:1;opacity:1"
     id="AC" />
  <path
     d="M 133.2054,281.4333 L 131.8304,283.3713 L 131.2684,286.1213 L 129.1434,285.4963 L 126.7684,286.4963 L 123.7054,285.7463 L 116.7684,289.1833 L 110.3304,290.0583 L 108.2054,291.5583 L 107.0184,290.3083 L 103.9554,289.9333 L 101.6434,290.3713 L 101.7054,292.8083 L 102.3304,295.8713 L 101.2684,295.8713 L 101.7684,297.9963 L 102.9554,298.3083 L 104.3934,301.7463 L 108.3934,304.1213 L 110.5804,302.4963 L 111.5184,303.3083 L 111.7054,305.9963 L 112.8934,306.8083 L 113.2054,309.8713 L 106.8304,314.7463 L 107.3304,316.5583 L 107.1434,318.8083 L 107.1434,320.6833 L 105.9554,319.7463 L 103.1434,319.4963 L 102.7054,321.6213 L 101.2684,319.0583 L 99.8934,319.8713 L 99.2054,318.5583 L 95.9554,323.4333 L 95.3304,329.9963 L 93.5804,331.7463 L 92.5184,330.6213 L 89.5184,329.7463 L 85.2684,329.5583 L 83.4554,328.8713 L 78.0804,327.8713 L 77.1434,328.4963 L 76.0804,326.9333 L 76.2684,325.1213 L 74.5184,321.3713 L 70.7054,316.8083 L 73.8934,313.8083 L 73.0184,313.4963 L 72.5184,311.6833 L 69.8934,312.9963 L 67.6434,310.4963 L 65.8934,307.9333 L 63.2684,304.3713 L 59.8304,304.5583 L 53.9554,302.6213 L 50.0184,287.8713 L 51.7684,282.4333 L 51.1434,276.1833 L 53.5804,272.4963 L 49.8934,261.1213 L 54.7054,253.1213 L 53.8304,248.3713 L 56.5184,245.4333 L 57.0804,243.2463 L 58.3934,241.7463 L 64.1434,233.0583 L 68.1434,230.0583 L 73.7054,228.4333 L 75.5184,228.8713 L 83.0804,230.6833 L 87.6434,232.2463 L 91.3934,224.6833 L 91.0804,216.3083 L 91.0184,213.7463 L 90.2684,212.8083 L 87.3934,211.8083 L 83.0804,208.5583 L 93.1434,189.4963 L 95.2684,186.7463 L 100.2054,191.1833 L 101.1434,191.5583 L 101.8934,192.6833 L 103.1434,194.1213 L 103.0184,195.6833 L 104.3934,197.3713 L 105.8304,197.4963 L 107.2054,199.4963 L 107.4554,201.8713 L 110.7054,203.4333 L 112.3934,206.1833 L 111.2054,206.9963 L 112.4554,207.8083 L 112.8934,208.9963 L 113.9554,208.6213 L 114.0184,209.6833 L 116.0804,211.4963 L 116.5804,214.5583 L 117.7684,214.6213 L 117.5804,211.4963 L 118.8934,210.7463 L 119.7054,213.2463 L 119.8934,215.7463 L 124.6434,218.9963 L 124.7684,221.9963 L 127.8304,221.6213 L 137.2054,232.1213 L 134.8304,237.5583 L 134.6434,240.4963 L 135.3934,244.7463 L 131.0184,246.6833 L 129.7684,245.9963 L 128.8304,246.9333 L 126.0184,245.5583 L 124.0184,247.3083 L 122.0184,246.0583 L 120.5804,246.6833 L 124.0804,251.1213 L 123.7684,253.1213 L 123.9554,255.9333 L 125.2684,255.4333 L 126.7684,256.1833 L 126.5804,258.6833 L 135.4554,266.6213 L 143.2054,275.8713 L 136.6434,276.8713 L 133.2054,281.4333 z M 98.3304,265.0583 L 96.2684,263.7463 L 95.0184,264.1213 L 93.1434,262.4963 L 90.6434,261.4963 L 87.6434,260.4963 L 90.1434,265.4333 L 88.2684,265.4963 L 89.7054,266.8713 L 91.8934,267.6833 L 93.7054,269.1213 L 94.0804,271.0583 L 95.0184,274.3083 L 94.9554,277.1833 L 93.7054,277.4333 L 94.7684,280.5583 L 95.9554,281.2463 L 96.8304,278.1213 L 96.2054,273.7463 L 95.7054,270.8083 L 95.4554,268.4333 L 96.8304,267.9333 L 97.9554,267.3713 L 97.0804,266.8713 L 95.8304,265.8713 L 96.1434,264.8083 L 98.3304,265.0583 z "
     style="fill:#800000;fill-opacity:1;stroke:none;stroke-width:0.10000000000000001;stroke-linecap:square;stroke-miterlimit:4;stroke-opacity:1;opacity:1"
     id="Z" />
  <path
     d="M 160.8934,167.3713 L 159.0804,166.8713 L 154.2684,165.3713 L 152.0184,164.4963 L 136.8934,149.1833 L 133.5804,149.1213 L 121.0184,139.1833 L 115.1434,136.9333 L 113.8934,131.6213 L 117.9554,126.9963 L 123.8304,115.4963 L 125.5184,113.4333 L 129.8304,109.6833 L 130.5804,103.5583 L 129.9554,100.9963 L 125.5804,93.2463 L 126.8934,89.7463 L 130.2684,89.0583 L 132.0184,85.7463 L 134.7054,73.8713 L 135.5804,73.0583 L 142.0804,68.1833 L 143.5804,65.3713 L 149.1434,68.2463 L 153.2054,71.3083 L 153.5804,69.9333 L 156.7054,61.9963 L 155.2054,53.3083 L 155.3304,47.9333 L 159.5804,45.8713 L 162.7054,48.6213 L 168.3934,47.7463 L 182.7684,52.6213 L 187.3304,46.8713 L 182.8304,44.7463 L 184.6434,42.9333 L 186.6434,39.6213 L 187.8934,34.3083 L 187.2684,29.8713 L 183.8934,25.2463 L 190.8304,23.9333 L 193.9554,24.4963 L 195.2684,26.0583 L 196.1434,26.4333 L 195.8304,27.1833 L 195.1434,28.1833 L 196.3934,29.5583 L 197.5804,29.3083 L 201.1434,32.4333 L 202.2054,34.4963 L 203.0804,33.9963 L 204.0184,34.4333 L 204.3934,36.9963 L 205.6434,37.6213 L 207.3304,38.1213 L 209.0184,39.4333 L 208.9554,40.7463 L 210.9554,40.6833 L 213.5804,42.1833 L 213.7054,43.4333 L 214.0804,44.4333 L 215.5804,44.8713 L 217.2054,44.8713 L 218.4554,44.5583 L 219.0804,45.7463 L 219.7684,44.9963 L 222.7054,46.3083 L 223.2054,45.8713 L 223.8934,46.6833 L 225.5184,47.6833 L 225.8934,46.9963 L 226.7054,47.5583 L 226.7684,48.6213 L 228.4554,49.4333 L 228.9554,49.4963 L 230.6434,50.2463 L 230.8934,51.6833 L 232.2684,52.8083 L 232.3934,54.2463 L 232.3304,55.8713 L 233.0184,56.9963 L 234.4554,56.1833 L 235.5184,57.3083 L 236.7684,60.3713 L 237.8934,60.3713 L 238.2054,61.4333 L 239.1434,61.4963 L 239.6434,62.9963 L 240.9554,63.1833 L 241.3934,65.4963 L 239.6434,66.4333 L 239.2684,69.1833 L 239.7684,70.7463 L 239.8934,74.9963 L 241.3304,77.1833 L 241.0184,79.8713 L 240.2684,79.8083 L 240.8304,80.9333 L 239.8304,83.0583 L 241.4554,84.3083 L 241.8934,83.6213 L 244.3304,84.6213 L 244.8304,83.9333 L 245.9554,84.9963 L 245.5804,86.4333 L 245.7054,88.1833 L 246.5184,88.4333 L 245.9554,90.6213 L 244.0184,91.3713 L 243.7054,93.1833 L 244.2684,94.2463 L 243.9554,95.5583 L 245.9554,98.2463 L 246.2684,100.3083 L 247.8934,102.1213 L 248.7684,102.3083 L 249.0804,103.4963 L 250.0804,103.9963 L 250.3304,105.6213 L 252.0804,107.6833 L 252.7684,109.1213 L 252.6434,110.6833 L 251.6434,110.3713 L 251.5184,111.5583 L 251.9554,114.8083 L 251.7054,116.2463 L 252.0184,119.0583 L 251.0804,120.3083 L 251.2054,121.6213 L 249.9554,122.1213 L 249.9554,123.4333 L 248.8304,124.2463 L 248.8304,125.3083 L 249.8934,126.8083 L 249.2684,130.4333 L 251.5184,135.4333 L 253.8304,136.1213 L 255.1434,136.1833 L 255.0804,137.5583 L 255.6434,138.1833 L 255.6434,139.2463 L 257.2054,141.6213 L 257.8934,144.0583 L 260.5184,150.1833 L 255.3934,151.2463 L 253.8304,150.1213 L 252.6434,150.0583 L 252.4554,151.1213 L 251.3304,151.6213 L 249.3934,150.8083 L 248.6434,152.6833 L 246.0804,151.8713 L 244.9554,151.4333 L 244.2684,152.6213 L 243.5804,155.8713 L 241.7684,154.3713 L 238.5804,153.1833 L 237.3934,150.2463 L 235.8934,149.3713 L 235.3934,149.9963 L 236.1434,153.4333 L 237.8934,155.3083 L 238.0184,156.6833 L 236.7684,156.1833 L 235.0804,154.2463 L 233.2054,154.3713 L 233.1434,152.9333 L 231.6434,150.8713 L 230.0184,151.7463 L 229.6434,154.4333 L 229.8934,157.3713 L 230.3304,159.6833 L 230.8304,161.7463 L 231.8934,163.4963 L 231.0804,163.9333 L 228.9554,163.3083 L 228.0184,163.8083 L 228.0804,165.4963 L 226.2054,165.5583 L 223.3934,165.8083 L 225.7054,168.1213 L 224.6434,170.1213 L 222.7684,170.9333 L 219.9554,170.8083 L 217.4554,171.8083 L 216.7684,172.9963 L 220.7684,175.5583 L 220.5184,176.7463 L 219.0804,177.9333 L 220.0184,181.8083 L 218.9554,184.6833 L 215.5184,182.8713 L 215.0184,181.3083 L 205.6434,180.3083 L 190.2054,173.9963 L 186.7684,181.6213 L 185.8934,182.6213 L 182.8304,184.4963 L 181.3934,182.9963 L 179.8934,182.0583 L 179.8304,181.1213 L 180.3934,180.1833 L 176.8934,177.8083 L 176.0804,177.9963 L 176.0184,176.9963 L 174.3304,176.3713 L 172.7054,175.5583 L 172.1434,174.5583 L 171.1434,174.1213 L 170.8304,173.1213 L 170.0184,172.7463 L 167.9554,172.7463 L 166.7684,171.4333 L 165.2054,170.5583 L 162.9554,170.0583 L 161.8304,169.1833 L 160.8934,167.3713 z M 164.5804,162.9333 L 163.6434,161.8713 L 163.9554,160.1213 L 162.6434,159.3083 L 160.5184,159.3713 L 156.0804,153.9963 L 156.8304,151.7463 L 156.0184,149.1833 L 158.4554,148.6833 L 159.0184,147.7463 L 158.0184,146.5583 L 156.5184,147.3083 L 154.9554,145.7463 L 153.9554,143.3713 L 151.3304,141.9963 L 149.4554,139.9333 L 147.3934,137.9333 L 145.5804,135.7463 L 141.7684,133.8713 L 141.3304,134.9963 L 145.5804,137.5583 L 147.8304,140.4963 L 148.0804,142.3713 L 150.6434,143.5583 L 152.7684,145.8713 L 154.7054,147.7463 L 153.2684,148.3083 L 151.3304,149.3713 L 153.1434,151.9333 L 153.3304,153.3713 L 152.7054,154.8713 L 153.0804,157.4333 L 154.5184,157.3713 L 155.3304,154.9963 L 157.9554,158.8083 L 159.7054,163.9333 L 161.2684,163.4963 L 162.3304,164.1213 L 166.2054,165.3713 L 166.3304,164.3083 L 164.5804,162.9333 z "
     style="fill:#800000;fill-opacity:1;stroke:none;stroke-width:0.10000000000000001;stroke-linecap:square;stroke-miterlimit:4;stroke-opacity:1;opacity:1"
     id="BD" />
  <path
     d="M 83.0184,385.4963 L 83.2684,388.6833 L 80.9554,385.3713 L 77.9554,379.1833 L 75.4554,378.9333 L 74.0804,377.8083 L 72.9554,374.4963 L 70.5184,369.9333 L 69.7054,367.3713 L 68.5804,367.3713 L 68.0804,364.5583 L 59.1434,354.2463 L 58.7054,352.1833 L 59.3304,348.2463 L 61.0184,346.9963 L 62.0184,344.6213 L 62.9554,339.9963 L 57.8934,330.9963 L 54.9554,331.1213 L 50.0184,324.3713 L 53.9554,302.6213 L 59.8304,304.5583 L 63.2684,304.3713 L 65.8934,307.9333 L 67.6434,310.4963 L 69.8934,312.9963 L 72.5184,311.6833 L 73.0184,313.4963 L 73.8934,313.8083 L 70.7054,316.8083 L 74.5184,321.3713 L 76.2684,325.1213 L 76.0804,326.9333 L 77.1434,328.4963 L 78.0804,327.8713 L 83.4554,328.8713 L 85.2684,329.5583 L 89.5184,329.7463 L 92.5184,330.6213 L 93.5804,331.7463 L 95.3304,329.9963 L 98.3304,331.2463 L 98.8304,333.4333 L 98.0804,335.3713 L 100.0804,334.9333 L 101.0804,335.4333 L 103.3304,335.2463 L 106.3304,335.8083 L 108.1434,331.2463 L 109.4554,335.0583 L 117.7054,346.8713 L 118.2684,350.6833 L 119.7684,353.5583 L 123.2684,355.5583 L 127.3934,355.9963 L 129.3934,360.9963 L 132.6434,364.6833 L 132.0804,366.6213 L 130.7054,367.7463 L 131.0804,369.1213 L 129.4554,371.6213 L 127.5804,372.1833 L 129.3304,375.6213 L 130.2054,375.9333 L 130.7054,377.1213 L 132.8304,381.3083 L 135.2054,381.9333 L 136.3934,382.9333 L 136.5804,384.4333 L 137.3934,384.8713 L 137.6434,387.1213 L 139.3304,388.6213 L 136.2684,388.8083 L 135.2054,389.3083 L 135.2054,390.5583 L 133.2684,391.8083 L 132.3934,393.3713 L 128.5804,393.8083 L 127.8304,393.3713 L 128.1434,391.7463 L 126.8304,390.9333 L 125.7684,390.8083 L 125.0804,389.1213 L 124.0184,388.8083 L 122.5184,390.0583 L 120.1434,389.4963 L 119.7054,390.8083 L 118.8934,391.3713 L 118.9554,392.7463 L 117.7684,394.8713 L 118.7684,396.1833 L 118.0804,399.1833 L 116.7054,398.6213 L 115.0804,398.4963 L 114.0804,400.7463 L 112.3934,402.5583 L 110.8304,399.8083 L 108.6434,397.2463 L 106.7684,395.8083 L 105.5804,393.9963 L 104.6434,394.1833 L 104.1434,393.4333 L 102.7054,394.3083 L 101.2684,393.2463 L 101.1434,391.7463 L 100.0184,391.8713 L 98.4554,392.8713 L 99.0184,396.6213 L 92.7054,395.6213 L 88.2054,392.4963 L 87.7054,389.3083 L 86.8304,386.4963 L 84.7684,386.6833 L 84.3934,385.4963 L 83.0184,385.4963 z M 98.0804,362.8083 L 99.3304,364.8083 L 102.7684,363.0583 L 103.8934,366.0583 L 104.2684,362.8713 L 105.7684,362.2463 L 107.0184,360.8083 L 105.3934,359.6833 L 104.3304,360.6833 L 102.7684,361.6213 L 99.6434,358.3713 L 98.4554,358.3713 L 96.8304,355.9333 L 95.8304,356.9333 L 96.0804,358.4333 L 97.5184,358.6213 L 98.5184,359.6833 L 97.5804,360.1833 L 96.0184,360.1833 L 98.0804,362.8083 z "
     style="fill:#800000;fill-opacity:1;stroke:none;stroke-width:0.10000000000000001;stroke-linecap:square;stroke-miterlimit:4;stroke-opacity:1;opacity:1"
     id="W" />
</svg>
