<?xml version="1.0" encoding="UTF-8" standalone="no"?>
<!-- Generator: Adobe Illustrator 13.0.0, SVG Export Plug-In . SVG Version: 6.00 Build 14948)  -->

<svg
   xmlns:dc="http://purl.org/dc/elements/1.1/"
   xmlns:cc="http://creativecommons.org/ns#"
   xmlns:rdf="http://www.w3.org/1999/02/22-rdf-syntax-ns#"
   xmlns:svg="http://www.w3.org/2000/svg"
   xmlns="http://www.w3.org/2000/svg"
   xmlns:sodipodi="http://sodipodi.sourceforge.net/DTD/sodipodi-0.dtd"
   xmlns:inkscape="http://www.inkscape.org/namespaces/inkscape"
   version="1.0"
   id="svg2"
   inkscape:output_extension="org.inkscape.output.svg.inkscape"
   sodipodi:version="0.32"
   sodipodi:docname="swe_prov.svg"
   inkscape:version="0.48.3.1 r9886"
   x="0px"
   y="0px"
   width="499.89453px"
   height="1090.73242px"
   viewBox="-0.00024 0 499.89453 1090.73242"
   enable-background="new -0.00024 0 499.89453 1090.73242"
   xml:space="preserve"><metadata
   id="metadata545"><rdf:RDF><cc:Work
       rdf:about=""><dc:format>image/svg+xml</dc:format><dc:type
         rdf:resource="http://purl.org/dc/dcmitype/StillImage" /></cc:Work></rdf:RDF></metadata>
<defs
   id="defs3">
	
	
		<inkscape:perspective
   id="perspective314"
   sodipodi:type="inkscape:persp3d"
   inkscape:vp_z="499.89368 : 545.36603 : 1"
   inkscape:vp_x="0 : 545.36603 : 1"
   inkscape:vp_y="0 : 1000 : 0"
   inkscape:persp3d-origin="249.94684 : 363.57735 : 1">
		</inkscape:perspective>

		
		
		
		
		
		
		
		
		
		
		
		
		
		
		
		
		
		
		
		
		
		
		
		
	
	
	
</defs>
<sodipodi:namedview
   width="290px"
   height="660px"
   id="base"
   showgrid="false"
   objecttolerance="10"
   gridtolerance="10000"
   inkscape:cx="249.94683"
   borderopacity="1.0"
   pagecolor="#ffffff"
   guidetolerance="10"
   inkscape:cy="337.01231"
   bordercolor="#666666"
   inkscape:zoom="0.9599058"
   inkscape:window-y="-8"
   inkscape:window-x="-8"
   inkscape:window-height="1294"
   inkscape:window-width="1792"
   inkscape:current-layer="svg2"
   inkscape:document-units="px"
   inkscape:pageshadow="2"
   inkscape:pageopacity="0.0"
   inkscape:window-maximized="0">
	</sodipodi:namedview>
<path
   inkscape:label="#_x32_521"
   id="norrbotten"
   d="m 449.22227,62.634126 -11.10838,27.129906 -9.61328,8.651833 -5.87402,15.487315 -5.3408,15.70166 -2.56346,7.26319 12.60348,26.48873 -1.06832,6.51562 -3.20412,13.77834 4.48631,5.44777 0.74705,11.74899 -3.95117,2.88379 -9.3994,4.27248 -8.33104,8.11768 -2.56347,0.53416 -8.43846,-6.30226 -8.54492,3.31155 -10.68068,27.45019 -4.70021,7.69043 -2.77733,6.08837 4.16598,18.6919 0.42777,2.13622 -5.23441,5.02001 -9.50586,-1.70898 -2.02931,1.17482 -1.38864,5.98146 8.11721,4.91304 30.01365,12.17675 18.1582,1.92239 0.85449,2.9907 6.7295,3.52496 2.0293,-5.44735 -1.81642,-7.58347 2.88473,-2.24313 0.42679,-2.34963 -7.79689,-4.91361 1.3887,-2.35004 4.91309,-2.02931 5.3408,0.3208 3.63083,-1.60253 2.02931,-3.84519 -4.48532,-4.59281 5.5537,-0.32028 3.63182,-0.21388 -0.21387,-3.31103 1.81547,-0.85449 4.16599,1.17528 1.60252,-0.85449 -2.02931,-3.418 -0.96188,-3.9521 -0.96093,-4.59282 -0.42778,-5.66113 0.74804,-5.23388 3.20412,-1.60201 2.77734,3.9521 0.10647,2.88379 3.73827,-0.32028 3.20506,3.8452 2.45607,0.85448 -0.21388,-2.67037 -3.5244,-3.63183 -1.28126,-6.62212 0.96093,-1.17476 2.77734,1.60201 2.34964,5.66113 6.19528,2.34963 3.52445,2.9907 1.38865,-6.30173 1.28127,-2.34964 2.13674,0.85454 5.01948,1.60201 1.3887,-3.73828 3.73827,1.70851 2.24319,-0.96093 0.4277,-2.13622 2.24318,0.10698 2.99024,2.24267 9.93357,-2.13622 -5.02047,-11.85595 -1.3887,-4.69968 -2.99024,-4.69973 v -2.0293 l -1.06836,-1.17482 v -2.67037 l -2.45602,-0.10647 -4.48636,-1.3887 -4.27244,-9.71973 1.06837,-7.04978 -1.92286,-2.77687 v -2.13622 l 2.13576,-1.49561 v -2.56346 l 2.45701,-0.96145 -0.32033,-2.563 1.92285,-2.45701 -0.6416,-5.44725 0.42777,-2.77688 -0.85453,-6.30173 0.32033,-2.24319 1.92285,0.53421 0.21388,-2.99075 -1.3887,-2.77734 -3.41795,-3.95165 -0.42777,-3.20458 -1.9228,-0.96145 -0.53322,-2.34958 -1.70897,-0.32033 -3.20511,-3.52491 -0.64061,-3.95216 -3.84473,-5.23388 0.64061,-2.66992 -1.06837,-1.92285 0.53421,-3.5244 3.73828,-1.49561 1.06836,-4.27243 -1.49514,-0.53421 -0.32033,-3.31103 0.74709,-2.77688 -2.13575,-2.13622 -1.06837,1.3887 -4.59276,-1.92285 -0.96193,1.38864 -3.09668,-2.56346 1.92186,-4.05907 -1.06737,-2.13622 h 1.49514 l 0.53416,-5.02006 -2.77734,-4.379395 -0.32033,-8.224077 -0.85449,-2.990755 0.7471,-5.340799 3.31149,-1.815426 -0.85448,-4.486364 -2.56346,-0.320278 -0.96094,-2.990756 h -1.81642 l -0.64066,-2.136217 h -2.13575 l -2.45701,-5.981459 -2.02922,-2.136217 z"
   inkscape:connector-curvature="0"
   style="fill:#decd87;stroke:#000000;stroke-width:0.29999325;stroke-linecap:square" /><path
   inkscape:label="#_x32_510"
   id="lappland"
   d="m 364.62754,0.14977476 -13.45801,2.45654714 6.51567,8.9721631 1.28219,8.651833 -2.35058,10.360858 -3.95116,6.408703 -3.52539,3.417947 8.75875,4.165521 -8.8652,11.214833 -27.87794,-9.612772 -11.00099,1.815938 -6.08885,-5.34085 -8.22459,3.952155 -0.21388,10.46731 2.88379,16.76951 -5.98047,15.487317 -0.74803,2.563461 -7.90431,-5.874495 -10.89451,-5.554215 -2.77733,5.340799 -12.60353,9.505858 -1.70898,1.602573 -5.23342,22.963871 -3.3115,6.51562 -6.62206,1.28173 -2.56352,6.83594 8.54492,14.95358 1.17482,5.02005 -1.49509,11.85596 -8.3311,7.26319 -3.31149,4.05907 -11.42871,22.2163 -7.79689,8.97216 2.34964,10.36086 0.53415,4.91304 -14.3125,11.00147 -1.81642,0.21388 -14.3125,0.6406 2.77734,25.31448 -3.20412,9.50586 -1.81642,19.1191 -0.32027,11.32225 -4.37894,4.27254 -1.60252,10.25343 9.61328,8.65178 1.81543,0.64066 1.49514,2.24313 2.35058,2.77739 -0.21388,2.99071 2.56346,3.31103 2.88379,0.21342 2.66996,3.84519 0.42771,4.69968 6.30179,2.9907 3.31149,5.23394 -2.35057,1.60206 2.45701,1.60206 0.85449,2.24313 2.13575,-0.64066 v 2.0293 l 4.05955,3.52497 h 2.88379 l 4.16504,3.41794 0.32033,4.9131 9.29296,6.19482 0.10647,5.76799 5.98145,-0.64107 18.15821,20.29448 4.27243,4.59276 14.52638,2.77678 15.70115,2.45654 23.17775,-9.9331 13.35156,-5.76799 13.03123,-5.98151 -1.60252,-3.31103 1.17482,-0.85449 -1.49515,-3.20412 -2.66991,0.9615 -3.418,-16.6626 9.61234,-27.98444 -18.58498,-14.63329 21.36232,-14.7397 5.98141,-3.63187 1.70897,-1.92239 6.62212,-14.74021 -8.11721,-4.91304 1.38864,-5.98146 2.02931,-1.17482 9.50585,1.70898 5.23442,-5.02001 -0.42777,-2.13622 -4.16599,-18.6919 2.77734,-6.08837 4.70021,-7.69043 10.68068,-27.45019 8.54492,-3.31155 8.43846,6.30226 2.56346,-0.53416 8.33105,-8.11768 9.3994,-4.27248 3.95117,-2.88379 -0.74705,-11.74899 -4.48631,-5.44777 3.20412,-13.77834 1.06832,-6.51562 -12.60348,-26.48873 2.56346,-7.26319 5.3408,-15.70166 5.87401,-15.487315 9.61329,-8.651833 11.10838,-27.129906 -2.77734,1.60206 -1.28127,-2.242669 0.10647,-3.097669 -0.32028,-2.776877 -2.56351,-2.136678 -0.53416,-2.776878 -3.31149,-1.60206 -0.96094,-0.106982 -3.20412,-1.495095 -0.1075,-2.136269 -1.60153,-1.068365 -0.74803,1.388695 -3.20412,-1.922852 -1.17482,-1.60206 -0.96094,0.854487 -5.76857,-2.563461 -1.28127,1.495609 -1.38864,-2.350095 -2.34964,0.641121 h -3.09761 l -2.99124,-0.854487 -0.74704,-2.029303 -0.10749,-2.45706 -5.12698,-2.883791 -3.84473,0.106982 0.10647,-2.563512 -3.31055,-2.456547 -3.3115,-0.9614 -2.45607,-1.174817 -0.6416,-5.020008 -1.81542,-0.854487 -1.60252,0.960939 -2.13576,-3.952155 -6.94334,-5.980947 -2.34963,0.427243 -2.34964,-2.7773382 1.3887,-1.8159383 0.53416,-1.4950957 -1.70898,-0.7475734 -2.56346,-3.0976687 -6.0888,-0.96140021 z m -95.0615,213.08786524 7.47655,3.63136 3.52544,4.27244 3.95117,3.95215 3.52539,3.95216 5.12692,2.56346 1.92285,4.69921 3.09668,2.99071 2.88478,-1.38818 1.92186,2.24272 -1.17482,1.81588 -4.69921,0.96145 1.60158,5.02001 -1.3887,4.27244 8.54591,10.46731 4.16505,-0.10647 2.56346,1.60206 -0.53416,3.41795 1.70897,2.0293 3.41795,2.56346 -0.21388,2.13627 -7.58299,-2.45655 -2.0293,-1.28178 -2.99117,0.96145 -3.41799,-9.93361 -5.12693,-7.37011 -1.60158,4.48632 -2.6709,0.10646 -0.74704,-4.91304 1.17481,-2.88379 -0.32033,-2.77734 -3.63182,-5.02006 3.84473,-1.92234 2.77733,-1.17527 -3.73827,-3.63137 -4.05861,-4.48631 -5.12697,-2.24272 -0.42771,-3.63183 -4.27248,-5.66061 -8.33104,-5.02052 0.85447,-2.24267 z"
   inkscape:connector-curvature="0"
   style="fill:#efe5c5;stroke:#000000;stroke-width:0.29999325;stroke-linecap:square" /><path
   inkscape:label="#_x32_482"
   id="vasterbotten"
   d="m 363.45278,291.10233 -6.62212,14.7402 -1.70898,1.92239 -5.9814,3.63188 -21.36233,14.73969 18.58499,14.63329 -9.61235,27.98445 3.418,16.66259 2.66991,-0.9615 1.49515,3.20412 -1.17482,0.85449 1.60253,3.31103 6.7285,4.48637 1.06836,2.45654 4.05861,4.59277 2.24313,8.43795 2.45706,3.73879 3.31051,0.96099 3.20511,4.37935 v 5.76758 l -1.3887,3.20412 1.3887,3.31155 -1.06837,1.81537 1.38865,2.99124 5.34085,-6.9424 2.99024,0.10647 0.42671,-3.84478 3.73927,0.53321 5.87402,-0.42671 0.74803,-2.45706 3.09767,-0.10647 0.64061,-5.76799 2.77734,-3.73828 5.12697,-0.9615 2.34964,-4.69915 2.34958,-6.30225 2.56351,-8.8652 0.85449,-7.69048 3.84473,-5.23343 4.48631,-6.19523 6.83594,-5.76758 3.84572,-7.37016 -0.21387,-2.77687 -2.77734,0.42724 -1.81543,-6.40865 -3.20412,-3.31155 -3.95215,-0.53364 -2.45701,-4.05912 1.60252,-2.24272 -0.21388,-6.62248 -6.30174,-0.42724 -2.13674,-4.37945 3.95215,0.64117 4.05861,-5.76809 -1.3877,-4.05861 3.95116,-1.70898 4.0596,-9.29244 -6.7295,-3.52496 -0.85448,-2.99071 -18.15821,-1.92239 -30.01364,-12.17677 z"
   inkscape:connector-curvature="0"
   style="fill:#e9ddaf;stroke:#000000;stroke-width:0.29999325;stroke-linecap:square" /><path
   id="uppland"
   d="m 288.89907,670.81524 -1.60252,14.41894 -1.70902,5.02042 -2.02926,7.90431 -3.84478,3.31061 -7.69038,-1.28133 -1.60257,1.92291 0.74803,1.70897 -3.31149,3.20412 -2.99024,0.10647 0.6406,6.51567 -1.60252,0.64056 1.17482,5.44725 -1.17482,2.45706 3.95216,3.20412 0.4277,3.73828 -0.85448,1.81641 2.24219,3.09762 -1.28127,3.31061 -2.13668,2.99111 2.03024,3.84478 3.09668,4.59277 1.60257,8.43846 2.77734,2.77635 2.77635,-1.70897 2.45701,-0.64066 4.59276,2.0293 5.02052,4.37998 3.5244,0.10647 -0.21382,-4.16603 -2.8838,-5.98047 0.42771,-0.74799 1.28127,-0.64066 0.21388,1.38865 0.4277,1.06737 1.17482,1.60257 1.28127,1.70898 1.38864,0.96099 0.74804,-0.10647 0.53321,-0.85449 0.53515,-1.17481 0.53322,-0.21383 0.10732,0.53416 0.10647,0.53415 -0.42671,1.28132 -0.53421,0.42766 -0.6416,0.53415 -0.10647,0.42684 0.21388,0.53415 1.49509,1.70898 0.32033,-0.10647 -0.21288,-0.53426 0.21288,-0.53416 0.53421,-0.10749 0.32028,0.42777 v 1.60257 l 0.21388,0.64056 h 0.64061 l 0.21387,-0.53416 -0.32033,-0.53415 -0.10646,-0.42672 0.53321,-0.74808 0.85449,0.10647 0.85449,0.6416 0.74803,0.42671 0.10647,0.74809 0.42777,0.53415 0.10647,1.2812 0.6416,0.32033 0.53322,0.1075 v 0.42671 l 0.4277,0.10647 0.42679,-0.64066 v -1.60153 l 0.32127,-1.38875 0.42678,-0.10732 0.4277,1.17482 0.64066,-0.42684 0.42672,0.42684 -0.21289,0.53415 -0.10732,0.21383 -0.10647,0.21383 -0.74809,2.56356 -0.10647,0.96089 0.21388,0.64066 0.42678,0.42777 0.42771,0.64056 1.3877,1.49515 1.06837,1.06831 1.60252,0.85449 0.32033,0.74808 0.42671,0.32033 0.74809,0.21383 0.74803,0.74704 0.42672,-0.10647 0.64066,-0.21382 0.21382,-0.85459 0.10647,-0.85449 0.1075,-0.32023 0.21387,0.10647 0.74705,0.85449 0.74803,0.32127 h 0.64066 l 1.06837,-0.21383 0.74704,-0.10749 0.74804,0.74808 0.64061,0.10647 0.5342,-0.32033 v -0.53415 l -0.5342,-0.85449 -1.17477,-0.85449 -1.49515,-1.81547 1.06837,-1.17472 0.21288,-0.96099 v -1.17576 l 0.21388,-0.42683 0.53416,-0.53416 -0.21388,-0.42671 1.28226,-0.96193 0.42678,-0.21383 0.21383,0.74799 0.10647,0.42777 h 0.53421 l 0.96188,-0.53416 0.21288,0.21289 v 0.42765 0.74809 l -0.32028,0.21289 -0.74709,-0.32033 -0.32028,0.53415 -0.10749,0.96099 v 0.85449 l 0.85448,0.21383 0.64061,0.10749 0.64165,0.32033 2.24313,-0.21382 0.96094,-0.32033 0.32033,-0.42778 -0.32033,-0.32033 h -0.96094 l -0.10749,-0.21382 0.42777,-0.32033 0.21289,-0.32033 -0.64066,-0.85449 -0.32028,-0.42671 -0.74803,0.10646 -0.42679,-0.10646 -0.21387,-0.32033 0.21387,-0.42778 0.74804,-0.10647 0.64061,0.32023 0.85454,-0.21383 0.42671,-0.42671 0.21388,-0.6416 -0.21388,-0.42683 -0.53416,-0.10733 -0.53322,-0.32033 0.32033,-0.42683 0.64061,-0.10749 0.32033,0.42777 0.32033,0.21393 0.53416,-0.21393 h 0.53416 l 0.21388,0.53416 0.64066,-0.10733 0.53415,0.10733 0.53416,-0.10733 0.74709,-1.3877 v -0.42778 l 0.21383,-0.32033 0.85454,-0.21382 0.64061,-0.64066 0.53415,-0.96099 0.32033,-0.21383 1.60253,-1.81642 0.74709,-0.10646 0.32127,-0.53426 1.28127,-0.96089 1.17482,-0.85449 0.85448,-0.53416 1.4951,-0.96099 2.13675,-3.73827 0.53415,-4.27244 4.59277,-2.56346 6.30179,0.42672 2.24313,-1.60258 -0.42771,-3.52435 -3.95215,-1.17481 -0.21289,-3.41795 h 2.88379 l 1.49515,-4.27254 -2.56351,-2.13568 -3.84473,-2.77739 -2.99117,-5.02042 -1.92285,-7.04889 -1.60158,-1.17575 0.53421,-5.12692 -3.31155,-3.09668 -0.32028,4.05861 -1.17482,2.56346 -2.56351,-0.74809 -3.9521,-0.85449 -0.32033,-4.37893 h 2.45607 l 1.06831,-2.13663 -1.60153,-3.09772 -3.31155,-2.66986 3.31155,-0.32033 0.53322,-2.56346 -2.7764,-0.85449 -2.88379,-4.69927 -1.60253,-6.94333 -1.38864,0.74798 -0.10647,3.41795 1.70898,6.83599 -1.3887,1.70898 -3.84572,-1.06832 -6.83589,-5.875 -4.2715,-5.55376 -0.53421,-5.12692 -3.20506,-2.13581 -4.59276,2.13581 -2.13576,3.73828 -2.99123,0.64056 -2.13576,-5.55364 v -4.27243 h -9.93346 z m 64.62009,76.90329 -2.34963,1.38864 -1.81543,3.20506 -2.0293,1.81548 0.74709,0.64056 3.3115,-2.56346 1.92285,0.32033 0.21289,-2.02931 2.24318,-0.21382 v -1.60153 l -2.24315,-0.96195 z m -9.93262,7.79783 -0.6416,0.42671 -0.32033,0.42777 -1.81543,1.06832 -0.21382,0.74714 -0.53421,0.64056 -0.32033,0.32033 v 0.53416 l -0.32028,0.42777 v 0.21383 l 0.64061,0.10647 0.32033,0.10646 -0.21289,0.64171 -0.42777,0.64055 -0.53416,-0.21382 -0.10647,-0.53416 -0.4277,-0.10647 -0.53322,0.21393 -0.21388,0.74704 0.32033,0.21383 0.21388,0.32033 -0.10749,0.85449 0.10749,0.53416 0.64061,0.42683 0.21388,0.53416 v 0.96193 0.53415 l 0.64061,-0.10749 0.42678,-0.74705 0.10749,-0.96193 0.10647,-0.42671 h 0.53416 l 0.32033,-0.32033 v -1.06842 l -0.32033,-0.96193 0.21388,-0.64055 0.32028,-0.32033 0.5342,0.10647 0.64061,-0.32033 0.32033,-0.85449 0.64061,-1.06737 0.32132,-0.53416 0.64061,-0.1075 v -0.42671 l -0.4277,-0.21383 -0.10647,-0.85448 h -0.53421 v -0.32033 l 0.32033,-0.42684 -0.42682,-0.21384 z m 9.71974,8.65135 -0.74804,0.32033 -0.53416,0.64066 -0.32033,0.53416 v 0.53415 l 0.21388,0.74809 -0.10749,0.53416 -0.42678,0.64055 -0.10647,0.64066 0.32033,0.21383 0.64061,-0.42765 0.10646,-0.42684 0.21388,-0.42765 0.64061,-0.53322 0.53421,-0.6416 0.10732,-0.85448 0.42679,-0.10647 0.32033,-0.32033 v -0.64056 l -0.21289,-0.42777 h -0.53421 -0.53417 z m -22.96487,1.17482 -0.32028,0.42777 -0.10647,0.53416 -0.21387,0.74704 0.53415,0.42777 0.7471,-0.85448 0.96193,-0.21393 -0.10647,-0.32033 -0.64165,-0.21383 -0.42672,-0.53416 h -0.42775 z m -28.62498,0.21384 -0.53416,0.32033 -0.10647,0.21383 0.21289,0.42683 0.10749,0.85449 1.06832,2.24313 0.32033,1.28226 0.74709,1.70897 1.06832,1.60153 0.74803,1.28226 h 0.64066 l 0.32033,0.32033 0.53416,0.85449 1.17481,0.32033 0.74804,-0.21393 0.32033,-0.64056 -0.1075,-0.64066 -0.42678,-0.42777 0.10647,-0.53416 v -1.17481 l -0.21289,-0.96089 -0.4277,-0.74809 -0.10647,-0.42671 -1.17482,-1.17482 -0.21387,0.21289 0.10646,0.53415 -0.32027,0.21383 -0.42679,-0.21383 -0.5342,-0.96088 0.10646,-0.53426 0.42778,-0.21383 h 0.42678 l 0.21383,-0.21289 -0.85449,-0.85448 -0.74803,-0.32127 -0.53416,0.32127 -0.64066,-0.42778 -0.85449,-0.96088 -0.53416,-0.32033 -0.64066,-0.74809 z m 53.40525,0.85449 -0.42671,0.32033 -0.10749,0.64066 -0.53421,0.32033 0.32132,0.53415 -0.10749,1.49609 0.21387,0.42671 h 0.74705 l 0.21388,-0.42671 -0.21388,-1.38864 0.74803,-1.17482 -0.10647,-0.53416 -0.74801,-0.21394 z m -18.90524,0.64064 -0.42771,0.32033 -0.42678,-0.10647 -0.32033,0.21393 0.10647,0.32033 0.21388,0.42671 0.53415,0.21383 0.21289,0.42777 0.21388,0.74705 v 0.64066 l -0.21388,0.74798 -0.10647,0.64066 0.10647,0.32033 0.21388,0.42778 0.21388,0.32033 v 0.74798 l -0.32033,2.0293 v 0.64066 l 0.53415,0.32033 h 0.53421 l 1.38771,0.85449 0.85448,-0.21393 2.03025,-0.42671 0.96093,-0.21383 0.53421,-0.64066 0.21388,-0.85449 0.10647,-0.74808 -0.42777,-0.74705 -0.85449,-0.42777 -1.17482,-0.42671 -0.85448,0.21288 -0.32033,-0.53321 0.85453,-0.21383 0.85449,-0.1075 0.42771,0.1075 0.42678,-0.1075 0.4277,-0.32033 v -0.53415 l -0.32033,-0.42672 h -0.53415 l -0.74804,0.42672 -2.66991,-1.70898 -0.6416,-1.92186 -0.21289,-0.21393 -0.85454,-0.10646 -0.53412,-0.1075 z m -35.78222,0.53416 -0.7471,0.21393 -0.53415,0.21382 -0.6416,0.53322 0.10749,0.85449 0.21383,0.74798 0.21388,0.53426 0.42678,0.21383 0.32028,-0.1075 h 0.42777 l 0.64061,1.60258 0.42678,0.42671 0.6416,-0.10647 0.10647,0.64056 -0.21388,0.53415 0.53421,0.21393 0.21383,1.17482 -0.10647,0.53416 v 0.64066 l 0.32033,0.42765 0.64066,0.32033 1.49509,0.74704 1.70898,1.38875 1.49514,-0.10647 0.53416,0.10647 0.32033,0.32023 1.17576,0.32033 1.06737,-0.53322 0.21388,-0.21383 -0.21388,-0.53415 -1.2812,-0.64066 0.10647,-0.32033 -0.53421,-0.1075 -0.96094,0.42778 -0.53415,-0.1075 -1.06837,-0.42671 -1.38869,-0.85449 -0.85449,-0.64066 -1.06737,-0.21383 -0.85449,-2.99123 -1.81642,-5.23342 h -0.53422 z m -3.52445,0.7481 -0.85449,0.32033 -0.10647,0.64056 0.10647,0.42777 v 0.53322 l -0.10647,0.42777 0.10647,0.32023 0.7471,0.74809 0.32127,0.64066 -0.1075,0.64055 0.42777,0.85449 0.64061,0.64066 0.53421,0.10749 0.32028,-0.53415 -0.21383,-0.85449 0.10733,-0.53416 0.21388,-0.42683 v -0.6416 l -0.42771,-0.42671 -0.53421,-1.60258 -0.53415,-0.64066 -0.10647,-0.53415 -0.53423,-0.10647 z m 25.10062,1.49515 -0.32033,0.21382 v 0.32033 l 0.10647,0.32033 0.5342,0.21383 0.32028,0.42671 v 0.53416 l 0.1075,0.42777 0.64066,0.96099 0.85448,0.32033 h 0.96094 l 0.6416,-0.32033 0.53322,-0.32033 0.21383,-0.53415 -0.21383,-0.32033 -0.10647,-0.21393 0.21383,-0.21383 0.64066,-0.10647 0.32028,-0.10647 -0.10647,-0.42777 -0.64061,-0.21383 -0.53416,0.32033 -0.42777,-0.10647 -1.17482,-0.21382 -1.06831,-0.53416 -0.85454,-0.32033 -0.64061,-0.1063 z m 22.53709,0.21382 -1.2812,0.53416 1.17476,1.92186 0.32033,1.06842 v 0.85448 l -0.10749,1.38865 0.32132,0.21383 0.42671,-0.21383 0.96099,-0.64066 0.6416,-0.53416 0.21289,-0.74808 v -1.06832 l -0.10647,-0.85449 -0.42678,-0.85448 -1.06837,-0.74705 -0.4277,0.42672 -0.64066,-0.74705 z m 9.18556,1.17482 -0.32033,0.10647 -0.42678,0.53416 -0.21383,0.53426 -0.21388,1.06831 -0.10646,1.06737 -0.32033,0.42778 1.3877,0.10647 0.32127,-0.32033 -0.42771,-0.64056 -0.10647,-0.42777 0.42679,-0.96089 v -0.53426 l 0.53415,-0.32033 -0.10647,-0.42672 -0.4277,-0.21382 z m -23.81834,0.74704 -1.70903,0.1075 -0.10732,0.64066 -0.42678,0.21383 -0.96094,0.53415 -0.1075,1.92186 0.1075,0.53416 v 0.32033 l 0.53322,0.32127 0.96187,0.10647 0.85454,-0.42777 0.53416,-0.53322 0.21289,-0.53416 0.10749,-1.28226 1.06737,0.21393 0.53416,0.21383 0.74804,-0.1075 0.42678,0.21393 -0.32033,0.53416 -0.64061,0.42671 -0.21388,0.32127 0.32132,1.17482 -0.32132,0.32033 -0.32033,0.32033 0.53421,0.32033 1.38864,0.10647 0.74804,1.17482 0.74709,0.32127 0.42771,1.17481 1.06737,0.64066 0.85449,0.10647 0.53421,1.17472 1.70897,0.42777 0.42771,-0.32033 0.5342,-0.53416 0.64061,-0.32033 v -0.85448 l 1.06837,-0.32033 0.42678,-0.53416 0.64061,-0.21383 0.74803,-0.21393 -0.10647,-0.42671 1.92186,-2.34963 -0.21288,-0.42766 -2.77734,0.85449 -2.88379,0.42765 v 0.42684 l 0.53421,0.42765 -0.21388,0.42683 h -0.32033 l -1.28219,-0.53415 -0.42679,-0.53426 -0.85448,-0.64056 -1.06837,-0.32033 -1.17476,0.32033 -0.42778,-0.42683 0.21388,-0.74799 0.74804,-1.17481 0.10647,-0.32033 -0.32033,-0.32033 0.5342,-0.32033 v -0.53416 l -1.28226,-1.17482 -0.85349,-0.32127 -1.49609,0.21383 -0.53421,-0.21383 -0.85448,0.1075 -0.74696,-0.1075 z m -18.79887,1.17576 -0.85448,0.10647 -0.21383,0.42671 -0.32033,0.74809 0.10647,0.53416 1.06836,1.2812 0.53416,0.85448 0.64066,0.1075 0.6416,-0.53416 0.10647,-0.85448 0.10647,-0.32033 0.32028,-0.21383 -0.10647,-0.53426 h -0.42671 l -0.42778,-0.32023 -0.53415,-0.96099 -0.64068,-0.32031 z m 38.13184,2.88379 -0.53416,0.21289 -1.06836,0.85449 -0.53416,0.42777 -0.32033,0.96099 v 0.74798 h 0.42678 l 0.6416,-0.21382 0.64061,0.32033 0.53421,-0.53426 0.21383,-1.06738 0.85354,-0.96193 -0.85356,-0.74706 z m -3.09762,6.62207 -0.42777,0.53416 -0.32033,0.53426 -0.85449,1.60153 -0.10647,0.53415 0.64066,-0.53415 0.64061,-0.42672 0.85449,-0.32033 0.64066,-0.21393 0.53415,-0.32022 0.21388,-0.74809 h -0.53419 l -1.06831,0.53416 0.21382,-0.96089 -0.42671,-0.21393 z"
   inkscape:connector-curvature="0"
   style="fill:#ffdd55;stroke:#000000;stroke-width:0.29999325;stroke-linecap:square"
   inkscape:label="#_x30_115" /><path
   id="sodermanland"
   d="m 277.47036,762.88651 -1.81641,0.53311 -0.64061,2.77739 -4.59282,-2.0293 -2.13575,0.96099 -3.3115,0.32127 -3.95215,1.2812 -3.63183,-0.74798 -3.95116,0.85448 -7.58399,0.53416 -0.21387,2.24313 1.92285,1.49515 -0.42771,1.9228 -5.01953,1.17482 -3.41794,-0.53416 -2.24318,-0.85449 -2.8838,2.56346 -2.88379,3.41795 5.76759,0.42777 2.88379,2.13581 7.69043,-2.56356 1.70897,0.21393 -1.49509,2.56346 -3.31155,1.38864 -4.37889,0.42671 -2.77733,1.17586 -4.48632,1.60153 -0.32033,2.88379 -1.92186,1.9228 -2.77734,-0.32022 0.10647,2.34953 -3.84473,0.53426 -2.13674,3.52435 -0.85449,3.52539 1.06836,1.70897 4.48632,1.81548 2.13575,-4.59277 2.02931,1.06832 0.74803,2.0293 3.95216,2.66996 3.9521,1.81642 1.81548,3.52445 2.88379,3.20402 2.45701,0.64066 1.06737,1.60257 4.80664,9.39936 2.0498,0.91603 1.20799,2.66213 5.5176,1.37697 4.29001,0.7168 2.74317,0.30958 2.88379,0.32023 3.41795,0.32033 4.48537,-1.60153 -0.10647,-1.70898 -3.41794,-0.96193 1.81636,-0.96089 2.34964,0.32023 2.56346,1.70898 1.70902,-2.8838 -2.0293,-1.9228 -2.99124,-2.66996 2.77734,-1.06831 2.02931,2.13568 2.13575,-0.10646 4.16599,0.96088 1.70897,-2.0292 2.66996,0.53416 0.53416,-3.52445 1.17482,0.21382 0.74803,0.21289 2.13576,-0.32023 -1.17482,-1.28132 0.6416,-5.02052 2.77734,2.24324 1.28127,-0.96099 -0.96094,-2.13675 2.0293,-2.13569 0.64061,-3.09772 0.85449,0.21393 0.74803,0.32033 0.42678,-0.42777 0.32033,-1.49515 -0.10646,-2.45696 -0.32033,-3.84478 -0.1075,-0.96193 -0.64061,-0.42671 -0.53415,0.42671 -0.21289,1.38865 -0.1075,1.06841 -0.6406,1.49515 -0.42778,0.32023 -0.32033,-1.06738 -0.10647,-3.20506 0.74809,-1.2812 -0.10749,-0.42683 -0.53421,-0.42765 v -0.64066 l 0.32033,-0.32033 1.06836,-0.85449 -0.21388,-0.32033 0.32133,-0.53416 0.32027,0.10647 0.42679,-0.10647 0.21387,-0.32033 v -0.85448 l -0.21387,-1.17576 -0.74705,-1.28132 -0.10749,-0.64056 0.4277,-0.42777 0.32033,0.32033 0.21388,0.6416 0.21289,0.85448 0.32028,0.42672 0.42777,2.24323 -0.42777,1.38865 v 1.06831 l 0.10749,1.28132 0.64066,0.10647 1.17477,-0.42672 0.10749,-0.96099 -0.32127,-1.49608 0.21383,-0.53416 1.49514,-0.96099 -0.10646,0.74809 0.32033,1.06737 -0.53421,0.32127 -0.32033,0.96099 0.21388,0.85449 -0.42771,0.64066 -0.53322,0.96088 v 0.85449 l 0.53322,1.17576 0.42771,2.34963 -0.32033,0.85449 -0.10733,0.64066 0.53416,0.64066 -0.10647,2.99123 -0.21388,0.53416 0.32033,0.74704 0.96193,0.96193 0.96094,1.92186 0.96094,2.03025 -0.10647,1.28132 -0.53416,0.85448 -0.74709,0.96089 v 0.85449 l 2.56351,-0.85449 0.96094,-3.84466 0.64061,-0.64066 0.64066,-2.0293 0.85448,-1.06832 0.96188,-0.64066 0.42679,-1.81641 -0.42679,-2.56346 0.64066,-1.92291 0.10647,-0.74704 0.21388,-0.85449 0.32028,0.42672 0.21388,0.74808 0.32033,-0.10647 0.21382,-0.32137 -0.10732,-0.64056 -0.42678,-2.0293 0.10647,-0.42683 0.53415,0.10647 0.1075,0.64066 0.42678,0.21382 0.32028,-0.42777 v -0.64066 l 0.32033,-0.74704 0.6416,-0.32127 0.96094,-0.10647 0.53421,-0.21393 0.21382,-0.74705 0.32033,-0.53415 1.06738,-0.32033 0.21388,-0.42778 1.92285,-0.74704 0.64061,-0.53416 0.21387,-0.42777 -0.32033,-0.32033 0.32033,-0.64056 0.53416,-0.32033 0.85449,-0.10749 0.42678,0.32127 0.10749,0.32033 -0.42777,0.42671 h -0.42671 l -0.42778,0.32033 -0.21382,0.53416 0.32127,0.32033 -0.1075,0.32033 -0.42671,0.21382 -0.6416,0.64066 v 0.42778 l 0.10732,0.42671 0.53421,-0.21289 0.53416,-0.6416 0.96094,-0.53321 2.0293,-0.74799 0.64061,-0.64066 -0.10647,-0.53415 -1.9228,0.21382 0.64061,-1.17575 1.17482,-0.53322 0.53415,-0.32127 0.6416,0.1075 h 0.32033 l 0.96094,-1.06842 0.42771,0.10647 0.10646,0.32127 h 0.42679 l 0.5342,-0.32127 0.53416,-0.32033 0.85449,-2.02931 -0.32033,-0.21382 -0.64061,0.21382 -0.64061,0.21383 -1.28226,-0.53416 -0.53416,-0.53415 0.32028,-0.96099 0.85449,-0.53416 0.32033,-0.42765 -0.74704,-1.38771 -0.64066,-0.10749 -0.6416,-0.21393 -0.74705,-0.85449 -2.13674,-1.49504 -0.96094,-0.10647 -0.32033,-0.32033 -0.10733,-0.21383 0.21383,-0.32033 h 0.64066 l 1.49609,0.32033 0.74704,0.21383 0.42777,-0.21383 -0.10749,-0.53415 -0.64061,-0.21393 -0.96094,-0.21289 -0.21388,-0.53416 -0.32033,-0.74798 -0.64061,-0.21393 -0.85448,0.10749 h -1.49609 l -0.32033,-0.42777 -0.10647,-1.2812 v -0.96193 h -0.32033 l -0.74803,0.42777 -1.4951,0.74799 -0.85454,0.21288 -0.74803,-0.10647 -0.96094,-0.10646 -0.74804,-0.32127 -0.85448,0.21393 -0.96094,0.32022 h -0.85449 l -0.32033,0.32033 -0.96193,0.21393 -0.85448,0.42766 -0.74705,0.32033 -0.64066,0.53415 -0.96188,0.53322 -0.21288,0.85449 0.32027,0.42777 v 2.24313 l -0.32027,0.64066 -0.32133,-0.64066 -0.32027,-0.85449 -0.7471,-0.42777 h -1.49609 l -0.96093,0.21393 -0.85449,-0.32033 -0.85449,0.74809 -0.85449,-0.85459 -0.42678,-0.85449 -0.96193,-0.53416 -1.17481,-0.32033 v 0.53322 l -0.85449,0.10749 -0.42678,-0.32033 -0.74804,0.32033 -0.21382,0.74705 0.21382,0.42777 0.32033,0.32033 0.10647,0.53416 0.32127,1.70897 0.53322,1.49515 -0.10647,0.53415 -0.64061,-0.10646 -0.32033,-0.6416 -0.74803,-1.70908 -0.53416,-1.60153 -0.42678,-0.64066 h -0.96193 l -3.20412,-1.70897 -1.17477,-1.38865 h -0.53421 l -0.96094,-0.74798 -0.4277,-0.10647 -0.32033,-0.53416 -0.64061,0.21383 0.10647,0.64066 0.4277,0.42671 -0.10749,2.02931 0.21388,0.53415 1.38864,2.24324 0.21388,0.64055 -1.38864,-0.64055 -0.96193,-0.42684 h -1.17482 l -1.17482,0.42684 -0.74803,-1.28132 -1.17482,-2.88379 2.13675,-1.60248 -0.42771,-2.45705 -1.17482,-0.32033 2.02931,-2.66987 -1.81548,-3.9522 -5.44725,-1.2812 -1.06836,1.70897 1.38869,4.80565 -2.99123,0.21383 -1.60153,-5.12692 1.17476,-2.77729 -2.3495,-1.38762 z m 59.707,27.8769 -0.10647,0.10749 -2.0293,2.45602 -1.70898,0.74809 -0.10749,0.32033 0.32132,0.10647 v 0.32127 l -1.06837,1.49514 0.10647,0.32033 0.53416,-0.10749 0.10647,0.32127 -0.21289,0.21288 -0.32127,0.42778 -0.32033,0.42671 0.1075,0.96193 0.85448,0.42683 0.96094,-0.32033 0.21388,0.64056 h 0.53416 l 0.42678,-0.64056 0.21388,-2.88379 1.06831,-1.06841 v -1.06738 l 0.96099,-0.85448 0.32028,-0.74799 -0.8545,-1.6026 z m -12.17576,7.26367 -1.1758,0.64066 h -1.28127 l -0.42771,0.21382 -0.32033,0.53416 v 0.10647 l 0.1075,0.64066 -0.1075,0.53416 -0.85448,0.85448 -0.10647,0.32033 0.10647,0.96193 -0.21289,0.53312 0.21289,0.10749 0.6416,-0.21383 0.32033,-0.32033 0.32033,-0.85448 0.42671,-0.21383 0.32033,0.32033 0.10749,0.6416 0.42679,0.32023 0.74803,-0.21383 0.42671,-0.42777 -0.53316,-0.96089 -0.1075,-0.64066 0.42771,-0.32033 0.42678,0.21289 0.32033,-0.32033 -0.10647,-0.64056 0.32028,-0.64066 0.64066,-0.10749 0.53416,-0.32033 0.21388,-0.42672 h -0.53416 l -1.28125,-0.32033 z m 7.68945,3.63083 -0.53322,0.32137 -0.42771,0.64056 -1.28126,0.85449 -0.74804,-0.21383 -2.45701,1.49515 -0.42678,0.32033 -1.17482,0.96182 -0.96193,0.85459 0.1075,0.64056 0.32033,-0.10647 0.64061,-0.32033 0.64066,-0.6416 0.21382,0.32033 v 0.6416 l 1.17482,0.10647 0.4277,-0.32033 0.42679,-0.42765 0.5342,-0.32033 0.74804,0.21382 1.2812,-0.74798 -0.42671,-0.53322 -0.64066,-0.42777 0.32033,-0.53416 2.13575,-1.28132 0.32033,-0.32022 v -0.85449 l -0.21389,-0.32139 z"
   inkscape:connector-curvature="0"
   style="fill:#ffeeaa;stroke:#000000;stroke-width:0.29999325;stroke-linecap:square"
   inkscape:label="#polygon83" /><path
   id="vastmanland"
   d="m 264.86684,707.13061 -5.98146,0.42777 -2.02931,0.85449 -0.10732,2.45602 -3.63183,2.45706 -1.70902,3.09761 -7.36911,0.74705 -1.49609,-0.74705 0.6416,-3.20412 -2.56346,-1.60247 -2.13675,-0.32033 -1.28127,-3.20412 -2.13667,-0.6416 -2.8838,2.45706 -4.48636,-1.06841 -0.96094,2.56346 -1.60252,1.06841 0.1075,2.66986 -2.13675,4.16604 1.81642,2.56346 -1.2822,5.76758 -2.66996,-1.06831 -3.20506,-0.21289 -1.92186,4.27243 -3.20412,3.63084 -2.99124,-5.44725 -4.27243,-4.9131 -3.63183,-2.77728 -2.24318,-3.52446 -1.92186,0.32033 -6.83594,-4.69926 -2.13675,0.21288 -2.99024,1.92291 1.06836,7.37005 -12.17674,-2.02931 0.85448,3.73828 -4.80664,1.70898 1.28226,2.88379 2.13576,0.96099 -0.64066,6.08885 0.74709,4.37894 -2.24219,1.38864 2.13576,4.05861 -0.74804,2.77739 1.38865,6.40812 0.10749,4.70021 6.9424,1.92186 2.77734,2.13674 -1.06837,4.69927 2.24313,4.37988 2.02931,-1.60258 5.98146,0.42778 2.34963,-2.88379 0.16013,-4.70021 2.69724,-0.50683 1.04104,3.71095 2.96384,-1.94919 4.7002,2.45696 5.42092,0.24021 5.33981,0.32033 1.54886,1.86919 2.90136,-0.3174 2.7861,7.1533 1.3086,0.1865 1.49514,2.64358 2.35058,-1.17482 2.88379,-3.41795 2.88379,-2.56346 2.24318,0.85449 3.41795,0.53416 5.01953,-1.17482 0.4277,-1.9228 -1.92285,-1.49515 0.21388,-2.24313 -5.76758,0.53416 -1.17482,-3.41795 4.69927,0.10749 2.66991,-1.60257 3.41795,1.60257 4.80664,-1.17585 1.60252,-2.13569 2.56351,-2.66997 -1.38869,-2.35057 2.77734,-1.3877 2.88379,2.0293 2.34963,3.20412 3.20407,-1.38864 1.06837,-1.81548 3.41799,0.32033 -1.60257,-8.43847 -3.09762,-4.59276 -2.0293,-3.84478 2.13668,-2.99112 1.28127,-3.3106 -2.24313,-3.09762 0.85448,-1.81642 -0.42678,-3.73828 -3.95215,-3.20412 1.17481,-2.45706 -1.17481,-5.44725 1.60252,-0.64055 -0.6416,-6.51567 h 9.7e-4 z"
   inkscape:connector-curvature="0"
   style="fill:#fff6d5;stroke:#000000;stroke-width:0.29999325;stroke-linecap:square"
   inkscape:label="#_x31_980" /><path
   inkscape:label="#_x32_303"
   id="jamtland"
   d="m 179.41762,315.77574 -4.05861,5.34074 -19.6533,36.84965 8.43847,6.30173 5.5537,1.9228 1.49515,1.92239 0.10732,4.91361 0.64066,16.34176 -7.3701,14.63329 -8.7588,-3.09762 -14.63283,-3.52486 -3.5244,-0.85449 -10.89455,3.20453 -7.69043,5.8745 -11.21579,16.7691 -2.45605,2.88379 -1.06837,4.37988 -5.340832,5.66107 1.816422,9.07819 -9.292959,15.59469 7.156241,22.11038 -4.486312,6.9424 20.2949,-4.80669 15.16699,0.85448 0.0526,-0.0537 9.87991,1.60257 3.41794,1.17482 0.85454,7.79689 12.55074,11.21577 0.10647,-0.0537 0.21388,0.37404 0.16013,0.10647 1.92285,2.88473 -0.6416,3.73828 3.9521,0.90726 v 0.0537 l 0.26761,0.0526 0.0528,0.42778 h 0.0537 l 1.1211,8.81148 5.3408,8.22464 5.87501,7.26367 4.16504,-0.21383 3.73828,1.70898 9.13279,-9.66702 -0.85449,-4.0586 h 2.02931 l -1.17482,-5.98141 -0.10749,-4.69927 4.48636,-0.85449 v -0.21382 l 0.0537,0.21382 5.87402,0.74705 2.24318,2.45706 4.27243,-2.9903 12.39064,-1.70897 13.45802,-6.62301 5.98146,1.38865 4.48532,-1.9228 4.27248,1.28214 0.96193,-5.34075 2.66992,-3.73828 6.72949,-8.8653 12.70996,-1.9228 -15.06059,-18.05083 -17.08884,-15.27342 0.21288,-4.91404 -2.77634,-1.49514 -2.56346,1.06841 -0.42778,-5.55469 v -0.0528 l 0.64066,-3.6855 v -0.0528 l -6.83594,-8.70509 v -0.0537 l 2.88473,-1.06831 3.84478,2.29684 -0.58792,-11.8559 -1.70898,-2.9375 2.08302,-2.40284 -0.26662,-17.08984 -19.77539,-29.63678 4.95023,-5.39738 -4.1338,-3.52445 v -2.02982 l -2.13675,0.64117 -0.85448,-2.24323 -2.45602,-1.60206 2.34958,-1.60206 -3.31149,-5.23384 -6.30179,-2.9907 -0.42672,-4.69978 -2.6709,-3.84519 -2.88379,-0.21332 -2.56351,-3.31154 0.21388,-2.99071 -2.34959,-2.77687 -1.49514,-2.24313 -1.81642,-0.64066 -9.61229,-8.65189 v -4.1e-4 z m -14.84666,143.01995 5.87496,1.81548 4.80664,2.0293 3.63089,3.20507 2.45701,-0.74809 3.95215,2.45706 -4.27248,-0.53416 -0.53416,2.13569 2.34958,2.0293 1.81548,0.85449 -2.13576,1.06842 -2.66996,0.96088 0.42678,4.70021 0.96094,5.60747 v 0.0537 h -0.0526 l 1.17482,8.43743 -1.70897,6.19533 -2.24319,-1.38864 -2.0293,-6.08791 2.34963,-0.53416 0.1075,-5.55469 -1.81642,-6.1944 h 0.0537 l -0.74803,-3.84572 -3.41795,-2.77729 -4.27248,-1.60153 -2.77635,-2.6709 3.63088,-0.10647 -4.91309,-9.50584 0,0 z"
   inkscape:connector-curvature="0"
   style="fill:#e9ddaf;stroke:#000000;stroke-width:0.29999325;stroke-linecap:square" /><path
   id="dalarna"
   d="m 99.309257,540.39919 -7.690433,42.19039 9.719736,13.03029 5.55469,-0.21289 9.82616,17.41017 -1.70897,8.97171 -2.02931,4.7002 -3.31054,2.45602 -1.17481,7.58398 0.85448,3.95211 17.41014,19.97363 0.96094,5.44735 2.13575,0.10647 1.49609,4.91309 4.80664,8.8652 2.13576,6.40918 2.77734,2.13581 4.80664,0.53416 5.76758,11.96291 4.59276,6.51557 18.26466,13.35156 12.17675,2.02931 -1.06837,-7.37006 2.99024,-1.9229 2.13675,-0.21289 6.83595,4.69927 1.92186,-0.32033 2.24318,3.52445 3.63182,2.77729 4.27244,4.91309 2.99123,5.44725 3.20412,-3.63083 1.92186,-4.27243 3.20506,0.21288 2.66997,1.06832 1.28219,-5.76758 -1.81642,-2.56347 2.13675,-4.16603 -0.10749,-2.66986 1.60252,-1.06842 0.96094,-2.56346 4.48636,1.06842 2.88379,-2.45706 2.13668,0.6416 1.28127,3.20412 2.13674,0.32033 2.56346,1.60247 -0.6416,3.20412 1.49609,0.74705 7.36911,-0.74705 1.70903,-3.09762 3.63182,-2.45706 0.10733,-2.45601 2.0293,-0.85449 5.98146,-0.42777 -3.3115,-2.88379 -0.42777,-4.37894 -1.60153,-0.85449 -0.42777,-2.99123 -2.24219,-1.81538 -4.70014,-1.28226 -4.05861,-8.01071 -0.96193,-2.34963 -1.70897,-0.53416 -3.418,-6.72855 3.73927,-1.17482 3.09667,-4.80659 -0.74704,-2.6709 2.77734,-2.13581 0.96094,-3.84572 -6.30179,-7.04878 -3.84565,-9.71969 -8.01077,-0.85449 -6.7285,-3.84572 -2.99123,-5.66118 -0.96094,-7.26273 -16.02148,-23.07124 -7.35352,-16.8174 -5.88477,-9.15622 -3.18455,-4.07915 -3.5244,-1.93741 -6.3555,9.47947 -1.14843,12.79102 -3.31056,3.41795 -2.13668,-2.13675 -5.87401,-1.70897 -8.22464,-0.42671 -3.41795,-1.38875 -10.46777,-1.9228 -1.81543,1.28226 -2.13675,-2.99124 0.42778,-3.52445 -3.418,-7.26272 -7.3701,-8.97265 -1.60153,-7.37005 -4.27249,-4.80669 -3.41795,-4.9131 -5.12697,-6.94239 -6.62302,0.32033 -11.428783,-3.73826 z m 83.099593,103.39258 3.20407,4.70021 h 2.24319 l 6.19434,6.30174 2.88473,-1.81642 2.13576,-1.92186 3.20412,2.24313 -2.45607,2.77635 -2.99117,1.17482 -0.64066,6.08885 -2.24313,-5.66108 -6.72949,3.3105 -2.34963,-3.84466 -3.95211,-5.23342 2.99117,0.10647 1.81542,-0.96089 -1.9228,-2.02931 -2.88379,-0.32126 -0.42678,-2.9903 1.92283,-1.9228 z"
   inkscape:connector-curvature="0"
   style="fill:#ffe680;stroke:#000000;stroke-width:0.29999325;stroke-linecap:square"
   inkscape:label="#_x32_031" /><path
   id="gastrikland"
   d="m 280.67447,638.8787 -9.82619,1.2812 -3.84572,0.42777 -6.08791,0.58787 -5.44725,-1.33597 -7.26367,0.10749 -6.51562,3.95221 3.84565,9.71968 6.30179,7.04878 -0.96094,3.84572 -2.77733,2.13581 0.74704,2.67091 -3.09668,4.80659 -3.73927,1.17481 3.418,6.72856 1.70898,0.53415 0.96193,2.34964 4.0586,8.01071 4.70014,1.28226 2.24219,1.81537 0.42778,2.99124 1.60153,0.85448 0.42777,4.37894 3.31149,2.88379 2.99025,-0.10647 3.31149,-3.20412 -0.74803,-1.70897 1.60257,-1.9229 7.69038,1.28132 3.84478,-3.31061 3.73828,-12.92475 1.60252,-14.41893 -5.3408,-2.88379 4.91305,-4.70021 -4.27244,-4.16509 1.17482,-4.05861 -4.37894,-7.79783 2.24318,-3.9521 -2.99123,-2.34963 0.42781,-2.02934 z"
   inkscape:connector-curvature="0"
   style="fill:#decd87;stroke:#000000;stroke-width:0.29999325;stroke-linecap:square"
   inkscape:label="#_x32_101" /><path
   id="narke"
   d="m 202.8092,765.34253 -2.88379,2.0293 -1.06832,-3.84478 -2.77639,0.64066 -0.10733,4.70021 -2.34963,2.88379 -5.98146,-0.42778 -2.0293,1.60258 2.0293,3.52445 -9.61323,1.9228 -12.17581,23.49808 7.52933,-2.34963 2.19041,15.7549 6.40819,3.04391 0.53421,3.9521 1.49509,3.52445 3.95216,-2.45706 2.457,-5.55363 2.66997,-1.70897 v 4.16593 l 1.38864,-0.42766 0.21388,2.77729 -1.70897,3.52445 3.73827,-2.13569 0.85449,-2.99123 1.60153,-3.09772 1.92285,-2.45602 2.24319,-0.10749 2.457,-2.99018 3.73828,2.24313 2.0293,-0.96193 1.28127,2.24314 0.85449,-3.63084 3.41795,0.10647 1.81641,-2.77739 -1.49608,-2.66986 4.16603,-4.59287 -1.06836,-1.70897 0.85448,-3.52539 2.13675,-3.52435 3.84473,-0.53426 -0.10647,-2.34953 -4.70021,-0.53426 -2.13575,-3.09762 1.60153,-2.45602 -3.20407,-4.16603 -5.4473,1.9228 -5.76758,-2.35057 -0.10647,-2.02931 5.66019,0.21393 5.23436,-1.70897 7.20994,0.69427 -2.81834,-7.19722 -2.91602,0.36423 -1.58302,-1.87211 -10.78711,-0.53416 -4.70018,-2.56346 z"
   inkscape:connector-curvature="0"
   style="fill:#ffe680;stroke:#000000;stroke-width:0.29999325;stroke-linecap:square"
   inkscape:label="#_x31_861" /><path
   id="varmland"
   d="m 101.12566,636.52906 -9.827149,2.13581 3.631825,10.25384 -0.426782,3.52539 1.815443,8.2236 4.272473,7.69048 -0.32033,3.84572 3.31055,6.51557 -0.10647,8.65137 -4.699231,6.7295 1.067407,11.21483 -1.601564,4.16509 -2.670904,7.26367 -2.776382,2.0293 -1.388677,3.52445 -5.126956,2.24313 -2.670903,2.88379 -4.165043,0.53416 -3.311529,-1.38864 -4.592765,4.16603 2.457043,5.02042 0.106469,4.80565 -2.457043,2.6709 -1.281268,2.77645 -4.592765,0.85449 -2.136712,3.9521 1.496086,7.90432 0.854487,8.33104 1.281269,3.41794 -0.320296,8.54498 10.467755,3.63177 h 7.476572 l 3.204086,1.38875 4.592781,3.63083 4.486313,1.06831 2.777338,-4.69914 2.883792,1.49504 2.13575,2.0293 v 6.62207 l 5.23437,-1.81537 0.21289,3.20412 3.63186,-0.64066 1.06834,3.20412 2.13572,0.10647 0.96193,7.79782 4.27249,2.56357 1.92186,-1.70898 -1.06737,-12.17685 -2.0303,-8.11709 -2.34958,-6.08895 2.24313,-2.24313 v -5.87397 l 1.28226,1.9228 1.4951,1.70897 2.56351,-0.32033 -1.06837,-2.35057 1.28219,-1.70897 3.84473,-0.53416 2.24319,2.77729 2.56346,5.66118 3.09766,-2.9903 1.17482,-3.73921 3.63183,-1.60153 2.0293,3.41794 2.77635,-2.45706 2.88478,2.45706 2.45602,1.60153 3.418,-0.10646 1.28219,7.2626 -2.77734,5.4483 -2.45701,4.69926 -0.10647,4.37884 1.38865,0.53426 1.81547,-3.09772 2.99117,-2.24219 2.13575,1.81548 -1.38864,3.52445 6.08885,3.41794 12.17581,-23.49808 9.61323,-1.9228 -2.0293,-3.52445 -2.24313,-4.37988 1.06836,-4.69926 -2.77734,-2.13675 -6.9424,-1.92186 -0.10749,-4.70021 -1.38864,-6.40812 0.74803,-2.77739 -2.13576,-4.05861 2.2422,-1.38864 -0.7471,-4.37894 0.64066,-6.08885 -2.13576,-0.96099 -1.28226,-2.88379 4.80665,-1.70897 -0.85449,-3.73828 -18.26466,-13.35156 -4.59276,-6.51557 -5.76758,-11.96292 -4.80664,-0.53415 -2.77734,-2.13581 -2.13576,-6.40918 -4.80664,-8.8652 -1.49609,-4.91309 -2.13575,-0.10647 -0.96094,-5.44736 -17.41014,-19.97363 -0.85448,-3.9521 -2.3506,0.74704 -5.01942,-0.74701 z"
   inkscape:connector-curvature="0"
   style="fill:#ffeeaa;stroke:#000000;stroke-width:0.29999325;stroke-linecap:square"
   inkscape:label="#_x31_782" /><path
   id="vastergotland"
   d="m 159.76432,798.45389 -4.80664,2.88379 0.74803,3.8456 -0.85448,4.37894 -1.70898,3.73828 -2.45706,2.45706 -2.13575,-1.49515 -6.94235,-1.38864 -0.85449,2.56346 2.34959,2.45602 0.42678,2.99123 1.81642,-1.28226 2.99024,-1.06737 1.49509,0.85448 -1.17481,1.92197 -3.84473,3.20506 -2.77734,0.74704 h -3.73828 l -3.5244,2.13675 -4.0596,1.2812 -3.73827,2.56346 -1.17482,4.05861 -0.85449,3.63187 -2.0293,1.38865 -3.20407,-0.53416 -1.60252,-1.28132 2.45701,-7.37005 1.60153,-5.02052 -1.70898,-1.49515 -2.77634,-0.64056 -4.59279,7.15623 -2.77733,2.77728 0.10646,1.49515 -2.56346,4.05861 -5.01953,0.74798 -3.097647,3.63094 0.106469,1.81642 -2.990243,1.17481 0.960939,-4.7002 -2.456051,-0.32033 -3.63186,5.34074 -2.3496,-0.53415 -1.496086,1.06841 -3.791034,-0.9082 -7.209938,0.69427 -1.709008,3.20412 0.747078,3.31155 1.068365,0.85449 0.213861,1.06831 2.563495,1.49515 -2.883791,3.52445 0.106469,1.38864 -0.213878,2.56346 -0.320296,10.46777 -1.388677,0.74705 -1.067374,2.99123 0.212887,1.06832 -0.533217,0.85459 -1.496087,1.81537 -3.204121,6.40824 0.106469,2.13675 v 1.06831 h 0.05366 l -3.097651,4.9131 -1.068365,1.1211 -1.067374,-1.1211 -1.282226,0.26661 -0.480461,1.86909 -0.748035,0.26766 -0.747077,0.69427 0.213861,0.42683 1.97559,-0.42683 0.640626,0.42683 1.228513,-0.48054 h 0.9082 l -3.097652,1.76268 -0.320296,0.64066 v 0.64066 l 1.174783,3.52539 0.534191,0.10647 0.747078,-1.28214 0.320296,0.74799 -0.212887,3.52445 -0.267574,1.12204 v 0.69437 l 2.777339,0.10647 0.960938,1.06842 4.379895,-0.74809 2.88379,-0.96088 3.417948,-2.02931 2.349634,2.99018 -0.748069,2.99123 0.641617,1.38864 0.320296,1.60164 -0.42774,1.81631 0.320331,0.96099 1.175773,0.42671 0.5332,0.74809 0.534191,2.66996 -0.960939,5.34075 1.388678,1.81548 2.563461,7.31738 4.539068,-0.96193 2.883791,1.76269 7.476554,-5.23343 6.99611,8.8653 5.12696,3.20402 2.13671,-2.77729 0.96094,-3.84478 1.28226,-1.70897 1.9228,0.74704 1.06743,-4.37883 3.31149,-0.74809 0.74705,-1.49514 1.92285,-0.42672 v -1.9228 l 2.45706,-1.28226 1.06831,-2.77635 5.12697,-7.69048 1.92186,-1.38864 0.74804,-2.13675 -0.32028,-3.63083 0.21383,-1.70898 2.0293,-0.96193 0.64066,-2.13569 -1.17482,-3.09772 0.21383,-2.24313 1.49515,-2.24313 0.10647,-6.30184 3.63182,0.74809 1.17482,-2.6709 2.77734,1.17575 1.92186,3.31061 1.49608,0.32023 -0.10732,-3.73828 1.81637,-1.2812 1.60158,0.74704 1.49608,-1.49514 0.32033,-5.76759 1.81543,-3.09761 1.60252,-5.34085 0.96094,-6.30174 0.32033,-3.20412 1.49515,-3.20412 1.28219,-5.76852 2.99024,-3.63084 2.02931,-4.48636 2.35057,-5.23332 1.70897,-0.96193 1.81548,-4.69927 0.32028,-3.09762 0.21388,-3.41805 1.92285,-1.81537 3.41795,-1.60258 2.13575,-2.56346 -1.49509,-3.52445 -0.53421,-3.9521 -1.70898,-2.34964 -6.83594,-16.44917 -7.58398,2.34963 -6.0879,-3.41793 0,0 z"
   inkscape:connector-curvature="0"
   style="fill:#aaeeff;stroke:#000000;stroke-width:0.29999325;stroke-linecap:square"
   inkscape:label="#_x31_447" /><path
   id="dalsland"
   d="m 77.413732,782.64621 -10.467755,-3.63177 -2.669929,2.0293 -0.534191,6.62207 0.747078,1.49608 -3.097652,4.59277 -1.601565,3.9521 -0.106469,2.66997 -1.282226,3.31154 2.136713,2.66986 -0.107494,2.13581 -0.747044,1.70898 0.5332,1.17575 2.457043,0.53322 0.640608,3.41795 1.709008,1.38864 -0.213878,2.34963 3.525408,2.24324 -0.854521,4.80659 -2.883791,2.13675 -0.107323,5.9814 2.670903,1.60153 -1.602521,0.96193 0.854487,2.66997 0.960938,2.0293 1.708974,-0.96099 4.486347,1.92186 2.65137,2.91122 0.554681,2.05267 7.225592,-0.65526 2.773426,-5.71875 3.333985,-2.01167 2.687515,-3.20026 1.921861,-3.41795 2.457042,-2.99017 2.029304,-1.81642 -0.748035,-1.3877 -4.272468,-0.42777 -1.815443,-2.24314 -0.106469,-4.59276 2.990242,-4.59276 3.525391,-5.34085 0.854521,-5.98141 1.601565,-2.45612 3.73828,-6.40918 v -6.62207 l -2.13576,-2.02931 -2.883789,-1.49504 -2.777339,4.69915 -4.486312,-1.06832 -4.592781,-3.63083 -3.204087,-1.38875 h -7.47664 z"
   inkscape:connector-curvature="0"
   style="fill:#d5f6ff;stroke:#000000;stroke-width:0.29999325;stroke-linecap:square"
   inkscape:label="#_x31_492" /><path
   id="bohuslan"
   d="m 45.79753,787.13257 -1.602521,0.96089 -1.068365,0.53426 -1.708017,0.32023 -3.739269,5.98151 -0.106469,3.52445 0.32033,0.96183 1.068348,1.60163 v 0.74798 l -0.534157,0.21393 -0.960955,-0.42777 -0.213861,0.32033 -0.106469,1.17482 1.387703,4.16593 0.213861,1.81547 -0.640626,6.94334 2.883791,5.33991 1.815443,7.04972 -1.815443,2.45706 1.815443,7.69039 0.107323,1.17481 0.212887,1.06738 -0.320296,0.96193 -0.854521,0.53415 -0.5332,-0.10732 -0.213861,-1.17482 -0.854521,0.21383 -0.320295,1.06831 v 1.38875 l 0.106469,1.06737 0.213861,0.96193 -1.174783,1.38865 0.212887,0.74704 h 1.388678 l 1.495112,-0.85449 0.321287,-0.85448 0.640609,0.10749 0.426782,0.74705 0.961896,0.42777 1.281269,-1.17482 -0.106469,2.45602 1.281269,-0.32033 -0.426782,1.70897 -0.427739,1.38875 0.748069,0.53416 0.960939,0.21382 -0.320331,1.38771 -0.747043,0.74808 0.106469,0.53416 1.708974,-0.21393 0.960938,-0.85449 1.068365,-1.49504 0.960939,-0.74809 v 2.13675 l -0.640626,0.96089 -1.068348,1.17481 -1.067407,0.74809 -1.282226,0.21383 -0.640609,0.96099 -1.174817,1.9228 0.320296,0.42683 h 1.815443 l 2.029303,-0.42683 1.496087,-0.6416 1.067374,-1.2812 0.748035,-1.49515 1.282226,-0.21383 1.067408,-0.74808 1.068347,-1.17482 1.068365,-1.81537 1.601565,0.10646 0.427739,-0.85448 -0.748069,-0.96089 1.602556,-0.10647 1.815425,0.64066 h 2.563495 l -1.709008,1.9228 -0.320296,0.96099 1.282226,2.13569 0.747078,1.70897 v 1.81642 h 1.282226 l -0.107494,1.28132 -1.067374,1.06831 -0.854487,0.32033 0.212887,1.81548 -0.212887,2.03024 -0.748035,1.2812 -0.854487,1.17482 -0.748069,0.96193 0.107495,1.70898 0.212887,1.81547 -0.106469,1.70898 -0.640626,1.9228 -2.136713,2.24219 -0.32033,0.85448 v 1.06842 l 0.534191,0.85449 -1.495113,2.6709 -0.427739,1.49504 -0.5332,1.06842 -0.854486,1.06737 -0.321288,1.06832 0.534191,0.85449 0.854487,0.85448 0.320296,0.64066 0.213878,1.70898 0.427739,0.32033 1.281235,-0.21289 h 0.854487 l -0.534157,2.50975 -1.495113,0.42683 -1.495113,0.6416 -0.854521,1.17482 v 0.74704 l 0.213879,0.53416 0.640625,1.17481 0.747044,0.21383 h 0.534191 l 0.534191,-0.21383 0.213861,-1.06737 0.640626,-0.21393 0.640626,0.32033 0.6416,1.28226 h 0.05264 l 0.480495,-1.12204 0.694322,-0.21393 0.481452,-1.86909 1.281235,-0.26662 1.068365,1.12111 1.068348,-1.12111 3.043955,-4.80659 0.05264,-0.10647 v -0.0537 l -0.160131,-3.20412 3.257816,-6.35545 1.496087,-1.81537 0.533217,-0.85459 -0.212887,-1.06832 1.067374,-2.99123 1.388678,-0.74704 0.320296,-10.46778 0.213878,-2.56346 -0.106469,-1.38864 2.88379,-3.52445 -2.563495,-1.49515 -0.213861,-1.06831 -1.068365,-0.85449 -0.747077,-3.31155 1.709008,-3.20412 -0.640626,-2.13568 -2.670904,-2.88379 -4.486347,-1.92291 -1.708973,0.96099 -0.960939,-2.0293 -0.854487,-2.66996 1.602522,-0.96193 -2.670904,-1.60153 0.107324,-5.98141 2.88379,-2.13675 0.854521,-4.80659 -3.525407,-2.24219 0.213878,-2.35068 -1.709008,-1.38864 -0.640609,-3.41701 -2.457043,-0.53416 -0.5332,-1.17481 0.747044,-1.70898 0.107495,-2.13674 -2.136713,-2.66986 -6.087911,2.56346 -2.029304,-1.49609 -0.213861,-1.92186 0.854487,-7.4776 -3.417982,-7.68944 -1.708939,-0.53414 0,0 z m 13.885754,66.22263 -0.854521,0.10647 -1.388678,0.74798 -0.213861,1.17482 0.106469,1.17482 -0.320296,0.85449 h -0.534191 l -1.067374,-0.21383 -0.854521,0.21383 -0.961896,1.06831 -0.854487,1.06737 -1.174816,0.6416 -0.854487,0.53322 -1.281269,0.42777 -0.6416,0.53416 -0.854487,0.53416 -1.067374,-0.10733 -1.068365,-0.32033 -1.174816,1.49505 -0.854487,1.9229 0.534191,-0.21383 0.640626,-0.96099 0.854486,0.21383 0.213861,0.85449 0.747078,0.85448 0.854487,1.17482 0.640626,1.06842 -0.320296,0.96088 -0.640626,0.96099 -0.426748,0.42778 0.640609,0.64056 0.854521,-0.74705 0.426748,0.64066 0.6416,0.32033 0.854487,-0.21393 0.854521,-0.96089 0.747044,-1.17481 0.32033,-1.17482 0.6416,-0.85449 1.387703,-0.85448 0.961896,0.53321 1.174817,0.85449 0.748035,0.6416 -0.213861,1.06737 0.960939,0.21383 0.854487,-1.17482 0.854487,-0.53415 0.427739,-0.10647 1.174816,-0.1075 1.495113,-0.10646 0.426748,-1.38865 0.213861,-2.0293 -0.106469,-1.60258 0.32033,-1.2812 0.534191,-1.38864 -0.32033,-1.06842 -0.748035,-0.96088 -0.748035,-0.74809 -0.747078,-0.64056 -0.320296,-1.38874 V 853.568 l -1.495146,-0.2129 z m 0.426747,15.0596 -0.106469,1.06831 -0.213861,1.06842 0.426748,-0.10647 0.534191,-0.74798 0.107324,-0.85459 -0.748035,-0.42766 z m -0.854486,0.32127 -0.640626,1.2812 0.854486,0.10647 -0.21386,-1.38771 z m -3.524417,0.42671 -0.427739,0.32033 -0.854487,2.02931 -0.534191,0.53415 -0.854487,0.21393 -2.349599,-0.42777 -0.640626,0.21383 -0.534191,0.42777 -0.534191,1.06737 v 0.74809 l 0.32033,0.64056 0.748035,0.21392 1.708973,-0.10646 0.10647,0.64066 -0.10647,0.53415 -1.174782,0.10647 -0.427739,0.21383 -0.213861,0.74704 0.107323,1.06842 0.213861,0.53416 0.32033,0.21382 0.747078,0.42672 v 1.49619 l 0.213861,0.64055 h 1.388678 l 0.426748,-0.74798 0.427739,-0.85449 0.534191,-0.42683 0.960939,-0.32033 0.640626,-0.42765 v -0.53416 l 0.427739,-0.96099 0.320295,-1.38865 0.854487,0.10647 0.106469,0.96193 h 0.641617 l 0.640609,-0.53415 0.426782,-1.17482 0.107324,-1.9228 -0.107324,-1.38875 -0.747078,-0.85448 -1.282226,0.85448 -0.747077,-0.42671 0.534191,-0.85449 0.212886,-0.85448 -0.854486,-0.6416 -0.747095,-0.10647 z m -1.388678,14.95321 -1.708974,0.32127 -1.495112,2.02931 1.281234,0.96089 3.097669,-1.49515 0.640609,-1.70898 -1.815426,-0.10732 z m -2.563477,8.54487 -1.174783,3.95211 0.747078,0.32033 1.816382,-2.34964 -1.388677,-1.9228 z m 3.310555,2.99124 -0.747078,0.32033 -0.854487,0.64055 -0.107494,1.49515 -0.747044,-0.10647 -0.107494,0.74799 0.321287,0.32033 -0.107324,0.74704 -1.068365,-0.10647 0.107324,0.74798 2.029304,1.60164 0.426782,-0.32033 0.32127,-0.85449 v -1.38875 l 0.533217,-1.49504 0.534191,-0.96099 -0.534191,-1.38861 z"
   inkscape:connector-curvature="0"
   style="fill:#d7eef4;stroke:#000000;stroke-width:0.29999325;stroke-linecap:square"
   inkscape:label="#_x31_430" /><path
   id="gotland"
   d="m 341.76236,892.53298 2.34959,-0.85459 2.03029,-0.64056 0.74704,-3.31248 1.92286,-1.70898 2.24412,-1.28132 2.88285,6.19534 1.81642,-5.34085 1.70897,-1.81538 5.98141,1.17482 2.13575,-1.81548 0.7471,-3.20412 3.09861,-2.03024 3.52346,1.17576 2.35057,-0.32127 0.74803,1.70897 -1.17575,1.38969 -3.09668,0.10544 -2.56351,0.96193 -0.96188,1.17482 0.85449,2.03024 -1.49515,3.20412 -2.66991,1.70898 -1.38964,0.95994 0.21383,2.99124 -2.66892,0.10749 -0.21388,4.9131 -3.20412,0.21382 -2.24412,-1.49514 -0.31934,4.27243 -1.28219,5.66024 1.49509,0.96193 -0.42678,4.80565 -1.28219,2.45696 1.92285,3.73828 2.77734,1.92186 2.66892,0.6416 -1.2812,3.41805 -3.31056,1.17575 -2.6709,0.85449 -2.8828,4.69927 0.10545,2.45602 1.8174,1.17575 -1.49613,2.88285 -4.80665,1.81642 -0.6416,1.70897 -5.98141,4.70021 1.70898,0.85449 -4.37795,3.41795 0.21388,5.12692 2.34958,0.96005 -2.99116,4.37987 -4.69927,3.31051 -2.88473,-0.21383 2.34958,-5.55375 0.32132,-3.31051 2.77734,-1.81641 1.06837,-2.34964 -0.5352,-1.81547 -2.66992,2.24219 -0.96193,-0.53322 0.53515,-4.69915 -1.9228,-1.38969 -1.28127,-1.17377 v -6.08994 l -2.35062,-0.74611 0.53322,-3.09856 2.13674,-2.56356 0.53515,-5.12692 -1.60351,-2.02836 -0.95995,-4.16698 -0.96292,-3.84466 0.6416,-3.09668 3.31155,-4.16697 2.34958,-1.06737 2.77734,-4.05965 2.99123,-5.98141 1.28127,-5.01854 2.24221,-1.92285 z"
   inkscape:connector-curvature="0"
   style="fill:#80e5ff;stroke:#000000;stroke-width:0.29999325;stroke-linecap:square"
   inkscape:label="#_x30_980" /><path
   id="smaland"
   d="m 250.76722,863.28777 -2.77734,2.77739 -4.48532,-1.17481 -2.65039,10.52733 -3.97173,-0.58006 -0.6416,4.15133 3.418,5.02052 -1.92285,1.49515 2.03024,7.04982 -2.03024,0.21383 -4.16504,3.84466 -2.24318,-1.60153 -3.09762,1.60153 -0.64066,-2.56346 -4.59277,-1.49504 -3.73827,0.85448 0.42678,2.34954 -2.34964,2.13674 -0.85448,2.77635 -2.56346,-0.42671 -1.17482,1.60257 -0.53416,3.63083 -5.55375,-1.28132 -6.08885,0.64066 -1.70898,-4.0586 -1.49514,-5.34075 0.53421,-1.9229 -2.99124,-3.63084 -0.85449,-3.09762 1.38865,-3.31154 1.49609,-1.81548 -0.96188,-2.56346 -1.81548,-6.8359 -2.02925,-1.06841 -1.60258,3.20412 -5.87495,1.17482 -0.32033,-2.45602 -5.98146,0.96089 -2.77635,-1.17482 -2.99123,4.80669 -0.85449,3.31155 -4.16504,2.66986 -2.99117,5.23342 -0.85448,3.73828 -0.42679,4.59277 -2.13674,0.21382 -1.28127,0.96193 -1.17477,-0.85448 0.42672,-3.20506 -0.64061,-3.31051 -1.17482,-1.06841 -1.49609,1.49514 -1.60158,-0.74704 -1.81636,1.2812 0.10732,3.73828 -1.4951,-0.32023 -1.92285,-3.31061 -2.77734,-1.17575 -1.17481,2.6709 -3.63183,-0.74809 -0.10647,6.30184 -1.49514,2.24313 -0.21383,2.24313 1.17482,3.09772 -0.64066,2.13569 -2.02931,0.96193 -0.21382,1.70898 0.32027,3.63083 -0.74803,2.13675 -1.92186,1.38864 -5.12697,7.69048 -1.06832,2.77635 -2.45706,1.28226 v 1.9228 l -1.92186,0.42672 -0.74803,1.49514 -3.3115,0.74809 -1.06742,4.37883 -1.9228,-0.74704 -1.28226,1.70897 -0.96094,3.84479 -2.13576,2.77728 -2.13671,1.60258 0.10647,2.56346 1.60252,5.12598 8.54495,13.03123 -1.92285,1.81642 0.85449,5.98046 v 6.30278 l 1.92285,2.45602 1.17482,3.95211 0.53415,2.24323 1.17482,1.2812 1.17482,4.48636 -1.28127,3.31144 0.96094,1.4952 -0.74804,1.7089 1.70898,1.709 3.52539,0.2139 5.66113,-1.2822 3.73827,-1.6016 3.52446,0.1065 2.66991,-1.3886 h 3.84572 l 1.70897,-2.77742 0.42678,-2.13569 1.70898,-0.1075 1.38864,2.03025 4.48631,1.38766 0.74809,-0.96085 7.04878,2.02935 4.70021,1.9228 3.20412,0.5341 3.09767,4.0586 1.81542,0.8545 4.05861,0.7481 3.41795,1.4951 1.70897,-1.4951 2.13675,-4.3799 2.34958,-1.709 h 4.70021 l 0.32033,1.709 h 2.56346 l 0.42678,-2.0293 2.13675,-1.3886 1.92186,1.7089 1.81642,-2.0293 2.66991,-0.9609 3.73828,1.3886 0.42777,-2.56347 3.20407,1.17487 1.06836,2.456 2.13576,-0.1065 0.74803,2.1367 0.96094,1.9219 2.34964,0.748 2.77734,5.3408 2.457,1.709 4.16505,-0.2138 1.92285,1.3886 2.77734,-1.3886 1.38864,-6.3018 1.60158,-5.3408 1.81642,-1.9229 1.06737,-3.63084 1.60252,-0.6416 -0.10646,-3.73828 0.53415,-2.34963 1.92191,-3.84466 3.20506,-0.74809 1.81543,-8.01071 1.81543,1.60153 1.38869,-1.60153 -1.17482,-2.0293 -1.60252,0.96099 1.28219,-7.15633 0.96094,-4.27243 -0.21288,-3.52445 1.49514,-4.27244 3.84473,-5.76758 -3.63182,-1.70897 -1.60159,-5.12692 1.49515,-3.09772 -0.74704,-3.84572 3.3105,-2.56347 -0.53415,-4.27243 2.99123,-0.10647 1.60153,-4.27254 1.38869,-4.7002 -0.96099,-2.88379 -3.84565,-4.59277 3.84565,-0.42671 1.49515,-1.38865 v -2.56346 l -2.77734,1.06832 -1.49514,-2.02931 1.17481,-3.09761 2.45706,-1.49609 -0.10749,-3.84478 -3.09668,-2.13675 -3.63182,-5.23342 2.77733,-4.16499 3.63084,0.74704 2.45701,2.0293 0.85453,-4.69914 -0.85453,-6.40918 -1.73531,-3.68467 2.58984,-1.70898 -3.2959,-3.34273 -0.68264,-2.47856 -9.5869,-6.83589 -4.91317,0.10646 z"
   inkscape:connector-curvature="0"
   style="fill:#d5f6ff;stroke:#000000;stroke-width:0.29999325;stroke-linecap:square"
   inkscape:label="#_x30_861" /><path
   id="oland"
   d="m 282.48989,931.54075 -1.70897,1.49515 -2.34964,3.41794 -0.32033,3.95211 -0.4277,2.56346 -1.70803,1.06737 0.53321,2.67101 -1.06737,4.0585 -1.92285,4.16604 -1.28219,3.3105 -1.70903,1.70908 -1.38765,3.84572 -1.28226,4.91299 h -2.56346 l -1.70898,1.49515 -1.49514,4.7002 -2.24318,4.59277 -2.66992,6.72855 -0.74803,4.16604 -2.24318,3.9521 -0.32028,3.20412 0.32028,8.11725 0.85453,0.4276 -0.21387,12.6036 0.85448,1.3886 -0.32033,4.0586 2.88379,-2.5634 1.3887,-4.4864 2.77734,-6.7284 -0.64066,-2.67 1.81547,-4.3799 1.2822,-4.91306 0.32033,-3.63188 2.24313,-2.34963 -0.32127,-1.70898 0.74803,-4.37883 3.20412,-11.75003 2.02931,-0.53322 1.17575,-2.88379 -0.10749,-2.45706 0.96193,-1.81538 0.10647,-5.44829 2.34963,-2.13569 -1.06836,-2.56346 1.70897,0.10647 1.49609,-5.44725 2.13575,-4.69915 1.06837,-1.06841 v -4.80659 l -0.64061,-1.81548 1.06737,-2.6709 2.13668,-1.17482 -0.74803,-3.09762 -1.2812,0.6416 -0.96195,-1.17483 z"
   inkscape:connector-curvature="0"
   style="fill:#aaeeff;stroke:#000000;stroke-width:0.29999325;stroke-linecap:square"
   inkscape:label="#_x30_885" /><path
   id="blekinge"
   d="m 214.98601,999.47235 -0.42777,2.56345 -3.73828,-1.3886 -2.66991,0.961 -1.81642,2.0293 -1.92186,-1.709 -2.13675,1.3886 -0.42678,2.0293 h -2.56346 l -0.32033,-1.7089 h -4.70021 l -2.34958,1.7089 -2.13674,4.3799 -1.70898,1.4952 -3.41795,-1.4952 -4.0586,-0.7481 -1.81543,-0.8545 -3.09767,-4.0586 -3.20412,-0.5341 -2.45701,4.3789 -2.56346,0.6416 -1.06836,4.0586 0.96193,2.7764 0.85448,2.5634 0.32028,3.5254 2.24319,0.961 2.56346,-0.4268 0.96093,2.0293 0.74809,9.0791 -1.70902,0.8545 -0.42771,2.2422 2.6709,2.2431 2.45607,1.2823 2.77734,0.2138 2.56346,-2.8847 -2.66991,-2.8838 -1.60257,-3.6309 -0.10647,-3.3115 2.34963,0.5342 1.81543,0.1064 3.31154,-0.4267 4.48632,-0.2139 3.09667,-0.1065 1.70898,-1.9229 1.60252,1.9229 2.99024,0.1065 3.95216,-0.6407 1.81641,-0.6405 0.96094,3.417 3.09767,-1.7081 1.06832,-2.0302 2.0293,2.2431 1.70902,-1.7089 2.88379,-1.0674 1.4951,1.0674 4.37894,-0.7471 2.24313,1.9219 -0.74705,2.3505 -2.77733,2.6699 2.0293,0.7481 3.41795,-2.0303 2.88379,2.5635 2.6709,-5.8741 1.92186,-1.2821 2.34964,-4.9131 1.81641,-6.9424 -2.77734,1.3887 -1.92285,-1.3887 -4.16504,0.2138 -2.45701,-1.7089 -2.77734,-5.3409 -2.34963,-0.748 -0.96094,-1.9218 -0.74803,-2.1368 -2.13576,0.1065 -1.06837,-2.456 -3.20406,-1.17491 z"
   inkscape:connector-curvature="0"
   style="fill:#d7eef4;stroke:#000000;stroke-width:0.29999325;stroke-linecap:square"
   inkscape:label="#_x31_081" /><path
   id="skane"
   d="m 154.10319,997.12178 -1.70897,0.10749 -0.42678,2.13569 -1.70898,2.77734 h -3.84572 l -2.66991,1.3887 -3.52445,-0.1065 -3.73828,1.6016 -5.66113,1.2822 -3.52539,-0.2139 -1.70897,-1.709 -1.60158,1.3887 -1.81642,-0.2139 -3.41696,2.0293 -2.6709,2.5635 -1.92285,1.9229 -2.13576,-1.8164 -7.04981,-1.1748 -1.92285,-0.5333 -2.0293,-0.748 0.32033,-5.4473 -2.562521,1.0684 -2.136713,-1.6025 -2.883791,-1.2823 -2.136712,0.8545 -2.242191,1.8164 0.212887,3.0977 2.350591,0.7471 2.135755,1.9228 0.960939,2.8837 2.136713,2.2433 1.174817,2.5634 -0.960956,2.3497 -1.708974,1.1747 -1.068365,-0.3202 -1.495113,-0.5343 h -1.282225 l -1.068348,-1.709 -3.417982,-2.0293 -3.951164,-2.6698 -2.030261,0.2138 1.816383,1.4951 1.388678,2.5635 0.534191,2.456 0.747078,4.9142 0.427739,1.3886 1.495112,1.709 1.708974,2.7763 2.135756,2.6709 1.708973,3.3105 0.748069,3.9522 2.3496,7.2637 3.097652,0.747 0.854489,2.9913 0.21388,4.0586 -0.5342,0.4267 -0.640621,0.8545 0.640621,1.1748 1.28127,-0.6407 0.53416,1.1749 -0.53416,0.8544 0.74804,0.3204 h 1.06835 l 1.60156,1.2822 0.74807,0.5342 0.53416,1.6015 v 0.6416 l -0.64061,1.6017 v 0.5341 0.8545 l -0.32033,0.961 -1.81642,0.4276 -1.38868,0.961 -2.349596,1.3887 -0.854487,0.8545 v 1.4951 l 0.213861,2.0303 0.854521,2.1358 0.534161,1.3886 0.42678,1.3887 -0.21388,1.8154 -0.640609,1.8164 -0.534191,0.9609 -1.067374,-0.2138 -1.282226,-0.5342 -0.426782,-1.7089 -0.213861,-0.5343 -2.3496,4.8067 2.669913,-0.961 0.854487,0.2139 0.640626,0.7471 h 0.748035 l 0.213878,-0.6407 0.640626,-0.3203 1.388678,-0.3203 1.60156,1.1748 2.13672,1.4951 h 1.06834 l 1.60157,-0.3203 4.16602,1.0684 2.24318,1.2812 1.06737,0.4278 1.49609,-0.2139 0.74704,0.8545 2.02931,-1.2822 1.81641,-0.1065 1.49515,-1.1748 1.49509,-0.5341 4.9131,0.2138 2.56346,-3.0976 h 2.35062 l 1.60154,-0.961 5.12697,0.4268 2.99123,-0.6406 1.81543,0.748 4.59276,3.5244 1.92285,-0.2138 3.95216,0.6406 0.85449,-1.4951 2.34958,-4.2725 3.31154,-3.5244 1.4951,-2.9912 -0.53416,-3.5245 -2.34963,-2.1366 -0.74804,-4.5928 -2.66991,-1.8155 -0.64066,-5.2334 0.53322,-5.4472 3.31155,-5.9814 1.9228,-0.962 1.49514,-3.5244 3.41795,-2.0293 1.70903,-3.2041 3.5244,-1.1758 0.4277,-2.2422 1.70902,-0.8545 -0.74808,-9.0791 -0.96094,-2.0293 -2.56346,0.4268 -2.24318,-0.961 -0.32028,-3.5254 -0.85449,-2.5634 -0.96193,-2.7764 1.06837,-4.0586 2.56346,-0.6416 2.45701,-4.3789 -4.70021,-1.9228 -7.04878,-2.02931 -0.74809,0.96091 -4.48631,-1.38773 -1.38863,-2.03018 z"
   inkscape:connector-curvature="0"
   style="fill:#aaeeff;stroke:#000000;stroke-width:0.29999325;stroke-linecap:square"
   inkscape:label="#_x31_256" /><path
   id="halland"
   d="m 78.908845,909.32399 -3.417948,2.0293 -2.88379,0.96089 -4.379895,0.74809 -0.960939,-1.06842 -2.777338,-0.10647 v 2.66986 l 0.107323,2.13675 -1.174782,3.09668 -0.42774,1.49608 0.213861,1.28132 1.388678,3.84572 0.640626,1.38865 1.068365,0.53321 0.747078,-0.42683 0.534157,-1.17471 1.068365,-3.84572 0.640626,-1.92186 0.854486,-0.85459 0.854487,0.53321 0.32033,1.70898 -0.106469,3.73932 -1.174817,2.88379 0.534191,0.74704 1.495113,-0.32033 0.640626,0.74809 0.320296,2.66986 0.213861,2.13675 -2.135722,1.06737 -0.213878,3.09772 2.563495,3.31144 2.029304,3.52445 0.320296,4.48637 1.282225,3.20402 1.921861,1.38874 1.174817,2.77729 v 2.13581 l -0.747078,2.45695 2.135756,2.66997 3.204086,1.28226 3.31153,2.66986 2.457042,2.24323 -0.213878,3.84466 1.388678,4.27244 1.388678,3.31154 1.709008,3.73828 2.456052,0.10647 2.457042,-1.49515 2.56346,1.49515 1.17482,4.05955 0.53419,3.52445 -0.32033,3.84466 -0.85449,2.35062 -1.49609,2.0293 -0.32033,5.4472 2.02931,0.7481 1.92285,0.5332 7.04981,1.1748 2.13575,1.8164 1.92285,-1.9229 2.67091,-2.5634 3.41695,-2.0293 1.81642,0.2138 1.60158,-1.3886 0.74804,-1.709 -0.96094,-1.4952 1.28127,-3.3114 -1.17482,-4.48637 -1.17482,-1.2812 -0.53415,-2.24323 -1.17482,-3.95211 -1.92285,-2.45601 v -6.30278 l -0.85449,-5.98047 1.92285,-1.81642 -8.54495,-13.03123 -1.60252,-5.12598 -0.10647,-2.56346 2.13671,-1.60258 -5.12695,-3.20401 -6.94336,-8.91902 -7.476553,5.28714 -3.097669,-1.81548 -4.378903,1.01471 -2.563461,-7.31739 -1.388677,-1.81547 0.960938,-5.34075 -0.534191,-2.66996 -0.533199,-0.74809 -1.175774,-0.42671 -0.32033,-0.96099 0.427739,-1.81632 -0.320296,-1.60163 -0.640626,-1.38865 0.747078,-2.99123 -2.349651,-2.99022 z"
   inkscape:connector-curvature="0"
   style="fill:#afdde9;stroke:#000000;stroke-width:0.29999325;stroke-linecap:square"
   inkscape:label="#_x31_315" /><path
   inkscape:label="#path8590"
   id="angermanland"
   d="m 225.24085,362.35581 -2.56346,1.38865 -2.85256,0.0347 -4.94433,5.35943 19.81347,29.69331 0.26661,17.08984 -2.08296,2.40335 1.70897,2.93699 0.58787,11.856 -3.84572,-2.2959 -2.88379,1.06737 6.83595,8.7588 -0.64061,3.73828 0.4277,5.55469 2.56346,-1.06841 2.7764,1.49514 -0.21388,4.9131 17.08984,15.27436 15.06054,18.05083 5.76758,7.37015 9.39941,10.25385 0.96193,2.66996 4.59276,5.98141 3.20412,1.17482 0.32028,3.73827 3.418,3.20506 3.63182,2.02931 2.02931,-6.08885 5.55469,-4.48532 -3.31155,-2.77739 2.56352,-2.24314 3.73827,-6.08791 -4.91309,0.42672 -0.53416,-2.77729 4.59277,0.96193 5.02047,-5.34085 -2.24313,-2.13569 1.81542,-1.60257 4.16598,2.99123 3.63188,-6.30278 1.70897,-5.55363 -5.98146,-0.85449 0.74705,-2.34963 2.99123,-0.21383 0.42678,-3.73828 3.52539,-7.37015 4.05861,0.10647 7.47656,-5.23332 3.09767,2.0293 2.66991,-3.52445 0.21388,-6.62207 3.9521,-1.06842 1.28127,-11.10832 3.84572,0.85448 3.09767,-1.49514 -2.45706,-4.9131 1.60257,-2.35057 4.27244,3.84572 3.41799,6.08791 2.77635,-2.13581 -1.28127,-4.16593 0.96094,-1.81548 -1.38864,-2.99123 1.06831,-1.81537 -1.38864,-3.31155 1.38864,-3.20412 v -5.76758 l -3.20407,-4.37935 -3.31154,-0.9615 -2.45602,-3.73828 -2.24318,-8.43796 -4.05861,-4.59276 -1.06831,-2.45706 -6.7295,-4.48585 -13.03029,5.98151 -13.35156,5.76758 -23.17869,9.93351 -15.7012,-2.45654 -14.52633,-2.77729 -4.27248,-4.59277 -18.15722,-20.29396 -5.9814,0.64066 -0.1075,-5.76758 -9.29201,-6.19533 -0.32028,-4.9131 -1.60263,-4.80664 0,0 z"
   inkscape:connector-curvature="0"
   style="fill:#decd87;stroke:#000000;stroke-width:0.29999325;stroke-linecap:square" /><path
   id="harjedalen"
   d="m 114.42351,484.00273 -20.61426,5.12692 1.227538,12.28325 v 0.0537 l -3.524416,10.46777 7.796885,28.46479 11.428713,3.73828 6.62302,-0.32033 5.12697,6.9424 3.41795,4.91309 4.27249,4.80669 1.60153,7.37005 7.3701,8.97171 3.418,7.26366 -0.42777,3.52446 2.13674,2.99123 1.81543,-1.28226 10.46777,1.9228 3.41795,1.38875 8.22464,0.42671 5.87401,1.70897 2.13668,2.13675 3.31056,-3.41795 1.17581,-12.71102 6.30173,-9.50586 3.5244,1.92291 0.53421,0.69437 -0.42777,-0.6417 2.24318,-8.54487 -0.21289,-6.24803 -1.22853,-10.36034 7.04884,-8.4922 -1.44142,-0.90726 -2.77734,-6.62207 -2.34958,-0.6416 -9.18558,9.66702 -3.73828,-1.70898 -4.16598,0.21289 -5.87501,-7.26273 -5.33981,-8.22464 -1.12209,-8.81149 -0.16013,-0.0537 -0.21289,-0.48044 -3.95215,-0.9082 0.64066,-3.73828 -1.92286,-2.88379 -0.48049,-0.42683 -12.54981,-11.21577 -0.85449,-7.79689 -3.41795,-1.17482 -9.88089,-1.60257 -15.27339,-1.01455 0,0 z"
   inkscape:connector-curvature="0"
   style="fill:#decd87;stroke:#000000;stroke-width:0.29999325;stroke-linecap:square"
   inkscape:label="#_x32_361" /><path
   id="medelpad"
   d="m 272.34339,488.5955 -12.7109,1.9228 -6.7285,8.8653 -2.67091,3.73827 -0.96094,5.34075 -4.27248,-1.28214 -4.48631,1.9228 -5.98146,-1.38864 -13.45802,6.62301 -12.38965,1.70897 -4.27243,2.99029 -2.24318,-2.45706 -5.87501,-0.74704 -4.48532,0.85449 0.10647,4.69927 1.17481,5.9814 h -2.0293 l 0.85449,4.05861 2.34958,0.6416 2.7676,6.61226 1.44825,0.93168 5.43358,5.27639 4.70703,0.65035 6.33694,-5.10158 7.19722,-0.50286 14.62015,3.24219 1.38865,1.60153 6.62206,-0.32033 10.1475,0.32033 10.46772,2.56346 4.16504,2.45706 2.34963,-0.42777 4.59277,1.28226 1.81641,-1.06842 3.5244,1.60258 3.31155,-0.53416 5.66113,1.49504 1.60153,-3.9521 3.20412,-0.85449 1.06837,-3.52445 -5.66113,-1.60247 -2.99025,-4.80669 0.64061,-2.99018 2.88379,-0.85448 -0.85448,-6.30174 -3.84473,-1.38875 -0.1075,-2.13568 3.20511,-1.28226 2.77635,5.66118 5.44725,1.17471 -0.85448,-3.84466 2.6709,-2.45706 -3.41795,-3.20412 -0.32033,-3.73828 -3.20412,-1.17575 -4.59375,-5.98047 -0.96094,-2.67091 -9.39941,-10.25384 -5.76756,-7.3702 0,0 z"
   inkscape:connector-curvature="0"
   style="fill:#efe5c5;stroke:#000000;stroke-width:0.29999325;stroke-linecap:square"
   inkscape:label="#_x32_262" /><path
   id="halsingland"
   d="m 198.48206,539.60332 -7.04977,8.49115 1.22853,10.36035 0.21382,6.24907 -2.24313,8.54497 8.97165,13.03019 7.37016,16.92972 16.02147,23.07125 0.96193,7.26367 2.99025,5.66024 6.72944,3.8456 8.01076,0.85449 6.51463,-3.95211 7.26372,-0.10647 5.44725,1.33494 6.08791,-0.58787 3.84565,-0.42684 9.82619,-1.28214 -1.17482,-11.42876 2.67091,-2.66986 1.28126,-5.02052 -4.69921,-5.44725 -0.6416,-4.05861 2.6709,-4.69927 -2.56346,-5.76852 2.24313,-4.16509 1.81543,-4.37988 1.60158,-3.84466 3.95215,1.60247 1.38865,2.88379 2.34963,0.85449 1.17576,-6.7295 -3.52539,-1.49504 -1.28127,-2.13675 0.10647,-4.69927 -2.66991,-2.88379 1.38869,-7.04972 2.77635,-4.80669 1.28219,-10.7881 -5.66113,-1.49505 -3.31149,0.53416 -3.5244,-1.60257 -1.81548,1.06841 -4.59277,-1.28132 -2.35057,0.42684 -4.16504,-2.45612 -10.46777,-2.56347 -10.14744,-0.32127 -6.62207,0.32127 -1.3887,-1.60257 -14.63278,-3.20402 -7.20999,0.53416 -6.30173,5.01948 -4.69922,-0.64056 -5.4473,-5.28712 0,0 z"
   inkscape:connector-curvature="0"
   style="fill:#e9ddaf;stroke:#000000;stroke-width:0.29999325;stroke-linecap:square"
   inkscape:label="#_x32_182" /><path
   style="fill:#aaeeff;stroke:#000000;stroke-width:0.29999325;stroke-linecap:square"
   inkscape:connector-curvature="0"
   d="m 228.23013,799.52222 -2.13575,4.59277 -4.48632,-1.81548 -4.16603,4.59287 1.49609,2.66986 -1.81642,2.77739 -3.41795,-0.10647 -0.85448,3.63083 -1.28127,-2.24313 -2.02931,0.96193 -3.73827,-2.24313 -2.45701,2.99018 -2.24319,0.10749 -1.92285,2.45602 -1.60153,3.09772 -0.85448,2.99123 -3.73828,2.13569 -0.53421,5.23436 -2.88379,3.41795 2.88379,2.34963 2.45607,0.53416 1.38864,1.28132 -2.56346,1.60247 -1.60153,3.95221 -2.56351,1.17482 -1.81642,-1.92291 -1.81542,0.74809 -0.10647,2.56346 -4.80664,3.95116 -0.6416,2.67091 -0.85449,2.66996 0.53416,1.70898 -1.06738,1.70897 -1.06831,5.34075 -2.34964,7.79688 2.77635,1.17482 5.98146,-0.96089 0.32033,2.45602 5.87496,-1.17482 1.60257,-3.20412 2.02925,1.06842 1.81548,6.83589 0.96188,2.56346 -1.49609,1.81548 -1.38864,3.31155 0.85448,3.09761 2.99124,3.63084 -0.53421,1.9229 1.49515,5.34075 1.70897,4.05861 6.08885,-0.64066 5.55376,1.28132 0.53415,-3.63084 1.17482,-1.60257 2.56346,0.42671 0.85449,-2.77635 2.34963,-2.13674 -0.42678,-2.34953 3.73828,-0.85449 4.59276,1.49504 0.64066,2.56346 3.09762,-1.60153 2.24318,1.60153 4.16504,-3.84466 2.03025,-0.21382 -2.03025,-7.04983 1.92285,-1.49514 -3.41799,-5.02052 0.6416,-4.165 3.95121,0.58693 2.6709,-10.52056 4.48533,1.17482 2.77733,-2.72368 2.8838,-0.10647 h 0.74803 0.0526 l 1.1758,-0.0537 9.66603,6.8359 3.84473,1.70897 2.03024,-5.23332 -2.24313,-3.41805 -3.63182,-2.56346 6.94239,-1.49505 1.49609,-3.73932 -3.20511,-2.45601 -3.95211,-0.32033 -1.06742,-2.67091 -3.84565,-1.17481 -1.3887,-2.02931 2.02931,0.21393 4.48631,0.85449 4.48631,-1.70908 2.99024,-4.91299 -3.20407,-3.20516 -4.80664,-3.73828 -5.87401,-2.66986 -6.19534,-0.42683 -0.85449,3.63083 -2.24313,-2.77635 -3.31055,1.38771 -1.38865,-0.64056 0.10647,-2.66997 1.60252,-1.49514 4.16504,0.64066 h 2.8838 l -1.03812,-2.71877 -2.16601,-0.91311 -4.80664,-9.39935 -1.06737,-1.60258 -2.45701,-0.64066 -2.88379,-3.20402 -1.81548,-3.52445 -3.9521,-1.81641 -3.95216,-2.66997 -0.74803,-2.0293 -2.02937,-1.06823 0,0 z"
   id="ostergotland"
   inkscape:label="#_x30_563" />






























</svg>